M48
; DRILL file {KiCad 9.0.1} date 2025-05-30T13:55:45+0900
; FORMAT={-:-/ absolute / inch / decimal}
; #@! TF.CreationDate,2025-05-30T13:55:45+09:00
; #@! TF.GenerationSoftware,Kicad,Pcbnew,9.0.1
; #@! TF.FileFunction,NonPlated,1,2,NPTH
FMAT,2
INCH
; #@! TA.AperFunction,NonPlated,NPTH,ComponentDrill
T1C0.0492
; #@! TA.AperFunction,NonPlated,NPTH,ComponentDrill
T2C0.0787
%
G90
G05
T1
X6.2047Y-3.1496
X6.5591Y-3.1496
T2
G00X2.9134Y-2.4547
M15
G01X2.9134Y-2.4862
M16
G05
G00X2.9134Y-3.0256
M15
G01X2.9134Y-3.0571
M16
G05
G00X3.2913Y-3.7402
M15
G01X3.3228Y-3.7402
M16
G05
G00X3.7244Y-3.7402
M15
G01X3.7559Y-3.7402
M16
G05
G00X4.1575Y-3.7402
M15
G01X4.189Y-3.7402
M16
G05
G00X4.5906Y-3.7402
M15
G01X4.622Y-3.7402
M16
G05
G00X5.0236Y-3.7402
M15
G01X5.0551Y-3.7402
M16
G05
G00X5.4567Y-3.7402
M15
G01X5.4882Y-3.7402
M16
G05
G00X6.5354Y-2.1024
M15
G01X6.5354Y-2.0709
M16
G05
G00X6.5354Y-2.4567
M15
G01X6.5354Y-2.4252
M16
G05
M30
