%TF.GenerationSoftware,KiCad,Pcbnew,9.0.1*%
%TF.CreationDate,2025-05-30T13:55:45+09:00*%
%TF.ProjectId,ALTAIR_SERVO_MODULE_V6,414c5441-4952-45f5-9345-52564f5f4d4f,rev?*%
%TF.SameCoordinates,Original*%
%TF.FileFunction,Legend,Bot*%
%TF.FilePolarity,Positive*%
%FSLAX46Y46*%
G04 Gerber Fmt 4.6, Leading zero omitted, Abs format (unit mm)*
G04 Created by KiCad (PCBNEW 9.0.1) date 2025-05-30 13:55:45*
%MOMM*%
%LPD*%
G01*
G04 APERTURE LIST*
G04 Aperture macros list*
%AMRoundRect*
0 Rectangle with rounded corners*
0 $1 Rounding radius*
0 $2 $3 $4 $5 $6 $7 $8 $9 X,Y pos of 4 corners*
0 Add a 4 corners polygon primitive as box body*
4,1,4,$2,$3,$4,$5,$6,$7,$8,$9,$2,$3,0*
0 Add four circle primitives for the rounded corners*
1,1,$1+$1,$2,$3*
1,1,$1+$1,$4,$5*
1,1,$1+$1,$6,$7*
1,1,$1+$1,$8,$9*
0 Add four rect primitives between the rounded corners*
20,1,$1+$1,$2,$3,$4,$5,0*
20,1,$1+$1,$4,$5,$6,$7,0*
20,1,$1+$1,$6,$7,$8,$9,0*
20,1,$1+$1,$8,$9,$2,$3,0*%
G04 Aperture macros list end*
%ADD10O,2.800000X2.000000*%
%ADD11RoundRect,0.250000X-0.600000X-0.725000X0.600000X-0.725000X0.600000X0.725000X-0.600000X0.725000X0*%
%ADD12O,1.700000X1.950000*%
%ADD13R,1.700000X1.700000*%
%ADD14C,1.700000*%
%ADD15O,2.000000X2.800000*%
%ADD16RoundRect,0.250000X0.725000X-0.600000X0.725000X0.600000X-0.725000X0.600000X-0.725000X-0.600000X0*%
%ADD17O,1.950000X1.700000*%
%ADD18C,0.800000*%
%ADD19C,6.400000*%
%ADD20C,1.250000*%
%ADD21C,1.400000*%
%ADD22RoundRect,0.770000X0.980000X0.980000X-0.980000X0.980000X-0.980000X-0.980000X0.980000X-0.980000X0*%
%ADD23C,3.500000*%
%ADD24RoundRect,0.250000X-0.725000X0.600000X-0.725000X-0.600000X0.725000X-0.600000X0.725000X0.600000X0*%
G04 APERTURE END LIST*
%LPC*%
D10*
%TO.C,M1*%
X84000000Y-95000000D03*
D11*
X81500000Y-88500000D03*
D12*
X84000000Y-88500000D03*
X86500000Y-88500000D03*
%TD*%
D13*
%TO.C,J2*%
X129000000Y-47460000D03*
D14*
X129000000Y-50000000D03*
%TD*%
D15*
%TO.C,J6*%
X166000000Y-53000000D03*
D16*
X159500000Y-54250000D03*
D17*
X159500000Y-51750000D03*
%TD*%
D18*
%TO.C,H2*%
X71600000Y-44000000D03*
X72302944Y-42302944D03*
X72302944Y-45697056D03*
X74000000Y-41600000D03*
D19*
X74000000Y-44000000D03*
D18*
X74000000Y-46400000D03*
X75697056Y-42302944D03*
X75697056Y-45697056D03*
X76400000Y-44000000D03*
%TD*%
D20*
%TO.C,J15*%
X166600000Y-80000000D03*
D16*
X165000000Y-78400000D03*
D17*
X165000000Y-75900000D03*
X165000000Y-73400000D03*
X165000000Y-70900000D03*
%TD*%
D10*
%TO.C,M5*%
X128000000Y-95000000D03*
D11*
X125500000Y-88500000D03*
D12*
X128000000Y-88500000D03*
X130500000Y-88500000D03*
%TD*%
D13*
%TO.C,J4*%
X90460000Y-45000000D03*
D14*
X93000000Y-45000000D03*
%TD*%
D21*
%TO.C,J8*%
X158000000Y-96325000D03*
X147000000Y-96325000D03*
D22*
X150000000Y-86325000D03*
D23*
X155000000Y-86325000D03*
%TD*%
D10*
%TO.C,M2*%
X95000000Y-95000000D03*
D11*
X92500000Y-88500000D03*
D12*
X95000000Y-88500000D03*
X97500000Y-88500000D03*
%TD*%
D20*
%TO.C,J16*%
X157600000Y-80000000D03*
D16*
X156000000Y-78400000D03*
D17*
X156000000Y-75900000D03*
X156000000Y-73400000D03*
X156000000Y-70900000D03*
%TD*%
D13*
%TO.C,J1*%
X124000000Y-47460000D03*
D14*
X124000000Y-50000000D03*
%TD*%
D18*
%TO.C,H1*%
X71600000Y-96000000D03*
X72302944Y-94302944D03*
X72302944Y-97697056D03*
X74000000Y-93600000D03*
D19*
X74000000Y-96000000D03*
D18*
X74000000Y-98400000D03*
X75697056Y-94302944D03*
X75697056Y-97697056D03*
X76400000Y-96000000D03*
%TD*%
D13*
%TO.C,J5*%
X91000000Y-58000000D03*
D14*
X93540000Y-58000000D03*
%TD*%
D10*
%TO.C,M4*%
X117000000Y-95000000D03*
D11*
X114500000Y-88500000D03*
D12*
X117000000Y-88500000D03*
X119500000Y-88500000D03*
%TD*%
D18*
%TO.C,H4*%
X163600000Y-96000000D03*
X164302944Y-94302944D03*
X164302944Y-97697056D03*
X166000000Y-93600000D03*
D19*
X166000000Y-96000000D03*
D18*
X166000000Y-98400000D03*
X167697056Y-94302944D03*
X167697056Y-97697056D03*
X168400000Y-96000000D03*
%TD*%
D15*
%TO.C,J14*%
X74000000Y-77250000D03*
D24*
X80500000Y-76000000D03*
D17*
X80500000Y-78500000D03*
%TD*%
D10*
%TO.C,M3*%
X106000000Y-95000000D03*
D11*
X103500000Y-88500000D03*
D12*
X106000000Y-88500000D03*
X108500000Y-88500000D03*
%TD*%
D13*
%TO.C,J3*%
X121920000Y-62000000D03*
D14*
X124460000Y-62000000D03*
X127000000Y-62000000D03*
X129540000Y-62000000D03*
X132080000Y-62000000D03*
%TD*%
D15*
%TO.C,J13*%
X74000000Y-62750000D03*
D24*
X80500000Y-61500000D03*
D17*
X80500000Y-64000000D03*
%TD*%
D10*
%TO.C,M6*%
X139000000Y-95000000D03*
D11*
X136500000Y-88500000D03*
D12*
X139000000Y-88500000D03*
X141500000Y-88500000D03*
%TD*%
D15*
%TO.C,J7*%
X166000000Y-62000000D03*
D16*
X159500000Y-63250000D03*
D17*
X159500000Y-60750000D03*
%TD*%
D18*
%TO.C,H3*%
X163600000Y-44000000D03*
X164302944Y-42302944D03*
X164302944Y-45697056D03*
X166000000Y-41600000D03*
D19*
X166000000Y-44000000D03*
D18*
X166000000Y-46400000D03*
X167697056Y-42302944D03*
X167697056Y-45697056D03*
X168400000Y-44000000D03*
%TD*%
%LPD*%
M02*
