%TF.GenerationSoftware,KiCad,Pcbnew,9.0.1*%
%TF.CreationDate,2025-05-30T13:55:45+09:00*%
%TF.ProjectId,ALTAIR_SERVO_MODULE_V6,414c5441-4952-45f5-9345-52564f5f4d4f,rev?*%
%TF.SameCoordinates,Original*%
%TF.FileFunction,Soldermask,Top*%
%TF.FilePolarity,Negative*%
%FSLAX46Y46*%
G04 Gerber Fmt 4.6, Leading zero omitted, Abs format (unit mm)*
G04 Created by KiCad (PCBNEW 9.0.1) date 2025-05-30 13:55:45*
%MOMM*%
%LPD*%
G01*
G04 APERTURE LIST*
G04 Aperture macros list*
%AMRoundRect*
0 Rectangle with rounded corners*
0 $1 Rounding radius*
0 $2 $3 $4 $5 $6 $7 $8 $9 X,Y pos of 4 corners*
0 Add a 4 corners polygon primitive as box body*
4,1,4,$2,$3,$4,$5,$6,$7,$8,$9,$2,$3,0*
0 Add four circle primitives for the rounded corners*
1,1,$1+$1,$2,$3*
1,1,$1+$1,$4,$5*
1,1,$1+$1,$6,$7*
1,1,$1+$1,$8,$9*
0 Add four rect primitives between the rounded corners*
20,1,$1+$1,$2,$3,$4,$5,0*
20,1,$1+$1,$4,$5,$6,$7,0*
20,1,$1+$1,$6,$7,$8,$9,0*
20,1,$1+$1,$8,$9,$2,$3,0*%
G04 Aperture macros list end*
%ADD10RoundRect,0.250000X-0.600000X-0.725000X0.600000X-0.725000X0.600000X0.725000X-0.600000X0.725000X0*%
%ADD11O,1.700000X1.950000*%
%ADD12RoundRect,0.225000X0.250000X-0.225000X0.250000X0.225000X-0.250000X0.225000X-0.250000X-0.225000X0*%
%ADD13RoundRect,0.225000X-0.225000X-0.250000X0.225000X-0.250000X0.225000X0.250000X-0.225000X0.250000X0*%
%ADD14RoundRect,0.218750X0.218750X0.256250X-0.218750X0.256250X-0.218750X-0.256250X0.218750X-0.256250X0*%
%ADD15R,1.700000X1.700000*%
%ADD16C,1.700000*%
%ADD17RoundRect,0.150000X0.825000X0.150000X-0.825000X0.150000X-0.825000X-0.150000X0.825000X-0.150000X0*%
%ADD18RoundRect,0.250000X0.725000X-0.600000X0.725000X0.600000X-0.725000X0.600000X-0.725000X-0.600000X0*%
%ADD19O,1.950000X1.700000*%
%ADD20RoundRect,0.200000X0.200000X0.275000X-0.200000X0.275000X-0.200000X-0.275000X0.200000X-0.275000X0*%
%ADD21RoundRect,0.225000X-0.250000X0.225000X-0.250000X-0.225000X0.250000X-0.225000X0.250000X0.225000X0*%
%ADD22RoundRect,0.225000X0.225000X0.250000X-0.225000X0.250000X-0.225000X-0.250000X0.225000X-0.250000X0*%
%ADD23R,0.650000X1.250000*%
%ADD24C,0.800000*%
%ADD25C,6.400000*%
%ADD26C,1.400000*%
%ADD27RoundRect,0.770000X0.980000X0.980000X-0.980000X0.980000X-0.980000X-0.980000X0.980000X-0.980000X0*%
%ADD28C,3.500000*%
%ADD29RoundRect,0.250000X-0.350000X0.850000X-0.350000X-0.850000X0.350000X-0.850000X0.350000X0.850000X0*%
%ADD30RoundRect,0.249997X-2.650003X2.950003X-2.650003X-2.950003X2.650003X-2.950003X2.650003X2.950003X0*%
%ADD31RoundRect,0.075000X-0.700000X-0.075000X0.700000X-0.075000X0.700000X0.075000X-0.700000X0.075000X0*%
%ADD32RoundRect,0.075000X-0.075000X-0.700000X0.075000X-0.700000X0.075000X0.700000X-0.075000X0.700000X0*%
%ADD33RoundRect,0.250000X-0.725000X0.600000X-0.725000X-0.600000X0.725000X-0.600000X0.725000X0.600000X0*%
%ADD34RoundRect,0.200000X-0.200000X-0.275000X0.200000X-0.275000X0.200000X0.275000X-0.200000X0.275000X0*%
G04 APERTURE END LIST*
D10*
%TO.C,M1*%
X81500000Y-88500000D03*
D11*
X84000000Y-88500000D03*
X86500000Y-88500000D03*
%TD*%
D12*
%TO.C,C4*%
X101000000Y-57775000D03*
X101000000Y-56225000D03*
%TD*%
D13*
%TO.C,C13*%
X124000000Y-80000000D03*
X125550000Y-80000000D03*
%TD*%
D14*
%TO.C,D3*%
X163000000Y-86000000D03*
X161425000Y-86000000D03*
%TD*%
D15*
%TO.C,J2*%
X129000000Y-47460000D03*
D16*
X129000000Y-50000000D03*
%TD*%
D17*
%TO.C,U3*%
X94475000Y-65905000D03*
X94475000Y-64635000D03*
X94475000Y-63365000D03*
X94475000Y-62095000D03*
X89525000Y-62095000D03*
X89525000Y-63365000D03*
X89525000Y-64635000D03*
X89525000Y-65905000D03*
%TD*%
D18*
%TO.C,J6*%
X159500000Y-54250000D03*
D19*
X159500000Y-51750000D03*
%TD*%
D20*
%TO.C,R3*%
X166650000Y-86000000D03*
X165000000Y-86000000D03*
%TD*%
D14*
%TO.C,D4*%
X144787500Y-45000000D03*
X143212500Y-45000000D03*
%TD*%
D20*
%TO.C,R1*%
X166650000Y-90000000D03*
X165000000Y-90000000D03*
%TD*%
%TO.C,R2*%
X166650000Y-88000000D03*
X165000000Y-88000000D03*
%TD*%
D21*
%TO.C,C6*%
X118000000Y-52225000D03*
X118000000Y-53775000D03*
%TD*%
D22*
%TO.C,C1*%
X113775000Y-65000000D03*
X112225000Y-65000000D03*
%TD*%
D13*
%TO.C,C12*%
X115000000Y-80000000D03*
X116550000Y-80000000D03*
%TD*%
D23*
%TO.C,IC2*%
X114877500Y-72200000D03*
X113607500Y-72200000D03*
X112337500Y-72200000D03*
X111067500Y-72200000D03*
X111067500Y-77900000D03*
X112337500Y-77900000D03*
X113607500Y-77900000D03*
X114877500Y-77900000D03*
%TD*%
D24*
%TO.C,H2*%
X71600000Y-44000000D03*
X72302944Y-42302944D03*
X72302944Y-45697056D03*
X74000000Y-41600000D03*
D25*
X74000000Y-44000000D03*
D24*
X74000000Y-46400000D03*
X75697056Y-42302944D03*
X75697056Y-45697056D03*
X76400000Y-44000000D03*
%TD*%
D18*
%TO.C,J15*%
X165000000Y-78400000D03*
D19*
X165000000Y-75900000D03*
X165000000Y-73400000D03*
X165000000Y-70900000D03*
%TD*%
D21*
%TO.C,C7*%
X152000000Y-47225000D03*
X152000000Y-48775000D03*
%TD*%
D10*
%TO.C,M5*%
X125500000Y-88500000D03*
D11*
X128000000Y-88500000D03*
X130500000Y-88500000D03*
%TD*%
D15*
%TO.C,J4*%
X90460000Y-45000000D03*
D16*
X93000000Y-45000000D03*
%TD*%
D26*
%TO.C,J8*%
X158000000Y-96325000D03*
X147000000Y-96325000D03*
D27*
X150000000Y-86325000D03*
D28*
X155000000Y-86325000D03*
%TD*%
D22*
%TO.C,C3*%
X105775000Y-65000000D03*
X104225000Y-65000000D03*
%TD*%
D10*
%TO.C,M2*%
X92500000Y-88500000D03*
D11*
X95000000Y-88500000D03*
X97500000Y-88500000D03*
%TD*%
D18*
%TO.C,J16*%
X156000000Y-78400000D03*
D19*
X156000000Y-75900000D03*
X156000000Y-73400000D03*
X156000000Y-70900000D03*
%TD*%
D15*
%TO.C,J1*%
X124000000Y-47460000D03*
D16*
X124000000Y-50000000D03*
%TD*%
D29*
%TO.C,U4*%
X146280000Y-47960000D03*
D30*
X144000000Y-54260000D03*
D29*
X141720000Y-47960000D03*
%TD*%
D24*
%TO.C,H1*%
X71600000Y-96000000D03*
X72302944Y-94302944D03*
X72302944Y-97697056D03*
X74000000Y-93600000D03*
D25*
X74000000Y-96000000D03*
D24*
X74000000Y-98400000D03*
X75697056Y-94302944D03*
X75697056Y-97697056D03*
X76400000Y-96000000D03*
%TD*%
D15*
%TO.C,J5*%
X91000000Y-58000000D03*
D16*
X93540000Y-58000000D03*
%TD*%
D10*
%TO.C,M4*%
X114500000Y-88500000D03*
D11*
X117000000Y-88500000D03*
X119500000Y-88500000D03*
%TD*%
D23*
%TO.C,IC1*%
X105810000Y-72300000D03*
X104540000Y-72300000D03*
X103270000Y-72300000D03*
X102000000Y-72300000D03*
X102000000Y-78000000D03*
X103270000Y-78000000D03*
X104540000Y-78000000D03*
X105810000Y-78000000D03*
%TD*%
D24*
%TO.C,H4*%
X163600000Y-96000000D03*
X164302944Y-94302944D03*
X164302944Y-97697056D03*
X166000000Y-93600000D03*
D25*
X166000000Y-96000000D03*
D24*
X166000000Y-98400000D03*
X167697056Y-94302944D03*
X167697056Y-97697056D03*
X168400000Y-96000000D03*
%TD*%
D31*
%TO.C,U1*%
X103325000Y-52250000D03*
X103325000Y-52750000D03*
X103325000Y-53250000D03*
X103325000Y-53750000D03*
X103325000Y-54250000D03*
X103325000Y-54750000D03*
X103325000Y-55250000D03*
X103325000Y-55750000D03*
X103325000Y-56250000D03*
X103325000Y-56750000D03*
X103325000Y-57250000D03*
X103325000Y-57750000D03*
X103325000Y-58250000D03*
X103325000Y-58750000D03*
X103325000Y-59250000D03*
X103325000Y-59750000D03*
D32*
X105250000Y-61675000D03*
X105750000Y-61675000D03*
X106250000Y-61675000D03*
X106750000Y-61675000D03*
X107250000Y-61675000D03*
X107750000Y-61675000D03*
X108250000Y-61675000D03*
X108750000Y-61675000D03*
X109250000Y-61675000D03*
X109750000Y-61675000D03*
X110250000Y-61675000D03*
X110750000Y-61675000D03*
X111250000Y-61675000D03*
X111750000Y-61675000D03*
X112250000Y-61675000D03*
X112750000Y-61675000D03*
D31*
X114675000Y-59750000D03*
X114675000Y-59250000D03*
X114675000Y-58750000D03*
X114675000Y-58250000D03*
X114675000Y-57750000D03*
X114675000Y-57250000D03*
X114675000Y-56750000D03*
X114675000Y-56250000D03*
X114675000Y-55750000D03*
X114675000Y-55250000D03*
X114675000Y-54750000D03*
X114675000Y-54250000D03*
X114675000Y-53750000D03*
X114675000Y-53250000D03*
X114675000Y-52750000D03*
X114675000Y-52250000D03*
D32*
X112750000Y-50325000D03*
X112250000Y-50325000D03*
X111750000Y-50325000D03*
X111250000Y-50325000D03*
X110750000Y-50325000D03*
X110250000Y-50325000D03*
X109750000Y-50325000D03*
X109250000Y-50325000D03*
X108750000Y-50325000D03*
X108250000Y-50325000D03*
X107750000Y-50325000D03*
X107250000Y-50325000D03*
X106750000Y-50325000D03*
X106250000Y-50325000D03*
X105750000Y-50325000D03*
X105250000Y-50325000D03*
%TD*%
D13*
%TO.C,C2*%
X105450000Y-47000000D03*
X107000000Y-47000000D03*
%TD*%
D33*
%TO.C,J14*%
X80500000Y-76000000D03*
D19*
X80500000Y-78500000D03*
%TD*%
D14*
%TO.C,D2*%
X163000000Y-88000000D03*
X161425000Y-88000000D03*
%TD*%
D21*
%TO.C,C8*%
X150000000Y-47225000D03*
X150000000Y-48775000D03*
%TD*%
D10*
%TO.C,M3*%
X103500000Y-88500000D03*
D11*
X106000000Y-88500000D03*
X108500000Y-88500000D03*
%TD*%
D15*
%TO.C,J3*%
X121920000Y-62000000D03*
D16*
X124460000Y-62000000D03*
X127000000Y-62000000D03*
X129540000Y-62000000D03*
X132080000Y-62000000D03*
%TD*%
D13*
%TO.C,C10*%
X106000000Y-80000000D03*
X107550000Y-80000000D03*
%TD*%
D33*
%TO.C,J13*%
X80500000Y-61500000D03*
D19*
X80500000Y-64000000D03*
%TD*%
D23*
%TO.C,IC3*%
X123540000Y-72300000D03*
X122270000Y-72300000D03*
X121000000Y-72300000D03*
X119730000Y-72300000D03*
X119730000Y-78000000D03*
X121000000Y-78000000D03*
X122270000Y-78000000D03*
X123540000Y-78000000D03*
%TD*%
D10*
%TO.C,M6*%
X136500000Y-88500000D03*
D11*
X139000000Y-88500000D03*
X141500000Y-88500000D03*
%TD*%
D34*
%TO.C,R5*%
X96350000Y-58000000D03*
X98000000Y-58000000D03*
%TD*%
D17*
%TO.C,U2*%
X94475000Y-52905000D03*
X94475000Y-51635000D03*
X94475000Y-50365000D03*
X94475000Y-49095000D03*
X89525000Y-49095000D03*
X89525000Y-50365000D03*
X89525000Y-51635000D03*
X89525000Y-52905000D03*
%TD*%
D14*
%TO.C,D1*%
X163000000Y-90000000D03*
X161425000Y-90000000D03*
%TD*%
D21*
%TO.C,C9*%
X137000000Y-47225000D03*
X137000000Y-48775000D03*
%TD*%
D18*
%TO.C,J7*%
X159500000Y-63250000D03*
D19*
X159500000Y-60750000D03*
%TD*%
D13*
%TO.C,C5*%
X115225000Y-62000000D03*
X116775000Y-62000000D03*
%TD*%
D24*
%TO.C,H3*%
X163600000Y-44000000D03*
X164302944Y-42302944D03*
X164302944Y-45697056D03*
X166000000Y-41600000D03*
D25*
X166000000Y-44000000D03*
D24*
X166000000Y-46400000D03*
X167697056Y-42302944D03*
X167697056Y-45697056D03*
X168400000Y-44000000D03*
%TD*%
D34*
%TO.C,R4*%
X96350000Y-45000000D03*
X98000000Y-45000000D03*
%TD*%
M02*
