M48
; DRILL file {KiCad 9.0.1} date 2025-05-30T13:55:45+0900
; FORMAT={-:-/ absolute / inch / decimal}
; #@! TF.CreationDate,2025-05-30T13:55:45+09:00
; #@! TF.GenerationSoftware,Kicad,Pcbnew,9.0.1
; #@! TF.FileFunction,Plated,1,2,PTH
FMAT,2
INCH
; #@! TA.AperFunction,Plated,PTH,ViaDrill
T1C0.0118
; #@! TA.AperFunction,Plated,PTH,ComponentDrill
T2C0.0197
; #@! TA.AperFunction,Plated,PTH,ComponentDrill
T3C0.0374
; #@! TA.AperFunction,Plated,PTH,ComponentDrill
T4C0.0394
; #@! TA.AperFunction,Plated,PTH,ComponentDrill
T5C0.0748
; #@! TA.AperFunction,Plated,PTH,ComponentDrill
T6C0.1260
%
G90
G05
T1
X3.5315Y-2.1146
X3.77Y-2.0088
X3.825Y-2.3897
X3.8404Y-1.8391
X3.9369Y-2.1978
X3.9703Y-2.5302
X4.0589Y-2.5423
X4.0945Y-1.8898
X4.0945Y-2.7953
X4.1012Y-2.618
X4.1197Y-2.0662
X4.1307Y-2.509
X4.1865Y-2.1204
X4.252Y-1.8898
X4.2913Y-2.874
X4.3757Y-2.0965
X4.3826Y-2.3564
X4.3943Y-2.7343
X4.4191Y-2.0749
X4.4284Y-2.3441
X4.4528Y-2.2933
X4.4882Y-2.7953
X4.579Y-2.3172
X4.5899Y-2.4973
X4.6063Y-2.874
X4.6293Y-2.7286
X4.6828Y-2.734
X4.6833Y-2.5543
X4.6915Y-2.0973
X4.7524Y-1.9574
X4.7824Y-3.3202
X4.8031Y-2.7953
X4.8054Y-3.1232
X4.8985Y-2.7292
X4.9305Y-2.7139
X5.5512Y-2.2835
X5.5906Y-2.2835
X5.6299Y-2.2835
X5.6693Y-2.2835
X5.7087Y-2.2835
X5.748Y-2.2835
X5.7874Y-2.2835
X5.8085Y-2.0961
T2
X2.8189Y-1.7323
X2.8189Y-3.7795
X2.8466Y-1.6655
X2.8466Y-1.7991
X2.8466Y-3.7127
X2.8466Y-3.8463
X2.9134Y-1.6378
X2.9134Y-1.8268
X2.9134Y-3.685
X2.9134Y-3.874
X2.9802Y-1.6655
X2.9802Y-1.7991
X2.9802Y-3.7127
X2.9802Y-3.8463
X3.0079Y-1.7323
X3.0079Y-3.7795
X6.4409Y-1.7323
X6.4409Y-3.7795
X6.4686Y-1.6655
X6.4686Y-1.7991
X6.4686Y-3.7127
X6.4686Y-3.8463
X6.5354Y-1.6378
X6.5354Y-1.8268
X6.5354Y-3.685
X6.5354Y-3.874
X6.6022Y-1.6655
X6.6022Y-1.7991
X6.6022Y-3.7127
X6.6022Y-3.8463
X6.6299Y-1.7323
X6.6299Y-3.7795
T3
X3.1693Y-2.4213
X3.1693Y-2.5197
X3.1693Y-2.9921
X3.1693Y-3.0906
X3.2087Y-3.4843
X3.3071Y-3.4843
X3.4055Y-3.4843
X3.6417Y-3.4843
X3.7402Y-3.4843
X3.8386Y-3.4843
X4.0748Y-3.4843
X4.1732Y-3.4843
X4.2717Y-3.4843
X4.5079Y-3.4843
X4.6063Y-3.4843
X4.7047Y-3.4843
X4.9409Y-3.4843
X5.0394Y-3.4843
X5.1378Y-3.4843
X5.374Y-3.4843
X5.4724Y-3.4843
X5.5709Y-3.4843
X6.1417Y-2.7913
X6.1417Y-2.8898
X6.1417Y-2.9882
X6.1417Y-3.0866
X6.2795Y-2.0374
X6.2795Y-2.1358
X6.2795Y-2.3917
X6.2795Y-2.4902
X6.4961Y-2.7913
X6.4961Y-2.8898
X6.4961Y-2.9882
X6.4961Y-3.0866
T4
X3.5614Y-1.7717
X3.5827Y-2.2835
X3.6614Y-1.7717
X3.6827Y-2.2835
X4.8Y-2.4409
X4.8819Y-1.8685
X4.8819Y-1.9685
X4.9Y-2.4409
X5.0Y-2.4409
X5.0787Y-1.8685
X5.0787Y-1.9685
X5.1Y-2.4409
X5.2Y-2.4409
X5.7874Y-3.7923
X6.2205Y-3.7923
T5
X5.9055Y-3.3986
X6.1024Y-3.3986
T6
X2.9134Y-1.7323
X2.9134Y-3.7795
X6.5354Y-1.7323
X6.5354Y-3.7795
M30
