%TF.GenerationSoftware,KiCad,Pcbnew,9.0.1*%
%TF.CreationDate,2025-05-30T13:55:45+09:00*%
%TF.ProjectId,ALTAIR_SERVO_MODULE_V6,414c5441-4952-45f5-9345-52564f5f4d4f,rev?*%
%TF.SameCoordinates,Original*%
%TF.FileFunction,Copper,L2,Bot*%
%TF.FilePolarity,Positive*%
%FSLAX46Y46*%
G04 Gerber Fmt 4.6, Leading zero omitted, Abs format (unit mm)*
G04 Created by KiCad (PCBNEW 9.0.1) date 2025-05-30 13:55:45*
%MOMM*%
%LPD*%
G01*
G04 APERTURE LIST*
G04 Aperture macros list*
%AMRoundRect*
0 Rectangle with rounded corners*
0 $1 Rounding radius*
0 $2 $3 $4 $5 $6 $7 $8 $9 X,Y pos of 4 corners*
0 Add a 4 corners polygon primitive as box body*
4,1,4,$2,$3,$4,$5,$6,$7,$8,$9,$2,$3,0*
0 Add four circle primitives for the rounded corners*
1,1,$1+$1,$2,$3*
1,1,$1+$1,$4,$5*
1,1,$1+$1,$6,$7*
1,1,$1+$1,$8,$9*
0 Add four rect primitives between the rounded corners*
20,1,$1+$1,$2,$3,$4,$5,0*
20,1,$1+$1,$4,$5,$6,$7,0*
20,1,$1+$1,$6,$7,$8,$9,0*
20,1,$1+$1,$8,$9,$2,$3,0*%
G04 Aperture macros list end*
%TA.AperFunction,ComponentPad*%
%ADD10RoundRect,0.250000X-0.600000X-0.725000X0.600000X-0.725000X0.600000X0.725000X-0.600000X0.725000X0*%
%TD*%
%TA.AperFunction,ComponentPad*%
%ADD11O,1.700000X1.950000*%
%TD*%
%TA.AperFunction,ComponentPad*%
%ADD12R,1.700000X1.700000*%
%TD*%
%TA.AperFunction,ComponentPad*%
%ADD13C,1.700000*%
%TD*%
%TA.AperFunction,ComponentPad*%
%ADD14RoundRect,0.250000X0.725000X-0.600000X0.725000X0.600000X-0.725000X0.600000X-0.725000X-0.600000X0*%
%TD*%
%TA.AperFunction,ComponentPad*%
%ADD15O,1.950000X1.700000*%
%TD*%
%TA.AperFunction,ComponentPad*%
%ADD16C,0.800000*%
%TD*%
%TA.AperFunction,ComponentPad*%
%ADD17C,6.400000*%
%TD*%
%TA.AperFunction,ComponentPad*%
%ADD18C,1.400000*%
%TD*%
%TA.AperFunction,ComponentPad*%
%ADD19RoundRect,0.770000X0.980000X0.980000X-0.980000X0.980000X-0.980000X-0.980000X0.980000X-0.980000X0*%
%TD*%
%TA.AperFunction,ComponentPad*%
%ADD20C,3.500000*%
%TD*%
%TA.AperFunction,ComponentPad*%
%ADD21RoundRect,0.250000X-0.725000X0.600000X-0.725000X-0.600000X0.725000X-0.600000X0.725000X0.600000X0*%
%TD*%
%TA.AperFunction,ViaPad*%
%ADD22C,0.600000*%
%TD*%
%TA.AperFunction,Conductor*%
%ADD23C,0.200000*%
%TD*%
G04 APERTURE END LIST*
D10*
%TO.P,M1,1,PWM*%
%TO.N,Net-(IC1-VO1_(OUTPUT_1))*%
X81500000Y-88500000D03*
D11*
%TO.P,M1,2,+*%
%TO.N,+8V*%
X84000000Y-88500000D03*
%TO.P,M1,3,-*%
%TO.N,GND1*%
X86500000Y-88500000D03*
%TD*%
D12*
%TO.P,J2,1,Pin_1*%
%TO.N,+3.3V*%
X129000000Y-47460000D03*
D13*
%TO.P,J2,2,Pin_2*%
%TO.N,SW*%
X129000000Y-50000000D03*
%TD*%
D14*
%TO.P,J6,1,Pin_1*%
%TO.N,+5V*%
X159500000Y-54250000D03*
D15*
%TO.P,J6,2,Pin_2*%
%TO.N,GND*%
X159500000Y-51750000D03*
%TD*%
D16*
%TO.P,H2,1*%
%TO.N,N/C*%
X71600000Y-44000000D03*
X72302944Y-42302944D03*
X72302944Y-45697056D03*
X74000000Y-41600000D03*
D17*
X74000000Y-44000000D03*
D16*
X74000000Y-46400000D03*
X75697056Y-42302944D03*
X75697056Y-45697056D03*
X76400000Y-44000000D03*
%TD*%
D14*
%TO.P,J15,1,Pin_1*%
%TO.N,+5V*%
X165000000Y-78400000D03*
D15*
%TO.P,J15,2,Pin_2*%
%TO.N,GND*%
X165000000Y-75900000D03*
%TO.P,J15,3,Pin_3*%
%TO.N,serial2_tx*%
X165000000Y-73400000D03*
%TO.P,J15,4,Pin_4*%
%TO.N,serial2_rx*%
X165000000Y-70900000D03*
%TD*%
D10*
%TO.P,M5,1,PWM*%
%TO.N,Net-(IC3-VO1_(OUTPUT_1))*%
X125500000Y-88500000D03*
D11*
%TO.P,M5,2,+*%
%TO.N,+8V*%
X128000000Y-88500000D03*
%TO.P,M5,3,-*%
%TO.N,GND1*%
X130500000Y-88500000D03*
%TD*%
D12*
%TO.P,J4,1,Pin_1*%
%TO.N,can1_H*%
X90460000Y-45000000D03*
D13*
%TO.P,J4,2,Pin_2*%
%TO.N,Net-(J4-Pin_2)*%
X93000000Y-45000000D03*
%TD*%
D18*
%TO.P,J8,*%
%TO.N,*%
X158000000Y-96325000D03*
X147000000Y-96325000D03*
D19*
%TO.P,J8,1,Pin_1*%
%TO.N,+8V*%
X150000000Y-86325000D03*
D20*
%TO.P,J8,2,Pin_2*%
%TO.N,GND1*%
X155000000Y-86325000D03*
%TD*%
D10*
%TO.P,M2,1,PWM*%
%TO.N,Net-(IC1-VO2_(OUTPUT_2))*%
X92500000Y-88500000D03*
D11*
%TO.P,M2,2,+*%
%TO.N,+8V*%
X95000000Y-88500000D03*
%TO.P,M2,3,-*%
%TO.N,GND1*%
X97500000Y-88500000D03*
%TD*%
D14*
%TO.P,J16,1,Pin_1*%
%TO.N,+5V*%
X156000000Y-78400000D03*
D15*
%TO.P,J16,2,Pin_2*%
%TO.N,GND*%
X156000000Y-75900000D03*
%TO.P,J16,3,Pin_3*%
%TO.N,serial3_rx*%
X156000000Y-73400000D03*
%TO.P,J16,4,Pin_4*%
%TO.N,serial3_tx*%
X156000000Y-70900000D03*
%TD*%
D12*
%TO.P,J1,1,Pin_1*%
%TO.N,+3.3V*%
X124000000Y-47460000D03*
D13*
%TO.P,J1,2,Pin_2*%
%TO.N,booto*%
X124000000Y-50000000D03*
%TD*%
D16*
%TO.P,H1,1*%
%TO.N,N/C*%
X71600000Y-96000000D03*
X72302944Y-94302944D03*
X72302944Y-97697056D03*
X74000000Y-93600000D03*
D17*
X74000000Y-96000000D03*
D16*
X74000000Y-98400000D03*
X75697056Y-94302944D03*
X75697056Y-97697056D03*
X76400000Y-96000000D03*
%TD*%
D12*
%TO.P,J5,1,Pin_1*%
%TO.N,can2_H*%
X91000000Y-58000000D03*
D13*
%TO.P,J5,2,Pin_2*%
%TO.N,Net-(J5-Pin_2)*%
X93540000Y-58000000D03*
%TD*%
D10*
%TO.P,M4,1,PWM*%
%TO.N,Net-(IC2-VO2_(OUTPUT_2))*%
X114500000Y-88500000D03*
D11*
%TO.P,M4,2,+*%
%TO.N,+8V*%
X117000000Y-88500000D03*
%TO.P,M4,3,-*%
%TO.N,GND1*%
X119500000Y-88500000D03*
%TD*%
D16*
%TO.P,H4,1*%
%TO.N,N/C*%
X163600000Y-96000000D03*
X164302944Y-94302944D03*
X164302944Y-97697056D03*
X166000000Y-93600000D03*
D17*
X166000000Y-96000000D03*
D16*
X166000000Y-98400000D03*
X167697056Y-94302944D03*
X167697056Y-97697056D03*
X168400000Y-96000000D03*
%TD*%
D21*
%TO.P,J14,1,Pin_1*%
%TO.N,can2_H*%
X80500000Y-76000000D03*
D15*
%TO.P,J14,2,Pin_2*%
%TO.N,can2_L*%
X80500000Y-78500000D03*
%TD*%
D10*
%TO.P,M3,1,PWM*%
%TO.N,Net-(IC2-VO1_(OUTPUT_1))*%
X103500000Y-88500000D03*
D11*
%TO.P,M3,2,+*%
%TO.N,+8V*%
X106000000Y-88500000D03*
%TO.P,M3,3,-*%
%TO.N,GND1*%
X108500000Y-88500000D03*
%TD*%
D12*
%TO.P,J3,1,Pin_1*%
%TO.N,+3.3V*%
X121920000Y-62000000D03*
D13*
%TO.P,J3,2,Pin_2*%
%TO.N,SWCLK*%
X124460000Y-62000000D03*
%TO.P,J3,3,Pin_3*%
%TO.N,GND*%
X127000000Y-62000000D03*
%TO.P,J3,4,Pin_4*%
%TO.N,SWDIO*%
X129540000Y-62000000D03*
%TO.P,J3,5,Pin_5*%
%TO.N,nrst*%
X132080000Y-62000000D03*
%TD*%
D21*
%TO.P,J13,1,Pin_1*%
%TO.N,can1_H*%
X80500000Y-61500000D03*
D15*
%TO.P,J13,2,Pin_2*%
%TO.N,can1_L*%
X80500000Y-64000000D03*
%TD*%
D10*
%TO.P,M6,1,PWM*%
%TO.N,Net-(IC3-VO2_(OUTPUT_2))*%
X136500000Y-88500000D03*
D11*
%TO.P,M6,2,+*%
%TO.N,+8V*%
X139000000Y-88500000D03*
%TO.P,M6,3,-*%
%TO.N,GND1*%
X141500000Y-88500000D03*
%TD*%
D14*
%TO.P,J7,1,Pin_1*%
%TO.N,+5V*%
X159500000Y-63250000D03*
D15*
%TO.P,J7,2,Pin_2*%
%TO.N,GND*%
X159500000Y-60750000D03*
%TD*%
D16*
%TO.P,H3,1*%
%TO.N,N/C*%
X163600000Y-44000000D03*
X164302944Y-42302944D03*
X164302944Y-45697056D03*
X166000000Y-41600000D03*
D17*
X166000000Y-44000000D03*
D16*
X166000000Y-46400000D03*
X167697056Y-42302944D03*
X167697056Y-45697056D03*
X168400000Y-44000000D03*
%TD*%
D22*
%TO.N,GND*%
X116583165Y-63432349D03*
X147000000Y-58000000D03*
X146000000Y-58000000D03*
X145000000Y-58000000D03*
X144000000Y-58000000D03*
X143000000Y-58000000D03*
X142000000Y-58000000D03*
X141000000Y-58000000D03*
X104000000Y-48000000D03*
X108000000Y-48000000D03*
%TO.N,can2_rx*%
X112482000Y-59539400D03*
X97155200Y-60697400D03*
%TO.N,can2_tx*%
X111319000Y-59853200D03*
X100845000Y-64266200D03*
%TO.N,can1_rx*%
X106336000Y-53859000D03*
X97545200Y-46713800D03*
%TO.N,B8*%
X112246000Y-52703500D03*
X124421000Y-69322500D03*
%TO.N,Net-(IC3-VO2_(OUTPUT_2))*%
X122058000Y-79329000D03*
%TO.N,B9*%
X111143000Y-53250900D03*
X118942000Y-69443100D03*
%TO.N,Net-(IC3-VO1_(OUTPUT_1))*%
X121474000Y-84333100D03*
%TO.N,A8*%
X116306000Y-58856600D03*
X117584000Y-69307600D03*
%TO.N,serial2_rx*%
X104921000Y-63728100D03*
%TO.N,serial2_tx*%
X103096000Y-64573700D03*
%TO.N,A9*%
X113100000Y-58249300D03*
X111615000Y-69451700D03*
%TO.N,SW*%
X104641000Y-52480700D03*
%TO.N,booto*%
X120710000Y-49718900D03*
%TO.N,+3.3V*%
X118956000Y-64879800D03*
%TO.N,GND*%
X114000000Y-71000000D03*
X122000000Y-71000000D03*
X117000000Y-73000000D03*
X109000000Y-73000000D03*
X104000000Y-71000000D03*
X104170900Y-66497200D03*
X119163000Y-53272400D03*
X147535500Y-53241900D03*
X125235100Y-68933600D03*
X89699000Y-53712000D03*
X99997200Y-55823700D03*
X95758000Y-51022300D03*
%TD*%
D23*
%TO.N,can2_rx*%
X98692600Y-59160000D02*
X97155200Y-60697400D01*
X112102000Y-59160000D02*
X98692600Y-59160000D01*
X112482000Y-59539400D02*
X112102000Y-59160000D01*
%TO.N,can2_tx*%
X105258000Y-59853200D02*
X100845000Y-64266200D01*
X111319000Y-59853200D02*
X105258000Y-59853200D01*
%TO.N,can1_rx*%
X97545200Y-47609700D02*
X97545200Y-46713800D01*
X104432000Y-54496700D02*
X97545200Y-47609700D01*
X105698000Y-54496700D02*
X104432000Y-54496700D01*
X106336000Y-53859000D02*
X105698000Y-54496700D01*
%TO.N,B8*%
X123070000Y-67971300D02*
X124421000Y-69322500D01*
X123070000Y-61007100D02*
X123070000Y-67971300D01*
X114767000Y-52703500D02*
X123070000Y-61007100D01*
X112246000Y-52703500D02*
X114767000Y-52703500D01*
%TO.N,Net-(IC3-VO2_(OUTPUT_2))*%
X127329000Y-79329000D02*
X136500000Y-88500000D01*
X122058000Y-79329000D02*
X127329000Y-79329000D01*
%TO.N,B9*%
X118184000Y-68684800D02*
X118942000Y-69443100D01*
X118184000Y-59872500D02*
X118184000Y-68684800D01*
X111562000Y-53250900D02*
X118184000Y-59872500D01*
X111143000Y-53250900D02*
X111562000Y-53250900D01*
%TO.N,Net-(IC3-VO1_(OUTPUT_1))*%
X125500000Y-88358800D02*
X125500000Y-88500000D01*
X121474000Y-84333100D02*
X125500000Y-88358800D01*
%TO.N,A8*%
X117584000Y-60133800D02*
X117584000Y-69307600D01*
X116306000Y-58856600D02*
X117584000Y-60133800D01*
%TO.N,serial2_rx*%
X111264000Y-70071600D02*
X104921000Y-63728100D01*
X136816000Y-70071600D02*
X111264000Y-70071600D01*
X137138000Y-69749900D02*
X136816000Y-70071600D01*
X165000000Y-69749900D02*
X137138000Y-69749900D01*
X165000000Y-70900000D02*
X165000000Y-69749900D01*
%TO.N,serial2_tx*%
X110772000Y-72249900D02*
X103096000Y-64573700D01*
X165000000Y-72249900D02*
X110772000Y-72249900D01*
X165000000Y-73400000D02*
X165000000Y-72249900D01*
%TO.N,A9*%
X113100000Y-67966900D02*
X111615000Y-69451700D01*
X113100000Y-58249300D02*
X113100000Y-67966900D01*
%TO.N,SW*%
X105019000Y-52103400D02*
X104641000Y-52480700D01*
X126897000Y-52103400D02*
X105019000Y-52103400D01*
X129000000Y-50000000D02*
X126897000Y-52103400D01*
%TO.N,booto*%
X123719000Y-49718900D02*
X124000000Y-50000000D01*
X120710000Y-49718900D02*
X123719000Y-49718900D01*
%TO.N,+5V*%
X166350000Y-77050200D02*
X165000000Y-78400000D01*
X166350000Y-70099800D02*
X166350000Y-77050200D01*
X159500000Y-63250000D02*
X166350000Y-70099800D01*
%TO.N,+3.3V*%
X120770000Y-63066400D02*
X118956000Y-64879800D01*
X120770000Y-62000000D02*
X120770000Y-63066400D01*
X121920000Y-62000000D02*
X120770000Y-62000000D01*
%TO.N,GND*%
X165000000Y-75900000D02*
X156000000Y-75900000D01*
X104170900Y-71000000D02*
X104000000Y-71000000D01*
X106170900Y-73000000D02*
X104170900Y-71000000D01*
X109000000Y-73000000D02*
X106170900Y-73000000D01*
X104170900Y-71000000D02*
X104170900Y-66497200D01*
X149027400Y-51750000D02*
X147535500Y-53241900D01*
X159500000Y-51750000D02*
X149027400Y-51750000D01*
X127000000Y-62000000D02*
X126700900Y-62000000D01*
X119163000Y-54462100D02*
X126700900Y-62000000D01*
X119163000Y-53272400D02*
X119163000Y-54462100D01*
X126700900Y-67467800D02*
X125235100Y-68933600D01*
X126700900Y-62000000D02*
X126700900Y-67467800D01*
X96496800Y-60971300D02*
X96496800Y-59032900D01*
X102022700Y-66497200D02*
X96496800Y-60971300D01*
X104170900Y-66497200D02*
X102022700Y-66497200D01*
X96788000Y-59032900D02*
X96496800Y-59032900D01*
X99997200Y-55823700D02*
X96788000Y-59032900D01*
X96496800Y-59032900D02*
X92122100Y-54658200D01*
X91175900Y-53712000D02*
X92122100Y-54658200D01*
X89699000Y-53712000D02*
X91175900Y-53712000D01*
X92122100Y-54658200D02*
X95758000Y-51022300D01*
%TO.N,GND1*%
X154325000Y-87000000D02*
X155000000Y-87000000D01*
X152249000Y-89075800D02*
X154325000Y-87000000D01*
X143226000Y-89075800D02*
X152249000Y-89075800D01*
X142650000Y-88500000D02*
X143226000Y-89075800D01*
X141500000Y-88500000D02*
X142650000Y-88500000D01*
X96349900Y-88500000D02*
X97500000Y-88500000D01*
X96349900Y-88931300D02*
X96349900Y-88500000D01*
X95505000Y-89776200D02*
X96349900Y-88931300D01*
X88926300Y-89776200D02*
X95505000Y-89776200D01*
X87650100Y-88500000D02*
X88926300Y-89776200D01*
X86500000Y-88500000D02*
X87650100Y-88500000D01*
X120650000Y-88500000D02*
X119500000Y-88500000D01*
X121966000Y-89815900D02*
X120650000Y-88500000D01*
X128485000Y-89815900D02*
X121966000Y-89815900D01*
X129350000Y-88951200D02*
X128485000Y-89815900D01*
X129350000Y-88500000D02*
X129350000Y-88951200D01*
X130500000Y-88500000D02*
X129350000Y-88500000D01*
X108500000Y-88500000D02*
X108500000Y-89775100D01*
X98650100Y-88500000D02*
X97500000Y-88500000D01*
X99942400Y-89792300D02*
X98650100Y-88500000D01*
X108483000Y-89792300D02*
X99942400Y-89792300D01*
X108500000Y-89775100D02*
X108483000Y-89792300D01*
X118350000Y-88500000D02*
X119500000Y-88500000D01*
X118350000Y-88951200D02*
X118350000Y-88500000D01*
X117484000Y-89816600D02*
X118350000Y-88951200D01*
X108542000Y-89816600D02*
X117484000Y-89816600D01*
X108500000Y-89775100D02*
X108542000Y-89816600D01*
%TD*%
%TA.AperFunction,Conductor*%
%TO.N,GND1*%
G36*
X120640020Y-84019685D02*
G01*
X120685775Y-84072489D01*
X120695719Y-84141647D01*
X120694598Y-84148192D01*
X120673500Y-84254255D01*
X120673500Y-84411946D01*
X120704261Y-84566589D01*
X120704264Y-84566601D01*
X120764602Y-84712272D01*
X120764609Y-84712285D01*
X120852210Y-84843388D01*
X120852213Y-84843392D01*
X120963707Y-84954886D01*
X120963711Y-84954889D01*
X121094814Y-85042490D01*
X121094827Y-85042497D01*
X121240498Y-85102835D01*
X121240503Y-85102837D01*
X121302656Y-85115200D01*
X121395884Y-85133745D01*
X121457795Y-85166130D01*
X121459371Y-85167677D01*
X122611048Y-86319267D01*
X124113178Y-87821285D01*
X124146665Y-87882606D01*
X124149500Y-87908969D01*
X124149500Y-89275001D01*
X124149501Y-89275018D01*
X124160000Y-89377796D01*
X124160001Y-89377799D01*
X124205894Y-89516294D01*
X124215186Y-89544334D01*
X124307288Y-89693656D01*
X124431344Y-89817712D01*
X124580666Y-89909814D01*
X124747203Y-89964999D01*
X124849991Y-89975500D01*
X126150008Y-89975499D01*
X126252797Y-89964999D01*
X126419334Y-89909814D01*
X126568656Y-89817712D01*
X126692712Y-89693656D01*
X126784814Y-89544334D01*
X126784814Y-89544331D01*
X126788178Y-89538879D01*
X126840126Y-89492154D01*
X126909088Y-89480931D01*
X126973170Y-89508774D01*
X126981398Y-89516294D01*
X127120213Y-89655109D01*
X127292179Y-89780048D01*
X127292181Y-89780049D01*
X127292184Y-89780051D01*
X127481588Y-89876557D01*
X127683757Y-89942246D01*
X127893713Y-89975500D01*
X127893714Y-89975500D01*
X128106286Y-89975500D01*
X128106287Y-89975500D01*
X128316243Y-89942246D01*
X128518412Y-89876557D01*
X128707816Y-89780051D01*
X128729789Y-89764086D01*
X128879786Y-89655109D01*
X128879788Y-89655106D01*
X128879792Y-89655104D01*
X129030104Y-89504792D01*
X129030106Y-89504788D01*
X129030109Y-89504786D01*
X129155048Y-89332820D01*
X129155047Y-89332820D01*
X129155051Y-89332816D01*
X129251557Y-89143412D01*
X129317246Y-88941243D01*
X129350500Y-88731287D01*
X129350500Y-88268713D01*
X129317246Y-88058757D01*
X129251557Y-87856588D01*
X129155051Y-87667184D01*
X129155049Y-87667181D01*
X129155048Y-87667179D01*
X129030109Y-87495213D01*
X128879786Y-87344890D01*
X128707820Y-87219951D01*
X128518414Y-87123444D01*
X128518413Y-87123443D01*
X128518412Y-87123443D01*
X128316243Y-87057754D01*
X128316241Y-87057753D01*
X128316240Y-87057753D01*
X128154957Y-87032208D01*
X128106287Y-87024500D01*
X127893713Y-87024500D01*
X127845042Y-87032208D01*
X127683760Y-87057753D01*
X127481585Y-87123444D01*
X127292179Y-87219951D01*
X127120215Y-87344889D01*
X126981398Y-87483706D01*
X126920075Y-87517190D01*
X126850383Y-87512206D01*
X126794450Y-87470334D01*
X126788178Y-87461120D01*
X126692712Y-87306344D01*
X126568657Y-87182289D01*
X126568656Y-87182288D01*
X126419334Y-87090186D01*
X126252797Y-87035001D01*
X126252795Y-87035000D01*
X126150016Y-87024500D01*
X126150009Y-87024500D01*
X125066228Y-87024500D01*
X124999189Y-87004815D01*
X124978550Y-86988184D01*
X122308569Y-84318401D01*
X122299505Y-84301803D01*
X122286372Y-84288193D01*
X122275968Y-84258703D01*
X122275082Y-84257080D01*
X122274630Y-84254909D01*
X122253402Y-84148192D01*
X122259629Y-84078600D01*
X122302492Y-84023423D01*
X122368381Y-84000178D01*
X122375019Y-84000000D01*
X131099402Y-84000000D01*
X131166441Y-84019685D01*
X131187083Y-84036319D01*
X135113181Y-87962417D01*
X135146666Y-88023740D01*
X135149500Y-88050098D01*
X135149500Y-89275001D01*
X135149501Y-89275018D01*
X135160000Y-89377796D01*
X135160001Y-89377799D01*
X135205894Y-89516294D01*
X135215186Y-89544334D01*
X135307288Y-89693656D01*
X135431344Y-89817712D01*
X135580666Y-89909814D01*
X135747203Y-89964999D01*
X135849991Y-89975500D01*
X137150008Y-89975499D01*
X137252797Y-89964999D01*
X137419334Y-89909814D01*
X137568656Y-89817712D01*
X137692712Y-89693656D01*
X137784814Y-89544334D01*
X137784814Y-89544331D01*
X137788178Y-89538879D01*
X137840126Y-89492154D01*
X137909088Y-89480931D01*
X137973170Y-89508774D01*
X137981398Y-89516294D01*
X138120213Y-89655109D01*
X138292179Y-89780048D01*
X138292181Y-89780049D01*
X138292184Y-89780051D01*
X138481588Y-89876557D01*
X138683757Y-89942246D01*
X138893713Y-89975500D01*
X138893714Y-89975500D01*
X139106286Y-89975500D01*
X139106287Y-89975500D01*
X139316243Y-89942246D01*
X139518412Y-89876557D01*
X139707816Y-89780051D01*
X139729789Y-89764086D01*
X139879786Y-89655109D01*
X139879788Y-89655106D01*
X139879792Y-89655104D01*
X140030104Y-89504792D01*
X140030106Y-89504788D01*
X140030109Y-89504786D01*
X140155048Y-89332820D01*
X140155047Y-89332820D01*
X140155051Y-89332816D01*
X140251557Y-89143412D01*
X140317246Y-88941243D01*
X140350500Y-88731287D01*
X140350500Y-88268713D01*
X140317246Y-88058757D01*
X140251557Y-87856588D01*
X140155051Y-87667184D01*
X140155049Y-87667181D01*
X140155048Y-87667179D01*
X140030109Y-87495213D01*
X139879786Y-87344890D01*
X139707820Y-87219951D01*
X139518414Y-87123444D01*
X139518413Y-87123443D01*
X139518412Y-87123443D01*
X139316243Y-87057754D01*
X139316241Y-87057753D01*
X139316240Y-87057753D01*
X139154957Y-87032208D01*
X139106287Y-87024500D01*
X138893713Y-87024500D01*
X138845042Y-87032208D01*
X138683760Y-87057753D01*
X138481585Y-87123444D01*
X138292179Y-87219951D01*
X138120215Y-87344889D01*
X137981398Y-87483706D01*
X137920075Y-87517190D01*
X137850383Y-87512206D01*
X137794450Y-87470334D01*
X137788178Y-87461120D01*
X137692712Y-87306344D01*
X137568657Y-87182289D01*
X137568656Y-87182288D01*
X137419334Y-87090186D01*
X137252797Y-87035001D01*
X137252795Y-87035000D01*
X137150016Y-87024500D01*
X137150009Y-87024500D01*
X135925098Y-87024500D01*
X135858059Y-87004815D01*
X135837417Y-86988181D01*
X133060917Y-84211681D01*
X133027432Y-84150358D01*
X133032416Y-84080666D01*
X133074288Y-84024733D01*
X133139752Y-84000316D01*
X133148598Y-84000000D01*
X148336164Y-84000000D01*
X148403203Y-84019685D01*
X148448958Y-84072489D01*
X148458902Y-84141647D01*
X148429877Y-84205203D01*
X148394603Y-84231551D01*
X148395302Y-84232783D01*
X148390456Y-84235531D01*
X148202485Y-84365759D01*
X148202473Y-84365769D01*
X148040769Y-84527473D01*
X148040759Y-84527485D01*
X147910531Y-84715456D01*
X147910528Y-84715462D01*
X147815949Y-84923684D01*
X147760070Y-85145447D01*
X147749500Y-85279747D01*
X147749500Y-87370238D01*
X147749501Y-87370253D01*
X147756223Y-87455663D01*
X147760070Y-87504553D01*
X147801196Y-87667764D01*
X147815949Y-87726315D01*
X147910528Y-87934537D01*
X147910531Y-87934543D01*
X148040759Y-88122514D01*
X148040763Y-88122519D01*
X148040766Y-88122523D01*
X148202477Y-88284234D01*
X148202481Y-88284237D01*
X148202485Y-88284240D01*
X148390456Y-88414468D01*
X148390462Y-88414471D01*
X148390463Y-88414471D01*
X148390464Y-88414472D01*
X148598684Y-88509051D01*
X148820447Y-88564930D01*
X148954753Y-88575500D01*
X151045246Y-88575499D01*
X151179553Y-88564930D01*
X151401316Y-88509051D01*
X151609536Y-88414472D01*
X151609538Y-88414470D01*
X151609543Y-88414468D01*
X151797514Y-88284240D01*
X151797523Y-88284234D01*
X151959234Y-88122523D01*
X152009410Y-88050098D01*
X152089468Y-87934543D01*
X152089471Y-87934537D01*
X152089472Y-87934536D01*
X152184051Y-87726316D01*
X152239930Y-87504553D01*
X152250500Y-87370247D01*
X152250499Y-85279754D01*
X152239930Y-85145447D01*
X152184051Y-84923684D01*
X152089472Y-84715464D01*
X152089471Y-84715462D01*
X152089468Y-84715456D01*
X151959240Y-84527485D01*
X151959237Y-84527481D01*
X151959234Y-84527477D01*
X151797523Y-84365766D01*
X151797519Y-84365763D01*
X151797514Y-84365759D01*
X151609543Y-84235531D01*
X151604698Y-84232783D01*
X151605712Y-84230994D01*
X151559659Y-84191255D01*
X151539836Y-84124256D01*
X151559382Y-84057176D01*
X151612092Y-84011312D01*
X151663836Y-84000000D01*
X169375500Y-84000000D01*
X169442539Y-84019685D01*
X169488294Y-84072489D01*
X169499500Y-84124000D01*
X169499500Y-94201991D01*
X169479815Y-94269030D01*
X169427011Y-94314785D01*
X169357853Y-94324729D01*
X169294297Y-94295704D01*
X169266142Y-94260444D01*
X169177859Y-94095279D01*
X169177858Y-94095277D01*
X169177853Y-94095268D01*
X168975854Y-93792956D01*
X168745197Y-93511899D01*
X168745196Y-93511898D01*
X168745192Y-93511893D01*
X168488106Y-93254807D01*
X168207049Y-93024150D01*
X168207048Y-93024149D01*
X168207044Y-93024146D01*
X167904732Y-92822147D01*
X167904727Y-92822144D01*
X167904720Y-92822140D01*
X167584083Y-92650756D01*
X167584078Y-92650754D01*
X167248165Y-92511614D01*
X166900223Y-92406067D01*
X166900212Y-92406064D01*
X166543630Y-92335137D01*
X166271111Y-92308296D01*
X166181794Y-92299500D01*
X165818206Y-92299500D01*
X165735679Y-92307628D01*
X165456369Y-92335137D01*
X165099787Y-92406064D01*
X165099776Y-92406067D01*
X164751834Y-92511614D01*
X164415921Y-92650754D01*
X164415916Y-92650756D01*
X164095279Y-92822140D01*
X164095261Y-92822151D01*
X163792964Y-93024140D01*
X163792950Y-93024150D01*
X163511893Y-93254807D01*
X163254807Y-93511893D01*
X163024150Y-93792950D01*
X163024140Y-93792964D01*
X162822151Y-94095261D01*
X162822140Y-94095279D01*
X162650756Y-94415916D01*
X162650754Y-94415921D01*
X162511614Y-94751834D01*
X162406067Y-95099776D01*
X162406064Y-95099787D01*
X162335137Y-95456369D01*
X162311556Y-95695800D01*
X162299500Y-95818206D01*
X162299500Y-96181794D01*
X162304299Y-96230519D01*
X162335137Y-96543630D01*
X162406064Y-96900212D01*
X162406067Y-96900223D01*
X162511614Y-97248165D01*
X162650754Y-97584078D01*
X162650756Y-97584083D01*
X162822140Y-97904720D01*
X162822151Y-97904738D01*
X163024140Y-98207035D01*
X163024150Y-98207049D01*
X163254807Y-98488106D01*
X163511893Y-98745192D01*
X163511898Y-98745196D01*
X163511899Y-98745197D01*
X163792956Y-98975854D01*
X164095268Y-99177853D01*
X164095277Y-99177858D01*
X164095279Y-99177859D01*
X164260445Y-99266142D01*
X164310289Y-99315104D01*
X164325750Y-99383242D01*
X164301918Y-99448921D01*
X164246361Y-99491290D01*
X164201992Y-99499500D01*
X75798008Y-99499500D01*
X75730969Y-99479815D01*
X75685214Y-99427011D01*
X75675270Y-99357853D01*
X75704295Y-99294297D01*
X75739555Y-99266142D01*
X75838608Y-99213197D01*
X75904732Y-99177853D01*
X76207044Y-98975854D01*
X76488101Y-98745197D01*
X76745197Y-98488101D01*
X76975854Y-98207044D01*
X77177853Y-97904732D01*
X77349247Y-97584076D01*
X77488386Y-97248164D01*
X77593930Y-96900233D01*
X77593932Y-96900223D01*
X77593935Y-96900212D01*
X77664862Y-96543630D01*
X77695701Y-96230519D01*
X77700500Y-96181794D01*
X77700500Y-95818206D01*
X77664862Y-95456369D01*
X77655502Y-95409312D01*
X77593935Y-95099787D01*
X77593932Y-95099776D01*
X77593931Y-95099773D01*
X77593930Y-95099767D01*
X77533810Y-94901577D01*
X82349500Y-94901577D01*
X82349500Y-95098422D01*
X82380290Y-95292826D01*
X82441117Y-95480029D01*
X82530476Y-95655405D01*
X82646172Y-95814646D01*
X82785354Y-95953828D01*
X82944595Y-96069524D01*
X83027455Y-96111743D01*
X83119970Y-96158882D01*
X83119972Y-96158882D01*
X83119975Y-96158884D01*
X83220317Y-96191487D01*
X83307173Y-96219709D01*
X83501578Y-96250500D01*
X83501583Y-96250500D01*
X84498422Y-96250500D01*
X84692826Y-96219709D01*
X84880025Y-96158884D01*
X85055405Y-96069524D01*
X85214646Y-95953828D01*
X85353828Y-95814646D01*
X85469524Y-95655405D01*
X85558884Y-95480025D01*
X85619709Y-95292826D01*
X85632439Y-95212453D01*
X85650500Y-95098422D01*
X85650500Y-94901577D01*
X93349500Y-94901577D01*
X93349500Y-95098422D01*
X93380290Y-95292826D01*
X93441117Y-95480029D01*
X93530476Y-95655405D01*
X93646172Y-95814646D01*
X93785354Y-95953828D01*
X93944595Y-96069524D01*
X94027455Y-96111743D01*
X94119970Y-96158882D01*
X94119972Y-96158882D01*
X94119975Y-96158884D01*
X94220317Y-96191487D01*
X94307173Y-96219709D01*
X94501578Y-96250500D01*
X94501583Y-96250500D01*
X95498422Y-96250500D01*
X95692826Y-96219709D01*
X95880025Y-96158884D01*
X96055405Y-96069524D01*
X96214646Y-95953828D01*
X96353828Y-95814646D01*
X96469524Y-95655405D01*
X96558884Y-95480025D01*
X96619709Y-95292826D01*
X96632439Y-95212453D01*
X96650500Y-95098422D01*
X96650500Y-94901577D01*
X104349500Y-94901577D01*
X104349500Y-95098422D01*
X104380290Y-95292826D01*
X104441117Y-95480029D01*
X104530476Y-95655405D01*
X104646172Y-95814646D01*
X104785354Y-95953828D01*
X104944595Y-96069524D01*
X105027455Y-96111743D01*
X105119970Y-96158882D01*
X105119972Y-96158882D01*
X105119975Y-96158884D01*
X105220317Y-96191487D01*
X105307173Y-96219709D01*
X105501578Y-96250500D01*
X105501583Y-96250500D01*
X106498422Y-96250500D01*
X106692826Y-96219709D01*
X106880025Y-96158884D01*
X107055405Y-96069524D01*
X107214646Y-95953828D01*
X107353828Y-95814646D01*
X107469524Y-95655405D01*
X107558884Y-95480025D01*
X107619709Y-95292826D01*
X107632439Y-95212453D01*
X107650500Y-95098422D01*
X107650500Y-94901577D01*
X115349500Y-94901577D01*
X115349500Y-95098422D01*
X115380290Y-95292826D01*
X115441117Y-95480029D01*
X115530476Y-95655405D01*
X115646172Y-95814646D01*
X115785354Y-95953828D01*
X115944595Y-96069524D01*
X116027455Y-96111743D01*
X116119970Y-96158882D01*
X116119972Y-96158882D01*
X116119975Y-96158884D01*
X116220317Y-96191487D01*
X116307173Y-96219709D01*
X116501578Y-96250500D01*
X116501583Y-96250500D01*
X117498422Y-96250500D01*
X117692826Y-96219709D01*
X117880025Y-96158884D01*
X118055405Y-96069524D01*
X118214646Y-95953828D01*
X118353828Y-95814646D01*
X118469524Y-95655405D01*
X118558884Y-95480025D01*
X118619709Y-95292826D01*
X118632439Y-95212453D01*
X118650500Y-95098422D01*
X118650500Y-94901577D01*
X126349500Y-94901577D01*
X126349500Y-95098422D01*
X126380290Y-95292826D01*
X126441117Y-95480029D01*
X126530476Y-95655405D01*
X126646172Y-95814646D01*
X126785354Y-95953828D01*
X126944595Y-96069524D01*
X127027455Y-96111743D01*
X127119970Y-96158882D01*
X127119972Y-96158882D01*
X127119975Y-96158884D01*
X127220317Y-96191487D01*
X127307173Y-96219709D01*
X127501578Y-96250500D01*
X127501583Y-96250500D01*
X128498422Y-96250500D01*
X128692826Y-96219709D01*
X128880025Y-96158884D01*
X129055405Y-96069524D01*
X129214646Y-95953828D01*
X129353828Y-95814646D01*
X129469524Y-95655405D01*
X129558884Y-95480025D01*
X129619709Y-95292826D01*
X129632439Y-95212453D01*
X129650500Y-95098422D01*
X129650500Y-94901577D01*
X137349500Y-94901577D01*
X137349500Y-95098422D01*
X137380290Y-95292826D01*
X137441117Y-95480029D01*
X137530476Y-95655405D01*
X137646172Y-95814646D01*
X137785354Y-95953828D01*
X137944595Y-96069524D01*
X138027455Y-96111743D01*
X138119970Y-96158882D01*
X138119972Y-96158882D01*
X138119975Y-96158884D01*
X138220317Y-96191487D01*
X138307173Y-96219709D01*
X138501578Y-96250500D01*
X138501583Y-96250500D01*
X139498422Y-96250500D01*
X139624613Y-96230513D01*
X145799500Y-96230513D01*
X145799500Y-96419486D01*
X145829059Y-96606118D01*
X145887454Y-96785836D01*
X145945732Y-96900212D01*
X145973240Y-96954199D01*
X146084310Y-97107073D01*
X146217927Y-97240690D01*
X146370801Y-97351760D01*
X146450347Y-97392290D01*
X146539163Y-97437545D01*
X146539165Y-97437545D01*
X146539168Y-97437547D01*
X146635497Y-97468846D01*
X146718881Y-97495940D01*
X146905514Y-97525500D01*
X146905519Y-97525500D01*
X147094486Y-97525500D01*
X147281118Y-97495940D01*
X147460832Y-97437547D01*
X147629199Y-97351760D01*
X147782073Y-97240690D01*
X147915690Y-97107073D01*
X148026760Y-96954199D01*
X148112547Y-96785832D01*
X148170940Y-96606118D01*
X148180837Y-96543630D01*
X148200500Y-96419486D01*
X148200500Y-96230513D01*
X156799500Y-96230513D01*
X156799500Y-96419486D01*
X156829059Y-96606118D01*
X156887454Y-96785836D01*
X156945732Y-96900212D01*
X156973240Y-96954199D01*
X157084310Y-97107073D01*
X157217927Y-97240690D01*
X157370801Y-97351760D01*
X157450347Y-97392290D01*
X157539163Y-97437545D01*
X157539165Y-97437545D01*
X157539168Y-97437547D01*
X157635497Y-97468846D01*
X157718881Y-97495940D01*
X157905514Y-97525500D01*
X157905519Y-97525500D01*
X158094486Y-97525500D01*
X158281118Y-97495940D01*
X158460832Y-97437547D01*
X158629199Y-97351760D01*
X158782073Y-97240690D01*
X158915690Y-97107073D01*
X159026760Y-96954199D01*
X159112547Y-96785832D01*
X159170940Y-96606118D01*
X159180837Y-96543630D01*
X159200500Y-96419486D01*
X159200500Y-96230513D01*
X159170940Y-96043881D01*
X159141679Y-95953828D01*
X159112547Y-95864168D01*
X159112545Y-95864165D01*
X159112545Y-95864163D01*
X159026759Y-95695800D01*
X158997410Y-95655405D01*
X158915690Y-95542927D01*
X158782073Y-95409310D01*
X158629199Y-95298240D01*
X158460836Y-95212454D01*
X158281118Y-95154059D01*
X158094486Y-95124500D01*
X158094481Y-95124500D01*
X157905519Y-95124500D01*
X157905514Y-95124500D01*
X157718881Y-95154059D01*
X157539163Y-95212454D01*
X157370800Y-95298240D01*
X157283579Y-95361610D01*
X157217927Y-95409310D01*
X157217925Y-95409312D01*
X157217924Y-95409312D01*
X157084312Y-95542924D01*
X157084312Y-95542925D01*
X157084310Y-95542927D01*
X157036610Y-95608579D01*
X156973240Y-95695800D01*
X156887454Y-95864163D01*
X156829059Y-96043881D01*
X156799500Y-96230513D01*
X148200500Y-96230513D01*
X148170940Y-96043881D01*
X148141679Y-95953828D01*
X148112547Y-95864168D01*
X148112545Y-95864165D01*
X148112545Y-95864163D01*
X148026759Y-95695800D01*
X147997410Y-95655405D01*
X147915690Y-95542927D01*
X147782073Y-95409310D01*
X147629199Y-95298240D01*
X147460836Y-95212454D01*
X147281118Y-95154059D01*
X147094486Y-95124500D01*
X147094481Y-95124500D01*
X146905519Y-95124500D01*
X146905514Y-95124500D01*
X146718881Y-95154059D01*
X146539163Y-95212454D01*
X146370800Y-95298240D01*
X146283579Y-95361610D01*
X146217927Y-95409310D01*
X146217925Y-95409312D01*
X146217924Y-95409312D01*
X146084312Y-95542924D01*
X146084312Y-95542925D01*
X146084310Y-95542927D01*
X146036610Y-95608579D01*
X145973240Y-95695800D01*
X145887454Y-95864163D01*
X145829059Y-96043881D01*
X145799500Y-96230513D01*
X139624613Y-96230513D01*
X139692826Y-96219709D01*
X139880025Y-96158884D01*
X140055405Y-96069524D01*
X140214646Y-95953828D01*
X140353828Y-95814646D01*
X140469524Y-95655405D01*
X140558884Y-95480025D01*
X140619709Y-95292826D01*
X140632439Y-95212453D01*
X140650500Y-95098422D01*
X140650500Y-94901577D01*
X140619709Y-94707173D01*
X140558882Y-94519970D01*
X140469523Y-94344594D01*
X140353828Y-94185354D01*
X140214646Y-94046172D01*
X140055405Y-93930476D01*
X139880029Y-93841117D01*
X139692826Y-93780290D01*
X139498422Y-93749500D01*
X139498417Y-93749500D01*
X138501583Y-93749500D01*
X138501578Y-93749500D01*
X138307173Y-93780290D01*
X138119970Y-93841117D01*
X137944594Y-93930476D01*
X137853741Y-93996485D01*
X137785354Y-94046172D01*
X137785352Y-94046174D01*
X137785351Y-94046174D01*
X137646174Y-94185351D01*
X137646174Y-94185352D01*
X137646172Y-94185354D01*
X137601848Y-94246360D01*
X137530476Y-94344594D01*
X137441117Y-94519970D01*
X137380290Y-94707173D01*
X137349500Y-94901577D01*
X129650500Y-94901577D01*
X129619709Y-94707173D01*
X129558882Y-94519970D01*
X129469523Y-94344594D01*
X129353828Y-94185354D01*
X129214646Y-94046172D01*
X129055405Y-93930476D01*
X128880029Y-93841117D01*
X128692826Y-93780290D01*
X128498422Y-93749500D01*
X128498417Y-93749500D01*
X127501583Y-93749500D01*
X127501578Y-93749500D01*
X127307173Y-93780290D01*
X127119970Y-93841117D01*
X126944594Y-93930476D01*
X126853741Y-93996485D01*
X126785354Y-94046172D01*
X126785352Y-94046174D01*
X126785351Y-94046174D01*
X126646174Y-94185351D01*
X126646174Y-94185352D01*
X126646172Y-94185354D01*
X126601848Y-94246360D01*
X126530476Y-94344594D01*
X126441117Y-94519970D01*
X126380290Y-94707173D01*
X126349500Y-94901577D01*
X118650500Y-94901577D01*
X118619709Y-94707173D01*
X118558882Y-94519970D01*
X118469523Y-94344594D01*
X118353828Y-94185354D01*
X118214646Y-94046172D01*
X118055405Y-93930476D01*
X117880029Y-93841117D01*
X117692826Y-93780290D01*
X117498422Y-93749500D01*
X117498417Y-93749500D01*
X116501583Y-93749500D01*
X116501578Y-93749500D01*
X116307173Y-93780290D01*
X116119970Y-93841117D01*
X115944594Y-93930476D01*
X115853741Y-93996485D01*
X115785354Y-94046172D01*
X115785352Y-94046174D01*
X115785351Y-94046174D01*
X115646174Y-94185351D01*
X115646174Y-94185352D01*
X115646172Y-94185354D01*
X115601848Y-94246360D01*
X115530476Y-94344594D01*
X115441117Y-94519970D01*
X115380290Y-94707173D01*
X115349500Y-94901577D01*
X107650500Y-94901577D01*
X107619709Y-94707173D01*
X107558882Y-94519970D01*
X107469523Y-94344594D01*
X107353828Y-94185354D01*
X107214646Y-94046172D01*
X107055405Y-93930476D01*
X106880029Y-93841117D01*
X106692826Y-93780290D01*
X106498422Y-93749500D01*
X106498417Y-93749500D01*
X105501583Y-93749500D01*
X105501578Y-93749500D01*
X105307173Y-93780290D01*
X105119970Y-93841117D01*
X104944594Y-93930476D01*
X104853741Y-93996485D01*
X104785354Y-94046172D01*
X104785352Y-94046174D01*
X104785351Y-94046174D01*
X104646174Y-94185351D01*
X104646174Y-94185352D01*
X104646172Y-94185354D01*
X104601848Y-94246360D01*
X104530476Y-94344594D01*
X104441117Y-94519970D01*
X104380290Y-94707173D01*
X104349500Y-94901577D01*
X96650500Y-94901577D01*
X96619709Y-94707173D01*
X96558882Y-94519970D01*
X96469523Y-94344594D01*
X96353828Y-94185354D01*
X96214646Y-94046172D01*
X96055405Y-93930476D01*
X95880029Y-93841117D01*
X95692826Y-93780290D01*
X95498422Y-93749500D01*
X95498417Y-93749500D01*
X94501583Y-93749500D01*
X94501578Y-93749500D01*
X94307173Y-93780290D01*
X94119970Y-93841117D01*
X93944594Y-93930476D01*
X93853741Y-93996485D01*
X93785354Y-94046172D01*
X93785352Y-94046174D01*
X93785351Y-94046174D01*
X93646174Y-94185351D01*
X93646174Y-94185352D01*
X93646172Y-94185354D01*
X93601848Y-94246360D01*
X93530476Y-94344594D01*
X93441117Y-94519970D01*
X93380290Y-94707173D01*
X93349500Y-94901577D01*
X85650500Y-94901577D01*
X85619709Y-94707173D01*
X85558882Y-94519970D01*
X85469523Y-94344594D01*
X85353828Y-94185354D01*
X85214646Y-94046172D01*
X85055405Y-93930476D01*
X84880029Y-93841117D01*
X84692826Y-93780290D01*
X84498422Y-93749500D01*
X84498417Y-93749500D01*
X83501583Y-93749500D01*
X83501578Y-93749500D01*
X83307173Y-93780290D01*
X83119970Y-93841117D01*
X82944594Y-93930476D01*
X82853741Y-93996485D01*
X82785354Y-94046172D01*
X82785352Y-94046174D01*
X82785351Y-94046174D01*
X82646174Y-94185351D01*
X82646174Y-94185352D01*
X82646172Y-94185354D01*
X82601848Y-94246360D01*
X82530476Y-94344594D01*
X82441117Y-94519970D01*
X82380290Y-94707173D01*
X82349500Y-94901577D01*
X77533810Y-94901577D01*
X77488386Y-94751836D01*
X77349247Y-94415924D01*
X77311120Y-94344594D01*
X77177859Y-94095279D01*
X77177858Y-94095277D01*
X77177853Y-94095268D01*
X76975854Y-93792956D01*
X76745197Y-93511899D01*
X76745196Y-93511898D01*
X76745192Y-93511893D01*
X76488106Y-93254807D01*
X76207049Y-93024150D01*
X76207048Y-93024149D01*
X76207044Y-93024146D01*
X75904732Y-92822147D01*
X75904727Y-92822144D01*
X75904720Y-92822140D01*
X75584083Y-92650756D01*
X75584078Y-92650754D01*
X75248165Y-92511614D01*
X74900223Y-92406067D01*
X74900212Y-92406064D01*
X74543630Y-92335137D01*
X74271111Y-92308296D01*
X74181794Y-92299500D01*
X73818206Y-92299500D01*
X73735679Y-92307628D01*
X73456369Y-92335137D01*
X73099787Y-92406064D01*
X73099776Y-92406067D01*
X72751834Y-92511614D01*
X72415921Y-92650754D01*
X72415916Y-92650756D01*
X72095279Y-92822140D01*
X72095261Y-92822151D01*
X71792964Y-93024140D01*
X71792950Y-93024150D01*
X71511893Y-93254807D01*
X71254807Y-93511893D01*
X71024150Y-93792950D01*
X71024140Y-93792964D01*
X70822151Y-94095261D01*
X70822140Y-94095279D01*
X70733858Y-94260444D01*
X70684896Y-94310289D01*
X70616758Y-94325749D01*
X70551078Y-94301917D01*
X70508710Y-94246360D01*
X70500500Y-94201991D01*
X70500500Y-87724983D01*
X80149500Y-87724983D01*
X80149500Y-89275001D01*
X80149501Y-89275018D01*
X80160000Y-89377796D01*
X80160001Y-89377799D01*
X80205894Y-89516294D01*
X80215186Y-89544334D01*
X80307288Y-89693656D01*
X80431344Y-89817712D01*
X80580666Y-89909814D01*
X80747203Y-89964999D01*
X80849991Y-89975500D01*
X82150008Y-89975499D01*
X82252797Y-89964999D01*
X82419334Y-89909814D01*
X82568656Y-89817712D01*
X82692712Y-89693656D01*
X82784814Y-89544334D01*
X82784814Y-89544331D01*
X82788178Y-89538879D01*
X82840126Y-89492154D01*
X82909088Y-89480931D01*
X82973170Y-89508774D01*
X82981398Y-89516294D01*
X83120213Y-89655109D01*
X83292179Y-89780048D01*
X83292181Y-89780049D01*
X83292184Y-89780051D01*
X83481588Y-89876557D01*
X83683757Y-89942246D01*
X83893713Y-89975500D01*
X83893714Y-89975500D01*
X84106286Y-89975500D01*
X84106287Y-89975500D01*
X84316243Y-89942246D01*
X84518412Y-89876557D01*
X84707816Y-89780051D01*
X84729789Y-89764086D01*
X84879786Y-89655109D01*
X84879788Y-89655106D01*
X84879792Y-89655104D01*
X85030104Y-89504792D01*
X85030106Y-89504788D01*
X85030109Y-89504786D01*
X85155048Y-89332820D01*
X85155047Y-89332820D01*
X85155051Y-89332816D01*
X85251557Y-89143412D01*
X85317246Y-88941243D01*
X85350500Y-88731287D01*
X85350500Y-88268713D01*
X85317246Y-88058757D01*
X85251557Y-87856588D01*
X85184501Y-87724983D01*
X91149500Y-87724983D01*
X91149500Y-89275001D01*
X91149501Y-89275018D01*
X91160000Y-89377796D01*
X91160001Y-89377799D01*
X91205894Y-89516294D01*
X91215186Y-89544334D01*
X91307288Y-89693656D01*
X91431344Y-89817712D01*
X91580666Y-89909814D01*
X91747203Y-89964999D01*
X91849991Y-89975500D01*
X93150008Y-89975499D01*
X93252797Y-89964999D01*
X93419334Y-89909814D01*
X93568656Y-89817712D01*
X93692712Y-89693656D01*
X93784814Y-89544334D01*
X93784814Y-89544331D01*
X93788178Y-89538879D01*
X93840126Y-89492154D01*
X93909088Y-89480931D01*
X93973170Y-89508774D01*
X93981398Y-89516294D01*
X94120213Y-89655109D01*
X94292179Y-89780048D01*
X94292181Y-89780049D01*
X94292184Y-89780051D01*
X94481588Y-89876557D01*
X94683757Y-89942246D01*
X94893713Y-89975500D01*
X94893714Y-89975500D01*
X95106286Y-89975500D01*
X95106287Y-89975500D01*
X95316243Y-89942246D01*
X95518412Y-89876557D01*
X95707816Y-89780051D01*
X95729789Y-89764086D01*
X95879786Y-89655109D01*
X95879788Y-89655106D01*
X95879792Y-89655104D01*
X96030104Y-89504792D01*
X96030106Y-89504788D01*
X96030109Y-89504786D01*
X96155048Y-89332820D01*
X96155047Y-89332820D01*
X96155051Y-89332816D01*
X96251557Y-89143412D01*
X96317246Y-88941243D01*
X96350500Y-88731287D01*
X96350500Y-88268713D01*
X96317246Y-88058757D01*
X96251557Y-87856588D01*
X96184501Y-87724983D01*
X102149500Y-87724983D01*
X102149500Y-89275001D01*
X102149501Y-89275018D01*
X102160000Y-89377796D01*
X102160001Y-89377799D01*
X102205894Y-89516294D01*
X102215186Y-89544334D01*
X102307288Y-89693656D01*
X102431344Y-89817712D01*
X102580666Y-89909814D01*
X102747203Y-89964999D01*
X102849991Y-89975500D01*
X104150008Y-89975499D01*
X104252797Y-89964999D01*
X104419334Y-89909814D01*
X104568656Y-89817712D01*
X104692712Y-89693656D01*
X104784814Y-89544334D01*
X104784814Y-89544331D01*
X104788178Y-89538879D01*
X104840126Y-89492154D01*
X104909088Y-89480931D01*
X104973170Y-89508774D01*
X104981398Y-89516294D01*
X105120213Y-89655109D01*
X105292179Y-89780048D01*
X105292181Y-89780049D01*
X105292184Y-89780051D01*
X105481588Y-89876557D01*
X105683757Y-89942246D01*
X105893713Y-89975500D01*
X105893714Y-89975500D01*
X106106286Y-89975500D01*
X106106287Y-89975500D01*
X106316243Y-89942246D01*
X106518412Y-89876557D01*
X106707816Y-89780051D01*
X106729789Y-89764086D01*
X106879786Y-89655109D01*
X106879788Y-89655106D01*
X106879792Y-89655104D01*
X107030104Y-89504792D01*
X107030106Y-89504788D01*
X107030109Y-89504786D01*
X107155048Y-89332820D01*
X107155047Y-89332820D01*
X107155051Y-89332816D01*
X107251557Y-89143412D01*
X107317246Y-88941243D01*
X107350500Y-88731287D01*
X107350500Y-88268713D01*
X107317246Y-88058757D01*
X107251557Y-87856588D01*
X107184501Y-87724983D01*
X113149500Y-87724983D01*
X113149500Y-89275001D01*
X113149501Y-89275018D01*
X113160000Y-89377796D01*
X113160001Y-89377799D01*
X113205894Y-89516294D01*
X113215186Y-89544334D01*
X113307288Y-89693656D01*
X113431344Y-89817712D01*
X113580666Y-89909814D01*
X113747203Y-89964999D01*
X113849991Y-89975500D01*
X115150008Y-89975499D01*
X115252797Y-89964999D01*
X115419334Y-89909814D01*
X115568656Y-89817712D01*
X115692712Y-89693656D01*
X115784814Y-89544334D01*
X115784814Y-89544331D01*
X115788178Y-89538879D01*
X115840126Y-89492154D01*
X115909088Y-89480931D01*
X115973170Y-89508774D01*
X115981398Y-89516294D01*
X116120213Y-89655109D01*
X116292179Y-89780048D01*
X116292181Y-89780049D01*
X116292184Y-89780051D01*
X116481588Y-89876557D01*
X116683757Y-89942246D01*
X116893713Y-89975500D01*
X116893714Y-89975500D01*
X117106286Y-89975500D01*
X117106287Y-89975500D01*
X117316243Y-89942246D01*
X117518412Y-89876557D01*
X117707816Y-89780051D01*
X117729789Y-89764086D01*
X117879786Y-89655109D01*
X117879788Y-89655106D01*
X117879792Y-89655104D01*
X118030104Y-89504792D01*
X118030106Y-89504788D01*
X118030109Y-89504786D01*
X118155048Y-89332820D01*
X118155047Y-89332820D01*
X118155051Y-89332816D01*
X118251557Y-89143412D01*
X118317246Y-88941243D01*
X118350500Y-88731287D01*
X118350500Y-88268713D01*
X118317246Y-88058757D01*
X118251557Y-87856588D01*
X118155051Y-87667184D01*
X118155049Y-87667181D01*
X118155048Y-87667179D01*
X118030109Y-87495213D01*
X117879786Y-87344890D01*
X117707820Y-87219951D01*
X117518414Y-87123444D01*
X117518413Y-87123443D01*
X117518412Y-87123443D01*
X117316243Y-87057754D01*
X117316241Y-87057753D01*
X117316240Y-87057753D01*
X117154957Y-87032208D01*
X117106287Y-87024500D01*
X116893713Y-87024500D01*
X116845042Y-87032208D01*
X116683760Y-87057753D01*
X116481585Y-87123444D01*
X116292179Y-87219951D01*
X116120215Y-87344889D01*
X115981398Y-87483706D01*
X115920075Y-87517190D01*
X115850383Y-87512206D01*
X115794450Y-87470334D01*
X115788178Y-87461120D01*
X115692712Y-87306344D01*
X115568657Y-87182289D01*
X115568656Y-87182288D01*
X115419334Y-87090186D01*
X115252797Y-87035001D01*
X115252795Y-87035000D01*
X115150010Y-87024500D01*
X113849998Y-87024500D01*
X113849981Y-87024501D01*
X113747203Y-87035000D01*
X113747200Y-87035001D01*
X113580668Y-87090185D01*
X113580663Y-87090187D01*
X113431342Y-87182289D01*
X113307289Y-87306342D01*
X113215187Y-87455663D01*
X113215185Y-87455668D01*
X113210325Y-87470334D01*
X113160001Y-87622203D01*
X113160001Y-87622204D01*
X113160000Y-87622204D01*
X113149500Y-87724983D01*
X107184501Y-87724983D01*
X107155051Y-87667184D01*
X107155049Y-87667181D01*
X107155048Y-87667179D01*
X107030109Y-87495213D01*
X106879786Y-87344890D01*
X106707820Y-87219951D01*
X106518414Y-87123444D01*
X106518413Y-87123443D01*
X106518412Y-87123443D01*
X106316243Y-87057754D01*
X106316241Y-87057753D01*
X106316240Y-87057753D01*
X106154957Y-87032208D01*
X106106287Y-87024500D01*
X105893713Y-87024500D01*
X105845042Y-87032208D01*
X105683760Y-87057753D01*
X105481585Y-87123444D01*
X105292179Y-87219951D01*
X105120215Y-87344889D01*
X104981398Y-87483706D01*
X104920075Y-87517190D01*
X104850383Y-87512206D01*
X104794450Y-87470334D01*
X104788178Y-87461120D01*
X104692712Y-87306344D01*
X104568657Y-87182289D01*
X104568656Y-87182288D01*
X104419334Y-87090186D01*
X104252797Y-87035001D01*
X104252795Y-87035000D01*
X104150010Y-87024500D01*
X102849998Y-87024500D01*
X102849981Y-87024501D01*
X102747203Y-87035000D01*
X102747200Y-87035001D01*
X102580668Y-87090185D01*
X102580663Y-87090187D01*
X102431342Y-87182289D01*
X102307289Y-87306342D01*
X102215187Y-87455663D01*
X102215185Y-87455668D01*
X102210325Y-87470334D01*
X102160001Y-87622203D01*
X102160001Y-87622204D01*
X102160000Y-87622204D01*
X102149500Y-87724983D01*
X96184501Y-87724983D01*
X96155051Y-87667184D01*
X96155049Y-87667181D01*
X96155048Y-87667179D01*
X96030109Y-87495213D01*
X95879786Y-87344890D01*
X95707820Y-87219951D01*
X95518414Y-87123444D01*
X95518413Y-87123443D01*
X95518412Y-87123443D01*
X95316243Y-87057754D01*
X95316241Y-87057753D01*
X95316240Y-87057753D01*
X95154957Y-87032208D01*
X95106287Y-87024500D01*
X94893713Y-87024500D01*
X94845042Y-87032208D01*
X94683760Y-87057753D01*
X94481585Y-87123444D01*
X94292179Y-87219951D01*
X94120215Y-87344889D01*
X93981398Y-87483706D01*
X93920075Y-87517190D01*
X93850383Y-87512206D01*
X93794450Y-87470334D01*
X93788178Y-87461120D01*
X93692712Y-87306344D01*
X93568657Y-87182289D01*
X93568656Y-87182288D01*
X93419334Y-87090186D01*
X93252797Y-87035001D01*
X93252795Y-87035000D01*
X93150010Y-87024500D01*
X91849998Y-87024500D01*
X91849981Y-87024501D01*
X91747203Y-87035000D01*
X91747200Y-87035001D01*
X91580668Y-87090185D01*
X91580663Y-87090187D01*
X91431342Y-87182289D01*
X91307289Y-87306342D01*
X91215187Y-87455663D01*
X91215185Y-87455668D01*
X91210325Y-87470334D01*
X91160001Y-87622203D01*
X91160001Y-87622204D01*
X91160000Y-87622204D01*
X91149500Y-87724983D01*
X85184501Y-87724983D01*
X85155051Y-87667184D01*
X85155049Y-87667181D01*
X85155048Y-87667179D01*
X85030109Y-87495213D01*
X84879786Y-87344890D01*
X84707820Y-87219951D01*
X84518414Y-87123444D01*
X84518413Y-87123443D01*
X84518412Y-87123443D01*
X84316243Y-87057754D01*
X84316241Y-87057753D01*
X84316240Y-87057753D01*
X84154957Y-87032208D01*
X84106287Y-87024500D01*
X83893713Y-87024500D01*
X83845042Y-87032208D01*
X83683760Y-87057753D01*
X83481585Y-87123444D01*
X83292179Y-87219951D01*
X83120215Y-87344889D01*
X82981398Y-87483706D01*
X82920075Y-87517190D01*
X82850383Y-87512206D01*
X82794450Y-87470334D01*
X82788178Y-87461120D01*
X82692712Y-87306344D01*
X82568657Y-87182289D01*
X82568656Y-87182288D01*
X82419334Y-87090186D01*
X82252797Y-87035001D01*
X82252795Y-87035000D01*
X82150010Y-87024500D01*
X80849998Y-87024500D01*
X80849981Y-87024501D01*
X80747203Y-87035000D01*
X80747200Y-87035001D01*
X80580668Y-87090185D01*
X80580663Y-87090187D01*
X80431342Y-87182289D01*
X80307289Y-87306342D01*
X80215187Y-87455663D01*
X80215185Y-87455668D01*
X80210325Y-87470334D01*
X80160001Y-87622203D01*
X80160001Y-87622204D01*
X80160000Y-87622204D01*
X80149500Y-87724983D01*
X70500500Y-87724983D01*
X70500500Y-84124000D01*
X70520185Y-84056961D01*
X70572989Y-84011206D01*
X70624500Y-84000000D01*
X120572981Y-84000000D01*
X120640020Y-84019685D01*
G37*
%TD.AperFunction*%
%TD*%
%TA.AperFunction,Conductor*%
%TO.N,GND*%
G36*
X164269031Y-40520185D02*
G01*
X164314786Y-40572989D01*
X164324730Y-40642147D01*
X164295705Y-40705703D01*
X164260445Y-40733858D01*
X164095279Y-40822140D01*
X164095261Y-40822151D01*
X163792964Y-41024140D01*
X163792950Y-41024150D01*
X163511893Y-41254807D01*
X163254807Y-41511893D01*
X163024150Y-41792950D01*
X163024140Y-41792964D01*
X162822151Y-42095261D01*
X162822140Y-42095279D01*
X162650756Y-42415916D01*
X162650754Y-42415921D01*
X162511614Y-42751834D01*
X162406067Y-43099776D01*
X162406064Y-43099787D01*
X162335137Y-43456369D01*
X162316116Y-43649500D01*
X162302037Y-43792454D01*
X162299500Y-43818209D01*
X162299500Y-44181790D01*
X162335137Y-44543630D01*
X162406064Y-44900212D01*
X162406067Y-44900223D01*
X162511614Y-45248165D01*
X162650754Y-45584078D01*
X162650756Y-45584083D01*
X162822140Y-45904720D01*
X162822151Y-45904738D01*
X163024140Y-46207035D01*
X163024150Y-46207049D01*
X163254807Y-46488106D01*
X163511893Y-46745192D01*
X163511898Y-46745196D01*
X163511899Y-46745197D01*
X163792956Y-46975854D01*
X164095268Y-47177853D01*
X164095277Y-47177858D01*
X164095279Y-47177859D01*
X164415916Y-47349243D01*
X164415918Y-47349243D01*
X164415924Y-47349247D01*
X164751836Y-47488386D01*
X165099767Y-47593930D01*
X165099773Y-47593931D01*
X165099776Y-47593932D01*
X165099787Y-47593935D01*
X165456369Y-47664862D01*
X165818206Y-47700500D01*
X165818209Y-47700500D01*
X166181791Y-47700500D01*
X166181794Y-47700500D01*
X166543631Y-47664862D01*
X166613045Y-47651054D01*
X166900212Y-47593935D01*
X166900223Y-47593932D01*
X166900223Y-47593931D01*
X166900233Y-47593930D01*
X167248164Y-47488386D01*
X167584076Y-47349247D01*
X167904732Y-47177853D01*
X168207044Y-46975854D01*
X168488101Y-46745197D01*
X168745197Y-46488101D01*
X168975854Y-46207044D01*
X169177853Y-45904732D01*
X169266142Y-45739555D01*
X169315104Y-45689711D01*
X169383242Y-45674250D01*
X169448921Y-45698082D01*
X169491290Y-45753639D01*
X169499500Y-45798008D01*
X169499500Y-83370500D01*
X169479815Y-83437539D01*
X169427011Y-83483294D01*
X169375500Y-83494500D01*
X151663836Y-83494500D01*
X151555876Y-83506163D01*
X151555873Y-83506163D01*
X151555869Y-83506164D01*
X151504132Y-83517475D01*
X151401156Y-83551925D01*
X151401149Y-83551928D01*
X151280277Y-83629961D01*
X151280272Y-83629964D01*
X151230137Y-83673587D01*
X151227920Y-83675410D01*
X151133566Y-83784758D01*
X151133564Y-83784762D01*
X151074066Y-83915758D01*
X151072833Y-83919088D01*
X151031080Y-83975110D01*
X150965668Y-83999665D01*
X150956560Y-84000000D01*
X149041977Y-84000000D01*
X148974938Y-83980315D01*
X148929183Y-83927511D01*
X148923000Y-83910935D01*
X148908777Y-83862496D01*
X148830989Y-83741457D01*
X148813950Y-83721793D01*
X148785240Y-83688659D01*
X148785236Y-83688656D01*
X148785234Y-83688653D01*
X148676500Y-83594433D01*
X148676497Y-83594431D01*
X148676495Y-83594430D01*
X148545629Y-83534664D01*
X148545624Y-83534662D01*
X148545623Y-83534662D01*
X148478584Y-83514977D01*
X148478586Y-83514977D01*
X148478581Y-83514976D01*
X148416518Y-83506053D01*
X148336164Y-83494500D01*
X133148598Y-83494500D01*
X133148579Y-83494500D01*
X133130596Y-83494820D01*
X133122951Y-83495093D01*
X133121706Y-83495138D01*
X133121702Y-83495138D01*
X133121680Y-83495139D01*
X133103694Y-83496103D01*
X133103679Y-83496105D01*
X132963103Y-83526686D01*
X132963098Y-83526687D01*
X132963097Y-83526688D01*
X132947271Y-83532590D01*
X132897631Y-83551105D01*
X132897627Y-83551107D01*
X132771357Y-83620056D01*
X132771356Y-83620057D01*
X132708002Y-83683409D01*
X132646678Y-83716893D01*
X132576987Y-83711907D01*
X132532642Y-83683407D01*
X127816590Y-78967355D01*
X127816588Y-78967352D01*
X127697717Y-78848481D01*
X127697716Y-78848480D01*
X127586973Y-78784543D01*
X127586972Y-78784542D01*
X127560783Y-78769422D01*
X127504881Y-78754443D01*
X127408057Y-78728499D01*
X127249943Y-78728499D01*
X127242347Y-78728499D01*
X127242331Y-78728500D01*
X122637766Y-78728500D01*
X122570727Y-78708815D01*
X122568875Y-78707602D01*
X122437185Y-78619609D01*
X122437172Y-78619602D01*
X122291501Y-78559264D01*
X122291489Y-78559261D01*
X122136845Y-78528500D01*
X122136842Y-78528500D01*
X121979158Y-78528500D01*
X121979155Y-78528500D01*
X121824510Y-78559261D01*
X121824498Y-78559264D01*
X121678827Y-78619602D01*
X121678814Y-78619609D01*
X121547711Y-78707210D01*
X121547707Y-78707213D01*
X121436213Y-78818707D01*
X121436210Y-78818711D01*
X121348609Y-78949814D01*
X121348602Y-78949827D01*
X121288264Y-79095498D01*
X121288261Y-79095510D01*
X121257500Y-79250153D01*
X121257500Y-79407846D01*
X121288261Y-79562489D01*
X121288264Y-79562501D01*
X121348602Y-79708172D01*
X121348609Y-79708185D01*
X121436210Y-79839288D01*
X121436213Y-79839292D01*
X121547707Y-79950786D01*
X121547711Y-79950789D01*
X121678814Y-80038390D01*
X121678827Y-80038397D01*
X121794315Y-80086233D01*
X121824503Y-80098737D01*
X121979153Y-80129499D01*
X121979156Y-80129500D01*
X121979158Y-80129500D01*
X122136844Y-80129500D01*
X122136845Y-80129499D01*
X122291497Y-80098737D01*
X122437179Y-80038394D01*
X122437185Y-80038390D01*
X122568875Y-79950398D01*
X122635553Y-79929520D01*
X122637766Y-79929500D01*
X127028903Y-79929500D01*
X127095942Y-79949185D01*
X127116584Y-79965819D01*
X130433584Y-83282819D01*
X130467069Y-83344142D01*
X130462085Y-83413834D01*
X130420213Y-83469767D01*
X130354749Y-83494184D01*
X130345903Y-83494500D01*
X122375019Y-83494500D01*
X122371255Y-83494550D01*
X122361443Y-83494682D01*
X122354858Y-83494859D01*
X122354837Y-83494859D01*
X122354831Y-83494860D01*
X122347894Y-83495138D01*
X122341318Y-83495403D01*
X122341316Y-83495403D01*
X122200203Y-83523473D01*
X122200201Y-83523474D01*
X122134322Y-83546716D01*
X122134302Y-83546725D01*
X122006827Y-83613406D01*
X121999633Y-83618594D01*
X121998255Y-83616684D01*
X121947635Y-83643154D01*
X121878044Y-83636916D01*
X121854576Y-83624638D01*
X121853190Y-83623712D01*
X121853172Y-83623702D01*
X121707501Y-83563364D01*
X121707489Y-83563361D01*
X121552845Y-83532600D01*
X121552842Y-83532600D01*
X121395158Y-83532600D01*
X121395155Y-83532600D01*
X121240510Y-83563361D01*
X121240498Y-83563364D01*
X121094828Y-83623702D01*
X121094810Y-83623712D01*
X121090033Y-83626904D01*
X121023354Y-83647776D01*
X120955975Y-83629286D01*
X120939949Y-83617509D01*
X120913320Y-83594435D01*
X120913312Y-83594430D01*
X120782446Y-83534664D01*
X120782441Y-83534662D01*
X120782440Y-83534662D01*
X120715401Y-83514977D01*
X120715403Y-83514977D01*
X120715398Y-83514976D01*
X120653335Y-83506053D01*
X120572981Y-83494500D01*
X70624500Y-83494500D01*
X70557461Y-83474815D01*
X70511706Y-83422011D01*
X70500500Y-83370500D01*
X70500500Y-76751577D01*
X72749500Y-76751577D01*
X72749500Y-77748422D01*
X72780290Y-77942826D01*
X72841117Y-78130029D01*
X72930476Y-78305405D01*
X73046172Y-78464646D01*
X73185354Y-78603828D01*
X73344595Y-78719524D01*
X73362210Y-78728499D01*
X73519970Y-78808882D01*
X73519972Y-78808882D01*
X73519975Y-78808884D01*
X73620317Y-78841487D01*
X73707173Y-78869709D01*
X73901578Y-78900500D01*
X73901583Y-78900500D01*
X74098422Y-78900500D01*
X74292826Y-78869709D01*
X74480025Y-78808884D01*
X74655405Y-78719524D01*
X74814646Y-78603828D01*
X74953828Y-78464646D01*
X75069524Y-78305405D01*
X75158884Y-78130025D01*
X75219709Y-77942826D01*
X75241835Y-77803129D01*
X75250500Y-77748422D01*
X75250500Y-76751577D01*
X75219709Y-76557173D01*
X75158882Y-76369970D01*
X75069523Y-76194594D01*
X74953828Y-76035354D01*
X74814646Y-75896172D01*
X74655405Y-75780476D01*
X74480029Y-75691117D01*
X74292826Y-75630290D01*
X74098422Y-75599500D01*
X74098417Y-75599500D01*
X73901583Y-75599500D01*
X73901578Y-75599500D01*
X73707173Y-75630290D01*
X73519970Y-75691117D01*
X73344594Y-75780476D01*
X73253741Y-75846485D01*
X73185354Y-75896172D01*
X73185352Y-75896174D01*
X73185351Y-75896174D01*
X73046174Y-76035351D01*
X73046174Y-76035352D01*
X73046172Y-76035354D01*
X72996485Y-76103741D01*
X72930476Y-76194594D01*
X72841117Y-76369970D01*
X72780290Y-76557173D01*
X72749500Y-76751577D01*
X70500500Y-76751577D01*
X70500500Y-75349983D01*
X79024500Y-75349983D01*
X79024500Y-76650001D01*
X79024501Y-76650018D01*
X79035000Y-76752796D01*
X79035001Y-76752799D01*
X79063154Y-76837757D01*
X79090186Y-76919334D01*
X79175364Y-77057431D01*
X79182289Y-77068657D01*
X79306344Y-77192712D01*
X79461120Y-77288178D01*
X79507845Y-77340126D01*
X79519068Y-77409088D01*
X79491224Y-77473171D01*
X79483706Y-77481398D01*
X79344889Y-77620215D01*
X79219951Y-77792179D01*
X79123444Y-77981585D01*
X79057753Y-78183760D01*
X79024500Y-78393713D01*
X79024500Y-78606286D01*
X79043856Y-78728499D01*
X79057754Y-78816243D01*
X79106853Y-78967355D01*
X79123444Y-79018414D01*
X79219951Y-79207820D01*
X79344890Y-79379786D01*
X79495213Y-79530109D01*
X79667179Y-79655048D01*
X79667181Y-79655049D01*
X79667184Y-79655051D01*
X79856588Y-79751557D01*
X80058757Y-79817246D01*
X80268713Y-79850500D01*
X80268714Y-79850500D01*
X80731286Y-79850500D01*
X80731287Y-79850500D01*
X80941243Y-79817246D01*
X81143412Y-79751557D01*
X81332816Y-79655051D01*
X81418622Y-79592710D01*
X81504786Y-79530109D01*
X81504788Y-79530106D01*
X81504792Y-79530104D01*
X81655104Y-79379792D01*
X81655106Y-79379788D01*
X81655109Y-79379786D01*
X81780048Y-79207820D01*
X81780047Y-79207820D01*
X81780051Y-79207816D01*
X81876557Y-79018412D01*
X81942246Y-78816243D01*
X81975500Y-78606287D01*
X81975500Y-78393713D01*
X81942246Y-78183757D01*
X81876557Y-77981588D01*
X81780051Y-77792184D01*
X81780049Y-77792180D01*
X81749391Y-77749983D01*
X154524500Y-77749983D01*
X154524500Y-79050001D01*
X154524501Y-79050018D01*
X154535000Y-79152796D01*
X154535001Y-79152799D01*
X154567263Y-79250158D01*
X154590186Y-79319334D01*
X154682288Y-79468656D01*
X154806344Y-79592712D01*
X154955666Y-79684814D01*
X155122203Y-79739999D01*
X155224991Y-79750500D01*
X156605882Y-79750499D01*
X156672921Y-79770184D01*
X156718676Y-79822987D01*
X156728620Y-79892146D01*
X156727500Y-79898689D01*
X156724500Y-79913772D01*
X156724500Y-80086233D01*
X156758143Y-80255366D01*
X156758146Y-80255378D01*
X156824138Y-80414698D01*
X156824145Y-80414711D01*
X156919954Y-80558098D01*
X156919957Y-80558102D01*
X157041897Y-80680042D01*
X157041901Y-80680045D01*
X157185288Y-80775854D01*
X157185301Y-80775861D01*
X157344621Y-80841853D01*
X157344626Y-80841855D01*
X157513766Y-80875499D01*
X157513769Y-80875500D01*
X157513771Y-80875500D01*
X157686231Y-80875500D01*
X157686232Y-80875499D01*
X157855374Y-80841855D01*
X158014705Y-80775858D01*
X158158099Y-80680045D01*
X158280045Y-80558099D01*
X158375858Y-80414705D01*
X158441855Y-80255374D01*
X158475500Y-80086229D01*
X158475500Y-79913771D01*
X158475500Y-79913768D01*
X158475499Y-79913766D01*
X158472500Y-79898689D01*
X158441855Y-79744626D01*
X158441853Y-79744621D01*
X158375861Y-79585301D01*
X158375854Y-79585288D01*
X158280045Y-79441901D01*
X158280042Y-79441897D01*
X158158102Y-79319957D01*
X158158098Y-79319954D01*
X158014711Y-79224145D01*
X158014698Y-79224138D01*
X157855378Y-79158146D01*
X157855366Y-79158143D01*
X157686232Y-79124500D01*
X157686229Y-79124500D01*
X157599500Y-79124500D01*
X157532461Y-79104815D01*
X157486706Y-79052011D01*
X157475500Y-79000500D01*
X157475499Y-77749998D01*
X157475498Y-77749981D01*
X157464999Y-77647203D01*
X157464998Y-77647200D01*
X157428379Y-77536692D01*
X157409814Y-77480666D01*
X157317712Y-77331344D01*
X157193656Y-77207288D01*
X157067176Y-77129275D01*
X157044336Y-77115187D01*
X157044331Y-77115185D01*
X157042862Y-77114698D01*
X156877797Y-77060001D01*
X156877795Y-77060000D01*
X156775010Y-77049500D01*
X155224998Y-77049500D01*
X155224981Y-77049501D01*
X155122203Y-77060000D01*
X155122200Y-77060001D01*
X154955668Y-77115185D01*
X154955663Y-77115187D01*
X154806342Y-77207289D01*
X154682289Y-77331342D01*
X154590187Y-77480663D01*
X154590186Y-77480666D01*
X154535001Y-77647203D01*
X154535001Y-77647204D01*
X154535000Y-77647204D01*
X154524500Y-77749983D01*
X81749391Y-77749983D01*
X81655109Y-77620213D01*
X81516294Y-77481398D01*
X81482809Y-77420075D01*
X81487793Y-77350383D01*
X81529665Y-77294450D01*
X81538879Y-77288178D01*
X81544331Y-77284814D01*
X81544334Y-77284814D01*
X81693656Y-77192712D01*
X81817712Y-77068656D01*
X81909814Y-76919334D01*
X81964999Y-76752797D01*
X81975500Y-76650009D01*
X81975499Y-75349992D01*
X81964999Y-75247203D01*
X81909814Y-75080666D01*
X81817712Y-74931344D01*
X81693656Y-74807288D01*
X81544334Y-74715186D01*
X81377797Y-74660001D01*
X81377795Y-74660000D01*
X81275010Y-74649500D01*
X79724998Y-74649500D01*
X79724981Y-74649501D01*
X79622203Y-74660000D01*
X79622200Y-74660001D01*
X79455668Y-74715185D01*
X79455663Y-74715187D01*
X79306342Y-74807289D01*
X79182289Y-74931342D01*
X79090187Y-75080663D01*
X79090186Y-75080666D01*
X79035001Y-75247203D01*
X79035001Y-75247204D01*
X79035000Y-75247204D01*
X79024500Y-75349983D01*
X70500500Y-75349983D01*
X70500500Y-62251577D01*
X72749500Y-62251577D01*
X72749500Y-63248422D01*
X72780290Y-63442826D01*
X72841117Y-63630029D01*
X72914067Y-63773200D01*
X72930476Y-63805405D01*
X73046172Y-63964646D01*
X73185354Y-64103828D01*
X73344595Y-64219524D01*
X73381618Y-64238388D01*
X73519970Y-64308882D01*
X73519972Y-64308882D01*
X73519975Y-64308884D01*
X73616349Y-64340198D01*
X73707173Y-64369709D01*
X73901578Y-64400500D01*
X73901583Y-64400500D01*
X74098422Y-64400500D01*
X74292826Y-64369709D01*
X74353825Y-64349889D01*
X74480025Y-64308884D01*
X74655405Y-64219524D01*
X74814646Y-64103828D01*
X74953828Y-63964646D01*
X75069524Y-63805405D01*
X75158884Y-63630025D01*
X75219709Y-63442826D01*
X75224513Y-63412497D01*
X75250500Y-63248422D01*
X75250500Y-62251577D01*
X75219709Y-62057173D01*
X75189820Y-61965185D01*
X75158884Y-61869975D01*
X75158882Y-61869972D01*
X75158882Y-61869970D01*
X75111743Y-61777455D01*
X75069524Y-61694595D01*
X74953828Y-61535354D01*
X74814646Y-61396172D01*
X74655405Y-61280476D01*
X74480029Y-61191117D01*
X74292826Y-61130290D01*
X74098422Y-61099500D01*
X74098417Y-61099500D01*
X73901583Y-61099500D01*
X73901578Y-61099500D01*
X73707173Y-61130290D01*
X73519970Y-61191117D01*
X73344594Y-61280476D01*
X73291311Y-61319189D01*
X73185354Y-61396172D01*
X73185352Y-61396174D01*
X73185351Y-61396174D01*
X73046174Y-61535351D01*
X73046174Y-61535352D01*
X73046172Y-61535354D01*
X72996485Y-61603741D01*
X72930476Y-61694594D01*
X72841117Y-61869970D01*
X72780290Y-62057173D01*
X72749500Y-62251577D01*
X70500500Y-62251577D01*
X70500500Y-60849983D01*
X79024500Y-60849983D01*
X79024500Y-62150001D01*
X79024501Y-62150018D01*
X79035000Y-62252796D01*
X79035001Y-62252799D01*
X79056025Y-62316243D01*
X79090186Y-62419334D01*
X79151297Y-62518412D01*
X79182289Y-62568657D01*
X79306344Y-62692712D01*
X79461120Y-62788178D01*
X79507845Y-62840126D01*
X79519068Y-62909088D01*
X79491224Y-62973171D01*
X79483706Y-62981398D01*
X79344889Y-63120215D01*
X79219951Y-63292179D01*
X79123444Y-63481585D01*
X79057753Y-63683760D01*
X79024500Y-63893713D01*
X79024500Y-64106286D01*
X79057546Y-64314935D01*
X79057754Y-64316243D01*
X79117363Y-64499701D01*
X79123444Y-64518414D01*
X79219951Y-64707820D01*
X79344890Y-64879786D01*
X79495213Y-65030109D01*
X79667179Y-65155048D01*
X79667181Y-65155049D01*
X79667184Y-65155051D01*
X79856588Y-65251557D01*
X80058757Y-65317246D01*
X80268713Y-65350500D01*
X80268714Y-65350500D01*
X80731286Y-65350500D01*
X80731287Y-65350500D01*
X80941243Y-65317246D01*
X81143412Y-65251557D01*
X81332816Y-65155051D01*
X81354789Y-65139086D01*
X81504786Y-65030109D01*
X81504788Y-65030106D01*
X81504792Y-65030104D01*
X81655104Y-64879792D01*
X81655106Y-64879788D01*
X81655109Y-64879786D01*
X81780048Y-64707820D01*
X81780047Y-64707820D01*
X81780051Y-64707816D01*
X81876557Y-64518412D01*
X81942246Y-64316243D01*
X81975500Y-64106287D01*
X81975500Y-63893713D01*
X81942246Y-63683757D01*
X81876557Y-63481588D01*
X81780051Y-63292184D01*
X81780049Y-63292181D01*
X81780048Y-63292179D01*
X81655109Y-63120213D01*
X81516294Y-62981398D01*
X81482809Y-62920075D01*
X81487793Y-62850383D01*
X81529665Y-62794450D01*
X81538879Y-62788178D01*
X81544331Y-62784814D01*
X81544334Y-62784814D01*
X81693656Y-62692712D01*
X81817712Y-62568656D01*
X81909814Y-62419334D01*
X81964999Y-62252797D01*
X81975500Y-62150009D01*
X81975499Y-60849992D01*
X81973581Y-60831220D01*
X81964999Y-60747203D01*
X81964998Y-60747200D01*
X81933276Y-60651470D01*
X81932623Y-60649500D01*
X81922368Y-60618553D01*
X96354700Y-60618553D01*
X96354700Y-60776246D01*
X96385461Y-60930889D01*
X96385464Y-60930901D01*
X96445802Y-61076572D01*
X96445809Y-61076585D01*
X96533410Y-61207688D01*
X96533413Y-61207692D01*
X96644907Y-61319186D01*
X96644911Y-61319189D01*
X96776014Y-61406790D01*
X96776027Y-61406797D01*
X96921698Y-61467135D01*
X96921703Y-61467137D01*
X97076353Y-61497899D01*
X97076356Y-61497900D01*
X97076358Y-61497900D01*
X97234044Y-61497900D01*
X97234045Y-61497899D01*
X97388697Y-61467137D01*
X97534379Y-61406794D01*
X97665489Y-61319189D01*
X97776989Y-61207689D01*
X97864594Y-61076579D01*
X97924937Y-60930897D01*
X97952476Y-60792452D01*
X97955838Y-60775550D01*
X97988223Y-60713639D01*
X97989718Y-60712116D01*
X98905016Y-59796819D01*
X98966339Y-59763334D01*
X98992697Y-59760500D01*
X104202103Y-59760500D01*
X104269142Y-59780185D01*
X104314897Y-59832989D01*
X104324841Y-59902147D01*
X104295816Y-59965703D01*
X104289784Y-59972181D01*
X100830339Y-63431625D01*
X100769016Y-63465110D01*
X100766850Y-63465561D01*
X100611508Y-63496461D01*
X100611498Y-63496464D01*
X100465827Y-63556802D01*
X100465814Y-63556809D01*
X100334711Y-63644410D01*
X100334707Y-63644413D01*
X100223213Y-63755907D01*
X100223210Y-63755911D01*
X100135609Y-63887014D01*
X100135602Y-63887027D01*
X100075264Y-64032698D01*
X100075261Y-64032710D01*
X100044500Y-64187353D01*
X100044500Y-64345046D01*
X100075261Y-64499689D01*
X100075264Y-64499701D01*
X100135602Y-64645372D01*
X100135609Y-64645385D01*
X100223210Y-64776488D01*
X100223213Y-64776492D01*
X100334707Y-64887986D01*
X100334711Y-64887989D01*
X100465814Y-64975590D01*
X100465827Y-64975597D01*
X100597421Y-65030104D01*
X100611503Y-65035937D01*
X100766153Y-65066699D01*
X100766156Y-65066700D01*
X100766158Y-65066700D01*
X100923844Y-65066700D01*
X100923845Y-65066699D01*
X101078497Y-65035937D01*
X101224179Y-64975594D01*
X101355289Y-64887989D01*
X101466789Y-64776489D01*
X101554394Y-64645379D01*
X101614737Y-64499697D01*
X101634469Y-64400500D01*
X101645638Y-64344350D01*
X101678023Y-64282439D01*
X101679518Y-64280916D01*
X105470416Y-60490019D01*
X105531739Y-60456534D01*
X105558097Y-60453700D01*
X110739234Y-60453700D01*
X110806273Y-60473385D01*
X110808125Y-60474598D01*
X110939814Y-60562590D01*
X110939827Y-60562597D01*
X111074919Y-60618553D01*
X111085503Y-60622937D01*
X111228947Y-60651470D01*
X111240153Y-60653699D01*
X111240156Y-60653700D01*
X111240158Y-60653700D01*
X111397844Y-60653700D01*
X111397845Y-60653699D01*
X111552497Y-60622937D01*
X111698179Y-60562594D01*
X111829289Y-60474989D01*
X111940789Y-60363489D01*
X111979400Y-60305702D01*
X112033011Y-60260899D01*
X112102336Y-60252191D01*
X112129954Y-60260033D01*
X112132045Y-60260899D01*
X112248503Y-60309137D01*
X112306316Y-60320636D01*
X112399691Y-60339211D01*
X112461602Y-60371596D01*
X112496177Y-60432312D01*
X112499500Y-60460828D01*
X112499500Y-67666774D01*
X112479815Y-67733813D01*
X112463175Y-67754461D01*
X111600401Y-68617118D01*
X111539076Y-68650599D01*
X111536918Y-68651048D01*
X111381508Y-68681961D01*
X111381498Y-68681964D01*
X111235827Y-68742302D01*
X111235814Y-68742309D01*
X111104711Y-68829910D01*
X111075839Y-68858782D01*
X111014515Y-68892266D01*
X110944824Y-68887280D01*
X110900474Y-68858777D01*
X110529661Y-68487935D01*
X105755576Y-63713473D01*
X105722095Y-63652149D01*
X105721645Y-63649987D01*
X105703523Y-63558882D01*
X105690737Y-63494603D01*
X105678521Y-63465110D01*
X105630397Y-63348927D01*
X105630390Y-63348914D01*
X105542789Y-63217811D01*
X105542786Y-63217807D01*
X105431292Y-63106313D01*
X105431288Y-63106310D01*
X105300185Y-63018709D01*
X105300172Y-63018702D01*
X105154501Y-62958364D01*
X105154489Y-62958361D01*
X104999845Y-62927600D01*
X104999842Y-62927600D01*
X104842158Y-62927600D01*
X104842155Y-62927600D01*
X104687510Y-62958361D01*
X104687498Y-62958364D01*
X104541827Y-63018702D01*
X104541814Y-63018709D01*
X104410711Y-63106310D01*
X104410707Y-63106313D01*
X104299213Y-63217807D01*
X104299210Y-63217811D01*
X104211609Y-63348914D01*
X104211602Y-63348927D01*
X104151264Y-63494598D01*
X104151261Y-63494610D01*
X104120500Y-63649253D01*
X104120500Y-63806946D01*
X104151261Y-63961589D01*
X104151264Y-63961601D01*
X104211602Y-64107272D01*
X104211609Y-64107285D01*
X104299210Y-64238388D01*
X104299213Y-64238392D01*
X104410707Y-64349886D01*
X104410711Y-64349889D01*
X104541814Y-64437490D01*
X104541827Y-64437497D01*
X104680299Y-64494853D01*
X104687503Y-64497837D01*
X104842158Y-64528600D01*
X104842807Y-64528729D01*
X104904718Y-64561114D01*
X104906263Y-64562631D01*
X108010162Y-67666774D01*
X110726217Y-70383044D01*
X110783473Y-70440304D01*
X110783480Y-70440316D01*
X110844539Y-70501375D01*
X110844540Y-70501377D01*
X110895262Y-70552102D01*
X110895265Y-70552105D01*
X110895268Y-70552106D01*
X110895279Y-70552115D01*
X110895284Y-70552120D01*
X110895289Y-70552122D01*
X110895328Y-70552153D01*
X110895982Y-70552523D01*
X110970769Y-70595701D01*
X110970772Y-70595703D01*
X111030785Y-70630354D01*
X111032069Y-70631120D01*
X111032191Y-70631166D01*
X111032193Y-70631167D01*
X111032194Y-70631167D01*
X111032209Y-70631172D01*
X111032216Y-70631177D01*
X111032230Y-70631180D01*
X111033125Y-70631518D01*
X111035971Y-70632183D01*
X111112826Y-70652776D01*
X111184919Y-70672097D01*
X111184923Y-70672097D01*
X111184941Y-70672100D01*
X111252683Y-70672100D01*
X111343034Y-70672104D01*
X111343038Y-70672102D01*
X111351088Y-70672103D01*
X111351151Y-70672100D01*
X136814637Y-70672100D01*
X136894777Y-70672137D01*
X136894915Y-70672100D01*
X136895057Y-70672100D01*
X136970842Y-70651793D01*
X136970844Y-70651802D01*
X136970892Y-70651779D01*
X137047524Y-70631285D01*
X137047648Y-70631213D01*
X137047784Y-70631177D01*
X137116363Y-70591582D01*
X137184492Y-70552291D01*
X137184495Y-70552287D01*
X137184713Y-70552122D01*
X137184713Y-70552121D01*
X137184716Y-70552120D01*
X137241228Y-70495606D01*
X137241279Y-70495578D01*
X137241268Y-70495567D01*
X137350261Y-70386677D01*
X137411600Y-70353221D01*
X137437901Y-70350400D01*
X154462905Y-70350400D01*
X154529944Y-70370085D01*
X154575699Y-70422889D01*
X154585643Y-70492047D01*
X154580836Y-70512718D01*
X154557753Y-70583759D01*
X154524500Y-70793713D01*
X154524500Y-71006286D01*
X154557753Y-71216239D01*
X154623445Y-71418417D01*
X154649272Y-71469106D01*
X154662168Y-71537775D01*
X154635891Y-71602515D01*
X154578785Y-71642772D01*
X154538787Y-71649400D01*
X111072102Y-71649400D01*
X111005063Y-71629715D01*
X110984420Y-71613080D01*
X107569485Y-68198055D01*
X103930574Y-64559049D01*
X103897090Y-64497727D01*
X103896640Y-64495561D01*
X103885090Y-64437497D01*
X103865737Y-64340203D01*
X103865735Y-64340198D01*
X103805397Y-64194527D01*
X103805390Y-64194514D01*
X103717789Y-64063411D01*
X103717786Y-64063407D01*
X103606292Y-63951913D01*
X103606288Y-63951910D01*
X103475185Y-63864309D01*
X103475172Y-63864302D01*
X103329501Y-63803964D01*
X103329489Y-63803961D01*
X103174845Y-63773200D01*
X103174842Y-63773200D01*
X103017158Y-63773200D01*
X103017155Y-63773200D01*
X102862510Y-63803961D01*
X102862498Y-63803964D01*
X102716827Y-63864302D01*
X102716814Y-63864309D01*
X102585711Y-63951910D01*
X102585707Y-63951913D01*
X102474213Y-64063407D01*
X102474210Y-64063411D01*
X102386609Y-64194514D01*
X102386602Y-64194527D01*
X102326264Y-64340198D01*
X102326261Y-64340210D01*
X102295500Y-64494853D01*
X102295500Y-64652546D01*
X102326261Y-64807189D01*
X102326264Y-64807201D01*
X102386602Y-64952872D01*
X102386609Y-64952885D01*
X102474210Y-65083988D01*
X102474213Y-65083992D01*
X102585707Y-65195486D01*
X102585711Y-65195489D01*
X102716814Y-65283090D01*
X102716827Y-65283097D01*
X102862498Y-65343435D01*
X102862503Y-65343437D01*
X102946252Y-65360095D01*
X103017835Y-65374335D01*
X103079746Y-65406720D01*
X103081326Y-65408272D01*
X109770381Y-72097502D01*
X110291477Y-72618611D01*
X110291480Y-72618616D01*
X110364914Y-72692050D01*
X110364916Y-72692052D01*
X110403410Y-72730547D01*
X110403730Y-72730786D01*
X110406474Y-72732262D01*
X110469945Y-72768906D01*
X110469947Y-72768908D01*
X110536780Y-72807495D01*
X110540208Y-72809474D01*
X110540213Y-72809475D01*
X110540216Y-72809477D01*
X110583807Y-72821157D01*
X110692935Y-72850400D01*
X110851050Y-72850402D01*
X110851053Y-72850400D01*
X110859675Y-72850401D01*
X110859704Y-72850400D01*
X154462905Y-72850400D01*
X154529944Y-72870085D01*
X154575699Y-72922889D01*
X154585643Y-72992047D01*
X154580836Y-73012718D01*
X154557753Y-73083759D01*
X154524500Y-73293713D01*
X154524500Y-73506286D01*
X154557753Y-73716239D01*
X154623444Y-73918414D01*
X154719951Y-74107820D01*
X154844890Y-74279786D01*
X154995213Y-74430109D01*
X155167179Y-74555048D01*
X155167181Y-74555049D01*
X155167184Y-74555051D01*
X155356588Y-74651557D01*
X155558757Y-74717246D01*
X155768713Y-74750500D01*
X155768714Y-74750500D01*
X156231286Y-74750500D01*
X156231287Y-74750500D01*
X156441243Y-74717246D01*
X156643412Y-74651557D01*
X156832816Y-74555051D01*
X156854789Y-74539086D01*
X157004786Y-74430109D01*
X157004788Y-74430106D01*
X157004792Y-74430104D01*
X157155104Y-74279792D01*
X157155106Y-74279788D01*
X157155109Y-74279786D01*
X157280048Y-74107820D01*
X157280047Y-74107820D01*
X157280051Y-74107816D01*
X157376557Y-73918412D01*
X157442246Y-73716243D01*
X157475500Y-73506287D01*
X157475500Y-73293713D01*
X157442246Y-73083757D01*
X157419164Y-73012718D01*
X157417169Y-72942876D01*
X157453250Y-72883044D01*
X157515951Y-72852216D01*
X157537095Y-72850400D01*
X163462905Y-72850400D01*
X163529944Y-72870085D01*
X163575699Y-72922889D01*
X163585643Y-72992047D01*
X163580836Y-73012718D01*
X163557753Y-73083759D01*
X163524500Y-73293713D01*
X163524500Y-73506286D01*
X163557753Y-73716239D01*
X163623444Y-73918414D01*
X163719951Y-74107820D01*
X163844890Y-74279786D01*
X163995213Y-74430109D01*
X164167179Y-74555048D01*
X164167181Y-74555049D01*
X164167184Y-74555051D01*
X164356588Y-74651557D01*
X164558757Y-74717246D01*
X164768713Y-74750500D01*
X164768714Y-74750500D01*
X165231286Y-74750500D01*
X165231287Y-74750500D01*
X165441243Y-74717246D01*
X165587186Y-74669825D01*
X165657022Y-74667831D01*
X165716855Y-74703911D01*
X165747684Y-74766611D01*
X165749500Y-74787757D01*
X165749500Y-76750069D01*
X165740855Y-76779509D01*
X165734328Y-76809504D01*
X165730576Y-76814514D01*
X165729815Y-76817108D01*
X165713175Y-76837757D01*
X165537718Y-77013188D01*
X165476392Y-77046668D01*
X165450043Y-77049500D01*
X164224998Y-77049500D01*
X164224981Y-77049501D01*
X164122203Y-77060000D01*
X164122200Y-77060001D01*
X163955668Y-77115185D01*
X163955663Y-77115187D01*
X163806342Y-77207289D01*
X163682289Y-77331342D01*
X163590187Y-77480663D01*
X163590186Y-77480666D01*
X163535001Y-77647203D01*
X163535001Y-77647204D01*
X163535000Y-77647204D01*
X163524500Y-77749983D01*
X163524500Y-79050001D01*
X163524501Y-79050018D01*
X163535000Y-79152796D01*
X163535001Y-79152799D01*
X163567263Y-79250158D01*
X163590186Y-79319334D01*
X163682288Y-79468656D01*
X163806344Y-79592712D01*
X163955666Y-79684814D01*
X164122203Y-79739999D01*
X164224991Y-79750500D01*
X165605882Y-79750499D01*
X165672921Y-79770184D01*
X165718676Y-79822987D01*
X165728620Y-79892146D01*
X165727500Y-79898689D01*
X165724500Y-79913772D01*
X165724500Y-80086233D01*
X165758143Y-80255366D01*
X165758146Y-80255378D01*
X165824138Y-80414698D01*
X165824145Y-80414711D01*
X165919954Y-80558098D01*
X165919957Y-80558102D01*
X166041897Y-80680042D01*
X166041901Y-80680045D01*
X166185288Y-80775854D01*
X166185301Y-80775861D01*
X166344621Y-80841853D01*
X166344626Y-80841855D01*
X166513766Y-80875499D01*
X166513769Y-80875500D01*
X166513771Y-80875500D01*
X166686231Y-80875500D01*
X166686232Y-80875499D01*
X166855374Y-80841855D01*
X167014705Y-80775858D01*
X167158099Y-80680045D01*
X167280045Y-80558099D01*
X167375858Y-80414705D01*
X167441855Y-80255374D01*
X167475500Y-80086229D01*
X167475500Y-79913771D01*
X167475500Y-79913768D01*
X167475499Y-79913766D01*
X167472500Y-79898689D01*
X167441855Y-79744626D01*
X167441853Y-79744621D01*
X167375861Y-79585301D01*
X167375854Y-79585288D01*
X167280045Y-79441901D01*
X167280042Y-79441897D01*
X167158102Y-79319957D01*
X167158098Y-79319954D01*
X167014711Y-79224145D01*
X167014698Y-79224138D01*
X166855378Y-79158146D01*
X166855366Y-79158143D01*
X166686232Y-79124500D01*
X166686229Y-79124500D01*
X166599500Y-79124500D01*
X166532461Y-79104815D01*
X166486706Y-79052011D01*
X166475500Y-79000500D01*
X166475499Y-77825259D01*
X166495184Y-77758220D01*
X166511824Y-77737571D01*
X166718693Y-77530733D01*
X166718716Y-77530720D01*
X166783118Y-77466317D01*
X166829556Y-77419885D01*
X166830423Y-77419042D01*
X166830485Y-77418957D01*
X166830492Y-77418951D01*
X166830496Y-77418942D01*
X166830507Y-77418928D01*
X166830520Y-77418916D01*
X166830533Y-77418892D01*
X166830698Y-77418670D01*
X166831543Y-77417144D01*
X166871456Y-77348010D01*
X166908937Y-77283105D01*
X166909552Y-77282068D01*
X166909572Y-77281990D01*
X166909577Y-77281984D01*
X166929592Y-77207288D01*
X166950495Y-77129302D01*
X166950495Y-77129294D01*
X166950500Y-77129258D01*
X166950500Y-77057431D01*
X166950503Y-77013188D01*
X166950506Y-76971187D01*
X166950505Y-76971185D01*
X166950506Y-76963327D01*
X166950500Y-76963217D01*
X166950500Y-70178851D01*
X166950501Y-70178848D01*
X166950500Y-70064889D01*
X166950500Y-70020743D01*
X166950500Y-70020740D01*
X166950499Y-70020734D01*
X166927016Y-69933101D01*
X166927015Y-69933098D01*
X166909577Y-69868016D01*
X166909574Y-69868010D01*
X166909573Y-69868007D01*
X166872067Y-69803047D01*
X166832354Y-69734261D01*
X166830883Y-69731527D01*
X166830649Y-69731213D01*
X166830515Y-69731079D01*
X166830514Y-69731077D01*
X166782883Y-69683447D01*
X166718716Y-69619280D01*
X166718715Y-69619279D01*
X166714398Y-69614962D01*
X166714375Y-69614941D01*
X161011819Y-63912551D01*
X160978333Y-63851228D01*
X160975499Y-63824868D01*
X160975499Y-62599998D01*
X160975498Y-62599981D01*
X160964999Y-62497203D01*
X160964998Y-62497200D01*
X160939196Y-62419336D01*
X160909814Y-62330666D01*
X160817712Y-62181344D01*
X160693656Y-62057288D01*
X160544334Y-61965186D01*
X160377797Y-61910001D01*
X160377795Y-61910000D01*
X160275010Y-61899500D01*
X158724998Y-61899500D01*
X158724981Y-61899501D01*
X158622203Y-61910000D01*
X158622200Y-61910001D01*
X158455668Y-61965185D01*
X158455663Y-61965187D01*
X158306342Y-62057289D01*
X158182289Y-62181342D01*
X158090187Y-62330663D01*
X158090186Y-62330666D01*
X158035001Y-62497203D01*
X158035001Y-62497204D01*
X158035000Y-62497204D01*
X158024500Y-62599983D01*
X158024500Y-63900001D01*
X158024501Y-63900018D01*
X158035000Y-64002796D01*
X158035001Y-64002799D01*
X158069623Y-64107279D01*
X158090186Y-64169334D01*
X158182288Y-64318656D01*
X158306344Y-64442712D01*
X158455666Y-64534814D01*
X158622203Y-64589999D01*
X158724991Y-64600500D01*
X159949928Y-64600499D01*
X160016967Y-64620184D01*
X160037608Y-64636816D01*
X160652365Y-65251555D01*
X164329345Y-68928427D01*
X164338636Y-68937717D01*
X164372122Y-68999040D01*
X164367138Y-69068732D01*
X164325268Y-69124666D01*
X164259804Y-69149084D01*
X164250956Y-69149400D01*
X137140417Y-69149400D01*
X137059223Y-69149362D01*
X137059081Y-69149400D01*
X137058943Y-69149400D01*
X136984174Y-69169434D01*
X136969110Y-69173462D01*
X136906464Y-69190217D01*
X136906233Y-69190312D01*
X136837683Y-69229889D01*
X136836937Y-69230319D01*
X136769508Y-69269209D01*
X136769409Y-69269307D01*
X136769284Y-69269380D01*
X136712591Y-69326072D01*
X136637252Y-69401342D01*
X136603741Y-69434822D01*
X136542402Y-69468278D01*
X136516100Y-69471100D01*
X125345500Y-69471100D01*
X125278461Y-69451415D01*
X125232706Y-69398611D01*
X125221500Y-69347100D01*
X125221500Y-69243655D01*
X125221499Y-69243653D01*
X125210889Y-69190312D01*
X125190737Y-69089003D01*
X125180345Y-69063914D01*
X125130397Y-68943327D01*
X125130390Y-68943314D01*
X125042789Y-68812211D01*
X125042786Y-68812207D01*
X124931292Y-68700713D01*
X124931288Y-68700710D01*
X124800185Y-68613109D01*
X124800172Y-68613102D01*
X124654501Y-68552764D01*
X124654491Y-68552761D01*
X124499227Y-68521877D01*
X124437316Y-68489492D01*
X124435731Y-68487935D01*
X123706812Y-67758908D01*
X123673332Y-67697582D01*
X123670500Y-67671233D01*
X123670500Y-63315780D01*
X123690185Y-63248741D01*
X123742989Y-63202986D01*
X123812147Y-63193042D01*
X123850796Y-63205296D01*
X123941583Y-63251555D01*
X123941585Y-63251555D01*
X123941588Y-63251557D01*
X124143757Y-63317246D01*
X124353713Y-63350500D01*
X124353714Y-63350500D01*
X124566286Y-63350500D01*
X124566287Y-63350500D01*
X124776243Y-63317246D01*
X124978412Y-63251557D01*
X125167816Y-63155051D01*
X125234899Y-63106313D01*
X125339786Y-63030109D01*
X125339788Y-63030106D01*
X125339792Y-63030104D01*
X125490104Y-62879792D01*
X125490106Y-62879788D01*
X125490109Y-62879786D01*
X125615048Y-62707820D01*
X125615047Y-62707820D01*
X125615051Y-62707816D01*
X125711557Y-62518412D01*
X125777246Y-62316243D01*
X125810500Y-62106287D01*
X125810500Y-61893713D01*
X128189500Y-61893713D01*
X128189500Y-62106287D01*
X128222754Y-62316243D01*
X128281946Y-62498417D01*
X128288444Y-62518414D01*
X128384951Y-62707820D01*
X128509890Y-62879786D01*
X128660213Y-63030109D01*
X128832179Y-63155048D01*
X128832181Y-63155049D01*
X128832184Y-63155051D01*
X129021588Y-63251557D01*
X129223757Y-63317246D01*
X129433713Y-63350500D01*
X129433714Y-63350500D01*
X129646286Y-63350500D01*
X129646287Y-63350500D01*
X129856243Y-63317246D01*
X130058412Y-63251557D01*
X130247816Y-63155051D01*
X130314899Y-63106313D01*
X130419786Y-63030109D01*
X130419788Y-63030106D01*
X130419792Y-63030104D01*
X130570104Y-62879792D01*
X130570106Y-62879788D01*
X130570109Y-62879786D01*
X130695048Y-62707820D01*
X130695047Y-62707820D01*
X130695051Y-62707816D01*
X130699514Y-62699054D01*
X130747488Y-62648259D01*
X130815308Y-62631463D01*
X130881444Y-62653999D01*
X130920486Y-62699056D01*
X130924951Y-62707820D01*
X131049890Y-62879786D01*
X131200213Y-63030109D01*
X131372179Y-63155048D01*
X131372181Y-63155049D01*
X131372184Y-63155051D01*
X131561588Y-63251557D01*
X131763757Y-63317246D01*
X131973713Y-63350500D01*
X131973714Y-63350500D01*
X132186286Y-63350500D01*
X132186287Y-63350500D01*
X132396243Y-63317246D01*
X132598412Y-63251557D01*
X132787816Y-63155051D01*
X132854899Y-63106313D01*
X132959786Y-63030109D01*
X132959788Y-63030106D01*
X132959792Y-63030104D01*
X133110104Y-62879792D01*
X133110106Y-62879788D01*
X133110109Y-62879786D01*
X133235048Y-62707820D01*
X133235047Y-62707820D01*
X133235051Y-62707816D01*
X133331557Y-62518412D01*
X133397246Y-62316243D01*
X133430500Y-62106287D01*
X133430500Y-61893713D01*
X133397246Y-61683757D01*
X133338052Y-61501577D01*
X164749500Y-61501577D01*
X164749500Y-62498422D01*
X164780290Y-62692826D01*
X164841117Y-62880029D01*
X164917587Y-63030109D01*
X164930476Y-63055405D01*
X165046172Y-63214646D01*
X165185354Y-63353828D01*
X165344595Y-63469524D01*
X165397466Y-63496463D01*
X165519970Y-63558882D01*
X165519972Y-63558882D01*
X165519975Y-63558884D01*
X165620317Y-63591487D01*
X165707173Y-63619709D01*
X165901578Y-63650500D01*
X165901583Y-63650500D01*
X166098422Y-63650500D01*
X166292826Y-63619709D01*
X166480025Y-63558884D01*
X166655405Y-63469524D01*
X166814646Y-63353828D01*
X166953828Y-63214646D01*
X167069524Y-63055405D01*
X167158884Y-62880025D01*
X167219709Y-62692826D01*
X167229428Y-62631463D01*
X167250500Y-62498422D01*
X167250500Y-61501577D01*
X167219709Y-61307173D01*
X167187384Y-61207688D01*
X167158884Y-61119975D01*
X167158882Y-61119972D01*
X167158882Y-61119970D01*
X167069523Y-60944594D01*
X166953828Y-60785354D01*
X166814646Y-60646172D01*
X166655405Y-60530476D01*
X166480029Y-60441117D01*
X166292826Y-60380290D01*
X166098422Y-60349500D01*
X166098417Y-60349500D01*
X165901583Y-60349500D01*
X165901578Y-60349500D01*
X165707173Y-60380290D01*
X165519970Y-60441117D01*
X165344594Y-60530476D01*
X165275519Y-60580663D01*
X165185354Y-60646172D01*
X165185352Y-60646174D01*
X165185351Y-60646174D01*
X165046174Y-60785351D01*
X165046174Y-60785352D01*
X165046172Y-60785354D01*
X164999205Y-60849998D01*
X164930476Y-60944594D01*
X164841117Y-61119970D01*
X164780290Y-61307173D01*
X164749500Y-61501577D01*
X133338052Y-61501577D01*
X133331557Y-61481588D01*
X133331555Y-61481585D01*
X133331555Y-61481583D01*
X133264901Y-61350769D01*
X133235051Y-61292184D01*
X133235049Y-61292181D01*
X133235048Y-61292179D01*
X133110109Y-61120213D01*
X132959786Y-60969890D01*
X132787820Y-60844951D01*
X132598414Y-60748444D01*
X132598413Y-60748443D01*
X132598412Y-60748443D01*
X132396243Y-60682754D01*
X132396241Y-60682753D01*
X132396240Y-60682753D01*
X132234957Y-60657208D01*
X132186287Y-60649500D01*
X131973713Y-60649500D01*
X131925042Y-60657208D01*
X131763760Y-60682753D01*
X131561585Y-60748444D01*
X131372179Y-60844951D01*
X131200213Y-60969890D01*
X131049890Y-61120213D01*
X130924949Y-61292182D01*
X130920484Y-61300946D01*
X130872509Y-61351742D01*
X130804688Y-61368536D01*
X130738553Y-61345998D01*
X130699516Y-61300946D01*
X130695050Y-61292182D01*
X130570109Y-61120213D01*
X130419786Y-60969890D01*
X130247820Y-60844951D01*
X130058414Y-60748444D01*
X130058413Y-60748443D01*
X130058412Y-60748443D01*
X129856243Y-60682754D01*
X129856241Y-60682753D01*
X129856240Y-60682753D01*
X129694957Y-60657208D01*
X129646287Y-60649500D01*
X129433713Y-60649500D01*
X129385042Y-60657208D01*
X129223760Y-60682753D01*
X129021585Y-60748444D01*
X128832179Y-60844951D01*
X128660213Y-60969890D01*
X128509890Y-61120213D01*
X128384951Y-61292179D01*
X128288444Y-61481585D01*
X128222753Y-61683760D01*
X128193260Y-61869975D01*
X128189500Y-61893713D01*
X125810500Y-61893713D01*
X125777246Y-61683757D01*
X125711557Y-61481588D01*
X125615051Y-61292184D01*
X125615049Y-61292181D01*
X125615048Y-61292179D01*
X125490109Y-61120213D01*
X125339786Y-60969890D01*
X125167820Y-60844951D01*
X124978414Y-60748444D01*
X124978413Y-60748443D01*
X124978412Y-60748443D01*
X124776243Y-60682754D01*
X124776241Y-60682753D01*
X124776240Y-60682753D01*
X124614957Y-60657208D01*
X124566287Y-60649500D01*
X124353713Y-60649500D01*
X124305042Y-60657208D01*
X124143760Y-60682753D01*
X123941582Y-60748445D01*
X123793371Y-60823962D01*
X123788733Y-60824832D01*
X123785074Y-60827811D01*
X123754721Y-60831220D01*
X123724702Y-60836858D01*
X123720329Y-60835083D01*
X123715641Y-60835610D01*
X123688261Y-60822067D01*
X123659962Y-60810581D01*
X123656072Y-60806145D01*
X123653014Y-60804633D01*
X123630738Y-60777257D01*
X123630194Y-60776350D01*
X123629146Y-60774570D01*
X123614063Y-60748445D01*
X123576137Y-60682754D01*
X123551202Y-60639562D01*
X123550606Y-60638500D01*
X123550521Y-60638386D01*
X123550520Y-60638384D01*
X123474730Y-60562594D01*
X116512622Y-53599983D01*
X158024500Y-53599983D01*
X158024500Y-54900001D01*
X158024501Y-54900018D01*
X158035000Y-55002796D01*
X158035001Y-55002799D01*
X158066283Y-55097200D01*
X158090186Y-55169334D01*
X158182288Y-55318656D01*
X158306344Y-55442712D01*
X158455666Y-55534814D01*
X158622203Y-55589999D01*
X158724991Y-55600500D01*
X160275008Y-55600499D01*
X160377797Y-55589999D01*
X160544334Y-55534814D01*
X160693656Y-55442712D01*
X160817712Y-55318656D01*
X160909814Y-55169334D01*
X160964999Y-55002797D01*
X160975500Y-54900009D01*
X160975499Y-53599992D01*
X160964999Y-53497203D01*
X160909814Y-53330666D01*
X160817712Y-53181344D01*
X160693656Y-53057288D01*
X160600888Y-53000069D01*
X160544336Y-52965187D01*
X160544331Y-52965185D01*
X160542862Y-52964698D01*
X160377797Y-52910001D01*
X160377795Y-52910000D01*
X160275010Y-52899500D01*
X158724998Y-52899500D01*
X158724981Y-52899501D01*
X158622203Y-52910000D01*
X158622200Y-52910001D01*
X158455668Y-52965185D01*
X158455663Y-52965187D01*
X158306342Y-53057289D01*
X158182289Y-53181342D01*
X158090187Y-53330663D01*
X158090185Y-53330668D01*
X158069648Y-53392645D01*
X158035001Y-53497203D01*
X158035001Y-53497204D01*
X158035000Y-53497204D01*
X158024500Y-53599983D01*
X116512622Y-53599983D01*
X116193861Y-53281199D01*
X115828267Y-52915578D01*
X115794784Y-52854254D01*
X115799771Y-52784562D01*
X115841644Y-52728630D01*
X115907109Y-52704216D01*
X115915951Y-52703900D01*
X126817970Y-52703900D01*
X126818000Y-52703908D01*
X126902327Y-52703900D01*
X126976057Y-52703900D01*
X126976107Y-52703893D01*
X126976114Y-52703893D01*
X127056051Y-52682465D01*
X127056060Y-52682465D01*
X127056060Y-52682462D01*
X127056062Y-52682462D01*
X127128784Y-52662977D01*
X127128792Y-52662971D01*
X127128818Y-52662965D01*
X127128833Y-52662956D01*
X127128838Y-52662955D01*
X127130467Y-52662014D01*
X127196312Y-52623990D01*
X127196322Y-52623984D01*
X127220297Y-52610141D01*
X127264613Y-52584556D01*
X127265689Y-52583954D01*
X127265755Y-52583887D01*
X127265762Y-52583884D01*
X127318240Y-52531394D01*
X127318246Y-52531391D01*
X127318245Y-52531390D01*
X127348059Y-52501577D01*
X164749500Y-52501577D01*
X164749500Y-53498422D01*
X164780290Y-53692826D01*
X164841117Y-53880029D01*
X164882016Y-53960297D01*
X164930476Y-54055405D01*
X165046172Y-54214646D01*
X165185354Y-54353828D01*
X165344595Y-54469524D01*
X165427455Y-54511743D01*
X165519970Y-54558882D01*
X165519972Y-54558882D01*
X165519975Y-54558884D01*
X165620317Y-54591487D01*
X165707173Y-54619709D01*
X165901578Y-54650500D01*
X165901583Y-54650500D01*
X166098422Y-54650500D01*
X166292826Y-54619709D01*
X166480025Y-54558884D01*
X166655405Y-54469524D01*
X166814646Y-54353828D01*
X166953828Y-54214646D01*
X167069524Y-54055405D01*
X167158884Y-53880025D01*
X167219709Y-53692826D01*
X167230373Y-53625498D01*
X167250500Y-53498422D01*
X167250500Y-52501577D01*
X167219709Y-52307173D01*
X167158882Y-52119970D01*
X167111743Y-52027455D01*
X167069524Y-51944595D01*
X166953828Y-51785354D01*
X166814646Y-51646172D01*
X166655405Y-51530476D01*
X166480029Y-51441117D01*
X166292826Y-51380290D01*
X166098422Y-51349500D01*
X166098417Y-51349500D01*
X165901583Y-51349500D01*
X165901578Y-51349500D01*
X165707173Y-51380290D01*
X165519970Y-51441117D01*
X165344594Y-51530476D01*
X165271709Y-51583431D01*
X165185354Y-51646172D01*
X165185352Y-51646174D01*
X165185351Y-51646174D01*
X165046174Y-51785351D01*
X165046174Y-51785352D01*
X165046172Y-51785354D01*
X164996485Y-51853741D01*
X164930476Y-51944594D01*
X164841117Y-52119970D01*
X164780290Y-52307173D01*
X164749500Y-52501577D01*
X127348059Y-52501577D01*
X127377520Y-52472116D01*
X127377521Y-52472113D01*
X127383573Y-52466062D01*
X127383655Y-52465967D01*
X128515600Y-51333806D01*
X128576918Y-51300317D01*
X128641605Y-51303549D01*
X128683757Y-51317246D01*
X128893713Y-51350500D01*
X128893714Y-51350500D01*
X129106286Y-51350500D01*
X129106287Y-51350500D01*
X129316243Y-51317246D01*
X129518412Y-51251557D01*
X129707816Y-51155051D01*
X129729789Y-51139086D01*
X129879786Y-51030109D01*
X129879788Y-51030106D01*
X129879792Y-51030104D01*
X130030104Y-50879792D01*
X130030106Y-50879788D01*
X130030109Y-50879786D01*
X130155048Y-50707820D01*
X130155047Y-50707820D01*
X130155051Y-50707816D01*
X130251557Y-50518412D01*
X130317246Y-50316243D01*
X130350500Y-50106287D01*
X130350500Y-49893713D01*
X130317246Y-49683757D01*
X130251557Y-49481588D01*
X130155051Y-49292184D01*
X130155049Y-49292181D01*
X130155048Y-49292179D01*
X130030109Y-49120213D01*
X129916569Y-49006673D01*
X129883084Y-48945350D01*
X129888068Y-48875658D01*
X129929940Y-48819725D01*
X129960915Y-48802810D01*
X130092331Y-48753796D01*
X130207546Y-48667546D01*
X130293796Y-48552331D01*
X130344091Y-48417483D01*
X130350500Y-48357873D01*
X130350499Y-46562128D01*
X130344091Y-46502517D01*
X130338714Y-46488101D01*
X130293797Y-46367671D01*
X130293793Y-46367664D01*
X130207547Y-46252455D01*
X130207544Y-46252452D01*
X130092335Y-46166206D01*
X130092328Y-46166202D01*
X129957482Y-46115908D01*
X129957483Y-46115908D01*
X129897883Y-46109501D01*
X129897881Y-46109500D01*
X129897873Y-46109500D01*
X129897864Y-46109500D01*
X128102129Y-46109500D01*
X128102123Y-46109501D01*
X128042516Y-46115908D01*
X127907671Y-46166202D01*
X127907664Y-46166206D01*
X127792455Y-46252452D01*
X127792452Y-46252455D01*
X127706206Y-46367664D01*
X127706202Y-46367671D01*
X127655908Y-46502517D01*
X127649501Y-46562116D01*
X127649501Y-46562123D01*
X127649500Y-46562135D01*
X127649500Y-48357870D01*
X127649501Y-48357876D01*
X127655908Y-48417483D01*
X127706202Y-48552328D01*
X127706206Y-48552335D01*
X127792452Y-48667544D01*
X127792455Y-48667547D01*
X127907664Y-48753793D01*
X127907671Y-48753797D01*
X128039082Y-48802810D01*
X128095016Y-48844681D01*
X128119433Y-48910145D01*
X128104582Y-48978418D01*
X128083431Y-49006673D01*
X127969889Y-49120215D01*
X127844951Y-49292179D01*
X127748444Y-49481585D01*
X127682753Y-49683760D01*
X127649500Y-49893713D01*
X127649500Y-50106286D01*
X127682753Y-50316240D01*
X127696534Y-50358653D01*
X127698529Y-50428495D01*
X127666293Y-50484644D01*
X126684552Y-51466573D01*
X126623232Y-51500064D01*
X126596862Y-51502900D01*
X124527762Y-51502900D01*
X124460723Y-51483215D01*
X124414968Y-51430411D01*
X124405024Y-51361253D01*
X124434049Y-51297697D01*
X124489443Y-51260969D01*
X124518412Y-51251557D01*
X124707816Y-51155051D01*
X124729789Y-51139086D01*
X124879786Y-51030109D01*
X124879788Y-51030106D01*
X124879792Y-51030104D01*
X125030104Y-50879792D01*
X125030106Y-50879788D01*
X125030109Y-50879786D01*
X125155048Y-50707820D01*
X125155047Y-50707820D01*
X125155051Y-50707816D01*
X125251557Y-50518412D01*
X125317246Y-50316243D01*
X125350500Y-50106287D01*
X125350500Y-49893713D01*
X125317246Y-49683757D01*
X125251557Y-49481588D01*
X125155051Y-49292184D01*
X125155049Y-49292181D01*
X125155048Y-49292179D01*
X125030109Y-49120213D01*
X124916569Y-49006673D01*
X124883084Y-48945350D01*
X124888068Y-48875658D01*
X124929940Y-48819725D01*
X124960915Y-48802810D01*
X125092331Y-48753796D01*
X125207546Y-48667546D01*
X125293796Y-48552331D01*
X125344091Y-48417483D01*
X125350500Y-48357873D01*
X125350499Y-46562128D01*
X125344091Y-46502517D01*
X125338714Y-46488101D01*
X125293797Y-46367671D01*
X125293793Y-46367664D01*
X125207547Y-46252455D01*
X125207544Y-46252452D01*
X125092335Y-46166206D01*
X125092328Y-46166202D01*
X124957482Y-46115908D01*
X124957483Y-46115908D01*
X124897883Y-46109501D01*
X124897881Y-46109500D01*
X124897873Y-46109500D01*
X124897864Y-46109500D01*
X123102129Y-46109500D01*
X123102123Y-46109501D01*
X123042516Y-46115908D01*
X122907671Y-46166202D01*
X122907664Y-46166206D01*
X122792455Y-46252452D01*
X122792452Y-46252455D01*
X122706206Y-46367664D01*
X122706202Y-46367671D01*
X122655908Y-46502517D01*
X122649501Y-46562116D01*
X122649501Y-46562123D01*
X122649500Y-46562135D01*
X122649500Y-48357870D01*
X122649501Y-48357876D01*
X122655908Y-48417483D01*
X122706202Y-48552328D01*
X122706206Y-48552335D01*
X122792452Y-48667544D01*
X122792455Y-48667547D01*
X122907664Y-48753793D01*
X122907671Y-48753797D01*
X123039082Y-48802810D01*
X123095016Y-48844681D01*
X123119433Y-48910145D01*
X123104582Y-48978418D01*
X123083431Y-49006673D01*
X123008021Y-49082082D01*
X122946701Y-49115566D01*
X122920342Y-49118400D01*
X121289766Y-49118400D01*
X121222727Y-49098715D01*
X121220875Y-49097502D01*
X121089185Y-49009509D01*
X121089172Y-49009502D01*
X120943501Y-48949164D01*
X120943489Y-48949161D01*
X120788845Y-48918400D01*
X120788842Y-48918400D01*
X120631158Y-48918400D01*
X120631155Y-48918400D01*
X120476510Y-48949161D01*
X120476498Y-48949164D01*
X120330827Y-49009502D01*
X120330814Y-49009509D01*
X120199711Y-49097110D01*
X120199707Y-49097113D01*
X120088213Y-49208607D01*
X120088210Y-49208611D01*
X120000609Y-49339714D01*
X120000602Y-49339727D01*
X119940264Y-49485398D01*
X119940261Y-49485410D01*
X119909500Y-49640053D01*
X119909500Y-49797746D01*
X119940261Y-49952389D01*
X119940264Y-49952401D01*
X120000602Y-50098072D01*
X120000609Y-50098085D01*
X120088210Y-50229188D01*
X120088213Y-50229192D01*
X120199707Y-50340686D01*
X120199711Y-50340689D01*
X120330814Y-50428290D01*
X120330827Y-50428297D01*
X120466863Y-50484644D01*
X120476503Y-50488637D01*
X120626191Y-50518412D01*
X120631153Y-50519399D01*
X120631156Y-50519400D01*
X120631158Y-50519400D01*
X120788844Y-50519400D01*
X120788845Y-50519399D01*
X120943497Y-50488637D01*
X121089179Y-50428294D01*
X121143663Y-50391889D01*
X121220875Y-50340298D01*
X121287553Y-50319420D01*
X121289766Y-50319400D01*
X122593689Y-50319400D01*
X122660728Y-50339085D01*
X122706483Y-50391889D01*
X122711620Y-50405082D01*
X122748444Y-50518414D01*
X122844951Y-50707820D01*
X122969890Y-50879786D01*
X123120213Y-51030109D01*
X123292179Y-51155048D01*
X123292181Y-51155049D01*
X123292184Y-51155051D01*
X123481588Y-51251557D01*
X123510556Y-51260969D01*
X123568232Y-51300407D01*
X123595430Y-51364765D01*
X123583515Y-51433612D01*
X123536271Y-51485087D01*
X123472238Y-51502900D01*
X105020094Y-51502900D01*
X104940499Y-51502826D01*
X104940222Y-51502900D01*
X104939943Y-51502900D01*
X104864228Y-51523187D01*
X104864120Y-51523216D01*
X104787724Y-51543611D01*
X104787483Y-51543710D01*
X104787225Y-51543817D01*
X104718608Y-51583431D01*
X104718609Y-51583432D01*
X104718597Y-51583439D01*
X104650730Y-51622539D01*
X104650531Y-51622737D01*
X104650284Y-51622880D01*
X104650265Y-51622899D01*
X104627210Y-51645954D01*
X104565886Y-51679438D01*
X104563722Y-51679888D01*
X104407508Y-51710961D01*
X104407498Y-51710964D01*
X104261827Y-51771302D01*
X104261814Y-51771309D01*
X104130711Y-51858910D01*
X104130707Y-51858913D01*
X104019213Y-51970407D01*
X104019210Y-51970411D01*
X103931609Y-52101514D01*
X103931602Y-52101527D01*
X103871264Y-52247198D01*
X103871261Y-52247210D01*
X103840500Y-52401853D01*
X103840500Y-52559546D01*
X103871261Y-52714189D01*
X103871264Y-52714201D01*
X103896096Y-52774151D01*
X103903565Y-52843620D01*
X103872289Y-52906099D01*
X103812200Y-52941751D01*
X103742375Y-52939257D01*
X103693852Y-52909283D01*
X98182017Y-47397287D01*
X98167310Y-47370352D01*
X98150723Y-47344542D01*
X98149831Y-47338340D01*
X98148533Y-47335963D01*
X98145700Y-47309607D01*
X98145700Y-47293565D01*
X98165385Y-47226526D01*
X98166598Y-47224674D01*
X98254590Y-47092985D01*
X98254590Y-47092984D01*
X98254594Y-47092979D01*
X98314937Y-46947297D01*
X98345700Y-46792642D01*
X98345700Y-46634958D01*
X98345700Y-46634955D01*
X98345699Y-46634953D01*
X98314937Y-46480303D01*
X98268281Y-46367664D01*
X98254597Y-46334627D01*
X98254590Y-46334614D01*
X98166989Y-46203511D01*
X98166986Y-46203507D01*
X98055492Y-46092013D01*
X98055488Y-46092010D01*
X97924385Y-46004409D01*
X97924372Y-46004402D01*
X97778701Y-45944064D01*
X97778689Y-45944061D01*
X97624045Y-45913300D01*
X97624042Y-45913300D01*
X97466358Y-45913300D01*
X97466355Y-45913300D01*
X97311710Y-45944061D01*
X97311698Y-45944064D01*
X97166027Y-46004402D01*
X97166014Y-46004409D01*
X97034911Y-46092010D01*
X97034907Y-46092013D01*
X96923413Y-46203507D01*
X96923410Y-46203511D01*
X96835809Y-46334614D01*
X96835802Y-46334627D01*
X96775464Y-46480298D01*
X96775461Y-46480310D01*
X96744700Y-46634953D01*
X96744700Y-46792646D01*
X96775461Y-46947289D01*
X96775464Y-46947301D01*
X96835802Y-47092972D01*
X96835809Y-47092985D01*
X96923802Y-47224674D01*
X96944680Y-47291351D01*
X96944700Y-47293565D01*
X96944700Y-47558543D01*
X96944698Y-47688750D01*
X96944698Y-47688751D01*
X96985366Y-47840529D01*
X96985369Y-47840539D01*
X96985713Y-47841825D01*
X96985777Y-47841975D01*
X96987610Y-47844925D01*
X97026784Y-47912778D01*
X97064676Y-47978411D01*
X97064679Y-47978415D01*
X97064680Y-47978416D01*
X97133626Y-48047362D01*
X103141494Y-54055405D01*
X103951476Y-54865410D01*
X103951480Y-54865416D01*
X104028801Y-54942737D01*
X104028802Y-54942739D01*
X104063274Y-54977211D01*
X104063277Y-54977214D01*
X104063279Y-54977215D01*
X104063284Y-54977220D01*
X104063296Y-54977227D01*
X104063973Y-54977715D01*
X104066464Y-54979056D01*
X104107583Y-55002796D01*
X104148289Y-55026297D01*
X104200207Y-55056273D01*
X104200210Y-55056274D01*
X104200216Y-55056277D01*
X104281074Y-55077942D01*
X104352934Y-55097199D01*
X104352939Y-55097199D01*
X104352943Y-55097200D01*
X104431991Y-55097200D01*
X104511048Y-55097201D01*
X104511052Y-55097200D01*
X105695722Y-55097200D01*
X105776916Y-55097219D01*
X105776987Y-55097200D01*
X105777057Y-55097200D01*
X105853045Y-55076838D01*
X105929653Y-55056331D01*
X105929659Y-55056327D01*
X105929683Y-55056321D01*
X105929759Y-55056289D01*
X105929776Y-55056278D01*
X105929784Y-55056277D01*
X105999536Y-55016005D01*
X106066603Y-54977306D01*
X106066606Y-54977302D01*
X106066616Y-54977297D01*
X106066704Y-54977230D01*
X106066711Y-54977222D01*
X106066716Y-54977220D01*
X106123955Y-54919980D01*
X106350446Y-54693596D01*
X106411771Y-54660130D01*
X106413910Y-54659685D01*
X106414840Y-54659500D01*
X106414842Y-54659500D01*
X106569497Y-54628737D01*
X106715179Y-54568394D01*
X106846289Y-54480789D01*
X106957789Y-54369289D01*
X107045394Y-54238179D01*
X107105737Y-54092497D01*
X107136500Y-53937842D01*
X107136500Y-53780158D01*
X107136500Y-53780155D01*
X107136499Y-53780153D01*
X107119128Y-53692826D01*
X107105737Y-53625503D01*
X107070539Y-53540527D01*
X107045397Y-53479827D01*
X107045390Y-53479814D01*
X106957789Y-53348711D01*
X106957786Y-53348707D01*
X106846292Y-53237213D01*
X106846288Y-53237210D01*
X106715185Y-53149609D01*
X106715172Y-53149602D01*
X106569501Y-53089264D01*
X106569489Y-53089261D01*
X106414845Y-53058500D01*
X106414842Y-53058500D01*
X106257158Y-53058500D01*
X106257155Y-53058500D01*
X106102510Y-53089261D01*
X106102498Y-53089264D01*
X105956827Y-53149602D01*
X105956814Y-53149609D01*
X105825711Y-53237210D01*
X105825707Y-53237213D01*
X105714213Y-53348707D01*
X105714210Y-53348711D01*
X105626609Y-53479814D01*
X105626602Y-53479827D01*
X105566264Y-53625498D01*
X105566261Y-53625508D01*
X105535410Y-53780606D01*
X105526639Y-53797371D01*
X105522614Y-53815862D01*
X105503888Y-53840867D01*
X105503025Y-53842517D01*
X105501458Y-53844112D01*
X105485666Y-53859898D01*
X105424336Y-53893371D01*
X105398001Y-53896200D01*
X104732104Y-53896200D01*
X104665065Y-53876515D01*
X104644421Y-53859880D01*
X104628653Y-53844112D01*
X104384530Y-53599981D01*
X104212387Y-53427833D01*
X104178903Y-53366509D01*
X104183889Y-53296818D01*
X104225761Y-53240885D01*
X104291226Y-53216469D01*
X104347520Y-53225591D01*
X104407503Y-53250437D01*
X104562153Y-53281199D01*
X104562156Y-53281200D01*
X104562158Y-53281200D01*
X104719844Y-53281200D01*
X104719845Y-53281199D01*
X104874497Y-53250437D01*
X105020179Y-53190094D01*
X105151289Y-53102489D01*
X105262789Y-52990989D01*
X105350394Y-52859879D01*
X105383296Y-52780447D01*
X105427137Y-52726044D01*
X105493431Y-52703979D01*
X105497857Y-52703900D01*
X110317540Y-52703900D01*
X110384579Y-52723585D01*
X110430334Y-52776389D01*
X110440278Y-52845547D01*
X110432101Y-52875352D01*
X110373264Y-53017398D01*
X110373261Y-53017410D01*
X110342500Y-53172053D01*
X110342500Y-53329746D01*
X110373261Y-53484389D01*
X110373264Y-53484401D01*
X110433602Y-53630072D01*
X110433609Y-53630085D01*
X110521210Y-53761188D01*
X110521213Y-53761192D01*
X110632707Y-53872686D01*
X110632711Y-53872689D01*
X110763814Y-53960290D01*
X110763827Y-53960297D01*
X110909039Y-54020445D01*
X110909503Y-54020637D01*
X111032406Y-54045084D01*
X111064153Y-54051399D01*
X111064156Y-54051400D01*
X111064158Y-54051400D01*
X111221844Y-54051400D01*
X111221845Y-54051399D01*
X111376497Y-54020637D01*
X111376509Y-54020631D01*
X111382324Y-54018869D01*
X111382802Y-54020445D01*
X111444375Y-54013817D01*
X111506858Y-54045084D01*
X111510053Y-54048166D01*
X115662012Y-58199875D01*
X115695498Y-58261197D01*
X115690516Y-58330889D01*
X115677435Y-58356449D01*
X115596612Y-58477409D01*
X115596602Y-58477427D01*
X115536264Y-58623098D01*
X115536261Y-58623109D01*
X115505500Y-58777753D01*
X115505500Y-58935446D01*
X115536261Y-59090089D01*
X115536264Y-59090101D01*
X115596602Y-59235772D01*
X115596609Y-59235785D01*
X115684210Y-59366888D01*
X115684213Y-59366892D01*
X115795707Y-59478386D01*
X115795711Y-59478389D01*
X115926814Y-59565990D01*
X115926827Y-59565997D01*
X116072498Y-59626335D01*
X116072503Y-59626337D01*
X116144791Y-59640716D01*
X116228167Y-59657301D01*
X116290078Y-59689686D01*
X116291630Y-59691209D01*
X116363800Y-59763334D01*
X116947154Y-60346323D01*
X116980658Y-60407635D01*
X116983500Y-60434031D01*
X116983500Y-68727834D01*
X116963815Y-68794873D01*
X116962602Y-68796725D01*
X116874609Y-68928414D01*
X116874602Y-68928427D01*
X116814264Y-69074098D01*
X116814261Y-69074110D01*
X116783500Y-69228753D01*
X116783500Y-69347100D01*
X116763815Y-69414139D01*
X116711011Y-69459894D01*
X116659500Y-69471100D01*
X112744280Y-69471100D01*
X112677241Y-69451415D01*
X112631486Y-69398611D01*
X112621542Y-69329453D01*
X112650567Y-69265897D01*
X112656605Y-69259413D01*
X112706427Y-69209598D01*
X113468696Y-68447431D01*
X113468716Y-68447420D01*
X113528505Y-68387630D01*
X113579231Y-68336911D01*
X113580389Y-68335789D01*
X113580489Y-68335653D01*
X113580495Y-68335648D01*
X113580498Y-68335640D01*
X113580510Y-68335624D01*
X113580520Y-68335616D01*
X113580529Y-68335598D01*
X113580698Y-68335372D01*
X113581559Y-68333816D01*
X113621887Y-68263966D01*
X113621888Y-68263963D01*
X113658949Y-68199780D01*
X113659555Y-68198760D01*
X113659574Y-68198688D01*
X113659577Y-68198684D01*
X113679736Y-68123446D01*
X113679736Y-68123445D01*
X113679737Y-68123445D01*
X113679737Y-68123441D01*
X113700495Y-68045998D01*
X113700495Y-68045990D01*
X113700500Y-68045955D01*
X113700500Y-67974127D01*
X113700501Y-67964068D01*
X113700506Y-67887883D01*
X113700505Y-67887881D01*
X113700506Y-67880023D01*
X113700500Y-67879913D01*
X113700500Y-58829065D01*
X113720185Y-58762026D01*
X113721398Y-58760174D01*
X113775316Y-58679481D01*
X113809394Y-58628479D01*
X113869737Y-58482797D01*
X113900500Y-58328142D01*
X113900500Y-58170458D01*
X113900500Y-58170455D01*
X113900499Y-58170453D01*
X113869737Y-58015803D01*
X113819166Y-57893713D01*
X113809397Y-57870127D01*
X113809390Y-57870114D01*
X113721789Y-57739011D01*
X113721786Y-57739007D01*
X113610292Y-57627513D01*
X113610288Y-57627510D01*
X113479185Y-57539909D01*
X113479172Y-57539902D01*
X113333501Y-57479564D01*
X113333489Y-57479561D01*
X113178845Y-57448800D01*
X113178842Y-57448800D01*
X113021158Y-57448800D01*
X113021155Y-57448800D01*
X112866510Y-57479561D01*
X112866498Y-57479564D01*
X112720827Y-57539902D01*
X112720814Y-57539909D01*
X112589711Y-57627510D01*
X112589707Y-57627513D01*
X112478213Y-57739007D01*
X112478210Y-57739011D01*
X112390609Y-57870114D01*
X112390602Y-57870127D01*
X112330264Y-58015798D01*
X112330261Y-58015810D01*
X112299500Y-58170453D01*
X112299500Y-58328146D01*
X112316183Y-58412017D01*
X112313613Y-58440737D01*
X112313992Y-58469576D01*
X112310537Y-58475109D01*
X112309956Y-58481608D01*
X112292263Y-58504384D01*
X112276993Y-58528846D01*
X112271095Y-58531633D01*
X112267093Y-58536786D01*
X112239895Y-58546380D01*
X112213825Y-58558703D01*
X112204636Y-58558818D01*
X112201203Y-58560030D01*
X112185534Y-58559433D01*
X112100892Y-58559500D01*
X98779269Y-58559500D01*
X98779253Y-58559499D01*
X98771657Y-58559499D01*
X98613543Y-58559499D01*
X98506187Y-58588265D01*
X98460810Y-58600424D01*
X98460809Y-58600425D01*
X98412222Y-58628478D01*
X98412221Y-58628479D01*
X98412211Y-58628485D01*
X98323885Y-58679479D01*
X98323882Y-58679481D01*
X97140539Y-59862825D01*
X97079216Y-59896310D01*
X97077050Y-59896761D01*
X96921708Y-59927661D01*
X96921698Y-59927664D01*
X96776027Y-59988002D01*
X96776014Y-59988009D01*
X96644911Y-60075610D01*
X96644907Y-60075613D01*
X96533413Y-60187107D01*
X96533410Y-60187111D01*
X96445809Y-60318214D01*
X96445802Y-60318227D01*
X96385464Y-60463898D01*
X96385461Y-60463910D01*
X96354700Y-60618553D01*
X81922368Y-60618553D01*
X81909814Y-60580666D01*
X81817712Y-60431344D01*
X81693656Y-60307288D01*
X81598822Y-60248794D01*
X81544336Y-60215187D01*
X81544331Y-60215185D01*
X81542862Y-60214698D01*
X81377797Y-60160001D01*
X81377795Y-60160000D01*
X81275010Y-60149500D01*
X79724998Y-60149500D01*
X79724981Y-60149501D01*
X79622203Y-60160000D01*
X79622200Y-60160001D01*
X79455668Y-60215185D01*
X79455663Y-60215187D01*
X79306342Y-60307289D01*
X79182289Y-60431342D01*
X79090187Y-60580663D01*
X79090186Y-60580666D01*
X79035001Y-60747203D01*
X79035001Y-60747204D01*
X79035000Y-60747204D01*
X79024500Y-60849983D01*
X70500500Y-60849983D01*
X70500500Y-57102135D01*
X89649500Y-57102135D01*
X89649500Y-58897870D01*
X89649501Y-58897876D01*
X89655908Y-58957483D01*
X89706202Y-59092328D01*
X89706206Y-59092335D01*
X89792452Y-59207544D01*
X89792455Y-59207547D01*
X89907664Y-59293793D01*
X89907671Y-59293797D01*
X90042517Y-59344091D01*
X90042516Y-59344091D01*
X90049444Y-59344835D01*
X90102127Y-59350500D01*
X91897872Y-59350499D01*
X91957483Y-59344091D01*
X92092331Y-59293796D01*
X92207546Y-59207546D01*
X92293796Y-59092331D01*
X92342810Y-58960916D01*
X92384681Y-58904984D01*
X92450145Y-58880566D01*
X92518418Y-58895417D01*
X92546673Y-58916569D01*
X92660213Y-59030109D01*
X92832179Y-59155048D01*
X92832181Y-59155049D01*
X92832184Y-59155051D01*
X93021588Y-59251557D01*
X93223757Y-59317246D01*
X93433713Y-59350500D01*
X93433714Y-59350500D01*
X93646286Y-59350500D01*
X93646287Y-59350500D01*
X93856243Y-59317246D01*
X94058412Y-59251557D01*
X94247816Y-59155051D01*
X94334138Y-59092335D01*
X94419786Y-59030109D01*
X94419788Y-59030106D01*
X94419792Y-59030104D01*
X94570104Y-58879792D01*
X94570106Y-58879788D01*
X94570109Y-58879786D01*
X94695048Y-58707820D01*
X94695047Y-58707820D01*
X94695051Y-58707816D01*
X94791557Y-58518412D01*
X94857246Y-58316243D01*
X94890500Y-58106287D01*
X94890500Y-57893713D01*
X94857246Y-57683757D01*
X94791557Y-57481588D01*
X94695051Y-57292184D01*
X94695049Y-57292181D01*
X94695048Y-57292179D01*
X94570109Y-57120213D01*
X94419786Y-56969890D01*
X94247820Y-56844951D01*
X94058414Y-56748444D01*
X94058413Y-56748443D01*
X94058412Y-56748443D01*
X93856243Y-56682754D01*
X93856241Y-56682753D01*
X93856240Y-56682753D01*
X93694957Y-56657208D01*
X93646287Y-56649500D01*
X93433713Y-56649500D01*
X93385042Y-56657208D01*
X93223760Y-56682753D01*
X93021585Y-56748444D01*
X92832179Y-56844951D01*
X92660215Y-56969889D01*
X92546673Y-57083431D01*
X92485350Y-57116915D01*
X92415658Y-57111931D01*
X92359725Y-57070059D01*
X92342810Y-57039082D01*
X92293797Y-56907671D01*
X92293793Y-56907664D01*
X92207547Y-56792455D01*
X92207544Y-56792452D01*
X92092335Y-56706206D01*
X92092328Y-56706202D01*
X91957482Y-56655908D01*
X91957483Y-56655908D01*
X91897883Y-56649501D01*
X91897881Y-56649500D01*
X91897873Y-56649500D01*
X91897864Y-56649500D01*
X90102129Y-56649500D01*
X90102123Y-56649501D01*
X90042516Y-56655908D01*
X89907671Y-56706202D01*
X89907664Y-56706206D01*
X89792455Y-56792452D01*
X89792452Y-56792455D01*
X89706206Y-56907664D01*
X89706202Y-56907671D01*
X89655908Y-57042517D01*
X89649501Y-57102116D01*
X89649500Y-57102135D01*
X70500500Y-57102135D01*
X70500500Y-45798008D01*
X70520185Y-45730969D01*
X70572989Y-45685214D01*
X70642147Y-45675270D01*
X70705703Y-45704295D01*
X70733858Y-45739555D01*
X70822140Y-45904720D01*
X70822151Y-45904738D01*
X71024140Y-46207035D01*
X71024150Y-46207049D01*
X71254807Y-46488106D01*
X71511893Y-46745192D01*
X71511898Y-46745196D01*
X71511899Y-46745197D01*
X71792956Y-46975854D01*
X72095268Y-47177853D01*
X72095277Y-47177858D01*
X72095279Y-47177859D01*
X72415916Y-47349243D01*
X72415918Y-47349243D01*
X72415924Y-47349247D01*
X72751836Y-47488386D01*
X73099767Y-47593930D01*
X73099773Y-47593931D01*
X73099776Y-47593932D01*
X73099787Y-47593935D01*
X73456369Y-47664862D01*
X73818206Y-47700500D01*
X73818209Y-47700500D01*
X74181791Y-47700500D01*
X74181794Y-47700500D01*
X74543631Y-47664862D01*
X74613045Y-47651054D01*
X74900212Y-47593935D01*
X74900223Y-47593932D01*
X74900223Y-47593931D01*
X74900233Y-47593930D01*
X75248164Y-47488386D01*
X75584076Y-47349247D01*
X75904732Y-47177853D01*
X76207044Y-46975854D01*
X76488101Y-46745197D01*
X76745197Y-46488101D01*
X76975854Y-46207044D01*
X77177853Y-45904732D01*
X77349247Y-45584076D01*
X77488386Y-45248164D01*
X77593930Y-44900233D01*
X77593932Y-44900223D01*
X77593935Y-44900212D01*
X77664862Y-44543630D01*
X77700500Y-44181790D01*
X77700500Y-44102135D01*
X89109500Y-44102135D01*
X89109500Y-45897870D01*
X89109501Y-45897876D01*
X89115908Y-45957483D01*
X89166202Y-46092328D01*
X89166206Y-46092335D01*
X89252452Y-46207544D01*
X89252455Y-46207547D01*
X89367664Y-46293793D01*
X89367671Y-46293797D01*
X89502517Y-46344091D01*
X89502516Y-46344091D01*
X89509444Y-46344835D01*
X89562127Y-46350500D01*
X91357872Y-46350499D01*
X91417483Y-46344091D01*
X91552331Y-46293796D01*
X91667546Y-46207546D01*
X91753796Y-46092331D01*
X91802810Y-45960916D01*
X91844681Y-45904984D01*
X91910145Y-45880566D01*
X91978418Y-45895417D01*
X92006673Y-45916569D01*
X92120213Y-46030109D01*
X92292179Y-46155048D01*
X92292181Y-46155049D01*
X92292184Y-46155051D01*
X92481588Y-46251557D01*
X92683757Y-46317246D01*
X92893713Y-46350500D01*
X92893714Y-46350500D01*
X93106286Y-46350500D01*
X93106287Y-46350500D01*
X93316243Y-46317246D01*
X93518412Y-46251557D01*
X93707816Y-46155051D01*
X93794138Y-46092335D01*
X93879786Y-46030109D01*
X93879788Y-46030106D01*
X93879792Y-46030104D01*
X94030104Y-45879792D01*
X94030106Y-45879788D01*
X94030109Y-45879786D01*
X94155048Y-45707820D01*
X94155047Y-45707820D01*
X94155051Y-45707816D01*
X94251557Y-45518412D01*
X94317246Y-45316243D01*
X94350500Y-45106287D01*
X94350500Y-44893713D01*
X94317246Y-44683757D01*
X94251557Y-44481588D01*
X94155051Y-44292184D01*
X94155049Y-44292181D01*
X94155048Y-44292179D01*
X94030109Y-44120213D01*
X93879786Y-43969890D01*
X93707820Y-43844951D01*
X93518414Y-43748444D01*
X93518413Y-43748443D01*
X93518412Y-43748443D01*
X93316243Y-43682754D01*
X93316241Y-43682753D01*
X93316240Y-43682753D01*
X93154957Y-43657208D01*
X93106287Y-43649500D01*
X92893713Y-43649500D01*
X92845042Y-43657208D01*
X92683760Y-43682753D01*
X92481585Y-43748444D01*
X92292179Y-43844951D01*
X92120215Y-43969889D01*
X92006673Y-44083431D01*
X91945350Y-44116915D01*
X91875658Y-44111931D01*
X91819725Y-44070059D01*
X91802810Y-44039082D01*
X91753797Y-43907671D01*
X91753793Y-43907664D01*
X91667547Y-43792455D01*
X91667544Y-43792452D01*
X91552335Y-43706206D01*
X91552328Y-43706202D01*
X91417482Y-43655908D01*
X91417483Y-43655908D01*
X91357883Y-43649501D01*
X91357881Y-43649500D01*
X91357873Y-43649500D01*
X91357864Y-43649500D01*
X89562129Y-43649500D01*
X89562123Y-43649501D01*
X89502516Y-43655908D01*
X89367671Y-43706202D01*
X89367664Y-43706206D01*
X89252455Y-43792452D01*
X89252452Y-43792455D01*
X89166206Y-43907664D01*
X89166202Y-43907671D01*
X89115908Y-44042517D01*
X89109501Y-44102116D01*
X89109500Y-44102135D01*
X77700500Y-44102135D01*
X77700500Y-43818209D01*
X77697963Y-43792455D01*
X77664862Y-43456369D01*
X77593935Y-43099787D01*
X77593932Y-43099776D01*
X77593931Y-43099773D01*
X77593930Y-43099767D01*
X77488386Y-42751836D01*
X77349247Y-42415924D01*
X77206264Y-42148422D01*
X77177859Y-42095279D01*
X77177858Y-42095277D01*
X77177853Y-42095268D01*
X76975854Y-41792956D01*
X76745197Y-41511899D01*
X76745196Y-41511898D01*
X76745192Y-41511893D01*
X76488106Y-41254807D01*
X76207049Y-41024150D01*
X76207048Y-41024149D01*
X76207044Y-41024146D01*
X75904732Y-40822147D01*
X75904727Y-40822144D01*
X75904720Y-40822140D01*
X75739555Y-40733858D01*
X75689711Y-40684896D01*
X75674250Y-40616758D01*
X75698082Y-40551079D01*
X75753639Y-40508710D01*
X75798008Y-40500500D01*
X164201992Y-40500500D01*
X164269031Y-40520185D01*
G37*
%TD.AperFunction*%
%TD*%
M02*
