M48
; DRILL file {KiCad 7.0.2} date Thu May  2 17:55:31 2024
; FORMAT={-:-/ absolute / inch / decimal}
; #@! TF.CreationDate,2024-05-02T17:55:31+09:00
; #@! TF.GenerationSoftware,Kicad,Pcbnew,7.0.2
; #@! TF.FileFunction,Plated,1,2,PTH
FMAT,2
INCH
; #@! TA.AperFunction,Plated,PTH,ViaDrill
T1C0.0157
; #@! TA.AperFunction,Plated,PTH,ComponentDrill
T2C0.0236
; #@! TA.AperFunction,Plated,PTH,ComponentDrill
T3C0.0315
; #@! TA.AperFunction,Plated,PTH,ComponentDrill
T4C0.0374
; #@! TA.AperFunction,Plated,PTH,ComponentDrill
T5C0.0394
; #@! TA.AperFunction,Plated,PTH,ComponentDrill
T6C0.0748
; #@! TA.AperFunction,Plated,PTH,ComponentDrill
T7C0.0906
; #@! TA.AperFunction,Plated,PTH,ComponentDrill
T8C0.1063
%
G90
G05
T1
X4.3307Y-5.3937
X4.5276Y-5.3937
X4.6457Y-3.2677
X4.6457Y-3.3858
X4.7638Y-3.3858
X4.7638Y-3.5039
X4.8819Y-3.5039
X4.8819Y-3.622
X4.8819Y-3.7402
X4.9213Y-5.3937
X5.0Y-3.622
X5.0Y-3.7402
X5.0Y-5.3937
X5.0394Y-5.315
X5.1181Y-3.7402
X5.1181Y-3.8583
X5.1969Y-5.3937
X5.2362Y-3.7402
X5.2362Y-3.8583
X5.315Y-5.2756
X5.315Y-5.3937
X5.3543Y-3.3071
X5.3543Y-3.7402
X5.3543Y-3.8583
X5.4331Y-5.1575
X5.4331Y-5.2756
X5.4331Y-5.3937
X5.4724Y-3.3071
X5.4724Y-3.4252
X5.5512Y-5.0394
X5.5512Y-5.1575
X5.5512Y-5.2756
X5.5512Y-5.3937
X5.5906Y-3.3071
X5.5906Y-3.4252
X5.5906Y-3.5433
X5.6693Y-4.9213
X5.7087Y-3.3071
X5.7087Y-3.4252
X5.7087Y-3.5433
X5.7874Y-4.8031
X5.7874Y-4.9213
X5.8268Y-4.1732
X5.8268Y-4.4094
X5.9055Y-4.685
X5.9055Y-4.8031
X5.9055Y-4.9213
X5.9055Y-5.0394
X6.0236Y-4.685
X6.0236Y-4.8031
X6.0236Y-4.9213
X6.0236Y-5.0394
X6.4961Y-5.0
X6.6142Y-5.0
X6.7323Y-5.0
X6.7717Y-5.1969
X6.7717Y-5.4724
X6.7717Y-5.5906
X6.8898Y-5.0787
X6.8898Y-5.1969
X6.8898Y-5.4724
X6.8898Y-5.5906
X6.8898Y-5.7087
X7.0079Y-4.9606
X7.0079Y-5.0787
X7.0079Y-5.1969
X7.0866Y-4.685
X7.126Y-4.4488
X7.2047Y-5.5906
X7.2047Y-5.7087
X7.3228Y-5.5906
X7.3228Y-5.7087
X7.3228Y-5.8268
T3
X6.63Y-3.322
X6.63Y-3.622
X6.6904Y-4.259
X6.6904Y-4.359
X6.6913Y-3.9948
X6.6913Y-4.0948
X6.6913Y-4.7822
X6.6913Y-4.8822
X6.6923Y-4.5195
X6.6923Y-4.6195
X6.73Y-3.322
X6.73Y-3.622
X6.9577Y-3.3535
X6.9577Y-3.6535
X6.9904Y-4.259
X6.9904Y-4.359
X6.9913Y-3.9948
X6.9913Y-4.0948
X6.9913Y-4.7822
X6.9913Y-4.8822
X6.9923Y-4.5195
X6.9923Y-4.6195
X7.0577Y-3.3535
X7.0577Y-3.6535
T4
X4.5177Y-5.8745
X4.5177Y-5.9532
X4.6161Y-5.8745
X4.6161Y-5.9532
X5.2165Y-5.9307
X5.315Y-5.9307
X5.3937Y-5.9307
X5.4921Y-5.9307
X6.2992Y-4.0157
X6.2992Y-4.1142
X6.2992Y-4.2126
X6.2992Y-4.311
X6.2992Y-4.6555
X6.2992Y-4.7539
X6.2992Y-4.8524
X6.2992Y-4.9508
T5
X3.9961Y-3.0807
X3.9961Y-3.1807
X3.9961Y-5.4807
X3.9961Y-5.5807
X4.0961Y-3.0807
X4.0961Y-3.1807
X4.0961Y-5.4807
X4.0961Y-5.5807
X4.1961Y-3.0807
X4.1961Y-3.1807
X4.1961Y-5.4807
X4.1961Y-5.5807
X4.2961Y-3.0807
X4.2961Y-3.1807
X4.2961Y-5.4807
X4.2961Y-5.5807
X4.3961Y-3.0807
X4.3961Y-3.1807
X4.3961Y-5.4807
X4.3961Y-5.5807
X4.4961Y-3.0807
X4.4961Y-3.1807
X4.4961Y-5.4807
X4.4961Y-5.5807
X4.5961Y-3.0807
X4.5961Y-3.1807
X4.5961Y-5.4807
X4.5961Y-5.5807
X4.6961Y-3.0807
X4.6961Y-3.1807
X4.6961Y-5.4807
X4.6961Y-5.5807
X4.7961Y-3.0807
X4.7961Y-3.1807
X4.7961Y-5.4807
X4.7961Y-5.5807
X4.8961Y-3.0807
X4.8961Y-3.1807
X4.8961Y-5.4807
X4.8961Y-5.5807
X4.9961Y-3.0807
X4.9961Y-3.1807
X4.9961Y-5.4807
X4.9961Y-5.5807
X5.0961Y-3.0807
X5.0961Y-3.1807
X5.0961Y-5.4807
X5.0961Y-5.5807
X5.1961Y-3.0807
X5.1961Y-3.1807
X5.1961Y-5.4807
X5.1961Y-5.5807
X5.2961Y-3.0807
X5.2961Y-3.1807
X5.2961Y-5.4807
X5.2961Y-5.5807
X5.3961Y-3.0807
X5.3961Y-3.1807
X5.3961Y-5.4807
X5.3961Y-5.5807
X5.4961Y-3.0807
X5.4961Y-3.1807
X5.4961Y-5.4807
X5.4961Y-5.5807
X5.5961Y-3.0807
X5.5961Y-3.1807
X5.5961Y-5.4807
X5.5961Y-5.5807
X5.6961Y-3.0807
X5.6961Y-3.1807
X5.6961Y-5.4807
X5.6961Y-5.5807
X5.7961Y-3.0807
X5.7961Y-3.1807
X5.7961Y-5.4807
X5.7961Y-5.5807
X6.1614Y-2.8012
X6.5945Y-2.8012
X6.7913Y-2.8012
X7.2244Y-2.8012
X7.6319Y-3.1693
X7.6319Y-3.6024
X7.6319Y-3.8386
X7.6319Y-4.2717
X7.6319Y-4.4685
X7.6319Y-4.9016
X7.6319Y-5.0591
X7.6319Y-5.4921
T6
X6.2795Y-2.998
X6.4764Y-2.998
X6.9094Y-2.998
X7.1063Y-2.998
X7.435Y-3.2874
X7.435Y-3.4843
X7.435Y-3.9567
X7.435Y-4.1535
X7.435Y-4.5866
X7.435Y-4.7835
X7.435Y-5.1772
X7.435Y-5.374
T7
X4.3307Y-6.0658
X4.8031Y-6.0658
X5.0957Y-6.0374
X5.613Y-6.0374
T8
X6.1181Y-5.8602
X6.4016Y-5.8602
X6.8268Y-5.8602
X7.1102Y-5.8602
T2
G00X5.9941Y-6.1181
M15
G01X5.9941Y-6.0748
M16
G05
G00X6.5256Y-6.1181
M15
G01X6.5256Y-6.0748
M16
G05
G00X6.7028Y-6.1181
M15
G01X6.7028Y-6.0748
M16
G05
G00X7.2343Y-6.1181
M15
G01X7.2343Y-6.0748
M16
G05
T0
M30
