%TF.GenerationSoftware,KiCad,Pcbnew,7.0.2*%
%TF.CreationDate,2024-05-02T17:55:25+09:00*%
%TF.ProjectId,DD_v6,44445f76-362e-46b6-9963-61645f706362,rev?*%
%TF.SameCoordinates,Original*%
%TF.FileFunction,Copper,L2,Bot*%
%TF.FilePolarity,Positive*%
%FSLAX46Y46*%
G04 Gerber Fmt 4.6, Leading zero omitted, Abs format (unit mm)*
G04 Created by KiCad (PCBNEW 7.0.2) date 2024-05-02 17:55:25*
%MOMM*%
%LPD*%
G01*
G04 APERTURE LIST*
G04 Aperture macros list*
%AMRoundRect*
0 Rectangle with rounded corners*
0 $1 Rounding radius*
0 $2 $3 $4 $5 $6 $7 $8 $9 X,Y pos of 4 corners*
0 Add a 4 corners polygon primitive as box body*
4,1,4,$2,$3,$4,$5,$6,$7,$8,$9,$2,$3,0*
0 Add four circle primitives for the rounded corners*
1,1,$1+$1,$2,$3*
1,1,$1+$1,$4,$5*
1,1,$1+$1,$6,$7*
1,1,$1+$1,$8,$9*
0 Add four rect primitives between the rounded corners*
20,1,$1+$1,$2,$3,$4,$5,0*
20,1,$1+$1,$4,$5,$6,$7,0*
20,1,$1+$1,$6,$7,$8,$9,0*
20,1,$1+$1,$8,$9,$2,$3,0*%
G04 Aperture macros list end*
%TA.AperFunction,ComponentPad*%
%ADD10C,1.400000*%
%TD*%
%TA.AperFunction,ComponentPad*%
%ADD11R,3.500000X3.500000*%
%TD*%
%TA.AperFunction,ComponentPad*%
%ADD12C,3.500000*%
%TD*%
%TA.AperFunction,ComponentPad*%
%ADD13R,1.600000X1.600000*%
%TD*%
%TA.AperFunction,ComponentPad*%
%ADD14O,1.600000X1.600000*%
%TD*%
%TA.AperFunction,ComponentPad*%
%ADD15C,1.600000*%
%TD*%
%TA.AperFunction,ComponentPad*%
%ADD16C,4.000000*%
%TD*%
%TA.AperFunction,ComponentPad*%
%ADD17R,1.600000X1.500000*%
%TD*%
%TA.AperFunction,ComponentPad*%
%ADD18C,3.000000*%
%TD*%
%TA.AperFunction,ComponentPad*%
%ADD19RoundRect,0.250000X-0.725000X0.600000X-0.725000X-0.600000X0.725000X-0.600000X0.725000X0.600000X0*%
%TD*%
%TA.AperFunction,ComponentPad*%
%ADD20O,1.950000X1.700000*%
%TD*%
%TA.AperFunction,ComponentPad*%
%ADD21R,0.900000X2.000000*%
%TD*%
%TA.AperFunction,ComponentPad*%
%ADD22RoundRect,1.025000X1.025000X1.025000X-1.025000X1.025000X-1.025000X-1.025000X1.025000X-1.025000X0*%
%TD*%
%TA.AperFunction,ComponentPad*%
%ADD23C,4.100000*%
%TD*%
%TA.AperFunction,ComponentPad*%
%ADD24C,1.700000*%
%TD*%
%TA.AperFunction,ViaPad*%
%ADD25C,0.800000*%
%TD*%
%TA.AperFunction,Conductor*%
%ADD26C,4.500000*%
%TD*%
%TA.AperFunction,Conductor*%
%ADD27C,0.800000*%
%TD*%
%TA.AperFunction,Conductor*%
%ADD28C,0.400000*%
%TD*%
G04 APERTURE END LIST*
D10*
%TO.P,J5,*%
%TO.N,*%
X172500000Y-71150000D03*
X183500000Y-71150000D03*
D11*
%TO.P,J5,1,Pin_1*%
%TO.N,Net-(D2-A)*%
X175500000Y-76150000D03*
D12*
%TO.P,J5,2,Pin_2*%
%TO.N,VCC*%
X180500000Y-76150000D03*
%TD*%
D10*
%TO.P,J1,*%
%TO.N,*%
X193850000Y-128500000D03*
X193850000Y-139500000D03*
D11*
%TO.P,J1,1,Pin_1*%
%TO.N,Net-(D6-A)*%
X188850000Y-131500000D03*
D12*
%TO.P,J1,2,Pin_2*%
%TO.N,VCC*%
X188850000Y-136500000D03*
%TD*%
D10*
%TO.P,J2,*%
%TO.N,*%
X193850000Y-113500000D03*
X193850000Y-124500000D03*
D11*
%TO.P,J2,1,Pin_1*%
%TO.N,Net-(D5-A)*%
X188850000Y-116500000D03*
D12*
%TO.P,J2,2,Pin_2*%
%TO.N,VCC*%
X188850000Y-121500000D03*
%TD*%
D13*
%TO.P,U2,1*%
%TO.N,B7*%
X169983834Y-114795863D03*
D14*
%TO.P,U2,2*%
%TO.N,Net-(R2-Pad1)*%
X169983834Y-117335863D03*
%TO.P,U2,3*%
%TO.N,GNDPWR*%
X177603834Y-117335863D03*
%TO.P,U2,4*%
%TO.N,Net-(D5-A)*%
X177603834Y-114795863D03*
%TD*%
D13*
%TO.P,U1,1*%
%TO.N,B6*%
X169958671Y-121468879D03*
D14*
%TO.P,U1,2*%
%TO.N,Net-(R1-Pad1)*%
X169958671Y-124008879D03*
%TO.P,U1,3*%
%TO.N,GNDPWR*%
X177578671Y-124008879D03*
%TO.P,U1,4*%
%TO.N,Net-(D6-A)*%
X177578671Y-121468879D03*
%TD*%
D13*
%TO.P,U5,1*%
%TO.N,C6*%
X176725000Y-92800000D03*
D14*
%TO.P,U5,2*%
%TO.N,Net-(R5-Pad1)*%
X179265000Y-92800000D03*
%TO.P,U5,3*%
%TO.N,GNDPWR*%
X179265000Y-85180000D03*
%TO.P,U5,4*%
%TO.N,Net-(D2-A)*%
X176725000Y-85180000D03*
%TD*%
D13*
%TO.P,J10,1,VBUS*%
%TO.N,+5V*%
X117250000Y-149212500D03*
D15*
%TO.P,J10,2,D-*%
%TO.N,C10*%
X114750000Y-149212500D03*
%TO.P,J10,3,D+*%
%TO.N,C11*%
X114750000Y-151212500D03*
%TO.P,J10,4,GND*%
%TO.N,GND*%
X117250000Y-151212500D03*
D16*
%TO.P,J10,5,Shield*%
X122000000Y-154072500D03*
X110000000Y-154072500D03*
%TD*%
D13*
%TO.P,U3,1*%
%TO.N,B8*%
X169936236Y-108178012D03*
D14*
%TO.P,U3,2*%
%TO.N,Net-(R3-Pad1)*%
X169936236Y-110718012D03*
%TO.P,U3,3*%
%TO.N,GNDPWR*%
X177556236Y-110718012D03*
%TO.P,U3,4*%
%TO.N,Net-(D4-A)*%
X177556236Y-108178012D03*
%TD*%
D10*
%TO.P,J4,*%
%TO.N,*%
X193850000Y-80500000D03*
X193850000Y-91500000D03*
D11*
%TO.P,J4,1,Pin_1*%
%TO.N,Net-(D3-A)*%
X188850000Y-83500000D03*
D12*
%TO.P,J4,2,Pin_2*%
%TO.N,VCC*%
X188850000Y-88500000D03*
%TD*%
D17*
%TO.P,J9,1,VBUS*%
%TO.N,+5V*%
X132500000Y-150640000D03*
D15*
%TO.P,J9,2,D-*%
%TO.N,A10*%
X135000000Y-150640000D03*
%TO.P,J9,3,D+*%
%TO.N,A9*%
X137000000Y-150640000D03*
%TO.P,J9,4,GND*%
%TO.N,GND*%
X139500000Y-150640000D03*
D18*
%TO.P,J9,5,Shield*%
X129430000Y-153350000D03*
X142570000Y-153350000D03*
%TD*%
D13*
%TO.P,U4,1*%
%TO.N,B9*%
X169958671Y-101468879D03*
D14*
%TO.P,U4,2*%
%TO.N,Net-(R4-Pad1)*%
X169958671Y-104008879D03*
%TO.P,U4,3*%
%TO.N,GNDPWR*%
X177578671Y-104008879D03*
%TO.P,U4,4*%
%TO.N,Net-(D3-A)*%
X177578671Y-101468879D03*
%TD*%
D19*
%TO.P,J12,1,Pin_1*%
%TO.N,+5V*%
X160000000Y-102000000D03*
D20*
%TO.P,J12,2,Pin_2*%
%TO.N,GND*%
X160000000Y-104500000D03*
%TO.P,J12,3,Pin_3*%
%TO.N,A9*%
X160000000Y-107000000D03*
%TO.P,J12,4,Pin_4*%
%TO.N,A10*%
X160000000Y-109500000D03*
%TD*%
D21*
%TO.P,XT60OUT1,*%
%TO.N,*%
X165750000Y-154850000D03*
X152250000Y-154850000D03*
D22*
%TO.P,XT60OUT1,1,Pin_1*%
%TO.N,GNDPWR*%
X162600000Y-148850000D03*
D23*
%TO.P,XT60OUT1,2,Pin_2*%
%TO.N,VCC*%
X155400000Y-148850000D03*
%TD*%
D13*
%TO.P,U6,1*%
%TO.N,C7*%
X168403099Y-92000000D03*
D14*
%TO.P,U6,2*%
%TO.N,Net-(R6-Pad1)*%
X170943099Y-92000000D03*
%TO.P,U6,3*%
%TO.N,GNDPWR*%
X170943099Y-84380000D03*
%TO.P,U6,4*%
%TO.N,Net-(D1-A)*%
X168403099Y-84380000D03*
%TD*%
D19*
%TO.P,J13,1,Pin_1*%
%TO.N,+5V*%
X160000000Y-118250000D03*
D20*
%TO.P,J13,2,Pin_2*%
%TO.N,GND*%
X160000000Y-120750000D03*
%TO.P,J13,3,Pin_3*%
%TO.N,C11*%
X160000000Y-123250000D03*
%TO.P,J13,4,Pin_4*%
%TO.N,C10*%
X160000000Y-125750000D03*
%TD*%
D10*
%TO.P,J3,*%
%TO.N,*%
X193850000Y-97500000D03*
X193850000Y-108500000D03*
D11*
%TO.P,J3,1,Pin_1*%
%TO.N,Net-(D4-A)*%
X188850000Y-100500000D03*
D12*
%TO.P,J3,2,Pin_2*%
%TO.N,VCC*%
X188850000Y-105500000D03*
%TD*%
D24*
%TO.P,U10,1,RESET*%
%TO.N,unconnected-(U10-RESET-Pad1)*%
X116740000Y-139210000D03*
%TO.P,U10,2,BOOT0*%
%TO.N,unconnected-(U10-BOOT0-Pad2)*%
X109120000Y-141750000D03*
%TO.P,U10,3,IOREF*%
%TO.N,unconnected-(U10-IOREF-Pad3)*%
X114200000Y-139210000D03*
%TO.P,U10,4,AVDD*%
%TO.N,unconnected-(U10-AVDD-Pad4)*%
X109120000Y-80790000D03*
%TO.P,U10,5,VDD*%
%TO.N,unconnected-(U10-VDD-Pad5)*%
X106580000Y-141750000D03*
%TO.P,U10,6,VBAT*%
%TO.N,unconnected-(U10-VBAT-Pad6)*%
X142140000Y-141750000D03*
%TO.P,U10,7,VIN*%
%TO.N,unconnected-(U10-VIN-Pad7)*%
X129440000Y-139210000D03*
%TO.P,U10,8,U5V*%
%TO.N,+5V*%
X109120000Y-78250000D03*
%TO.P,U10,9,E5V*%
X106580000Y-139210000D03*
%TO.P,U10,10,+5V*%
X121820000Y-139210000D03*
%TO.P,U10,11,+3V3*%
%TO.N,unconnected-(U10-+3V3-Pad11)*%
X119280000Y-139210000D03*
%TO.P,U10,12,PA0(TIM2_CH1/TIM5_CH1/UART4_TX)*%
%TO.N,A0*%
X134520000Y-139210000D03*
%TO.P,U10,13,PA1(TIM2_CH2/TIM5CH2/UART4_RX)*%
%TO.N,A1*%
X137060000Y-139210000D03*
%TO.P,U10,14,PA2(TIM2_CH3/TIM5_CH3/TIM9_CH1/USART2_TX)*%
%TO.N,A2*%
X144680000Y-80790000D03*
%TO.P,U10,15,PA3(TIM2_CH4/TIM5_CH4/TIM9_CH2/USART2_RX)*%
%TO.N,A3*%
X147220000Y-80790000D03*
%TO.P,U10,16,PA4*%
%TO.N,unconnected-(U10-PA4-Pad16)*%
X139600000Y-139210000D03*
%TO.P,U10,17,PA5(TIM2_CH1)*%
%TO.N,A5*%
X114200000Y-80790000D03*
%TO.P,U10,18,PA6(TIM3_CH1/TIM13_CH1)*%
%TO.N,A6*%
X116740000Y-80790000D03*
%TO.P,U10,19,PA7(TIM3_CH2/TIM14_CH1)*%
%TO.N,A7*%
X119280000Y-80790000D03*
%TO.P,U10,20,PA8(TIM1_CH1/12C3_SCL)*%
%TO.N,A8*%
X129440000Y-80790000D03*
%TO.P,U10,21,PA9(TIM1_CH2/USART1_TX)*%
%TO.N,A9*%
X126900000Y-80790000D03*
%TO.P,U10,22,PA10(TIM1_CH3/USART1_RX)*%
%TO.N,A10*%
X142140000Y-80790000D03*
%TO.P,U10,23,PA11(TIM1_CH4/CAN1_RX)*%
%TO.N,A11*%
X116740000Y-78250000D03*
%TO.P,U10,24,PA12(CAN1_TX)*%
%TO.N,unconnected-(U10-PA12(CAN1_TX)-Pad24)*%
X114200000Y-78250000D03*
%TO.P,U10,25,PA13(JTCK-SWDIO)*%
%TO.N,unconnected-(U10-PA13(JTCK-SWDIO)-Pad25)*%
X116740000Y-141750000D03*
%TO.P,U10,26,PA14(JTCK-SWCLK)*%
%TO.N,unconnected-(U10-PA14(JTCK-SWCLK)-Pad26)*%
X119280000Y-141750000D03*
%TO.P,U10,27,PA15(TIM2_CH1)*%
%TO.N,unconnected-(U10-PA15(TIM2_CH1)-Pad27)*%
X121820000Y-141750000D03*
%TO.P,U10,28,PD2(UART5_RX)*%
%TO.N,unconnected-(U10-PD2(UART5_RX)-Pad28)*%
X104040000Y-139210000D03*
%TO.P,U10,29,PH0*%
%TO.N,unconnected-(U10-PH0-Pad29)*%
X137060000Y-141750000D03*
%TO.P,U10,30,PH1*%
%TO.N,unconnected-(U10-PH1-Pad30)*%
X139600000Y-141750000D03*
%TO.P,U10,31,(TIM3_CH3)PB0*%
%TO.N,B0*%
X142140000Y-139210000D03*
%TO.P,U10,32,(TIM3_CH4)PB1*%
%TO.N,B1*%
X129440000Y-78250000D03*
%TO.P,U10,33,(TIM2_CH4)PB2*%
%TO.N,B2*%
X126900000Y-78250000D03*
%TO.P,U10,34,(TIM3_CH1/12C2_SDA)PB3*%
%TO.N,B3*%
X139600000Y-80790000D03*
%TO.P,U10,35,(TIM3_CH1/12C3_SDA)PB4*%
%TO.N,unconnected-(U10-(TIM3_CH1{slash}12C3_SDA)PB4-Pad35)*%
X134520000Y-80790000D03*
%TO.P,U10,36,(TIM3_CH2/CAN2_RX)PB5*%
%TO.N,unconnected-(U10-(TIM3_CH2{slash}CAN2_RX)PB5-Pad36)*%
X137060000Y-80790000D03*
%TO.P,U10,37,(TIM4_CH1/12C1_SCL/USART1_TX/CAN2_TX)PB6*%
%TO.N,B6*%
X121820000Y-80790000D03*
%TO.P,U10,38,(TIM4_CH2/12C1_SDA/USART1_RX)PB7*%
%TO.N,B7*%
X126900000Y-141750000D03*
%TO.P,U10,39,(TIM2_CH1/TIM4_CH3/TIM10_CH1/12C1_SCL/CAN1_RX)PB8*%
%TO.N,B8*%
X104040000Y-80790000D03*
%TO.P,U10,40,(TIM2_CH2/TIM4_CH4/TIM11_CH1/12C1_SDA/CAN1_TX)PB9*%
%TO.N,B9*%
X106580000Y-80790000D03*
%TO.P,U10,41,(TIM_2CH3/12C2_SCL/USART3_RX)PB10*%
%TO.N,unconnected-(U10-(TIM_2CH3{slash}12C2_SCL{slash}USART3_RX)PB10-Pad41)*%
X131980000Y-80790000D03*
%TO.P,U10,42,(CAN2_RX)PB12*%
%TO.N,unconnected-(U10-(CAN2_RX)PB12-Pad42)*%
X119280000Y-78250000D03*
%TO.P,U10,43,(CAN2_TX)PB13*%
%TO.N,unconnected-(U10-(CAN2_TX)PB13-Pad43)*%
X137060000Y-78250000D03*
%TO.P,U10,44,(TIM12_CH1)PB14*%
%TO.N,B14*%
X134520000Y-78250000D03*
%TO.P,U10,45,(TIM12_CH2)PB15*%
%TO.N,B15*%
X131980000Y-78250000D03*
%TO.P,U10,46,PC0(PB9)*%
%TO.N,Net-(U10-PC0(PB9))*%
X147220000Y-139210000D03*
%TO.P,U10,47,PC1(PB9)*%
%TO.N,Net-(U10-PC1(PB9))*%
X144680000Y-139210000D03*
%TO.P,U10,48,PC2*%
%TO.N,Net-(U10-PC2)*%
X144680000Y-141750000D03*
%TO.P,U10,49,PC3*%
%TO.N,Net-(U10-PC3)*%
X147220000Y-141750000D03*
%TO.P,U10,50,PC4*%
%TO.N,unconnected-(U10-PC4-Pad50)*%
X142140000Y-78250000D03*
%TO.P,U10,51,(USART3_RX)PC5*%
%TO.N,unconnected-(U10-(USART3_RX)PC5-Pad51)*%
X106580000Y-78250000D03*
%TO.P,U10,52,(TIM3_CH1/TIM8_CH1/USART6_TX)PC6*%
%TO.N,C6*%
X104040000Y-78250000D03*
%TO.P,U10,53,(TIM3_CH2/TIM8_CH2/USART6_RX)PC7*%
%TO.N,C7*%
X124360000Y-80790000D03*
%TO.P,U10,54,(TIM3_CH3/TIM8_CH3)PC8*%
%TO.N,C8*%
X101500000Y-78250000D03*
%TO.P,U10,55,(TIM3_CH4/TIM8_CH4/12C3_SDA)PC9*%
%TO.N,C9*%
X101500000Y-80790000D03*
%TO.P,U10,56,(USART3_TX/UART4_TX)PC10*%
%TO.N,C10*%
X101500000Y-141750000D03*
%TO.P,U10,57,(USART3_RX/UART4_RX)PC11*%
%TO.N,C11*%
X101500000Y-139210000D03*
%TO.P,U10,58,(12C2_SDA/UART5_TX)PC12*%
%TO.N,unconnected-(U10-(12C2_SDA{slash}UART5_TX)PC12-Pad58)*%
X104040000Y-141750000D03*
%TO.P,U10,59,PC13*%
%TO.N,unconnected-(U10-PC13-Pad59)*%
X129440000Y-141750000D03*
%TO.P,U10,60,PC14*%
%TO.N,unconnected-(U10-PC14-Pad60)*%
X131980000Y-141750000D03*
%TO.P,U10,61,PC15*%
%TO.N,unconnected-(U10-PC15-Pad61)*%
X134520000Y-141750000D03*
%TO.P,U10,62,GND*%
%TO.N,GND*%
X124360000Y-141750000D03*
X109120000Y-139210000D03*
X124360000Y-139210000D03*
X126900000Y-139210000D03*
X111660000Y-80790000D03*
X124360000Y-78250000D03*
X139600000Y-78250000D03*
%TO.P,U10,63*%
%TO.N,N/C*%
X114200000Y-141750000D03*
%TO.P,U10,64*%
X111660000Y-139210000D03*
%TO.P,U10,65*%
X111660000Y-141750000D03*
%TO.P,U10,66*%
X131980000Y-139210000D03*
%TO.P,U10,67*%
X111660000Y-78250000D03*
%TO.P,U10,68*%
X121820000Y-78250000D03*
%TO.P,U10,69*%
X144680000Y-78250000D03*
%TO.P,U10,70*%
X147220000Y-78250000D03*
%TD*%
D10*
%TO.P,J6,*%
%TO.N,*%
X156500000Y-71150000D03*
X167500000Y-71150000D03*
D11*
%TO.P,J6,1,Pin_1*%
%TO.N,Net-(D1-A)*%
X159500000Y-76150000D03*
D12*
%TO.P,J6,2,Pin_2*%
%TO.N,VCC*%
X164500000Y-76150000D03*
%TD*%
D21*
%TO.P,XT60IN1,*%
%TO.N,*%
X183750000Y-154850000D03*
X170250000Y-154850000D03*
D22*
%TO.P,XT60IN1,1,Pin_1*%
%TO.N,GNDPWR*%
X180600000Y-148850000D03*
D23*
%TO.P,XT60IN1,2,Pin_2*%
%TO.N,VCC*%
X173400000Y-148850000D03*
%TD*%
D25*
%TO.N,GNDPWR*%
X186000000Y-142000000D03*
X178000000Y-129000000D03*
X183000000Y-142000000D03*
X180000000Y-119000000D03*
X175000000Y-139000000D03*
X175000000Y-142000000D03*
X183000000Y-145000000D03*
X175000000Y-132000000D03*
X172000000Y-132000000D03*
X186000000Y-145000000D03*
X181000000Y-113000000D03*
X172000000Y-139000000D03*
X186000000Y-148000000D03*
X175000000Y-129000000D03*
X172000000Y-142000000D03*
X178000000Y-126000000D03*
X175000000Y-145000000D03*
X178000000Y-132000000D03*
%TO.N,GND*%
X150000000Y-125000000D03*
X145000000Y-87000000D03*
X141000000Y-128000000D03*
X124000000Y-92000000D03*
X153000000Y-125000000D03*
X136000000Y-98000000D03*
X138000000Y-131000000D03*
X118000000Y-86000000D03*
X128000000Y-135000000D03*
X139000000Y-87000000D03*
X127000000Y-95000000D03*
X121000000Y-89000000D03*
X136000000Y-95000000D03*
X168000000Y-127000000D03*
X118000000Y-83000000D03*
X153000000Y-119000000D03*
X141000000Y-131000000D03*
X124000000Y-95000000D03*
X153000000Y-122000000D03*
X124000000Y-89000000D03*
X136000000Y-84000000D03*
X135000000Y-134000000D03*
X115000000Y-137000000D03*
X135000000Y-137000000D03*
X141000000Y-134000000D03*
X142000000Y-87000000D03*
X165000000Y-127000000D03*
X127000000Y-137000000D03*
X132000000Y-137000000D03*
X133000000Y-98000000D03*
X171000000Y-127000000D03*
X153000000Y-128000000D03*
X138000000Y-137000000D03*
X150000000Y-128000000D03*
X121000000Y-86000000D03*
X142000000Y-84000000D03*
X147000000Y-122000000D03*
X139000000Y-84000000D03*
X144000000Y-125000000D03*
X133000000Y-95000000D03*
X147000000Y-125000000D03*
X138000000Y-134000000D03*
X130000000Y-95000000D03*
X141000000Y-137000000D03*
X150000000Y-119000000D03*
X142000000Y-90000000D03*
X125000000Y-137000000D03*
X145000000Y-90000000D03*
X145000000Y-84000000D03*
X130000000Y-98000000D03*
X110000000Y-137000000D03*
X127000000Y-92000000D03*
X150000000Y-122000000D03*
%TO.N,+5V*%
X148000000Y-112000000D03*
X148000000Y-106000000D03*
%TD*%
D26*
%TO.N,VCC*%
X183881795Y-82782137D02*
X180649658Y-79550000D01*
X180649658Y-79550000D02*
X180500000Y-79550000D01*
X184650000Y-106300000D02*
X185450000Y-105500000D01*
X188850000Y-88500000D02*
X185450000Y-88500000D01*
X183881795Y-86931795D02*
X183881795Y-82782137D01*
X180500000Y-79550000D02*
X180500000Y-76150000D01*
X164500000Y-76150000D02*
X168700000Y-80350000D01*
X185450000Y-105500000D02*
X184650000Y-104700000D01*
X184650000Y-120700000D02*
X184650000Y-135700000D01*
X179700000Y-80350000D02*
X180500000Y-79550000D01*
X188850000Y-121500000D02*
X185450000Y-121500000D01*
X168700000Y-80350000D02*
X179700000Y-80350000D01*
X184650000Y-120700000D02*
X184650000Y-106300000D01*
X188850000Y-105500000D02*
X185450000Y-105500000D01*
X184650000Y-89300000D02*
X185450000Y-88500000D01*
X185450000Y-136500000D02*
X188850000Y-136500000D01*
X185450000Y-121500000D02*
X184650000Y-120700000D01*
X185450000Y-88500000D02*
X183881795Y-86931795D01*
X184650000Y-135700000D02*
X185450000Y-136500000D01*
X184650000Y-104700000D02*
X184650000Y-89300000D01*
D27*
%TO.N,+5V*%
X109120000Y-78250000D02*
X107670000Y-76800000D01*
X148000000Y-115000000D02*
X148000000Y-106000000D01*
X146000000Y-117000000D02*
X148000000Y-115000000D01*
X100899390Y-76800000D02*
X100000000Y-77699390D01*
X116630000Y-132630000D02*
X130370000Y-132630000D01*
X100000000Y-77699390D02*
X100000000Y-132630000D01*
X146000000Y-117000000D02*
X158750000Y-117000000D01*
X158750000Y-117000000D02*
X160000000Y-118250000D01*
X130370000Y-132630000D02*
X146000000Y-117000000D01*
X107670000Y-76800000D02*
X100899390Y-76800000D01*
X100000000Y-132630000D02*
X116630000Y-132630000D01*
X100000000Y-132630000D02*
X106580000Y-139210000D01*
D28*
%TO.N,A10*%
X140890000Y-79540000D02*
X142140000Y-80790000D01*
X160000000Y-109500000D02*
X153842233Y-109500000D01*
X155000000Y-136000000D02*
X162000000Y-129000000D01*
X137640000Y-148000000D02*
X149000000Y-148000000D01*
X135000000Y-150640000D02*
X137640000Y-148000000D01*
X153842233Y-109500000D02*
X125650000Y-81307767D01*
X125650000Y-81307767D02*
X125650000Y-80272233D01*
X125650000Y-80272233D02*
X126382233Y-79540000D01*
X162000000Y-129000000D02*
X162000000Y-111500000D01*
X149000000Y-148000000D02*
X155000000Y-142000000D01*
X126382233Y-79540000D02*
X140890000Y-79540000D01*
X162000000Y-111500000D02*
X160000000Y-109500000D01*
X155000000Y-142000000D02*
X155000000Y-136000000D01*
%TO.N,A9*%
X160000000Y-107000000D02*
X153110000Y-107000000D01*
X163000000Y-129000000D02*
X163000000Y-110000000D01*
X155600000Y-136400000D02*
X163000000Y-129000000D01*
X137000000Y-150640000D02*
X138640000Y-149000000D01*
X149000000Y-149000000D02*
X155600000Y-142400000D01*
X138640000Y-149000000D02*
X149000000Y-149000000D01*
X155600000Y-142400000D02*
X155600000Y-136400000D01*
X163000000Y-110000000D02*
X160000000Y-107000000D01*
X153110000Y-107000000D02*
X126900000Y-80790000D01*
%TO.N,C10*%
X147607500Y-143392500D02*
X150000000Y-141000000D01*
X117607500Y-143392500D02*
X147607500Y-143392500D01*
X150000000Y-135750000D02*
X160000000Y-125750000D01*
X150000000Y-141000000D02*
X150000000Y-135750000D01*
X108962500Y-149212500D02*
X101500000Y-141750000D01*
X114750000Y-149212500D02*
X108962500Y-149212500D01*
X114750000Y-146250000D02*
X117607500Y-143392500D01*
X114750000Y-149212500D02*
X114750000Y-146250000D01*
%TO.N,C11*%
X154000000Y-137848528D02*
X154000000Y-133642767D01*
X120070000Y-143992500D02*
X147856028Y-143992500D01*
X109194733Y-151212500D02*
X100250000Y-142267767D01*
X115950000Y-150012500D02*
X115950000Y-148112500D01*
X161375000Y-126267767D02*
X161375000Y-124625000D01*
X147856028Y-143992500D02*
X154000000Y-137848528D01*
X115950000Y-148112500D02*
X120070000Y-143992500D01*
X100250000Y-140460000D02*
X101500000Y-139210000D01*
X114750000Y-151212500D02*
X115950000Y-150012500D01*
X161375000Y-124625000D02*
X160000000Y-123250000D01*
X100250000Y-142267767D02*
X100250000Y-140460000D01*
X114750000Y-151212500D02*
X109194733Y-151212500D01*
X154000000Y-133642767D02*
X161375000Y-126267767D01*
%TD*%
%TA.AperFunction,Conductor*%
%TO.N,GNDPWR*%
G36*
X192002855Y-68000632D02*
G01*
X192172951Y-68008495D01*
X192369795Y-68018166D01*
X192380787Y-68019201D01*
X192563357Y-68044668D01*
X192747242Y-68071946D01*
X192757422Y-68073894D01*
X192939341Y-68116681D01*
X193117878Y-68161402D01*
X193127095Y-68164097D01*
X193304478Y-68223550D01*
X193306618Y-68224292D01*
X193478220Y-68285692D01*
X193486519Y-68289004D01*
X193657980Y-68364712D01*
X193660909Y-68366051D01*
X193747263Y-68406892D01*
X193825119Y-68443715D01*
X193832411Y-68447465D01*
X193929135Y-68501341D01*
X193996435Y-68538827D01*
X193999810Y-68540777D01*
X194155371Y-68634017D01*
X194161670Y-68638058D01*
X194316699Y-68744256D01*
X194320459Y-68746935D01*
X194466009Y-68854882D01*
X194471305Y-68859040D01*
X194616009Y-68979200D01*
X194619947Y-68982617D01*
X194754206Y-69104303D01*
X194758590Y-69108478D01*
X194891520Y-69241408D01*
X194895698Y-69245795D01*
X195017375Y-69380045D01*
X195020805Y-69383998D01*
X195140951Y-69528684D01*
X195145124Y-69534000D01*
X195253041Y-69679509D01*
X195255742Y-69683299D01*
X195361940Y-69838328D01*
X195365999Y-69844656D01*
X195459200Y-70000153D01*
X195461171Y-70003563D01*
X195552525Y-70167573D01*
X195556291Y-70174896D01*
X195633947Y-70339089D01*
X195635286Y-70342018D01*
X195710994Y-70513479D01*
X195714311Y-70521791D01*
X195775666Y-70693265D01*
X195776487Y-70695634D01*
X195835894Y-70872881D01*
X195838606Y-70882157D01*
X195883317Y-71060653D01*
X195926102Y-71242567D01*
X195928052Y-71252753D01*
X195955337Y-71436689D01*
X195980794Y-71619186D01*
X195981834Y-71630230D01*
X195991512Y-71827238D01*
X195999368Y-71997144D01*
X195999500Y-72002871D01*
X195999500Y-161997127D01*
X195999368Y-162002854D01*
X195991512Y-162172761D01*
X195981834Y-162369767D01*
X195980794Y-162380813D01*
X195955337Y-162563309D01*
X195928052Y-162747242D01*
X195926101Y-162757433D01*
X195883317Y-162939344D01*
X195838605Y-163117845D01*
X195835895Y-163127113D01*
X195776487Y-163304364D01*
X195775666Y-163306733D01*
X195714311Y-163478207D01*
X195710994Y-163486519D01*
X195635286Y-163657980D01*
X195633947Y-163660909D01*
X195556291Y-163825102D01*
X195552525Y-163832425D01*
X195461171Y-163996435D01*
X195459200Y-163999845D01*
X195365999Y-164155342D01*
X195361940Y-164161670D01*
X195255742Y-164316699D01*
X195253041Y-164320489D01*
X195145135Y-164465984D01*
X195140935Y-164471334D01*
X195020851Y-164615947D01*
X195017331Y-164620004D01*
X194895717Y-164754183D01*
X194891520Y-164758590D01*
X194758590Y-164891520D01*
X194754183Y-164895717D01*
X194620004Y-165017331D01*
X194615947Y-165020851D01*
X194471334Y-165140935D01*
X194465984Y-165145135D01*
X194320489Y-165253041D01*
X194316699Y-165255742D01*
X194161670Y-165361940D01*
X194155342Y-165365999D01*
X193999845Y-165459200D01*
X193996435Y-165461171D01*
X193832425Y-165552525D01*
X193825102Y-165556291D01*
X193660909Y-165633947D01*
X193657980Y-165635286D01*
X193486519Y-165710994D01*
X193478207Y-165714311D01*
X193306733Y-165775666D01*
X193304364Y-165776487D01*
X193127117Y-165835894D01*
X193117841Y-165838606D01*
X192939346Y-165883317D01*
X192757431Y-165926102D01*
X192747245Y-165928052D01*
X192563310Y-165955337D01*
X192380812Y-165980794D01*
X192369768Y-165981834D01*
X192172761Y-165991512D01*
X192002855Y-165999368D01*
X191997128Y-165999500D01*
X148124000Y-165999500D01*
X148056961Y-165979815D01*
X148011206Y-165927011D01*
X148000000Y-165875500D01*
X148000000Y-162067764D01*
X190145787Y-162067764D01*
X190175413Y-162337016D01*
X190209998Y-162469304D01*
X190243928Y-162599088D01*
X190349870Y-162848390D01*
X190349871Y-162848392D01*
X190490982Y-163079611D01*
X190580253Y-163186881D01*
X190664255Y-163287820D01*
X190865998Y-163468582D01*
X191091910Y-163618044D01*
X191177101Y-163657980D01*
X191337177Y-163733021D01*
X191596562Y-163811058D01*
X191596569Y-163811060D01*
X191864561Y-163850500D01*
X191864564Y-163850500D01*
X192065369Y-163850500D01*
X192067631Y-163850500D01*
X192270156Y-163835677D01*
X192534553Y-163776780D01*
X192787558Y-163680014D01*
X193023777Y-163547441D01*
X193238177Y-163381888D01*
X193426186Y-163186881D01*
X193583799Y-162966579D01*
X193707656Y-162725675D01*
X193795118Y-162469305D01*
X193844319Y-162202933D01*
X193854212Y-161932235D01*
X193824586Y-161662982D01*
X193756072Y-161400912D01*
X193650130Y-161151610D01*
X193509018Y-160920390D01*
X193509017Y-160920388D01*
X193335746Y-160712181D01*
X193230759Y-160618112D01*
X193134002Y-160531418D01*
X192908090Y-160381956D01*
X192908086Y-160381954D01*
X192662822Y-160266978D01*
X192403437Y-160188941D01*
X192403431Y-160188940D01*
X192135439Y-160149500D01*
X191932369Y-160149500D01*
X191930120Y-160149664D01*
X191930109Y-160149665D01*
X191729843Y-160164322D01*
X191465449Y-160223219D01*
X191212441Y-160319986D01*
X190976223Y-160452559D01*
X190761825Y-160618109D01*
X190573813Y-160813120D01*
X190416201Y-161033420D01*
X190292342Y-161274329D01*
X190204881Y-161530695D01*
X190155680Y-161797066D01*
X190145787Y-162067764D01*
X148000000Y-162067764D01*
X148000000Y-155894578D01*
X151299500Y-155894578D01*
X151299501Y-155897872D01*
X151305909Y-155957483D01*
X151356204Y-156092331D01*
X151442454Y-156207546D01*
X151557669Y-156293796D01*
X151692517Y-156344091D01*
X151752127Y-156350500D01*
X152747872Y-156350499D01*
X152807483Y-156344091D01*
X152942331Y-156293796D01*
X153057546Y-156207546D01*
X153143796Y-156092331D01*
X153194091Y-155957483D01*
X153200500Y-155897873D01*
X153200500Y-155894578D01*
X164799500Y-155894578D01*
X164799501Y-155897872D01*
X164805909Y-155957483D01*
X164856204Y-156092331D01*
X164942454Y-156207546D01*
X165057669Y-156293796D01*
X165192517Y-156344091D01*
X165252127Y-156350500D01*
X166247872Y-156350499D01*
X166307483Y-156344091D01*
X166442331Y-156293796D01*
X166557546Y-156207546D01*
X166643796Y-156092331D01*
X166694091Y-155957483D01*
X166700500Y-155897873D01*
X166700500Y-155894578D01*
X169299500Y-155894578D01*
X169299501Y-155897872D01*
X169305909Y-155957483D01*
X169356204Y-156092331D01*
X169442454Y-156207546D01*
X169557669Y-156293796D01*
X169692517Y-156344091D01*
X169752127Y-156350500D01*
X170747872Y-156350499D01*
X170807483Y-156344091D01*
X170942331Y-156293796D01*
X171057546Y-156207546D01*
X171143796Y-156092331D01*
X171194091Y-155957483D01*
X171200500Y-155897873D01*
X171200500Y-155894578D01*
X182799500Y-155894578D01*
X182799501Y-155897872D01*
X182805909Y-155957483D01*
X182856204Y-156092331D01*
X182942454Y-156207546D01*
X183057669Y-156293796D01*
X183192517Y-156344091D01*
X183252127Y-156350500D01*
X184247872Y-156350499D01*
X184307483Y-156344091D01*
X184442331Y-156293796D01*
X184557546Y-156207546D01*
X184643796Y-156092331D01*
X184694091Y-155957483D01*
X184700500Y-155897873D01*
X184700499Y-153802128D01*
X184694091Y-153742517D01*
X184643796Y-153607669D01*
X184557546Y-153492454D01*
X184442331Y-153406204D01*
X184307483Y-153355909D01*
X184247873Y-153349500D01*
X184244550Y-153349500D01*
X183255439Y-153349500D01*
X183255420Y-153349500D01*
X183252128Y-153349501D01*
X183248848Y-153349853D01*
X183248840Y-153349854D01*
X183192515Y-153355909D01*
X183057669Y-153406204D01*
X182942454Y-153492454D01*
X182856204Y-153607668D01*
X182805910Y-153742515D01*
X182805909Y-153742517D01*
X182799500Y-153802127D01*
X182799500Y-153805448D01*
X182799500Y-153805449D01*
X182799500Y-155894560D01*
X182799500Y-155894578D01*
X171200500Y-155894578D01*
X171200499Y-153802128D01*
X171194091Y-153742517D01*
X171143796Y-153607669D01*
X171057546Y-153492454D01*
X170942331Y-153406204D01*
X170807483Y-153355909D01*
X170747873Y-153349500D01*
X170744550Y-153349500D01*
X169755439Y-153349500D01*
X169755420Y-153349500D01*
X169752128Y-153349501D01*
X169748848Y-153349853D01*
X169748840Y-153349854D01*
X169692515Y-153355909D01*
X169557669Y-153406204D01*
X169442454Y-153492454D01*
X169356204Y-153607668D01*
X169305910Y-153742515D01*
X169305909Y-153742517D01*
X169299500Y-153802127D01*
X169299500Y-153805448D01*
X169299500Y-153805449D01*
X169299500Y-155894560D01*
X169299500Y-155894578D01*
X166700500Y-155894578D01*
X166700499Y-153802128D01*
X166694091Y-153742517D01*
X166643796Y-153607669D01*
X166557546Y-153492454D01*
X166442331Y-153406204D01*
X166307483Y-153355909D01*
X166247873Y-153349500D01*
X166244550Y-153349500D01*
X165255439Y-153349500D01*
X165255420Y-153349500D01*
X165252128Y-153349501D01*
X165248848Y-153349853D01*
X165248840Y-153349854D01*
X165192515Y-153355909D01*
X165057669Y-153406204D01*
X164942454Y-153492454D01*
X164856204Y-153607668D01*
X164805910Y-153742515D01*
X164805909Y-153742517D01*
X164799500Y-153802127D01*
X164799500Y-153805448D01*
X164799500Y-153805449D01*
X164799500Y-155894560D01*
X164799500Y-155894578D01*
X153200500Y-155894578D01*
X153200499Y-153802128D01*
X153194091Y-153742517D01*
X153143796Y-153607669D01*
X153057546Y-153492454D01*
X152942331Y-153406204D01*
X152807483Y-153355909D01*
X152747873Y-153349500D01*
X152744550Y-153349500D01*
X151755439Y-153349500D01*
X151755420Y-153349500D01*
X151752128Y-153349501D01*
X151748848Y-153349853D01*
X151748840Y-153349854D01*
X151692515Y-153355909D01*
X151557669Y-153406204D01*
X151442454Y-153492454D01*
X151356204Y-153607668D01*
X151305910Y-153742515D01*
X151305909Y-153742517D01*
X151299500Y-153802127D01*
X151299500Y-153805448D01*
X151299500Y-153805449D01*
X151299500Y-155894560D01*
X151299500Y-155894578D01*
X148000000Y-155894578D01*
X148000000Y-151051362D01*
X148019685Y-150984323D01*
X148036319Y-150963681D01*
X150150000Y-148850000D01*
X152844457Y-148850000D01*
X152864608Y-149170294D01*
X152865335Y-149174106D01*
X152865337Y-149174120D01*
X152908589Y-149400852D01*
X152924744Y-149485538D01*
X152925947Y-149489241D01*
X152925949Y-149489248D01*
X152992100Y-149692839D01*
X153023916Y-149790758D01*
X153160561Y-150081142D01*
X153332522Y-150352110D01*
X153537089Y-150599390D01*
X153539928Y-150602056D01*
X153539930Y-150602058D01*
X153768193Y-150816411D01*
X153768199Y-150816416D01*
X153771036Y-150819080D01*
X154030672Y-151007716D01*
X154311903Y-151162324D01*
X154610294Y-151280466D01*
X154921139Y-151360277D01*
X155239536Y-151400500D01*
X155243431Y-151400500D01*
X155556569Y-151400500D01*
X155560464Y-151400500D01*
X155878861Y-151360277D01*
X156189706Y-151280466D01*
X156488097Y-151162324D01*
X156769328Y-151007716D01*
X157028964Y-150819080D01*
X157262911Y-150599390D01*
X157467478Y-150352110D01*
X157639439Y-150081142D01*
X157776084Y-149790758D01*
X157875256Y-149485538D01*
X157935392Y-149170294D01*
X157955543Y-148850000D01*
X170844457Y-148850000D01*
X170864608Y-149170294D01*
X170865335Y-149174106D01*
X170865337Y-149174120D01*
X170908589Y-149400852D01*
X170924744Y-149485538D01*
X170925947Y-149489241D01*
X170925949Y-149489248D01*
X170992100Y-149692839D01*
X171023916Y-149790758D01*
X171160561Y-150081142D01*
X171332522Y-150352110D01*
X171537089Y-150599390D01*
X171539928Y-150602056D01*
X171539930Y-150602058D01*
X171768193Y-150816411D01*
X171768199Y-150816416D01*
X171771036Y-150819080D01*
X172030672Y-151007716D01*
X172311903Y-151162324D01*
X172610294Y-151280466D01*
X172921139Y-151360277D01*
X173239536Y-151400500D01*
X173243431Y-151400500D01*
X173556569Y-151400500D01*
X173560464Y-151400500D01*
X173878861Y-151360277D01*
X174189706Y-151280466D01*
X174488097Y-151162324D01*
X174769328Y-151007716D01*
X175028964Y-150819080D01*
X175262911Y-150599390D01*
X175467478Y-150352110D01*
X175639439Y-150081142D01*
X175776084Y-149790758D01*
X175875256Y-149485538D01*
X175935392Y-149170294D01*
X175955543Y-148850000D01*
X175935392Y-148529706D01*
X175875256Y-148214462D01*
X175776084Y-147909242D01*
X175639439Y-147618858D01*
X175467478Y-147347890D01*
X175262911Y-147100610D01*
X175260069Y-147097941D01*
X175031806Y-146883588D01*
X175031798Y-146883582D01*
X175028964Y-146880920D01*
X174769328Y-146692284D01*
X174488097Y-146537676D01*
X174484475Y-146536242D01*
X174484471Y-146536240D01*
X174193331Y-146420969D01*
X174193327Y-146420967D01*
X174189706Y-146419534D01*
X174185932Y-146418565D01*
X174185926Y-146418563D01*
X173882634Y-146340691D01*
X173882622Y-146340688D01*
X173878861Y-146339723D01*
X173875010Y-146339236D01*
X173874997Y-146339234D01*
X173564329Y-146299988D01*
X173564324Y-146299987D01*
X173560464Y-146299500D01*
X173239536Y-146299500D01*
X173235676Y-146299987D01*
X173235670Y-146299988D01*
X172925002Y-146339234D01*
X172924986Y-146339236D01*
X172921139Y-146339723D01*
X172917380Y-146340688D01*
X172917365Y-146340691D01*
X172614073Y-146418563D01*
X172614062Y-146418566D01*
X172610294Y-146419534D01*
X172606677Y-146420966D01*
X172606668Y-146420969D01*
X172315528Y-146536240D01*
X172315517Y-146536244D01*
X172311903Y-146537676D01*
X172308491Y-146539551D01*
X172308484Y-146539555D01*
X172034098Y-146690400D01*
X172034091Y-146690404D01*
X172030672Y-146692284D01*
X172027516Y-146694576D01*
X172027508Y-146694582D01*
X171774192Y-146878626D01*
X171774181Y-146878634D01*
X171771036Y-146880920D01*
X171768208Y-146883575D01*
X171768193Y-146883588D01*
X171539930Y-147097941D01*
X171539920Y-147097950D01*
X171537089Y-147100610D01*
X171534610Y-147103606D01*
X171534603Y-147103614D01*
X171335003Y-147344890D01*
X171334997Y-147344898D01*
X171332522Y-147347890D01*
X171330441Y-147351168D01*
X171330436Y-147351176D01*
X171162646Y-147615571D01*
X171162639Y-147615582D01*
X171160561Y-147618858D01*
X171158907Y-147622372D01*
X171158902Y-147622382D01*
X171025575Y-147905715D01*
X171025571Y-147905724D01*
X171023916Y-147909242D01*
X171022714Y-147912938D01*
X171022712Y-147912946D01*
X170925949Y-148210751D01*
X170925946Y-148210762D01*
X170924744Y-148214462D01*
X170924015Y-148218282D01*
X170924013Y-148218291D01*
X170865337Y-148525879D01*
X170865334Y-148525895D01*
X170864608Y-148529706D01*
X170844457Y-148850000D01*
X157955543Y-148850000D01*
X157935392Y-148529706D01*
X157875256Y-148214462D01*
X157776084Y-147909242D01*
X157639439Y-147618858D01*
X157467478Y-147347890D01*
X157262911Y-147100610D01*
X157260069Y-147097941D01*
X157031806Y-146883588D01*
X157031798Y-146883582D01*
X157028964Y-146880920D01*
X156769328Y-146692284D01*
X156488097Y-146537676D01*
X156484475Y-146536242D01*
X156484471Y-146536240D01*
X156193331Y-146420969D01*
X156193327Y-146420967D01*
X156189706Y-146419534D01*
X156185932Y-146418565D01*
X156185926Y-146418563D01*
X155882634Y-146340691D01*
X155882622Y-146340688D01*
X155878861Y-146339723D01*
X155875010Y-146339236D01*
X155874997Y-146339234D01*
X155564329Y-146299988D01*
X155564324Y-146299987D01*
X155560464Y-146299500D01*
X155239536Y-146299500D01*
X155235676Y-146299987D01*
X155235670Y-146299988D01*
X154925002Y-146339234D01*
X154924986Y-146339236D01*
X154921139Y-146339723D01*
X154917380Y-146340688D01*
X154917365Y-146340691D01*
X154614073Y-146418563D01*
X154614062Y-146418566D01*
X154610294Y-146419534D01*
X154606677Y-146420966D01*
X154606668Y-146420969D01*
X154315528Y-146536240D01*
X154315517Y-146536244D01*
X154311903Y-146537676D01*
X154308491Y-146539551D01*
X154308484Y-146539555D01*
X154034098Y-146690400D01*
X154034091Y-146690404D01*
X154030672Y-146692284D01*
X154027516Y-146694576D01*
X154027508Y-146694582D01*
X153774192Y-146878626D01*
X153774181Y-146878634D01*
X153771036Y-146880920D01*
X153768208Y-146883575D01*
X153768193Y-146883588D01*
X153539930Y-147097941D01*
X153539920Y-147097950D01*
X153537089Y-147100610D01*
X153534610Y-147103606D01*
X153534603Y-147103614D01*
X153335003Y-147344890D01*
X153334997Y-147344898D01*
X153332522Y-147347890D01*
X153330441Y-147351168D01*
X153330436Y-147351176D01*
X153162646Y-147615571D01*
X153162639Y-147615582D01*
X153160561Y-147618858D01*
X153158907Y-147622372D01*
X153158902Y-147622382D01*
X153025575Y-147905715D01*
X153025571Y-147905724D01*
X153023916Y-147909242D01*
X153022714Y-147912938D01*
X153022712Y-147912946D01*
X152925949Y-148210751D01*
X152925946Y-148210762D01*
X152924744Y-148214462D01*
X152924015Y-148218282D01*
X152924013Y-148218291D01*
X152865337Y-148525879D01*
X152865334Y-148525895D01*
X152864608Y-148529706D01*
X152844457Y-148850000D01*
X150150000Y-148850000D01*
X159500001Y-139499999D01*
X192644357Y-139499999D01*
X192664885Y-139721537D01*
X192725769Y-139935526D01*
X192824941Y-140134688D01*
X192959019Y-140312237D01*
X193123437Y-140462124D01*
X193312595Y-140579245D01*
X193312597Y-140579245D01*
X193312599Y-140579247D01*
X193520060Y-140659618D01*
X193738757Y-140700500D01*
X193738759Y-140700500D01*
X193961241Y-140700500D01*
X193961243Y-140700500D01*
X194179940Y-140659618D01*
X194387401Y-140579247D01*
X194576562Y-140462124D01*
X194740981Y-140312236D01*
X194875058Y-140134689D01*
X194974229Y-139935528D01*
X195035115Y-139721536D01*
X195055643Y-139500000D01*
X195035115Y-139278464D01*
X195012227Y-139198021D01*
X194974230Y-139064473D01*
X194875058Y-138865311D01*
X194740980Y-138687762D01*
X194576562Y-138537875D01*
X194387404Y-138420754D01*
X194326174Y-138397033D01*
X194179940Y-138340382D01*
X193961243Y-138299500D01*
X193738757Y-138299500D01*
X193529598Y-138338599D01*
X193520060Y-138340382D01*
X193312595Y-138420754D01*
X193123437Y-138537875D01*
X192959019Y-138687762D01*
X192824941Y-138865311D01*
X192725769Y-139064473D01*
X192664885Y-139278462D01*
X192644357Y-139499999D01*
X159500001Y-139499999D01*
X168963681Y-130036319D01*
X169025004Y-130002834D01*
X169051362Y-130000000D01*
X173000000Y-130000000D01*
X174000000Y-129000000D01*
X174000000Y-121468879D01*
X176273202Y-121468879D01*
X176293035Y-121695568D01*
X176351932Y-121915376D01*
X176448103Y-122121614D01*
X176578624Y-122308019D01*
X176739530Y-122468925D01*
X176925935Y-122599446D01*
X176925936Y-122599446D01*
X176925937Y-122599447D01*
X177132175Y-122695618D01*
X177351979Y-122754514D01*
X177503107Y-122767735D01*
X177578670Y-122774347D01*
X177578670Y-122774346D01*
X177578671Y-122774347D01*
X177805363Y-122754514D01*
X178025167Y-122695618D01*
X178231405Y-122599447D01*
X178417810Y-122468926D01*
X178578718Y-122308018D01*
X178709239Y-122121613D01*
X178805410Y-121915375D01*
X178864306Y-121695571D01*
X178884139Y-121468879D01*
X178864306Y-121242187D01*
X178805410Y-121022383D01*
X178709239Y-120816145D01*
X178662925Y-120750000D01*
X178578717Y-120629738D01*
X178417811Y-120468832D01*
X178231406Y-120338311D01*
X178025168Y-120242140D01*
X177805360Y-120183243D01*
X177578670Y-120163410D01*
X177351981Y-120183243D01*
X177132173Y-120242140D01*
X176925935Y-120338311D01*
X176739530Y-120468832D01*
X176578624Y-120629738D01*
X176448103Y-120816143D01*
X176351932Y-121022381D01*
X176293035Y-121242189D01*
X176273202Y-121468879D01*
X174000000Y-121468879D01*
X174000000Y-114795863D01*
X176298365Y-114795863D01*
X176318198Y-115022552D01*
X176377095Y-115242360D01*
X176473266Y-115448598D01*
X176603787Y-115635003D01*
X176764693Y-115795909D01*
X176951098Y-115926430D01*
X176951099Y-115926430D01*
X176951100Y-115926431D01*
X177157338Y-116022602D01*
X177377142Y-116081498D01*
X177528270Y-116094720D01*
X177603833Y-116101331D01*
X177603833Y-116101330D01*
X177603834Y-116101331D01*
X177830526Y-116081498D01*
X178050330Y-116022602D01*
X178256568Y-115926431D01*
X178442973Y-115795910D01*
X178603881Y-115635002D01*
X178734402Y-115448597D01*
X178830573Y-115242359D01*
X178889469Y-115022555D01*
X178909302Y-114795863D01*
X178889469Y-114569171D01*
X178830573Y-114349367D01*
X178734402Y-114143129D01*
X178728493Y-114134689D01*
X178603880Y-113956722D01*
X178442974Y-113795816D01*
X178256569Y-113665295D01*
X178050331Y-113569124D01*
X177830523Y-113510227D01*
X177603833Y-113490394D01*
X177377144Y-113510227D01*
X177157336Y-113569124D01*
X176951098Y-113665295D01*
X176764693Y-113795816D01*
X176603787Y-113956722D01*
X176473266Y-114143127D01*
X176377095Y-114349365D01*
X176318198Y-114569173D01*
X176298365Y-114795863D01*
X174000000Y-114795863D01*
X174000000Y-108178011D01*
X176250767Y-108178011D01*
X176270600Y-108404701D01*
X176329497Y-108624509D01*
X176425668Y-108830747D01*
X176556189Y-109017152D01*
X176717095Y-109178058D01*
X176903500Y-109308579D01*
X176903501Y-109308579D01*
X176903502Y-109308580D01*
X177109740Y-109404751D01*
X177329544Y-109463647D01*
X177556236Y-109483480D01*
X177782928Y-109463647D01*
X178002732Y-109404751D01*
X178208970Y-109308580D01*
X178395375Y-109178059D01*
X178556283Y-109017151D01*
X178686804Y-108830746D01*
X178782975Y-108624508D01*
X178841871Y-108404704D01*
X178861704Y-108178012D01*
X178841871Y-107951320D01*
X178782975Y-107731516D01*
X178686804Y-107525278D01*
X178613617Y-107420754D01*
X178556282Y-107338871D01*
X178395376Y-107177965D01*
X178208971Y-107047444D01*
X178002733Y-106951273D01*
X177782925Y-106892376D01*
X177556236Y-106872543D01*
X177329546Y-106892376D01*
X177109738Y-106951273D01*
X176903500Y-107047444D01*
X176717095Y-107177965D01*
X176556189Y-107338871D01*
X176425668Y-107525276D01*
X176329497Y-107731514D01*
X176270600Y-107951322D01*
X176250767Y-108178011D01*
X174000000Y-108178011D01*
X174000000Y-101468879D01*
X176273202Y-101468879D01*
X176293035Y-101695568D01*
X176351932Y-101915376D01*
X176448103Y-102121614D01*
X176578624Y-102308019D01*
X176739530Y-102468925D01*
X176925935Y-102599446D01*
X176925936Y-102599446D01*
X176925937Y-102599447D01*
X177132175Y-102695618D01*
X177351979Y-102754514D01*
X177578671Y-102774347D01*
X177805363Y-102754514D01*
X178025167Y-102695618D01*
X178231405Y-102599447D01*
X178417810Y-102468926D01*
X178578718Y-102308018D01*
X178709239Y-102121613D01*
X178805410Y-101915375D01*
X178864306Y-101695571D01*
X178884139Y-101468879D01*
X178864306Y-101242187D01*
X178805410Y-101022383D01*
X178709239Y-100816145D01*
X178703038Y-100807288D01*
X178578717Y-100629738D01*
X178417811Y-100468832D01*
X178231406Y-100338311D01*
X178025168Y-100242140D01*
X177805360Y-100183243D01*
X177578671Y-100163410D01*
X177351981Y-100183243D01*
X177132173Y-100242140D01*
X176925935Y-100338311D01*
X176739530Y-100468832D01*
X176578624Y-100629738D01*
X176448103Y-100816143D01*
X176351932Y-101022381D01*
X176293035Y-101242189D01*
X176273202Y-101468879D01*
X174000000Y-101468879D01*
X174000000Y-99123999D01*
X174019685Y-99056961D01*
X174072489Y-99011206D01*
X174124000Y-99000000D01*
X181775500Y-99000000D01*
X181842539Y-99019685D01*
X181888294Y-99072489D01*
X181899500Y-99123999D01*
X181899500Y-104533624D01*
X181899500Y-104533625D01*
X181899500Y-104866375D01*
X181899951Y-104870094D01*
X181899952Y-104870101D01*
X181909083Y-104945311D01*
X181909761Y-104952765D01*
X181914337Y-105028400D01*
X181914338Y-105028409D01*
X181914564Y-105032142D01*
X181915239Y-105035828D01*
X181915240Y-105035832D01*
X181928896Y-105110353D01*
X181930023Y-105117756D01*
X181937317Y-105177829D01*
X181939609Y-105196697D01*
X181940503Y-105200324D01*
X181940505Y-105200335D01*
X181958638Y-105273902D01*
X181960210Y-105281225D01*
X181973868Y-105355756D01*
X181973870Y-105355766D01*
X181974544Y-105359441D01*
X181975656Y-105363012D01*
X181975658Y-105363017D01*
X181998198Y-105435353D01*
X182000208Y-105442565D01*
X182007050Y-105470322D01*
X182007050Y-105529676D01*
X182000208Y-105557433D01*
X181998198Y-105564644D01*
X181975659Y-105636976D01*
X181975653Y-105636998D01*
X181974544Y-105640559D01*
X181973869Y-105644237D01*
X181973869Y-105644241D01*
X181960209Y-105718778D01*
X181958637Y-105726099D01*
X181940504Y-105799669D01*
X181940502Y-105799679D01*
X181939609Y-105803303D01*
X181939159Y-105807008D01*
X181939158Y-105807014D01*
X181930023Y-105882244D01*
X181928896Y-105889647D01*
X181914564Y-105967858D01*
X181914338Y-105971588D01*
X181914337Y-105971599D01*
X181909761Y-106047233D01*
X181909083Y-106054687D01*
X181899952Y-106129898D01*
X181899951Y-106129906D01*
X181899500Y-106133625D01*
X181899500Y-106216893D01*
X181899500Y-106216894D01*
X181899500Y-120533625D01*
X181899500Y-120616893D01*
X181899500Y-120616894D01*
X181899500Y-135533624D01*
X181899500Y-135533625D01*
X181899500Y-135866375D01*
X181899951Y-135870094D01*
X181899952Y-135870101D01*
X181909083Y-135945311D01*
X181909761Y-135952765D01*
X181914337Y-136028400D01*
X181914338Y-136028409D01*
X181914564Y-136032142D01*
X181915239Y-136035828D01*
X181915240Y-136035832D01*
X181928896Y-136110353D01*
X181930023Y-136117756D01*
X181935659Y-136164173D01*
X181939609Y-136196697D01*
X181940503Y-136200324D01*
X181940505Y-136200335D01*
X181958638Y-136273902D01*
X181960210Y-136281225D01*
X181973868Y-136355756D01*
X181973870Y-136355766D01*
X181974544Y-136359441D01*
X181975656Y-136363012D01*
X181975658Y-136363017D01*
X181998198Y-136435353D01*
X182000208Y-136442565D01*
X182018343Y-136516141D01*
X182018350Y-136516164D01*
X182019241Y-136519778D01*
X182047442Y-136594140D01*
X182049878Y-136601201D01*
X182073537Y-136677123D01*
X182075070Y-136680529D01*
X182106172Y-136749636D01*
X182109038Y-136756555D01*
X182137235Y-136830904D01*
X182138971Y-136834212D01*
X182138973Y-136834216D01*
X182174195Y-136901327D01*
X182177473Y-136908060D01*
X182208561Y-136977135D01*
X182208567Y-136977146D01*
X182210102Y-136980557D01*
X182212041Y-136983764D01*
X182251240Y-137048609D01*
X182254916Y-137055125D01*
X182291872Y-137125538D01*
X182337046Y-137190985D01*
X182341093Y-137197243D01*
X182382246Y-137265318D01*
X182384558Y-137268269D01*
X182431291Y-137327920D01*
X182435725Y-137333946D01*
X182480895Y-137399385D01*
X182483384Y-137402194D01*
X182483386Y-137402197D01*
X182533612Y-137458891D01*
X182538406Y-137464643D01*
X182585150Y-137524307D01*
X182585156Y-137524314D01*
X182587458Y-137527252D01*
X182590103Y-137529897D01*
X182663774Y-137603570D01*
X182663780Y-137603574D01*
X183387458Y-138327252D01*
X183622748Y-138562542D01*
X183625698Y-138564853D01*
X183625699Y-138564854D01*
X183685354Y-138611591D01*
X183691099Y-138616379D01*
X183750615Y-138669105D01*
X183753703Y-138671236D01*
X183753705Y-138671238D01*
X183816045Y-138714268D01*
X183822078Y-138718707D01*
X183884682Y-138767754D01*
X183952739Y-138808896D01*
X183959026Y-138812961D01*
X184024462Y-138858128D01*
X184082987Y-138888844D01*
X184094860Y-138895076D01*
X184101384Y-138898755D01*
X184169443Y-138939898D01*
X184241958Y-138972534D01*
X184248688Y-138975811D01*
X184319096Y-139012765D01*
X184392719Y-139040686D01*
X184393444Y-139040961D01*
X184400366Y-139043828D01*
X184472877Y-139076463D01*
X184548807Y-139100123D01*
X184555855Y-139102555D01*
X184630222Y-139130759D01*
X184707453Y-139149794D01*
X184714621Y-139151792D01*
X184790559Y-139175456D01*
X184868764Y-139189787D01*
X184876082Y-139191357D01*
X184953303Y-139210391D01*
X185032262Y-139219978D01*
X185039633Y-139221100D01*
X185090009Y-139230332D01*
X185114163Y-139234759D01*
X185114165Y-139234759D01*
X185117858Y-139235436D01*
X185197249Y-139240238D01*
X185204655Y-139240911D01*
X185283625Y-139250500D01*
X185287374Y-139250500D01*
X188931220Y-139250500D01*
X188933106Y-139250500D01*
X189182142Y-139235436D01*
X189509441Y-139175456D01*
X189827123Y-139076463D01*
X190130557Y-138939898D01*
X190415318Y-138767754D01*
X190677252Y-138562542D01*
X190912542Y-138327252D01*
X191117754Y-138065318D01*
X191289898Y-137780557D01*
X191426463Y-137477123D01*
X191525456Y-137159441D01*
X191585436Y-136832142D01*
X191605527Y-136500000D01*
X191585436Y-136167858D01*
X191525456Y-135840559D01*
X191426463Y-135522877D01*
X191289898Y-135219443D01*
X191117754Y-134934682D01*
X190912542Y-134672748D01*
X190677252Y-134437458D01*
X190415318Y-134232246D01*
X190272937Y-134146174D01*
X190133762Y-134062039D01*
X190133755Y-134062035D01*
X190130557Y-134060102D01*
X189969408Y-133987574D01*
X189916354Y-133942110D01*
X189896302Y-133875180D01*
X189915618Y-133808033D01*
X189968170Y-133761989D01*
X190020300Y-133750499D01*
X190644561Y-133750499D01*
X190647872Y-133750499D01*
X190707483Y-133744091D01*
X190842331Y-133693796D01*
X190957546Y-133607546D01*
X191043796Y-133492331D01*
X191094091Y-133357483D01*
X191100500Y-133297873D01*
X191100499Y-129702128D01*
X191094091Y-129642517D01*
X191043796Y-129507669D01*
X190957546Y-129392454D01*
X190842331Y-129306204D01*
X190707483Y-129255909D01*
X190647873Y-129249500D01*
X190644551Y-129249500D01*
X187524500Y-129249500D01*
X187457461Y-129229815D01*
X187411706Y-129177011D01*
X187400500Y-129125500D01*
X187400500Y-128500000D01*
X192644357Y-128500000D01*
X192664885Y-128721537D01*
X192725769Y-128935526D01*
X192824941Y-129134688D01*
X192959019Y-129312237D01*
X193123437Y-129462124D01*
X193312595Y-129579245D01*
X193312597Y-129579245D01*
X193312599Y-129579247D01*
X193520060Y-129659618D01*
X193738757Y-129700500D01*
X193738759Y-129700500D01*
X193961241Y-129700500D01*
X193961243Y-129700500D01*
X194179940Y-129659618D01*
X194387401Y-129579247D01*
X194576562Y-129462124D01*
X194740981Y-129312236D01*
X194875058Y-129134689D01*
X194974229Y-128935528D01*
X194984196Y-128900500D01*
X195017299Y-128784151D01*
X195035115Y-128721536D01*
X195055643Y-128500000D01*
X195035115Y-128278464D01*
X195009449Y-128188256D01*
X194974230Y-128064473D01*
X194875058Y-127865311D01*
X194740980Y-127687762D01*
X194576562Y-127537875D01*
X194387404Y-127420754D01*
X194251963Y-127368284D01*
X194179940Y-127340382D01*
X193961243Y-127299500D01*
X193738757Y-127299500D01*
X193554607Y-127333924D01*
X193520060Y-127340382D01*
X193312595Y-127420754D01*
X193123437Y-127537875D01*
X192959019Y-127687762D01*
X192824941Y-127865311D01*
X192725769Y-128064473D01*
X192664885Y-128278462D01*
X192644357Y-128500000D01*
X187400500Y-128500000D01*
X187400500Y-124500000D01*
X192644357Y-124500000D01*
X192664885Y-124721537D01*
X192725769Y-124935526D01*
X192824941Y-125134688D01*
X192959019Y-125312237D01*
X193123437Y-125462124D01*
X193312595Y-125579245D01*
X193312597Y-125579245D01*
X193312599Y-125579247D01*
X193520060Y-125659618D01*
X193738757Y-125700500D01*
X193738759Y-125700500D01*
X193961241Y-125700500D01*
X193961243Y-125700500D01*
X194179940Y-125659618D01*
X194387401Y-125579247D01*
X194576562Y-125462124D01*
X194740981Y-125312236D01*
X194875058Y-125134689D01*
X194974229Y-124935528D01*
X195035115Y-124721536D01*
X195055643Y-124500000D01*
X195035115Y-124278464D01*
X195012227Y-124198021D01*
X194974230Y-124064473D01*
X194875058Y-123865311D01*
X194740980Y-123687762D01*
X194576562Y-123537875D01*
X194387404Y-123420754D01*
X194326174Y-123397033D01*
X194179940Y-123340382D01*
X193961243Y-123299500D01*
X193738757Y-123299500D01*
X193520060Y-123340382D01*
X193312595Y-123420754D01*
X193123437Y-123537875D01*
X192959019Y-123687762D01*
X192824941Y-123865311D01*
X192725769Y-124064473D01*
X192664885Y-124278462D01*
X192644357Y-124500000D01*
X187400500Y-124500000D01*
X187400500Y-124374500D01*
X187420185Y-124307461D01*
X187472989Y-124261706D01*
X187524500Y-124250500D01*
X188931220Y-124250500D01*
X188933106Y-124250500D01*
X189182142Y-124235436D01*
X189509441Y-124175456D01*
X189827123Y-124076463D01*
X190130557Y-123939898D01*
X190415318Y-123767754D01*
X190677252Y-123562542D01*
X190912542Y-123327252D01*
X191117754Y-123065318D01*
X191289898Y-122780557D01*
X191426463Y-122477123D01*
X191525456Y-122159441D01*
X191585436Y-121832142D01*
X191605527Y-121500000D01*
X191601161Y-121427830D01*
X191585662Y-121171596D01*
X191585436Y-121167858D01*
X191525456Y-120840559D01*
X191426463Y-120522877D01*
X191289898Y-120219443D01*
X191117754Y-119934682D01*
X190912542Y-119672748D01*
X190677252Y-119437458D01*
X190415318Y-119232246D01*
X190272937Y-119146173D01*
X190133762Y-119062039D01*
X190133755Y-119062035D01*
X190130557Y-119060102D01*
X189969408Y-118987574D01*
X189916354Y-118942110D01*
X189896302Y-118875180D01*
X189915618Y-118808033D01*
X189968170Y-118761989D01*
X190020300Y-118750499D01*
X190644561Y-118750499D01*
X190647872Y-118750499D01*
X190707483Y-118744091D01*
X190842331Y-118693796D01*
X190957546Y-118607546D01*
X191043796Y-118492331D01*
X191094091Y-118357483D01*
X191100500Y-118297873D01*
X191100499Y-114702128D01*
X191094091Y-114642517D01*
X191043796Y-114507669D01*
X190957546Y-114392454D01*
X190842331Y-114306204D01*
X190707483Y-114255909D01*
X190647873Y-114249500D01*
X190644551Y-114249500D01*
X187524500Y-114249500D01*
X187457461Y-114229815D01*
X187411706Y-114177011D01*
X187400500Y-114125500D01*
X187400500Y-113499999D01*
X192644357Y-113499999D01*
X192664885Y-113721537D01*
X192725769Y-113935526D01*
X192824941Y-114134688D01*
X192959019Y-114312237D01*
X193123437Y-114462124D01*
X193312595Y-114579245D01*
X193312597Y-114579245D01*
X193312599Y-114579247D01*
X193520060Y-114659618D01*
X193738757Y-114700500D01*
X193738759Y-114700500D01*
X193961241Y-114700500D01*
X193961243Y-114700500D01*
X194179940Y-114659618D01*
X194387401Y-114579247D01*
X194576562Y-114462124D01*
X194740981Y-114312236D01*
X194875058Y-114134689D01*
X194974229Y-113935528D01*
X195035115Y-113721536D01*
X195055643Y-113500000D01*
X195035115Y-113278464D01*
X195012227Y-113198021D01*
X194974230Y-113064473D01*
X194875058Y-112865311D01*
X194740980Y-112687762D01*
X194576562Y-112537875D01*
X194387404Y-112420754D01*
X194326174Y-112397033D01*
X194179940Y-112340382D01*
X193961243Y-112299500D01*
X193738757Y-112299500D01*
X193520059Y-112340381D01*
X193520060Y-112340382D01*
X193312595Y-112420754D01*
X193123437Y-112537875D01*
X192959019Y-112687762D01*
X192824941Y-112865311D01*
X192725769Y-113064473D01*
X192664885Y-113278462D01*
X192644357Y-113499999D01*
X187400500Y-113499999D01*
X187400500Y-108500000D01*
X192644357Y-108500000D01*
X192664885Y-108721537D01*
X192725769Y-108935526D01*
X192824941Y-109134688D01*
X192959019Y-109312237D01*
X193123437Y-109462124D01*
X193312595Y-109579245D01*
X193312597Y-109579245D01*
X193312599Y-109579247D01*
X193520060Y-109659618D01*
X193738757Y-109700500D01*
X193738759Y-109700500D01*
X193961241Y-109700500D01*
X193961243Y-109700500D01*
X194179940Y-109659618D01*
X194387401Y-109579247D01*
X194576562Y-109462124D01*
X194740981Y-109312236D01*
X194875058Y-109134689D01*
X194974229Y-108935528D01*
X195035115Y-108721536D01*
X195055643Y-108500000D01*
X195035115Y-108278464D01*
X195006534Y-108178011D01*
X194974230Y-108064473D01*
X194875058Y-107865311D01*
X194740980Y-107687762D01*
X194576562Y-107537875D01*
X194387404Y-107420754D01*
X194326174Y-107397033D01*
X194179940Y-107340382D01*
X193961243Y-107299500D01*
X193738757Y-107299500D01*
X193528143Y-107338871D01*
X193520060Y-107340382D01*
X193312595Y-107420754D01*
X193123437Y-107537875D01*
X192959019Y-107687762D01*
X192824941Y-107865311D01*
X192725769Y-108064473D01*
X192664885Y-108278462D01*
X192644357Y-108500000D01*
X187400500Y-108500000D01*
X187400500Y-108374500D01*
X187420185Y-108307461D01*
X187472989Y-108261706D01*
X187524500Y-108250500D01*
X188931220Y-108250500D01*
X188933106Y-108250500D01*
X189182142Y-108235436D01*
X189509441Y-108175456D01*
X189827123Y-108076463D01*
X190130557Y-107939898D01*
X190415318Y-107767754D01*
X190677252Y-107562542D01*
X190912542Y-107327252D01*
X191117754Y-107065318D01*
X191289898Y-106780557D01*
X191426463Y-106477123D01*
X191525456Y-106159441D01*
X191585436Y-105832142D01*
X191605527Y-105500000D01*
X191585436Y-105167858D01*
X191525456Y-104840559D01*
X191426463Y-104522877D01*
X191289898Y-104219443D01*
X191117754Y-103934682D01*
X190912542Y-103672748D01*
X190677252Y-103437458D01*
X190415318Y-103232246D01*
X190272937Y-103146173D01*
X190133762Y-103062039D01*
X190133755Y-103062035D01*
X190130557Y-103060102D01*
X189969408Y-102987574D01*
X189916354Y-102942110D01*
X189896302Y-102875180D01*
X189915618Y-102808033D01*
X189968170Y-102761989D01*
X190020300Y-102750499D01*
X190644561Y-102750499D01*
X190647872Y-102750499D01*
X190707483Y-102744091D01*
X190842331Y-102693796D01*
X190957546Y-102607546D01*
X191043796Y-102492331D01*
X191094091Y-102357483D01*
X191100500Y-102297873D01*
X191100499Y-98702128D01*
X191094091Y-98642517D01*
X191043796Y-98507669D01*
X190957546Y-98392454D01*
X190842331Y-98306204D01*
X190707483Y-98255909D01*
X190647873Y-98249500D01*
X190644551Y-98249500D01*
X187524499Y-98249500D01*
X187457460Y-98229815D01*
X187411705Y-98177011D01*
X187400499Y-98125500D01*
X187400499Y-97499999D01*
X192644357Y-97499999D01*
X192664885Y-97721537D01*
X192725769Y-97935526D01*
X192824941Y-98134688D01*
X192959019Y-98312237D01*
X193123437Y-98462124D01*
X193312595Y-98579245D01*
X193312597Y-98579245D01*
X193312599Y-98579247D01*
X193520060Y-98659618D01*
X193738757Y-98700500D01*
X193738759Y-98700500D01*
X193961241Y-98700500D01*
X193961243Y-98700500D01*
X194179940Y-98659618D01*
X194387401Y-98579247D01*
X194576562Y-98462124D01*
X194740981Y-98312236D01*
X194875058Y-98134689D01*
X194974229Y-97935528D01*
X195035115Y-97721536D01*
X195055643Y-97500000D01*
X195035115Y-97278464D01*
X195012227Y-97198021D01*
X194974230Y-97064473D01*
X194875058Y-96865311D01*
X194740980Y-96687762D01*
X194576562Y-96537875D01*
X194387404Y-96420754D01*
X194326174Y-96397033D01*
X194179940Y-96340382D01*
X193961243Y-96299500D01*
X193738757Y-96299500D01*
X193520059Y-96340381D01*
X193520060Y-96340382D01*
X193312595Y-96420754D01*
X193123437Y-96537875D01*
X192959019Y-96687762D01*
X192824941Y-96865311D01*
X192725769Y-97064473D01*
X192664885Y-97278462D01*
X192644357Y-97499999D01*
X187400499Y-97499999D01*
X187400500Y-91499999D01*
X192644357Y-91499999D01*
X192664885Y-91721537D01*
X192725769Y-91935526D01*
X192824941Y-92134688D01*
X192959019Y-92312237D01*
X193123437Y-92462124D01*
X193312595Y-92579245D01*
X193312597Y-92579245D01*
X193312599Y-92579247D01*
X193520060Y-92659618D01*
X193738757Y-92700500D01*
X193738759Y-92700500D01*
X193961241Y-92700500D01*
X193961243Y-92700500D01*
X194179940Y-92659618D01*
X194387401Y-92579247D01*
X194576562Y-92462124D01*
X194740981Y-92312236D01*
X194875058Y-92134689D01*
X194974229Y-91935528D01*
X195035115Y-91721536D01*
X195055643Y-91500000D01*
X195035115Y-91278464D01*
X195012227Y-91198021D01*
X194974230Y-91064473D01*
X194875058Y-90865311D01*
X194740980Y-90687762D01*
X194576562Y-90537875D01*
X194387404Y-90420754D01*
X194326174Y-90397033D01*
X194179940Y-90340382D01*
X193961243Y-90299500D01*
X193738757Y-90299500D01*
X193520059Y-90340382D01*
X193520060Y-90340382D01*
X193312595Y-90420754D01*
X193123437Y-90537875D01*
X192959019Y-90687762D01*
X192824941Y-90865311D01*
X192725769Y-91064473D01*
X192664885Y-91278462D01*
X192644357Y-91499999D01*
X187400500Y-91499999D01*
X187400500Y-91374500D01*
X187420185Y-91307461D01*
X187472989Y-91261706D01*
X187524500Y-91250500D01*
X188931220Y-91250500D01*
X188933106Y-91250500D01*
X189182142Y-91235436D01*
X189509441Y-91175456D01*
X189827123Y-91076463D01*
X190130557Y-90939898D01*
X190415318Y-90767754D01*
X190677252Y-90562542D01*
X190912542Y-90327252D01*
X191117754Y-90065318D01*
X191289898Y-89780557D01*
X191426463Y-89477123D01*
X191525456Y-89159441D01*
X191585436Y-88832142D01*
X191605527Y-88500000D01*
X191585436Y-88167858D01*
X191525456Y-87840559D01*
X191426463Y-87522877D01*
X191289898Y-87219443D01*
X191117754Y-86934682D01*
X190912542Y-86672748D01*
X190677252Y-86437458D01*
X190415318Y-86232246D01*
X190272937Y-86146174D01*
X190133762Y-86062039D01*
X190133755Y-86062035D01*
X190130557Y-86060102D01*
X189969408Y-85987574D01*
X189916354Y-85942110D01*
X189896302Y-85875180D01*
X189915618Y-85808033D01*
X189968170Y-85761989D01*
X190020300Y-85750499D01*
X190644561Y-85750499D01*
X190647872Y-85750499D01*
X190707483Y-85744091D01*
X190842331Y-85693796D01*
X190957546Y-85607546D01*
X191043796Y-85492331D01*
X191094091Y-85357483D01*
X191100500Y-85297873D01*
X191100499Y-81702128D01*
X191094091Y-81642517D01*
X191043796Y-81507669D01*
X190957546Y-81392454D01*
X190842331Y-81306204D01*
X190707483Y-81255909D01*
X190647873Y-81249500D01*
X190644550Y-81249500D01*
X187055439Y-81249500D01*
X187055420Y-81249500D01*
X187052128Y-81249501D01*
X187048848Y-81249853D01*
X187048840Y-81249854D01*
X186992515Y-81255909D01*
X186857668Y-81306203D01*
X186857669Y-81306204D01*
X186742454Y-81392454D01*
X186660763Y-81501580D01*
X186656203Y-81507671D01*
X186613200Y-81622964D01*
X186571329Y-81678897D01*
X186505864Y-81703313D01*
X186437591Y-81688461D01*
X186388186Y-81639055D01*
X186387281Y-81637365D01*
X186357599Y-81580812D01*
X186354329Y-81574095D01*
X186321693Y-81501580D01*
X186319755Y-81498374D01*
X186280550Y-81433521D01*
X186276871Y-81426997D01*
X186241665Y-81359919D01*
X186239923Y-81356599D01*
X186194756Y-81291163D01*
X186190691Y-81284876D01*
X186149549Y-81216819D01*
X186100502Y-81154215D01*
X186096063Y-81148182D01*
X186053033Y-81085842D01*
X186053031Y-81085840D01*
X186050900Y-81082752D01*
X185998174Y-81023236D01*
X185993386Y-81017491D01*
X185946649Y-80957836D01*
X185946648Y-80957835D01*
X185944337Y-80954885D01*
X185726488Y-80737036D01*
X185726486Y-80737033D01*
X185489453Y-80500000D01*
X192644357Y-80500000D01*
X192664885Y-80721537D01*
X192725769Y-80935526D01*
X192824941Y-81134688D01*
X192959019Y-81312237D01*
X193123437Y-81462124D01*
X193312595Y-81579245D01*
X193312597Y-81579245D01*
X193312599Y-81579247D01*
X193520060Y-81659618D01*
X193738757Y-81700500D01*
X193738759Y-81700500D01*
X193961241Y-81700500D01*
X193961243Y-81700500D01*
X194179940Y-81659618D01*
X194387401Y-81579247D01*
X194576562Y-81462124D01*
X194740981Y-81312236D01*
X194875058Y-81134689D01*
X194974229Y-80935528D01*
X195035115Y-80721536D01*
X195055643Y-80500000D01*
X195035115Y-80278464D01*
X195008841Y-80186122D01*
X194974230Y-80064473D01*
X194875058Y-79865311D01*
X194740980Y-79687762D01*
X194576562Y-79537875D01*
X194387404Y-79420754D01*
X194326174Y-79397033D01*
X194179940Y-79340382D01*
X193961243Y-79299500D01*
X193738757Y-79299500D01*
X193520059Y-79340382D01*
X193520060Y-79340382D01*
X193312595Y-79420754D01*
X193123437Y-79537875D01*
X192959019Y-79687762D01*
X192824941Y-79865311D01*
X192725769Y-80064473D01*
X192664885Y-80278462D01*
X192644357Y-80500000D01*
X185489453Y-80500000D01*
X183286819Y-78297366D01*
X183253334Y-78236043D01*
X183250500Y-78209685D01*
X183250500Y-76068779D01*
X183250500Y-76066894D01*
X183235436Y-75817858D01*
X183175456Y-75490559D01*
X183076463Y-75172877D01*
X182939898Y-74869443D01*
X182767754Y-74584682D01*
X182562542Y-74322748D01*
X182327252Y-74087458D01*
X182065318Y-73882246D01*
X181818470Y-73733021D01*
X181783762Y-73712039D01*
X181783755Y-73712035D01*
X181780557Y-73710102D01*
X181477123Y-73573537D01*
X181473545Y-73572422D01*
X181163017Y-73475658D01*
X181163012Y-73475656D01*
X181159441Y-73474544D01*
X181155770Y-73473871D01*
X181155761Y-73473869D01*
X180835826Y-73415239D01*
X180835824Y-73415238D01*
X180832142Y-73414564D01*
X180828416Y-73414338D01*
X180828403Y-73414337D01*
X180503736Y-73394699D01*
X180500000Y-73394473D01*
X180496264Y-73394699D01*
X180171596Y-73414337D01*
X180171581Y-73414338D01*
X180167858Y-73414564D01*
X180164177Y-73415238D01*
X180164173Y-73415239D01*
X179844238Y-73473869D01*
X179844225Y-73473872D01*
X179840559Y-73474544D01*
X179836991Y-73475655D01*
X179836982Y-73475658D01*
X179526454Y-73572422D01*
X179526448Y-73572424D01*
X179522877Y-73573537D01*
X179519468Y-73575071D01*
X179519466Y-73575072D01*
X179222858Y-73708565D01*
X179219443Y-73710102D01*
X179216250Y-73712031D01*
X179216237Y-73712039D01*
X178987196Y-73850500D01*
X178934682Y-73882246D01*
X178931740Y-73884550D01*
X178931734Y-73884555D01*
X178805585Y-73983387D01*
X178672748Y-74087458D01*
X178670102Y-74090103D01*
X178670094Y-74090111D01*
X178440111Y-74320094D01*
X178440103Y-74320102D01*
X178437458Y-74322748D01*
X178435146Y-74325698D01*
X178435146Y-74325699D01*
X178234555Y-74581734D01*
X178234550Y-74581740D01*
X178232246Y-74584682D01*
X178230309Y-74587884D01*
X178230309Y-74587886D01*
X178062039Y-74866237D01*
X178062031Y-74866250D01*
X178060102Y-74869443D01*
X178058567Y-74872853D01*
X178058561Y-74872865D01*
X177987574Y-75030591D01*
X177942110Y-75083645D01*
X177875180Y-75103697D01*
X177808033Y-75084381D01*
X177761989Y-75031829D01*
X177750499Y-74979699D01*
X177750499Y-74355439D01*
X177750499Y-74352128D01*
X177744091Y-74292517D01*
X177693796Y-74157669D01*
X177607546Y-74042454D01*
X177492331Y-73956204D01*
X177357483Y-73905909D01*
X177297873Y-73899500D01*
X177294550Y-73899500D01*
X173705439Y-73899500D01*
X173705420Y-73899500D01*
X173702128Y-73899501D01*
X173698848Y-73899853D01*
X173698840Y-73899854D01*
X173642515Y-73905909D01*
X173507669Y-73956204D01*
X173392454Y-74042454D01*
X173306204Y-74157668D01*
X173255910Y-74292515D01*
X173255909Y-74292517D01*
X173249500Y-74352127D01*
X173249500Y-75975393D01*
X173249501Y-77475500D01*
X173229816Y-77542539D01*
X173177012Y-77588294D01*
X173125501Y-77599500D01*
X169890656Y-77599500D01*
X169823617Y-77579815D01*
X169802975Y-77563181D01*
X166387457Y-74147663D01*
X166386132Y-74146338D01*
X166199385Y-73980895D01*
X166196298Y-73978764D01*
X166196294Y-73978761D01*
X165989000Y-73835677D01*
X165925538Y-73791872D01*
X165630904Y-73637235D01*
X165627406Y-73635908D01*
X165627403Y-73635907D01*
X165323282Y-73520570D01*
X165323283Y-73520570D01*
X165319778Y-73519241D01*
X165316144Y-73518345D01*
X165316140Y-73518344D01*
X165000335Y-73440505D01*
X165000324Y-73440503D01*
X164996697Y-73439609D01*
X164992981Y-73439157D01*
X164992977Y-73439157D01*
X164670095Y-73399951D01*
X164670083Y-73399950D01*
X164666375Y-73399500D01*
X164333625Y-73399500D01*
X164329917Y-73399950D01*
X164329904Y-73399951D01*
X164007022Y-73439157D01*
X164007015Y-73439158D01*
X164003303Y-73439609D01*
X163999678Y-73440502D01*
X163999664Y-73440505D01*
X163683859Y-73518344D01*
X163683850Y-73518346D01*
X163680222Y-73519241D01*
X163676720Y-73520568D01*
X163676717Y-73520570D01*
X163372596Y-73635907D01*
X163372587Y-73635911D01*
X163369096Y-73637235D01*
X163365783Y-73638973D01*
X163365778Y-73638976D01*
X163077782Y-73790129D01*
X163077775Y-73790132D01*
X163074462Y-73791872D01*
X163071381Y-73793998D01*
X163071377Y-73794001D01*
X162803695Y-73978768D01*
X162803683Y-73978776D01*
X162800615Y-73980895D01*
X162797830Y-73983362D01*
X162797815Y-73983374D01*
X162554344Y-74199070D01*
X162554335Y-74199078D01*
X162551548Y-74201548D01*
X162549078Y-74204335D01*
X162549070Y-74204344D01*
X162333374Y-74447815D01*
X162333362Y-74447830D01*
X162330895Y-74450615D01*
X162328776Y-74453683D01*
X162328768Y-74453695D01*
X162144001Y-74721377D01*
X162141872Y-74724462D01*
X162140132Y-74727775D01*
X162140129Y-74727782D01*
X162014051Y-74968002D01*
X161987235Y-75019096D01*
X161987102Y-75019444D01*
X161942108Y-75071949D01*
X161875177Y-75092000D01*
X161808031Y-75072682D01*
X161761988Y-75020130D01*
X161750499Y-74968002D01*
X161750499Y-74355439D01*
X161750499Y-74352128D01*
X161744091Y-74292517D01*
X161693796Y-74157669D01*
X161607546Y-74042454D01*
X161492331Y-73956204D01*
X161357483Y-73905909D01*
X161297873Y-73899500D01*
X161294550Y-73899500D01*
X157705439Y-73899500D01*
X157705420Y-73899500D01*
X157702128Y-73899501D01*
X157698848Y-73899853D01*
X157698840Y-73899854D01*
X157642515Y-73905909D01*
X157507669Y-73956204D01*
X157392454Y-74042454D01*
X157306204Y-74157668D01*
X157255910Y-74292515D01*
X157255909Y-74292517D01*
X157249500Y-74352127D01*
X157249500Y-74355448D01*
X157249500Y-74355449D01*
X157249500Y-77944560D01*
X157249500Y-77944578D01*
X157249501Y-77947872D01*
X157249853Y-77951152D01*
X157249854Y-77951159D01*
X157255909Y-78007484D01*
X157281056Y-78074906D01*
X157306204Y-78142331D01*
X157392454Y-78257546D01*
X157507669Y-78343796D01*
X157642517Y-78394091D01*
X157702127Y-78400500D01*
X161297872Y-78400499D01*
X161357483Y-78394091D01*
X161492331Y-78343796D01*
X161607546Y-78257546D01*
X161693796Y-78142331D01*
X161744091Y-78007483D01*
X161750500Y-77947873D01*
X161750499Y-77331996D01*
X161770183Y-77264960D01*
X161822987Y-77219205D01*
X161892146Y-77209261D01*
X161955702Y-77238286D01*
X161987037Y-77280384D01*
X161987235Y-77280904D01*
X162141872Y-77575538D01*
X162330895Y-77849385D01*
X162333386Y-77852197D01*
X162333387Y-77852198D01*
X162418147Y-77947873D01*
X162496338Y-78036132D01*
X166637458Y-82177252D01*
X166872748Y-82412542D01*
X166875698Y-82414853D01*
X166875699Y-82414854D01*
X166935354Y-82461591D01*
X166941099Y-82466379D01*
X167000615Y-82519105D01*
X167003703Y-82521236D01*
X167003705Y-82521238D01*
X167066045Y-82564268D01*
X167072078Y-82568707D01*
X167134682Y-82617754D01*
X167202739Y-82658896D01*
X167209026Y-82662961D01*
X167274462Y-82708128D01*
X167332987Y-82738844D01*
X167344860Y-82745076D01*
X167351384Y-82748755D01*
X167419443Y-82789898D01*
X167491958Y-82822534D01*
X167498688Y-82825811D01*
X167569096Y-82862765D01*
X167642719Y-82890686D01*
X167643444Y-82890961D01*
X167650366Y-82893828D01*
X167722877Y-82926463D01*
X167798807Y-82950123D01*
X167805865Y-82952559D01*
X167851676Y-82969933D01*
X167907378Y-83012110D01*
X167931435Y-83077707D01*
X167916208Y-83145898D01*
X167866532Y-83195031D01*
X167860110Y-83198256D01*
X167750362Y-83249433D01*
X167563958Y-83379953D01*
X167403052Y-83540859D01*
X167272531Y-83727264D01*
X167176360Y-83933502D01*
X167117463Y-84153310D01*
X167097630Y-84380000D01*
X167117463Y-84606689D01*
X167176360Y-84826497D01*
X167272531Y-85032735D01*
X167403052Y-85219140D01*
X167563958Y-85380046D01*
X167750363Y-85510567D01*
X167750364Y-85510567D01*
X167750365Y-85510568D01*
X167956603Y-85606739D01*
X168176407Y-85665635D01*
X168327534Y-85678856D01*
X168403098Y-85685468D01*
X168403098Y-85685467D01*
X168403099Y-85685468D01*
X168629791Y-85665635D01*
X168849595Y-85606739D01*
X169055833Y-85510568D01*
X169242238Y-85380047D01*
X169403146Y-85219139D01*
X169533667Y-85032734D01*
X169629838Y-84826496D01*
X169688734Y-84606692D01*
X169708567Y-84380000D01*
X169688734Y-84153308D01*
X169629838Y-83933504D01*
X169533667Y-83727266D01*
X169403146Y-83540861D01*
X169403145Y-83540859D01*
X169242239Y-83379953D01*
X169165292Y-83326075D01*
X169121667Y-83271499D01*
X169114473Y-83202000D01*
X169145995Y-83139645D01*
X169206225Y-83104231D01*
X169236415Y-83100500D01*
X179862626Y-83100500D01*
X179866375Y-83100500D01*
X179945346Y-83090910D01*
X179952749Y-83090238D01*
X180032142Y-83085436D01*
X180110355Y-83071102D01*
X180117746Y-83069976D01*
X180196514Y-83060413D01*
X180196698Y-83060391D01*
X180195298Y-83060603D01*
X180264140Y-83067811D01*
X180304687Y-83094823D01*
X181094976Y-83885112D01*
X181128461Y-83946435D01*
X181131295Y-83972793D01*
X181131295Y-86765420D01*
X181131295Y-87098170D01*
X181131746Y-87101889D01*
X181131747Y-87101896D01*
X181140878Y-87177106D01*
X181141556Y-87184560D01*
X181146132Y-87260195D01*
X181146133Y-87260204D01*
X181146359Y-87263937D01*
X181147034Y-87267623D01*
X181147035Y-87267627D01*
X181160691Y-87342148D01*
X181161818Y-87349551D01*
X181171404Y-87428492D01*
X181172298Y-87432119D01*
X181172300Y-87432130D01*
X181190433Y-87505697D01*
X181192005Y-87513020D01*
X181205663Y-87587551D01*
X181205665Y-87587561D01*
X181206339Y-87591236D01*
X181207451Y-87594807D01*
X181207453Y-87594812D01*
X181229993Y-87667148D01*
X181232003Y-87674360D01*
X181250138Y-87747936D01*
X181250145Y-87747959D01*
X181251036Y-87751573D01*
X181279237Y-87825935D01*
X181281673Y-87832996D01*
X181304219Y-87905347D01*
X181305332Y-87908918D01*
X181306865Y-87912324D01*
X181337967Y-87981431D01*
X181340833Y-87988350D01*
X181369030Y-88062699D01*
X181370766Y-88066007D01*
X181370768Y-88066011D01*
X181405990Y-88133122D01*
X181409268Y-88139855D01*
X181440356Y-88208930D01*
X181440362Y-88208941D01*
X181441897Y-88212352D01*
X181443836Y-88215559D01*
X181483035Y-88280404D01*
X181486711Y-88286920D01*
X181523667Y-88357333D01*
X181568841Y-88422780D01*
X181572888Y-88429038D01*
X181614041Y-88497113D01*
X181616353Y-88500064D01*
X181663086Y-88559715D01*
X181667520Y-88565741D01*
X181712690Y-88631180D01*
X181715179Y-88633989D01*
X181715181Y-88633992D01*
X181765407Y-88690686D01*
X181770201Y-88696438D01*
X181816938Y-88756093D01*
X181816943Y-88756099D01*
X181819253Y-88759047D01*
X181821906Y-88761700D01*
X181886123Y-88825917D01*
X181919608Y-88887240D01*
X181920411Y-88935948D01*
X181915240Y-88964164D01*
X181915238Y-88964178D01*
X181914564Y-88967858D01*
X181914338Y-88971588D01*
X181914337Y-88971599D01*
X181909761Y-89047233D01*
X181909083Y-89054687D01*
X181899952Y-89129898D01*
X181899951Y-89129906D01*
X181899500Y-89133625D01*
X181899500Y-89137375D01*
X181899500Y-89600138D01*
X181879815Y-89667177D01*
X181827011Y-89712932D01*
X181757853Y-89722876D01*
X181694297Y-89693851D01*
X181687819Y-89687819D01*
X178000000Y-86000000D01*
X177972211Y-86000000D01*
X177905172Y-85980315D01*
X177859417Y-85927511D01*
X177849473Y-85858353D01*
X177859827Y-85823598D01*
X177951739Y-85626496D01*
X178010635Y-85406692D01*
X178030468Y-85180000D01*
X178010635Y-84953308D01*
X177951739Y-84733504D01*
X177855568Y-84527266D01*
X177752453Y-84380000D01*
X177725046Y-84340859D01*
X177564140Y-84179953D01*
X177377735Y-84049432D01*
X177171497Y-83953261D01*
X176951689Y-83894364D01*
X176725000Y-83874531D01*
X176498310Y-83894364D01*
X176278502Y-83953261D01*
X176072264Y-84049432D01*
X175885859Y-84179953D01*
X175724953Y-84340859D01*
X175594432Y-84527264D01*
X175498261Y-84733502D01*
X175439364Y-84953310D01*
X175419531Y-85180000D01*
X175439364Y-85406689D01*
X175439365Y-85406692D01*
X175498261Y-85626496D01*
X175590171Y-85823596D01*
X175600663Y-85892672D01*
X175572144Y-85956456D01*
X175513667Y-85994696D01*
X175477789Y-86000000D01*
X160051362Y-86000000D01*
X159984323Y-85980315D01*
X159963681Y-85963681D01*
X151036319Y-77036318D01*
X151002834Y-76974995D01*
X151000000Y-76948637D01*
X151000000Y-71149999D01*
X155294357Y-71149999D01*
X155314885Y-71371537D01*
X155375769Y-71585526D01*
X155474941Y-71784688D01*
X155609019Y-71962237D01*
X155773437Y-72112124D01*
X155962595Y-72229245D01*
X155962597Y-72229245D01*
X155962599Y-72229247D01*
X156170060Y-72309618D01*
X156388757Y-72350500D01*
X156388759Y-72350500D01*
X156611241Y-72350500D01*
X156611243Y-72350500D01*
X156829940Y-72309618D01*
X157037401Y-72229247D01*
X157226562Y-72112124D01*
X157346407Y-72002871D01*
X157390980Y-71962237D01*
X157390981Y-71962236D01*
X157525058Y-71784689D01*
X157624229Y-71585528D01*
X157685115Y-71371536D01*
X157705643Y-71150000D01*
X166294357Y-71150000D01*
X166314885Y-71371537D01*
X166375769Y-71585526D01*
X166474941Y-71784688D01*
X166609019Y-71962237D01*
X166773437Y-72112124D01*
X166962595Y-72229245D01*
X166962597Y-72229245D01*
X166962599Y-72229247D01*
X167170060Y-72309618D01*
X167388757Y-72350500D01*
X167388759Y-72350500D01*
X167611241Y-72350500D01*
X167611243Y-72350500D01*
X167829940Y-72309618D01*
X168037401Y-72229247D01*
X168226562Y-72112124D01*
X168346407Y-72002871D01*
X168390980Y-71962237D01*
X168390981Y-71962236D01*
X168525058Y-71784689D01*
X168624229Y-71585528D01*
X168685115Y-71371536D01*
X168705643Y-71150000D01*
X168705643Y-71149999D01*
X171294357Y-71149999D01*
X171314885Y-71371537D01*
X171375769Y-71585526D01*
X171474941Y-71784688D01*
X171609019Y-71962237D01*
X171773437Y-72112124D01*
X171962595Y-72229245D01*
X171962597Y-72229245D01*
X171962599Y-72229247D01*
X172170060Y-72309618D01*
X172388757Y-72350500D01*
X172388759Y-72350500D01*
X172611241Y-72350500D01*
X172611243Y-72350500D01*
X172829940Y-72309618D01*
X173037401Y-72229247D01*
X173226562Y-72112124D01*
X173346407Y-72002871D01*
X173390980Y-71962237D01*
X173390981Y-71962236D01*
X173525058Y-71784689D01*
X173624229Y-71585528D01*
X173685115Y-71371536D01*
X173705643Y-71150000D01*
X182294357Y-71150000D01*
X182314885Y-71371537D01*
X182375769Y-71585526D01*
X182474941Y-71784688D01*
X182609019Y-71962237D01*
X182773437Y-72112124D01*
X182962595Y-72229245D01*
X182962597Y-72229245D01*
X182962599Y-72229247D01*
X183170060Y-72309618D01*
X183388757Y-72350500D01*
X183388759Y-72350500D01*
X183611241Y-72350500D01*
X183611243Y-72350500D01*
X183829940Y-72309618D01*
X184037401Y-72229247D01*
X184226562Y-72112124D01*
X184275223Y-72067764D01*
X190145787Y-72067764D01*
X190175413Y-72337016D01*
X190243928Y-72599087D01*
X190349871Y-72848392D01*
X190490982Y-73079611D01*
X190580253Y-73186881D01*
X190664255Y-73287820D01*
X190865998Y-73468582D01*
X191091910Y-73618044D01*
X191136562Y-73638976D01*
X191337177Y-73733021D01*
X191539867Y-73794001D01*
X191596569Y-73811060D01*
X191864561Y-73850500D01*
X191864564Y-73850500D01*
X192065369Y-73850500D01*
X192067631Y-73850500D01*
X192270156Y-73835677D01*
X192534553Y-73776780D01*
X192787558Y-73680014D01*
X193023777Y-73547441D01*
X193238177Y-73381888D01*
X193426186Y-73186881D01*
X193583799Y-72966579D01*
X193707656Y-72725675D01*
X193795118Y-72469305D01*
X193844319Y-72202933D01*
X193854212Y-71932235D01*
X193824586Y-71662982D01*
X193756072Y-71400912D01*
X193650130Y-71151610D01*
X193509018Y-70920390D01*
X193509017Y-70920388D01*
X193335746Y-70712181D01*
X193317279Y-70695634D01*
X193134002Y-70531418D01*
X192908090Y-70381956D01*
X192822895Y-70342018D01*
X192662822Y-70266978D01*
X192403437Y-70188941D01*
X192403431Y-70188940D01*
X192135439Y-70149500D01*
X191932369Y-70149500D01*
X191930120Y-70149664D01*
X191930109Y-70149665D01*
X191729843Y-70164322D01*
X191465449Y-70223219D01*
X191212441Y-70319986D01*
X190976223Y-70452559D01*
X190761825Y-70618109D01*
X190573813Y-70813120D01*
X190416201Y-71033420D01*
X190292342Y-71274329D01*
X190204881Y-71530695D01*
X190155680Y-71797066D01*
X190145787Y-72067764D01*
X184275223Y-72067764D01*
X184346407Y-72002871D01*
X184390980Y-71962237D01*
X184390981Y-71962236D01*
X184525058Y-71784689D01*
X184624229Y-71585528D01*
X184685115Y-71371536D01*
X184705643Y-71150000D01*
X184685115Y-70928464D01*
X184652297Y-70813119D01*
X184624230Y-70714473D01*
X184525058Y-70515311D01*
X184390980Y-70337762D01*
X184226562Y-70187875D01*
X184037404Y-70070754D01*
X183976174Y-70047033D01*
X183829940Y-69990382D01*
X183611243Y-69949500D01*
X183388757Y-69949500D01*
X183170059Y-69990382D01*
X183170060Y-69990382D01*
X182962595Y-70070754D01*
X182773437Y-70187875D01*
X182609019Y-70337762D01*
X182474941Y-70515311D01*
X182375769Y-70714473D01*
X182314885Y-70928462D01*
X182294357Y-71150000D01*
X173705643Y-71150000D01*
X173685115Y-70928464D01*
X173652297Y-70813119D01*
X173624230Y-70714473D01*
X173525058Y-70515311D01*
X173390980Y-70337762D01*
X173226562Y-70187875D01*
X173037404Y-70070754D01*
X172976174Y-70047033D01*
X172829940Y-69990382D01*
X172611243Y-69949500D01*
X172388757Y-69949500D01*
X172170059Y-69990382D01*
X172170060Y-69990382D01*
X171962595Y-70070754D01*
X171773437Y-70187875D01*
X171609019Y-70337762D01*
X171474941Y-70515311D01*
X171375769Y-70714473D01*
X171314885Y-70928462D01*
X171294357Y-71149999D01*
X168705643Y-71149999D01*
X168685115Y-70928464D01*
X168652297Y-70813119D01*
X168624230Y-70714473D01*
X168525058Y-70515311D01*
X168390980Y-70337762D01*
X168226562Y-70187875D01*
X168037404Y-70070754D01*
X167976174Y-70047033D01*
X167829940Y-69990382D01*
X167611243Y-69949500D01*
X167388757Y-69949500D01*
X167170059Y-69990382D01*
X167170060Y-69990382D01*
X166962595Y-70070754D01*
X166773437Y-70187875D01*
X166609019Y-70337762D01*
X166474941Y-70515311D01*
X166375769Y-70714473D01*
X166314885Y-70928462D01*
X166294357Y-71150000D01*
X157705643Y-71150000D01*
X157685115Y-70928464D01*
X157652297Y-70813119D01*
X157624230Y-70714473D01*
X157525058Y-70515311D01*
X157390980Y-70337762D01*
X157226562Y-70187875D01*
X157037404Y-70070754D01*
X156976174Y-70047033D01*
X156829940Y-69990382D01*
X156611243Y-69949500D01*
X156388757Y-69949500D01*
X156170059Y-69990382D01*
X156170060Y-69990382D01*
X155962595Y-70070754D01*
X155773437Y-70187875D01*
X155609019Y-70337762D01*
X155474941Y-70515311D01*
X155375769Y-70714473D01*
X155314885Y-70928462D01*
X155294357Y-71149999D01*
X151000000Y-71149999D01*
X151000000Y-69051362D01*
X151019685Y-68984323D01*
X151036319Y-68963681D01*
X151963181Y-68036819D01*
X152024504Y-68003334D01*
X152050862Y-68000500D01*
X191997128Y-68000500D01*
X192002855Y-68000632D01*
G37*
%TD.AperFunction*%
%TD*%
%TA.AperFunction,Conductor*%
%TO.N,GND*%
G36*
X149938373Y-68020185D02*
G01*
X149984128Y-68072989D01*
X149995334Y-68124500D01*
X149995334Y-77000000D01*
X159995334Y-87000000D01*
X177362435Y-87000000D01*
X177429474Y-87019685D01*
X177450116Y-87036319D01*
X181863182Y-91449385D01*
X181896666Y-91510706D01*
X181899500Y-91537064D01*
X181899500Y-97876000D01*
X181879815Y-97943039D01*
X181827011Y-97988794D01*
X181775500Y-98000000D01*
X173000000Y-98000000D01*
X173000000Y-127943972D01*
X172980315Y-128011011D01*
X172963681Y-128031653D01*
X172031653Y-128963681D01*
X171970330Y-128997166D01*
X171943972Y-129000000D01*
X167995333Y-129000000D01*
X156512181Y-140483152D01*
X156450858Y-140516637D01*
X156381166Y-140511653D01*
X156325233Y-140469781D01*
X156300816Y-140404317D01*
X156300500Y-140395471D01*
X156300500Y-136741518D01*
X156320185Y-136674479D01*
X156336819Y-136653837D01*
X159896591Y-133094065D01*
X163477731Y-129512924D01*
X163483151Y-129507822D01*
X163528183Y-129467929D01*
X163562358Y-129418416D01*
X163566779Y-129412407D01*
X163603877Y-129365057D01*
X163608033Y-129355820D01*
X163619058Y-129336273D01*
X163624818Y-129327930D01*
X163646154Y-129271668D01*
X163649014Y-129264766D01*
X163673694Y-129209932D01*
X163675519Y-129199971D01*
X163681545Y-129178348D01*
X163685140Y-129168872D01*
X163692389Y-129109165D01*
X163693516Y-129101762D01*
X163704357Y-129042606D01*
X163700726Y-128982577D01*
X163700500Y-128975090D01*
X163700500Y-124008878D01*
X168653202Y-124008878D01*
X168673035Y-124235568D01*
X168731932Y-124455376D01*
X168828103Y-124661614D01*
X168958624Y-124848019D01*
X169119530Y-125008925D01*
X169305935Y-125139446D01*
X169305936Y-125139446D01*
X169305937Y-125139447D01*
X169512175Y-125235618D01*
X169731979Y-125294514D01*
X169883106Y-125307735D01*
X169958670Y-125314347D01*
X169958670Y-125314346D01*
X169958671Y-125314347D01*
X170185363Y-125294514D01*
X170405167Y-125235618D01*
X170611405Y-125139447D01*
X170797810Y-125008926D01*
X170958718Y-124848018D01*
X171089239Y-124661613D01*
X171185410Y-124455375D01*
X171244306Y-124235571D01*
X171264139Y-124008879D01*
X171244306Y-123782187D01*
X171185410Y-123562383D01*
X171089239Y-123356145D01*
X171014917Y-123250000D01*
X170958717Y-123169738D01*
X170797811Y-123008832D01*
X170773208Y-122991605D01*
X170729583Y-122937029D01*
X170722389Y-122867530D01*
X170753912Y-122805175D01*
X170814141Y-122769761D01*
X170831072Y-122766741D01*
X170866154Y-122762970D01*
X171001002Y-122712675D01*
X171116217Y-122626425D01*
X171202467Y-122511210D01*
X171252762Y-122376362D01*
X171259171Y-122316752D01*
X171259170Y-120621007D01*
X171252762Y-120561396D01*
X171202467Y-120426548D01*
X171116217Y-120311333D01*
X171001002Y-120225083D01*
X170866154Y-120174788D01*
X170806544Y-120168379D01*
X170803221Y-120168379D01*
X169114110Y-120168379D01*
X169114091Y-120168379D01*
X169110799Y-120168380D01*
X169107519Y-120168732D01*
X169107511Y-120168733D01*
X169051186Y-120174788D01*
X168916340Y-120225083D01*
X168801125Y-120311333D01*
X168714875Y-120426547D01*
X168664581Y-120561394D01*
X168664580Y-120561396D01*
X168658171Y-120621006D01*
X168658171Y-120624327D01*
X168658171Y-120624328D01*
X168658171Y-122313439D01*
X168658171Y-122313457D01*
X168658172Y-122316751D01*
X168658524Y-122320031D01*
X168658525Y-122320038D01*
X168664580Y-122376363D01*
X168665414Y-122378599D01*
X168714875Y-122511210D01*
X168801125Y-122626425D01*
X168916340Y-122712675D01*
X169051188Y-122762970D01*
X169086265Y-122766741D01*
X169150814Y-122793477D01*
X169190664Y-122850868D01*
X169193159Y-122920693D01*
X169157508Y-122980783D01*
X169144134Y-122991604D01*
X169119532Y-123008830D01*
X168958624Y-123169738D01*
X168828103Y-123356143D01*
X168731932Y-123562381D01*
X168673035Y-123782189D01*
X168653202Y-124008878D01*
X163700500Y-124008878D01*
X163700500Y-117335863D01*
X168678365Y-117335863D01*
X168698198Y-117562552D01*
X168757095Y-117782360D01*
X168853266Y-117988598D01*
X168983787Y-118175003D01*
X169144693Y-118335909D01*
X169331098Y-118466430D01*
X169331099Y-118466430D01*
X169331100Y-118466431D01*
X169537338Y-118562602D01*
X169757142Y-118621498D01*
X169908270Y-118634720D01*
X169983833Y-118641331D01*
X169983833Y-118641330D01*
X169983834Y-118641331D01*
X170210526Y-118621498D01*
X170430330Y-118562602D01*
X170636568Y-118466431D01*
X170822973Y-118335910D01*
X170983881Y-118175002D01*
X171114402Y-117988597D01*
X171210573Y-117782359D01*
X171269469Y-117562555D01*
X171289302Y-117335863D01*
X171269469Y-117109171D01*
X171210573Y-116889367D01*
X171114402Y-116683129D01*
X170983881Y-116496724D01*
X170983880Y-116496722D01*
X170822974Y-116335816D01*
X170798371Y-116318589D01*
X170754746Y-116264013D01*
X170747552Y-116194514D01*
X170779075Y-116132159D01*
X170839304Y-116096745D01*
X170856235Y-116093725D01*
X170891317Y-116089954D01*
X171026165Y-116039659D01*
X171141380Y-115953409D01*
X171227630Y-115838194D01*
X171277925Y-115703346D01*
X171284334Y-115643736D01*
X171284333Y-113947991D01*
X171277925Y-113888380D01*
X171227630Y-113753532D01*
X171141380Y-113638317D01*
X171026165Y-113552067D01*
X170891317Y-113501772D01*
X170831707Y-113495363D01*
X170828384Y-113495363D01*
X169139273Y-113495363D01*
X169139254Y-113495363D01*
X169135962Y-113495364D01*
X169132682Y-113495716D01*
X169132674Y-113495717D01*
X169076349Y-113501772D01*
X168941503Y-113552067D01*
X168826288Y-113638317D01*
X168740038Y-113753531D01*
X168689744Y-113888378D01*
X168689743Y-113888380D01*
X168683334Y-113947990D01*
X168683334Y-113951311D01*
X168683334Y-113951312D01*
X168683334Y-115640423D01*
X168683334Y-115640441D01*
X168683335Y-115643735D01*
X168689743Y-115703346D01*
X168740038Y-115838194D01*
X168826288Y-115953409D01*
X168941503Y-116039659D01*
X169076351Y-116089954D01*
X169111428Y-116093725D01*
X169175977Y-116120461D01*
X169215827Y-116177852D01*
X169218322Y-116247677D01*
X169182671Y-116307767D01*
X169169297Y-116318588D01*
X169144695Y-116335814D01*
X168983787Y-116496722D01*
X168853266Y-116683127D01*
X168757095Y-116889365D01*
X168698198Y-117109173D01*
X168678365Y-117335863D01*
X163700500Y-117335863D01*
X163700500Y-110718012D01*
X168630767Y-110718012D01*
X168650600Y-110944701D01*
X168709497Y-111164509D01*
X168805668Y-111370747D01*
X168936189Y-111557152D01*
X169097095Y-111718058D01*
X169283500Y-111848579D01*
X169283501Y-111848579D01*
X169283502Y-111848580D01*
X169489740Y-111944751D01*
X169709544Y-112003647D01*
X169936236Y-112023480D01*
X170162928Y-112003647D01*
X170382732Y-111944751D01*
X170588970Y-111848580D01*
X170775375Y-111718059D01*
X170936283Y-111557151D01*
X171066804Y-111370746D01*
X171162975Y-111164508D01*
X171221871Y-110944704D01*
X171241704Y-110718012D01*
X171221871Y-110491320D01*
X171162975Y-110271516D01*
X171066804Y-110065278D01*
X171064754Y-110062349D01*
X170936282Y-109878871D01*
X170775376Y-109717965D01*
X170750773Y-109700738D01*
X170707148Y-109646162D01*
X170699954Y-109576663D01*
X170731477Y-109514308D01*
X170791706Y-109478894D01*
X170808637Y-109475874D01*
X170843719Y-109472103D01*
X170978567Y-109421808D01*
X171093782Y-109335558D01*
X171180032Y-109220343D01*
X171230327Y-109085495D01*
X171236736Y-109025885D01*
X171236735Y-107330140D01*
X171230327Y-107270529D01*
X171180032Y-107135681D01*
X171093782Y-107020466D01*
X170978567Y-106934216D01*
X170843719Y-106883921D01*
X170784109Y-106877512D01*
X170780786Y-106877512D01*
X169091675Y-106877512D01*
X169091656Y-106877512D01*
X169088364Y-106877513D01*
X169085084Y-106877865D01*
X169085076Y-106877866D01*
X169028751Y-106883921D01*
X168893905Y-106934216D01*
X168778690Y-107020466D01*
X168692440Y-107135680D01*
X168642146Y-107270527D01*
X168642145Y-107270529D01*
X168635736Y-107330139D01*
X168635736Y-107333460D01*
X168635736Y-107333461D01*
X168635736Y-109022572D01*
X168635736Y-109022590D01*
X168635737Y-109025884D01*
X168636089Y-109029164D01*
X168636090Y-109029171D01*
X168642145Y-109085496D01*
X168667292Y-109152918D01*
X168692440Y-109220343D01*
X168778690Y-109335558D01*
X168893905Y-109421808D01*
X169028753Y-109472103D01*
X169063830Y-109475874D01*
X169128379Y-109502610D01*
X169168229Y-109560001D01*
X169170724Y-109629826D01*
X169135073Y-109689916D01*
X169121699Y-109700737D01*
X169097097Y-109717963D01*
X168936189Y-109878871D01*
X168805668Y-110065276D01*
X168709497Y-110271514D01*
X168650600Y-110491322D01*
X168630767Y-110718012D01*
X163700500Y-110718012D01*
X163700500Y-110024919D01*
X163700726Y-110017432D01*
X163704358Y-109957394D01*
X163693507Y-109898185D01*
X163692390Y-109890841D01*
X163685140Y-109831128D01*
X163681547Y-109821656D01*
X163675522Y-109800044D01*
X163673695Y-109790069D01*
X163649009Y-109735220D01*
X163646152Y-109728326D01*
X163624818Y-109672070D01*
X163624816Y-109672068D01*
X163624816Y-109672066D01*
X163619062Y-109663731D01*
X163608033Y-109644177D01*
X163603878Y-109634944D01*
X163566780Y-109587591D01*
X163562352Y-109581573D01*
X163528184Y-109532072D01*
X163528183Y-109532071D01*
X163483153Y-109492178D01*
X163477715Y-109487058D01*
X161461236Y-107470579D01*
X161427751Y-107409256D01*
X161429142Y-107350804D01*
X161460063Y-107235408D01*
X161480659Y-107000000D01*
X161460063Y-106764592D01*
X161398903Y-106536337D01*
X161299035Y-106322171D01*
X161163495Y-106128599D01*
X160996401Y-105961505D01*
X160802829Y-105825965D01*
X160588663Y-105726097D01*
X160588662Y-105726096D01*
X160360407Y-105664936D01*
X160186667Y-105649736D01*
X160186659Y-105649735D01*
X160183966Y-105649500D01*
X159816034Y-105649500D01*
X159813341Y-105649735D01*
X159813332Y-105649736D01*
X159639592Y-105664936D01*
X159411336Y-105726097D01*
X159197170Y-105825965D01*
X159003598Y-105961505D01*
X158836505Y-106128598D01*
X158753864Y-106246623D01*
X158699287Y-106290248D01*
X158652289Y-106299500D01*
X153451518Y-106299500D01*
X153384479Y-106279815D01*
X153363837Y-106263181D01*
X151109535Y-104008879D01*
X168653202Y-104008879D01*
X168673035Y-104235568D01*
X168731932Y-104455376D01*
X168828103Y-104661614D01*
X168958624Y-104848019D01*
X169119530Y-105008925D01*
X169305935Y-105139446D01*
X169305936Y-105139446D01*
X169305937Y-105139447D01*
X169512175Y-105235618D01*
X169731979Y-105294514D01*
X169883106Y-105307735D01*
X169958670Y-105314347D01*
X169958670Y-105314346D01*
X169958671Y-105314347D01*
X170185363Y-105294514D01*
X170405167Y-105235618D01*
X170611405Y-105139447D01*
X170797810Y-105008926D01*
X170958718Y-104848018D01*
X171089239Y-104661613D01*
X171185410Y-104455375D01*
X171244306Y-104235571D01*
X171264139Y-104008879D01*
X171244306Y-103782187D01*
X171185410Y-103562383D01*
X171089239Y-103356145D01*
X171085287Y-103350500D01*
X170958717Y-103169738D01*
X170797811Y-103008832D01*
X170773208Y-102991605D01*
X170729583Y-102937029D01*
X170722389Y-102867530D01*
X170753912Y-102805175D01*
X170814141Y-102769761D01*
X170831072Y-102766741D01*
X170866154Y-102762970D01*
X171001002Y-102712675D01*
X171116217Y-102626425D01*
X171202467Y-102511210D01*
X171252762Y-102376362D01*
X171259171Y-102316752D01*
X171259170Y-100621007D01*
X171252762Y-100561396D01*
X171202467Y-100426548D01*
X171116217Y-100311333D01*
X171001002Y-100225083D01*
X170866154Y-100174788D01*
X170806544Y-100168379D01*
X170803221Y-100168379D01*
X169114110Y-100168379D01*
X169114091Y-100168379D01*
X169110799Y-100168380D01*
X169107519Y-100168732D01*
X169107511Y-100168733D01*
X169051186Y-100174788D01*
X168916340Y-100225083D01*
X168801125Y-100311333D01*
X168714875Y-100426547D01*
X168664581Y-100561394D01*
X168664580Y-100561396D01*
X168658171Y-100621006D01*
X168658171Y-100624327D01*
X168658171Y-100624328D01*
X168658171Y-102313439D01*
X168658171Y-102313457D01*
X168658172Y-102316751D01*
X168658524Y-102320031D01*
X168658525Y-102320038D01*
X168664580Y-102376363D01*
X168683774Y-102427824D01*
X168714875Y-102511210D01*
X168801125Y-102626425D01*
X168916340Y-102712675D01*
X169051188Y-102762970D01*
X169086265Y-102766741D01*
X169150814Y-102793477D01*
X169190664Y-102850868D01*
X169193159Y-102920693D01*
X169157508Y-102980783D01*
X169144134Y-102991604D01*
X169119532Y-103008830D01*
X168958624Y-103169738D01*
X168828103Y-103356143D01*
X168731932Y-103562381D01*
X168673035Y-103782189D01*
X168653202Y-104008879D01*
X151109535Y-104008879D01*
X149747534Y-102646878D01*
X158524500Y-102646878D01*
X158524501Y-102650008D01*
X158524820Y-102653140D01*
X158524821Y-102653141D01*
X158535000Y-102752796D01*
X158590186Y-102919334D01*
X158682288Y-103068657D01*
X158806342Y-103192711D01*
X158806344Y-103192712D01*
X158955666Y-103284814D01*
X159067016Y-103321712D01*
X159122202Y-103339999D01*
X159221858Y-103350180D01*
X159221859Y-103350180D01*
X159224991Y-103350500D01*
X160775008Y-103350499D01*
X160877797Y-103339999D01*
X161044334Y-103284814D01*
X161193656Y-103192712D01*
X161317712Y-103068656D01*
X161409814Y-102919334D01*
X161464999Y-102752797D01*
X161475500Y-102650009D01*
X161475499Y-101349992D01*
X161464999Y-101247203D01*
X161409814Y-101080666D01*
X161317712Y-100931344D01*
X161317711Y-100931342D01*
X161193657Y-100807288D01*
X161044334Y-100715186D01*
X160877797Y-100660000D01*
X160778141Y-100649819D01*
X160778122Y-100649818D01*
X160775009Y-100649500D01*
X160771860Y-100649500D01*
X159228140Y-100649500D01*
X159228120Y-100649500D01*
X159224992Y-100649501D01*
X159221860Y-100649820D01*
X159221858Y-100649821D01*
X159122203Y-100660000D01*
X158955665Y-100715186D01*
X158806342Y-100807288D01*
X158682288Y-100931342D01*
X158590186Y-101080665D01*
X158535000Y-101247202D01*
X158524819Y-101346858D01*
X158524817Y-101346878D01*
X158524500Y-101349991D01*
X158524500Y-101353138D01*
X158524500Y-101353139D01*
X158524500Y-102646859D01*
X158524500Y-102646878D01*
X149747534Y-102646878D01*
X140745234Y-93644578D01*
X175424500Y-93644578D01*
X175424501Y-93647872D01*
X175424853Y-93651152D01*
X175424854Y-93651159D01*
X175430909Y-93707483D01*
X175481204Y-93842331D01*
X175567454Y-93957546D01*
X175682669Y-94043796D01*
X175817517Y-94094091D01*
X175877127Y-94100500D01*
X177572872Y-94100499D01*
X177632483Y-94094091D01*
X177767331Y-94043796D01*
X177882546Y-93957546D01*
X177968796Y-93842331D01*
X178019091Y-93707483D01*
X178022862Y-93672404D01*
X178049598Y-93607856D01*
X178106989Y-93568006D01*
X178176814Y-93565511D01*
X178236904Y-93601162D01*
X178247726Y-93614537D01*
X178264953Y-93639140D01*
X178425859Y-93800046D01*
X178612264Y-93930567D01*
X178612265Y-93930567D01*
X178612266Y-93930568D01*
X178818504Y-94026739D01*
X179038308Y-94085635D01*
X179265000Y-94105468D01*
X179491692Y-94085635D01*
X179711496Y-94026739D01*
X179917734Y-93930568D01*
X180104139Y-93800047D01*
X180265047Y-93639139D01*
X180395568Y-93452734D01*
X180491739Y-93246496D01*
X180550635Y-93026692D01*
X180570468Y-92800000D01*
X180550635Y-92573308D01*
X180491739Y-92353504D01*
X180395568Y-92147266D01*
X180317856Y-92036280D01*
X180265046Y-91960859D01*
X180104140Y-91799953D01*
X179917735Y-91669432D01*
X179711497Y-91573261D01*
X179491689Y-91514364D01*
X179265000Y-91494531D01*
X179038310Y-91514364D01*
X178818502Y-91573261D01*
X178612264Y-91669432D01*
X178425859Y-91799953D01*
X178264951Y-91960861D01*
X178247725Y-91985463D01*
X178193148Y-92029088D01*
X178123649Y-92036280D01*
X178061295Y-92004757D01*
X178025882Y-91944527D01*
X178022861Y-91927592D01*
X178019091Y-91892517D01*
X177968796Y-91757669D01*
X177882546Y-91642454D01*
X177767331Y-91556204D01*
X177632483Y-91505909D01*
X177632482Y-91505908D01*
X177576166Y-91499854D01*
X177576165Y-91499853D01*
X177572873Y-91499500D01*
X177569550Y-91499500D01*
X175880439Y-91499500D01*
X175880420Y-91499500D01*
X175877128Y-91499501D01*
X175873848Y-91499853D01*
X175873840Y-91499854D01*
X175817515Y-91505909D01*
X175682669Y-91556204D01*
X175567454Y-91642454D01*
X175481204Y-91757668D01*
X175430910Y-91892515D01*
X175430909Y-91892517D01*
X175424500Y-91952127D01*
X175424500Y-91955448D01*
X175424500Y-91955449D01*
X175424500Y-93644560D01*
X175424500Y-93644578D01*
X140745234Y-93644578D01*
X139945234Y-92844578D01*
X167102599Y-92844578D01*
X167102600Y-92847872D01*
X167102952Y-92851152D01*
X167102953Y-92851159D01*
X167109008Y-92907483D01*
X167159303Y-93042331D01*
X167245553Y-93157546D01*
X167360768Y-93243796D01*
X167495616Y-93294091D01*
X167555226Y-93300500D01*
X169250971Y-93300499D01*
X169310582Y-93294091D01*
X169445430Y-93243796D01*
X169560645Y-93157546D01*
X169646895Y-93042331D01*
X169697190Y-92907483D01*
X169700961Y-92872404D01*
X169727697Y-92807856D01*
X169785088Y-92768006D01*
X169854913Y-92765511D01*
X169915003Y-92801162D01*
X169925825Y-92814537D01*
X169943052Y-92839140D01*
X170103958Y-93000046D01*
X170290363Y-93130567D01*
X170290364Y-93130567D01*
X170290365Y-93130568D01*
X170496603Y-93226739D01*
X170716407Y-93285635D01*
X170943099Y-93305468D01*
X171169791Y-93285635D01*
X171389595Y-93226739D01*
X171595833Y-93130568D01*
X171782238Y-93000047D01*
X171943146Y-92839139D01*
X172073667Y-92652734D01*
X172169838Y-92446496D01*
X172228734Y-92226692D01*
X172248567Y-92000000D01*
X172228734Y-91773308D01*
X172169838Y-91553504D01*
X172073667Y-91347266D01*
X172004067Y-91247865D01*
X171943145Y-91160859D01*
X171782239Y-90999953D01*
X171595834Y-90869432D01*
X171389596Y-90773261D01*
X171169788Y-90714364D01*
X170943099Y-90694531D01*
X170716409Y-90714364D01*
X170496601Y-90773261D01*
X170290363Y-90869432D01*
X170103958Y-90999953D01*
X169943050Y-91160861D01*
X169925824Y-91185463D01*
X169871247Y-91229088D01*
X169801748Y-91236280D01*
X169739394Y-91204757D01*
X169703981Y-91144527D01*
X169700960Y-91127592D01*
X169697190Y-91092517D01*
X169646895Y-90957669D01*
X169560645Y-90842454D01*
X169445430Y-90756204D01*
X169310582Y-90705909D01*
X169250972Y-90699500D01*
X169247649Y-90699500D01*
X167558538Y-90699500D01*
X167558519Y-90699500D01*
X167555227Y-90699501D01*
X167551947Y-90699853D01*
X167551939Y-90699854D01*
X167495614Y-90705909D01*
X167360768Y-90756204D01*
X167245553Y-90842454D01*
X167159303Y-90957668D01*
X167109009Y-91092515D01*
X167109008Y-91092517D01*
X167102599Y-91152127D01*
X167102599Y-91155448D01*
X167102599Y-91155449D01*
X167102599Y-92844560D01*
X167102599Y-92844578D01*
X139945234Y-92844578D01*
X129449930Y-82349273D01*
X129416445Y-82287950D01*
X129421429Y-82218258D01*
X129463301Y-82162325D01*
X129526802Y-82138064D01*
X129675408Y-82125063D01*
X129903663Y-82063903D01*
X130117830Y-81964035D01*
X130311401Y-81828495D01*
X130478495Y-81661401D01*
X130608427Y-81475838D01*
X130663001Y-81432216D01*
X130732499Y-81425022D01*
X130794854Y-81456545D01*
X130811572Y-81475838D01*
X130941505Y-81661401D01*
X131108599Y-81828495D01*
X131302170Y-81964035D01*
X131516337Y-82063903D01*
X131744592Y-82125063D01*
X131980000Y-82145659D01*
X132215408Y-82125063D01*
X132443663Y-82063903D01*
X132657830Y-81964035D01*
X132851401Y-81828495D01*
X133018495Y-81661401D01*
X133148426Y-81475839D01*
X133203002Y-81432216D01*
X133272500Y-81425022D01*
X133334855Y-81456545D01*
X133351571Y-81475837D01*
X133481505Y-81661401D01*
X133648599Y-81828495D01*
X133842170Y-81964035D01*
X134056337Y-82063903D01*
X134273407Y-82122066D01*
X134284592Y-82125063D01*
X134519999Y-82145659D01*
X134519999Y-82145658D01*
X134520000Y-82145659D01*
X134755408Y-82125063D01*
X134983663Y-82063903D01*
X135197830Y-81964035D01*
X135391401Y-81828495D01*
X135558495Y-81661401D01*
X135688426Y-81475839D01*
X135743002Y-81432216D01*
X135812500Y-81425022D01*
X135874855Y-81456545D01*
X135891571Y-81475837D01*
X136021505Y-81661401D01*
X136188599Y-81828495D01*
X136382170Y-81964035D01*
X136596337Y-82063903D01*
X136813407Y-82122066D01*
X136824592Y-82125063D01*
X137059999Y-82145659D01*
X137059999Y-82145658D01*
X137060000Y-82145659D01*
X137295408Y-82125063D01*
X137523663Y-82063903D01*
X137737830Y-81964035D01*
X137931401Y-81828495D01*
X138098495Y-81661401D01*
X138228426Y-81475839D01*
X138283002Y-81432216D01*
X138352500Y-81425022D01*
X138414855Y-81456545D01*
X138431571Y-81475837D01*
X138561505Y-81661401D01*
X138728599Y-81828495D01*
X138922170Y-81964035D01*
X139136337Y-82063903D01*
X139364592Y-82125063D01*
X139600000Y-82145659D01*
X139835408Y-82125063D01*
X140063663Y-82063903D01*
X140277830Y-81964035D01*
X140471401Y-81828495D01*
X140638495Y-81661401D01*
X140768426Y-81475839D01*
X140823002Y-81432216D01*
X140892500Y-81425022D01*
X140954855Y-81456545D01*
X140971571Y-81475837D01*
X141101505Y-81661401D01*
X141268599Y-81828495D01*
X141462170Y-81964035D01*
X141676337Y-82063903D01*
X141904592Y-82125063D01*
X142140000Y-82145659D01*
X142375408Y-82125063D01*
X142603663Y-82063903D01*
X142817830Y-81964035D01*
X143011401Y-81828495D01*
X143178495Y-81661401D01*
X143308426Y-81475839D01*
X143363002Y-81432217D01*
X143432501Y-81425024D01*
X143494855Y-81456546D01*
X143511571Y-81475837D01*
X143641505Y-81661401D01*
X143808599Y-81828495D01*
X144002170Y-81964035D01*
X144216337Y-82063903D01*
X144444592Y-82125063D01*
X144680000Y-82145659D01*
X144915408Y-82125063D01*
X145143663Y-82063903D01*
X145357830Y-81964035D01*
X145551401Y-81828495D01*
X145718495Y-81661401D01*
X145848426Y-81475839D01*
X145903002Y-81432216D01*
X145972500Y-81425022D01*
X146034855Y-81456545D01*
X146051571Y-81475837D01*
X146181505Y-81661401D01*
X146348599Y-81828495D01*
X146542170Y-81964035D01*
X146756337Y-82063903D01*
X146973407Y-82122066D01*
X146984592Y-82125063D01*
X147219999Y-82145659D01*
X147219999Y-82145658D01*
X147220000Y-82145659D01*
X147455408Y-82125063D01*
X147683663Y-82063903D01*
X147897830Y-81964035D01*
X148091401Y-81828495D01*
X148258495Y-81661401D01*
X148394035Y-81467830D01*
X148493903Y-81253663D01*
X148555063Y-81025408D01*
X148575659Y-80790000D01*
X148555063Y-80554592D01*
X148493903Y-80326337D01*
X148394035Y-80112171D01*
X148258495Y-79918599D01*
X148091401Y-79751505D01*
X147905839Y-79621573D01*
X147862216Y-79566998D01*
X147855022Y-79497500D01*
X147886545Y-79435145D01*
X147905837Y-79418428D01*
X148091401Y-79288495D01*
X148258495Y-79121401D01*
X148394035Y-78927830D01*
X148493903Y-78713663D01*
X148555063Y-78485408D01*
X148575659Y-78250000D01*
X148555063Y-78014592D01*
X148493903Y-77786337D01*
X148394035Y-77572171D01*
X148258495Y-77378599D01*
X148091401Y-77211505D01*
X147897830Y-77075965D01*
X147683663Y-76976097D01*
X147581180Y-76948637D01*
X147455407Y-76914936D01*
X147220000Y-76894340D01*
X146984592Y-76914936D01*
X146756336Y-76976097D01*
X146542170Y-77075965D01*
X146348598Y-77211505D01*
X146181505Y-77378598D01*
X146051575Y-77564159D01*
X145996998Y-77607784D01*
X145927500Y-77614978D01*
X145865145Y-77583455D01*
X145848425Y-77564159D01*
X145766126Y-77446624D01*
X145718495Y-77378599D01*
X145551401Y-77211505D01*
X145357830Y-77075965D01*
X145143663Y-76976097D01*
X145041180Y-76948637D01*
X144915407Y-76914936D01*
X144680000Y-76894340D01*
X144444592Y-76914936D01*
X144216336Y-76976097D01*
X144002170Y-77075965D01*
X143808598Y-77211505D01*
X143641505Y-77378598D01*
X143511575Y-77564159D01*
X143456998Y-77607784D01*
X143387500Y-77614978D01*
X143325145Y-77583455D01*
X143308425Y-77564159D01*
X143226126Y-77446624D01*
X143178495Y-77378599D01*
X143011401Y-77211505D01*
X142817830Y-77075965D01*
X142603663Y-76976097D01*
X142501180Y-76948637D01*
X142375407Y-76914936D01*
X142139999Y-76894340D01*
X141904592Y-76914936D01*
X141676336Y-76976097D01*
X141462170Y-77075965D01*
X141268598Y-77211505D01*
X141101505Y-77378598D01*
X140965965Y-77572170D01*
X140866097Y-77786336D01*
X140804936Y-78014592D01*
X140784340Y-78250000D01*
X140804936Y-78485407D01*
X140857990Y-78683407D01*
X140856327Y-78753256D01*
X140817164Y-78811119D01*
X140752936Y-78838623D01*
X140738215Y-78839500D01*
X138461785Y-78839500D01*
X138394746Y-78819815D01*
X138348991Y-78767011D01*
X138339047Y-78697853D01*
X138342010Y-78683407D01*
X138395063Y-78485407D01*
X138415659Y-78249999D01*
X138395063Y-78014592D01*
X138333903Y-77786337D01*
X138234035Y-77572171D01*
X138098495Y-77378599D01*
X137931401Y-77211505D01*
X137737830Y-77075965D01*
X137523663Y-76976097D01*
X137421180Y-76948637D01*
X137295407Y-76914936D01*
X137060000Y-76894340D01*
X136824592Y-76914936D01*
X136596336Y-76976097D01*
X136382170Y-77075965D01*
X136188598Y-77211505D01*
X136021505Y-77378598D01*
X135891575Y-77564159D01*
X135836998Y-77607784D01*
X135767500Y-77614978D01*
X135705145Y-77583455D01*
X135688425Y-77564159D01*
X135606126Y-77446624D01*
X135558495Y-77378599D01*
X135391401Y-77211505D01*
X135197830Y-77075965D01*
X134983663Y-76976097D01*
X134881180Y-76948637D01*
X134755407Y-76914936D01*
X134520000Y-76894340D01*
X134284592Y-76914936D01*
X134056336Y-76976097D01*
X133842170Y-77075965D01*
X133648598Y-77211505D01*
X133481508Y-77378595D01*
X133351574Y-77564160D01*
X133296997Y-77607785D01*
X133227498Y-77614977D01*
X133165144Y-77583455D01*
X133148429Y-77564164D01*
X133018495Y-77378599D01*
X132851401Y-77211505D01*
X132657830Y-77075965D01*
X132443663Y-76976097D01*
X132341180Y-76948637D01*
X132215407Y-76914936D01*
X131979999Y-76894340D01*
X131744592Y-76914936D01*
X131516336Y-76976097D01*
X131302170Y-77075965D01*
X131108598Y-77211505D01*
X130941505Y-77378598D01*
X130811575Y-77564159D01*
X130756998Y-77607784D01*
X130687500Y-77614978D01*
X130625145Y-77583455D01*
X130608425Y-77564159D01*
X130526126Y-77446624D01*
X130478495Y-77378599D01*
X130311401Y-77211505D01*
X130117830Y-77075965D01*
X129903663Y-76976097D01*
X129801180Y-76948637D01*
X129675407Y-76914936D01*
X129440000Y-76894340D01*
X129204592Y-76914936D01*
X128976336Y-76976097D01*
X128762170Y-77075965D01*
X128568598Y-77211505D01*
X128401508Y-77378595D01*
X128271574Y-77564160D01*
X128216997Y-77607785D01*
X128147498Y-77614977D01*
X128085144Y-77583455D01*
X128068429Y-77564164D01*
X127938495Y-77378599D01*
X127771401Y-77211505D01*
X127577830Y-77075965D01*
X127363663Y-76976097D01*
X127261180Y-76948637D01*
X127135407Y-76914936D01*
X126900000Y-76894340D01*
X126664592Y-76914936D01*
X126436336Y-76976097D01*
X126222170Y-77075965D01*
X126028598Y-77211505D01*
X125861505Y-77378598D01*
X125725965Y-77572170D01*
X125626097Y-77786336D01*
X125564936Y-78014592D01*
X125544340Y-78249999D01*
X125564936Y-78485407D01*
X125626097Y-78713662D01*
X125725965Y-78927831D01*
X125780685Y-79005979D01*
X125803012Y-79072185D01*
X125786002Y-79139952D01*
X125766791Y-79164783D01*
X125274783Y-79656791D01*
X125213460Y-79690276D01*
X125143768Y-79685292D01*
X125115979Y-79670685D01*
X125037831Y-79615965D01*
X124880286Y-79542501D01*
X124823663Y-79516097D01*
X124754257Y-79497500D01*
X124595407Y-79454936D01*
X124359999Y-79434340D01*
X124124592Y-79454936D01*
X123896336Y-79516097D01*
X123682170Y-79615965D01*
X123488598Y-79751505D01*
X123321505Y-79918598D01*
X123191575Y-80104159D01*
X123136998Y-80147784D01*
X123067500Y-80154978D01*
X123005145Y-80123455D01*
X122988425Y-80104159D01*
X122858494Y-79918598D01*
X122691401Y-79751505D01*
X122575978Y-79670685D01*
X122505839Y-79621573D01*
X122462216Y-79566998D01*
X122455022Y-79497500D01*
X122486545Y-79435145D01*
X122505837Y-79418428D01*
X122691401Y-79288495D01*
X122858495Y-79121401D01*
X122994035Y-78927830D01*
X123093903Y-78713663D01*
X123155063Y-78485408D01*
X123175659Y-78250000D01*
X123155063Y-78014592D01*
X123093903Y-77786337D01*
X122994035Y-77572171D01*
X122858495Y-77378599D01*
X122691401Y-77211505D01*
X122497830Y-77075965D01*
X122283663Y-76976097D01*
X122181180Y-76948637D01*
X122055407Y-76914936D01*
X121820000Y-76894340D01*
X121584592Y-76914936D01*
X121356336Y-76976097D01*
X121142170Y-77075965D01*
X120948598Y-77211505D01*
X120781505Y-77378598D01*
X120651575Y-77564159D01*
X120596998Y-77607784D01*
X120527500Y-77614978D01*
X120465145Y-77583455D01*
X120448425Y-77564159D01*
X120366126Y-77446624D01*
X120318495Y-77378599D01*
X120151401Y-77211505D01*
X119957830Y-77075965D01*
X119743663Y-76976097D01*
X119641180Y-76948637D01*
X119515407Y-76914936D01*
X119279999Y-76894340D01*
X119044592Y-76914936D01*
X118816336Y-76976097D01*
X118602170Y-77075965D01*
X118408598Y-77211505D01*
X118241505Y-77378598D01*
X118111575Y-77564159D01*
X118056998Y-77607784D01*
X117987500Y-77614978D01*
X117925145Y-77583455D01*
X117908425Y-77564159D01*
X117826126Y-77446624D01*
X117778495Y-77378599D01*
X117611401Y-77211505D01*
X117417830Y-77075965D01*
X117203663Y-76976097D01*
X117101180Y-76948637D01*
X116975407Y-76914936D01*
X116739999Y-76894340D01*
X116504592Y-76914936D01*
X116276336Y-76976097D01*
X116062170Y-77075965D01*
X115868598Y-77211505D01*
X115701505Y-77378598D01*
X115571575Y-77564159D01*
X115516998Y-77607784D01*
X115447500Y-77614978D01*
X115385145Y-77583455D01*
X115368425Y-77564159D01*
X115286126Y-77446624D01*
X115238495Y-77378599D01*
X115071401Y-77211505D01*
X114877830Y-77075965D01*
X114663663Y-76976097D01*
X114561180Y-76948637D01*
X114435407Y-76914936D01*
X114200000Y-76894340D01*
X113964592Y-76914936D01*
X113736336Y-76976097D01*
X113522170Y-77075965D01*
X113328598Y-77211505D01*
X113161505Y-77378598D01*
X113031575Y-77564159D01*
X112976998Y-77607784D01*
X112907500Y-77614978D01*
X112845145Y-77583455D01*
X112828425Y-77564159D01*
X112746126Y-77446624D01*
X112698495Y-77378599D01*
X112531401Y-77211505D01*
X112337830Y-77075965D01*
X112123663Y-76976097D01*
X112021180Y-76948637D01*
X111895407Y-76914936D01*
X111660000Y-76894340D01*
X111424592Y-76914936D01*
X111196336Y-76976097D01*
X110982170Y-77075965D01*
X110788598Y-77211505D01*
X110621508Y-77378595D01*
X110491574Y-77564160D01*
X110436997Y-77607785D01*
X110367498Y-77614977D01*
X110305144Y-77583455D01*
X110288429Y-77564164D01*
X110158495Y-77378599D01*
X109991401Y-77211505D01*
X109797830Y-77075965D01*
X109583663Y-76976097D01*
X109481180Y-76948637D01*
X109355407Y-76914936D01*
X109119996Y-76894340D01*
X109102047Y-76895910D01*
X109033548Y-76882142D01*
X109003563Y-76860063D01*
X108363764Y-76220265D01*
X108351125Y-76205467D01*
X108342890Y-76194132D01*
X108342888Y-76194129D01*
X108292482Y-76148743D01*
X108287773Y-76144274D01*
X108275679Y-76132180D01*
X108275676Y-76132177D01*
X108273380Y-76129881D01*
X108270860Y-76127840D01*
X108270859Y-76127839D01*
X108257557Y-76117067D01*
X108252625Y-76112854D01*
X108202215Y-76067466D01*
X108190076Y-76060458D01*
X108174043Y-76049439D01*
X108163149Y-76040617D01*
X108163147Y-76040616D01*
X108163146Y-76040615D01*
X108102713Y-76009823D01*
X108097008Y-76006725D01*
X108038283Y-75972820D01*
X108024953Y-75968489D01*
X108006974Y-75961042D01*
X107994487Y-75954679D01*
X107928976Y-75937125D01*
X107922754Y-75935282D01*
X107858254Y-75914325D01*
X107844315Y-75912860D01*
X107825187Y-75909315D01*
X107811645Y-75905686D01*
X107743909Y-75902136D01*
X107737447Y-75901628D01*
X107720413Y-75899838D01*
X107720404Y-75899837D01*
X107717192Y-75899500D01*
X107713947Y-75899500D01*
X107696826Y-75899500D01*
X107690337Y-75899330D01*
X107685375Y-75899069D01*
X107622612Y-75895781D01*
X107622611Y-75895781D01*
X107615076Y-75896974D01*
X107608771Y-75897973D01*
X107589374Y-75899500D01*
X100980017Y-75899500D01*
X100960619Y-75897973D01*
X100946779Y-75895781D01*
X100879054Y-75899330D01*
X100872565Y-75899500D01*
X100852198Y-75899500D01*
X100848984Y-75899837D01*
X100848977Y-75899838D01*
X100831943Y-75901628D01*
X100825481Y-75902136D01*
X100757742Y-75905687D01*
X100744195Y-75909316D01*
X100725079Y-75912859D01*
X100711133Y-75914325D01*
X100646628Y-75935284D01*
X100640406Y-75937127D01*
X100574904Y-75954678D01*
X100562409Y-75961045D01*
X100544444Y-75968486D01*
X100531107Y-75972820D01*
X100472377Y-76006726D01*
X100466678Y-76009820D01*
X100406241Y-76040615D01*
X100395338Y-76049444D01*
X100379315Y-76060456D01*
X100367173Y-76067466D01*
X100316784Y-76112836D01*
X100311858Y-76117044D01*
X100298527Y-76127840D01*
X100298508Y-76127856D01*
X100296010Y-76129880D01*
X100293738Y-76132151D01*
X100293710Y-76132177D01*
X100281589Y-76144298D01*
X100276888Y-76148760D01*
X100226498Y-76194132D01*
X100218262Y-76205468D01*
X100205628Y-76220260D01*
X99420263Y-77005626D01*
X99405471Y-77018261D01*
X99394129Y-77026501D01*
X99348751Y-77076898D01*
X99344289Y-77081599D01*
X99332180Y-77093709D01*
X99332163Y-77093727D01*
X99329881Y-77096010D01*
X99327846Y-77098522D01*
X99327843Y-77098526D01*
X99317059Y-77111841D01*
X99312852Y-77116766D01*
X99267466Y-77167174D01*
X99260458Y-77179312D01*
X99249442Y-77195340D01*
X99240619Y-77206235D01*
X99209818Y-77266685D01*
X99206722Y-77272386D01*
X99172822Y-77331103D01*
X99168488Y-77344442D01*
X99161044Y-77362412D01*
X99154680Y-77374902D01*
X99137126Y-77440407D01*
X99135284Y-77446624D01*
X99114325Y-77511133D01*
X99112860Y-77525076D01*
X99109315Y-77544204D01*
X99105686Y-77557745D01*
X99102136Y-77625481D01*
X99101628Y-77631943D01*
X99099500Y-77652198D01*
X99099500Y-77655442D01*
X99099500Y-77672564D01*
X99099330Y-77679053D01*
X99095781Y-77746778D01*
X99097973Y-77760617D01*
X99099500Y-77780016D01*
X99099500Y-132549373D01*
X99097973Y-132568771D01*
X99095780Y-132582610D01*
X99099330Y-132650335D01*
X99099500Y-132656824D01*
X99099500Y-132724645D01*
X99102414Y-132738358D01*
X99104952Y-132757639D01*
X99105686Y-132771646D01*
X99109315Y-132785188D01*
X99112860Y-132804315D01*
X99114325Y-132818255D01*
X99126982Y-132857209D01*
X99130341Y-132869746D01*
X99138854Y-132909800D01*
X99144557Y-132922608D01*
X99151051Y-132940946D01*
X99154680Y-132954488D01*
X99161042Y-132966974D01*
X99168489Y-132984953D01*
X99172820Y-132998283D01*
X99193300Y-133033755D01*
X99199187Y-133045308D01*
X99215849Y-133082730D01*
X99224088Y-133094071D01*
X99234250Y-133110653D01*
X99240617Y-133123149D01*
X99249436Y-133134039D01*
X99260456Y-133150073D01*
X99267467Y-133162217D01*
X99294876Y-133192657D01*
X99303041Y-133202739D01*
X99327112Y-133235871D01*
X99357546Y-133263274D01*
X99366715Y-133272442D01*
X99378672Y-133285721D01*
X99394129Y-133302888D01*
X99405467Y-133311125D01*
X99420265Y-133323764D01*
X103784310Y-137687809D01*
X103817795Y-137749132D01*
X103812811Y-137818824D01*
X103770939Y-137874757D01*
X103728723Y-137895265D01*
X103576335Y-137936097D01*
X103362170Y-138035965D01*
X103168598Y-138171505D01*
X103001505Y-138338598D01*
X102871575Y-138524159D01*
X102816998Y-138567784D01*
X102747500Y-138574978D01*
X102685145Y-138543455D01*
X102668425Y-138524159D01*
X102645544Y-138491481D01*
X102538495Y-138338599D01*
X102371401Y-138171505D01*
X102177830Y-138035965D01*
X101963663Y-137936097D01*
X101902502Y-137919709D01*
X101735407Y-137874936D01*
X101500000Y-137854340D01*
X101264592Y-137874936D01*
X101036336Y-137936097D01*
X100822170Y-138035965D01*
X100628598Y-138171505D01*
X100461505Y-138338598D01*
X100325965Y-138532170D01*
X100226097Y-138746336D01*
X100164936Y-138974592D01*
X100144340Y-139209999D01*
X100164936Y-139445410D01*
X100169441Y-139462222D01*
X100167777Y-139532072D01*
X100137347Y-139581994D01*
X99772290Y-139947051D01*
X99766838Y-139952183D01*
X99721816Y-139992070D01*
X99687649Y-140041568D01*
X99683213Y-140047597D01*
X99646121Y-140094942D01*
X99641961Y-140104186D01*
X99630941Y-140123725D01*
X99625182Y-140132069D01*
X99603853Y-140188305D01*
X99600989Y-140195219D01*
X99576303Y-140250070D01*
X99574475Y-140260047D01*
X99568454Y-140281648D01*
X99564859Y-140291128D01*
X99557609Y-140350827D01*
X99556483Y-140358226D01*
X99545641Y-140417390D01*
X99549274Y-140477433D01*
X99549500Y-140484920D01*
X99549500Y-142242846D01*
X99549274Y-142250333D01*
X99545641Y-142310374D01*
X99556483Y-142369538D01*
X99557610Y-142376939D01*
X99564860Y-142436640D01*
X99568450Y-142446106D01*
X99574475Y-142467719D01*
X99576303Y-142477696D01*
X99600991Y-142532550D01*
X99603856Y-142539468D01*
X99625180Y-142595693D01*
X99625182Y-142595697D01*
X99630941Y-142604040D01*
X99641961Y-142623580D01*
X99646120Y-142632821D01*
X99683216Y-142680172D01*
X99687651Y-142686199D01*
X99721817Y-142735696D01*
X99766847Y-142775589D01*
X99772283Y-142780707D01*
X108681791Y-151690215D01*
X108686911Y-151695653D01*
X108726804Y-151740683D01*
X108726805Y-151740684D01*
X108751725Y-151757885D01*
X108770099Y-151770568D01*
X108776306Y-151774852D01*
X108782324Y-151779280D01*
X108829677Y-151816378D01*
X108838913Y-151820534D01*
X108858464Y-151831562D01*
X108866799Y-151837316D01*
X108866801Y-151837316D01*
X108866803Y-151837318D01*
X108923059Y-151858652D01*
X108929953Y-151861509D01*
X108984802Y-151886195D01*
X108994777Y-151888022D01*
X109016389Y-151894047D01*
X109025861Y-151897640D01*
X109085574Y-151904890D01*
X109092918Y-151906007D01*
X109152127Y-151916858D01*
X109208835Y-151913427D01*
X109212167Y-151913226D01*
X109219654Y-151913000D01*
X113588327Y-151913000D01*
X113655366Y-151932685D01*
X113689902Y-151965877D01*
X113749953Y-152051640D01*
X113910859Y-152212546D01*
X114097264Y-152343067D01*
X114097265Y-152343067D01*
X114097266Y-152343068D01*
X114303504Y-152439239D01*
X114523308Y-152498135D01*
X114750000Y-152517968D01*
X114976692Y-152498135D01*
X115196496Y-152439239D01*
X115402734Y-152343068D01*
X115589139Y-152212547D01*
X115750047Y-152051639D01*
X115880568Y-151865234D01*
X115976739Y-151658996D01*
X116035635Y-151439192D01*
X116055468Y-151212500D01*
X116035635Y-150985808D01*
X116035181Y-150980615D01*
X116048948Y-150912115D01*
X116071025Y-150882130D01*
X116403838Y-150549318D01*
X116465161Y-150515833D01*
X116491519Y-150512999D01*
X118094561Y-150512999D01*
X118097872Y-150512999D01*
X118157483Y-150506591D01*
X118292331Y-150456296D01*
X118407546Y-150370046D01*
X118493796Y-150254831D01*
X118544091Y-150119983D01*
X118550500Y-150060373D01*
X118550499Y-148364628D01*
X118544091Y-148305017D01*
X118493796Y-148170169D01*
X118407546Y-148054954D01*
X118292331Y-147968704D01*
X118157483Y-147918409D01*
X118097873Y-147912000D01*
X118094551Y-147912000D01*
X117440518Y-147912000D01*
X117373479Y-147892315D01*
X117327724Y-147839511D01*
X117317780Y-147770353D01*
X117346805Y-147706797D01*
X117352837Y-147700319D01*
X118778237Y-146274920D01*
X120323837Y-144729319D01*
X120385161Y-144695834D01*
X120411519Y-144693000D01*
X147831107Y-144693000D01*
X147838594Y-144693226D01*
X147841734Y-144693415D01*
X147898634Y-144696858D01*
X147957810Y-144686013D01*
X147965209Y-144684887D01*
X148024900Y-144677640D01*
X148034363Y-144674050D01*
X148055986Y-144668022D01*
X148065960Y-144666195D01*
X148120836Y-144641496D01*
X148127701Y-144638652D01*
X148183958Y-144617318D01*
X148192298Y-144611560D01*
X148211847Y-144600535D01*
X148221085Y-144596378D01*
X148268441Y-144559275D01*
X148274448Y-144554855D01*
X148323957Y-144520683D01*
X148363851Y-144475650D01*
X148368952Y-144470231D01*
X154087819Y-138751365D01*
X154149142Y-138717880D01*
X154218834Y-138722864D01*
X154274767Y-138764736D01*
X154299184Y-138830200D01*
X154299500Y-138839046D01*
X154299500Y-141658480D01*
X154279815Y-141725519D01*
X154263181Y-141746161D01*
X148746162Y-147263181D01*
X148684839Y-147296666D01*
X148658481Y-147299500D01*
X137664921Y-147299500D01*
X137657434Y-147299274D01*
X137597391Y-147295641D01*
X137538227Y-147306483D01*
X137530828Y-147307610D01*
X137471124Y-147314860D01*
X137461651Y-147318453D01*
X137440047Y-147324476D01*
X137430069Y-147326305D01*
X137375225Y-147350987D01*
X137368310Y-147353851D01*
X137312070Y-147375181D01*
X137303723Y-147380943D01*
X137284187Y-147391961D01*
X137274944Y-147396121D01*
X137227608Y-147433205D01*
X137221582Y-147437639D01*
X137172072Y-147471816D01*
X137132184Y-147516838D01*
X137127052Y-147522289D01*
X135330370Y-149318971D01*
X135269047Y-149352456D01*
X135231882Y-149354818D01*
X135000000Y-149334531D01*
X134773310Y-149354364D01*
X134553502Y-149413261D01*
X134347264Y-149509432D01*
X134160859Y-149639953D01*
X133992281Y-149808532D01*
X133989518Y-149805769D01*
X133950818Y-149836692D01*
X133881319Y-149843874D01*
X133818969Y-149812341D01*
X133787658Y-149765269D01*
X133777047Y-149736819D01*
X133743796Y-149647669D01*
X133657546Y-149532454D01*
X133542331Y-149446204D01*
X133407483Y-149395909D01*
X133347873Y-149389500D01*
X133344550Y-149389500D01*
X131655439Y-149389500D01*
X131655420Y-149389500D01*
X131652128Y-149389501D01*
X131648848Y-149389853D01*
X131648840Y-149389854D01*
X131592515Y-149395909D01*
X131457669Y-149446204D01*
X131342454Y-149532454D01*
X131256204Y-149647668D01*
X131209463Y-149772989D01*
X131205909Y-149782517D01*
X131199500Y-149842127D01*
X131199500Y-149845448D01*
X131199500Y-149845449D01*
X131199500Y-151434560D01*
X131199500Y-151434578D01*
X131199501Y-151437872D01*
X131199853Y-151441152D01*
X131199854Y-151441159D01*
X131205909Y-151497484D01*
X131219298Y-151533382D01*
X131256204Y-151632331D01*
X131342454Y-151747546D01*
X131457669Y-151833796D01*
X131592517Y-151884091D01*
X131652127Y-151890500D01*
X133347872Y-151890499D01*
X133407483Y-151884091D01*
X133542331Y-151833796D01*
X133657546Y-151747546D01*
X133743796Y-151632331D01*
X133787658Y-151514729D01*
X133829529Y-151458796D01*
X133894993Y-151434379D01*
X133963266Y-151449231D01*
X133990313Y-151473435D01*
X133992281Y-151471468D01*
X134160859Y-151640046D01*
X134347264Y-151770567D01*
X134347265Y-151770567D01*
X134347266Y-151770568D01*
X134553504Y-151866739D01*
X134773308Y-151925635D01*
X135000000Y-151945468D01*
X135226692Y-151925635D01*
X135446496Y-151866739D01*
X135652734Y-151770568D01*
X135839139Y-151640047D01*
X135912320Y-151566865D01*
X135973641Y-151533382D01*
X136043333Y-151538366D01*
X136087679Y-151566865D01*
X136153144Y-151632330D01*
X136160863Y-151640049D01*
X136347264Y-151770567D01*
X136347265Y-151770567D01*
X136347266Y-151770568D01*
X136553504Y-151866739D01*
X136773308Y-151925635D01*
X137000000Y-151945468D01*
X137226692Y-151925635D01*
X137446496Y-151866739D01*
X137652734Y-151770568D01*
X137839139Y-151640047D01*
X138000047Y-151479139D01*
X138130568Y-151292734D01*
X138226739Y-151086496D01*
X138285635Y-150866692D01*
X138305468Y-150640000D01*
X138294326Y-150512645D01*
X138285181Y-150408115D01*
X138298948Y-150339615D01*
X138321024Y-150309631D01*
X138893837Y-149736819D01*
X138955161Y-149703334D01*
X138981519Y-149700500D01*
X146882080Y-149700500D01*
X146949119Y-149720185D01*
X146994874Y-149772989D01*
X147004818Y-149842147D01*
X146995334Y-149874591D01*
X146995334Y-165875500D01*
X146975649Y-165942539D01*
X146922845Y-165988294D01*
X146871334Y-165999500D01*
X102002872Y-165999500D01*
X101997145Y-165999368D01*
X101827238Y-165991512D01*
X101630231Y-165981834D01*
X101619185Y-165980794D01*
X101436690Y-165955337D01*
X101252756Y-165928052D01*
X101242565Y-165926101D01*
X101060655Y-165883317D01*
X100882153Y-165838605D01*
X100872885Y-165835895D01*
X100695634Y-165776487D01*
X100693265Y-165775666D01*
X100521791Y-165714311D01*
X100513479Y-165710994D01*
X100342018Y-165635286D01*
X100339089Y-165633947D01*
X100174896Y-165556291D01*
X100167573Y-165552525D01*
X100003563Y-165461171D01*
X100000153Y-165459200D01*
X99980648Y-165447509D01*
X99844645Y-165365992D01*
X99838328Y-165361940D01*
X99683299Y-165255742D01*
X99679509Y-165253041D01*
X99534000Y-165145124D01*
X99528684Y-165140951D01*
X99383998Y-165020805D01*
X99380045Y-165017375D01*
X99245795Y-164895698D01*
X99241408Y-164891520D01*
X99108478Y-164758590D01*
X99104303Y-164754206D01*
X98982617Y-164619947D01*
X98979200Y-164616009D01*
X98859040Y-164471305D01*
X98854882Y-164466009D01*
X98746935Y-164320459D01*
X98744256Y-164316699D01*
X98638058Y-164161670D01*
X98634017Y-164155371D01*
X98540777Y-163999810D01*
X98538827Y-163996435D01*
X98512261Y-163948740D01*
X98447465Y-163832411D01*
X98443715Y-163825119D01*
X98375086Y-163680013D01*
X98366051Y-163660909D01*
X98364712Y-163657980D01*
X98289004Y-163486519D01*
X98285692Y-163478220D01*
X98224292Y-163306618D01*
X98223550Y-163304478D01*
X98164096Y-163127091D01*
X98161400Y-163117867D01*
X98116675Y-162939315D01*
X98073891Y-162757408D01*
X98071948Y-162747256D01*
X98044674Y-162563399D01*
X98019201Y-162380789D01*
X98018166Y-162369799D01*
X98008495Y-162172951D01*
X98003633Y-162067764D01*
X100145787Y-162067764D01*
X100175413Y-162337016D01*
X100209998Y-162469304D01*
X100243928Y-162599088D01*
X100306893Y-162747256D01*
X100349871Y-162848392D01*
X100490982Y-163079611D01*
X100651657Y-163272682D01*
X100664255Y-163287820D01*
X100865998Y-163468582D01*
X101091910Y-163618044D01*
X101198211Y-163667876D01*
X101337177Y-163733021D01*
X101596562Y-163811058D01*
X101596569Y-163811060D01*
X101864561Y-163850500D01*
X101864564Y-163850500D01*
X102065369Y-163850500D01*
X102067631Y-163850500D01*
X102270156Y-163835677D01*
X102534553Y-163776780D01*
X102787558Y-163680014D01*
X103023777Y-163547441D01*
X103238177Y-163381888D01*
X103426186Y-163186881D01*
X103583799Y-162966579D01*
X103707656Y-162725675D01*
X103795118Y-162469305D01*
X103844319Y-162202933D01*
X103854212Y-161932235D01*
X103824586Y-161662982D01*
X103756072Y-161400912D01*
X103650130Y-161151610D01*
X103554918Y-160995600D01*
X103509017Y-160920388D01*
X103335746Y-160712181D01*
X103283952Y-160665773D01*
X103134002Y-160531418D01*
X102908090Y-160381956D01*
X102908086Y-160381954D01*
X102662822Y-160266978D01*
X102403437Y-160188941D01*
X102403431Y-160188940D01*
X102135439Y-160149500D01*
X101932369Y-160149500D01*
X101930120Y-160149664D01*
X101930109Y-160149665D01*
X101729843Y-160164322D01*
X101465449Y-160223219D01*
X101212441Y-160319986D01*
X100976223Y-160452559D01*
X100761825Y-160618109D01*
X100573813Y-160813120D01*
X100416201Y-161033420D01*
X100292342Y-161274329D01*
X100204881Y-161530695D01*
X100155680Y-161797066D01*
X100145787Y-162067764D01*
X98003633Y-162067764D01*
X98000632Y-162002854D01*
X98000500Y-161997128D01*
X98000500Y-72067764D01*
X100145787Y-72067764D01*
X100175413Y-72337016D01*
X100201144Y-72435436D01*
X100243928Y-72599088D01*
X100297720Y-72725670D01*
X100349871Y-72848392D01*
X100490982Y-73079611D01*
X100664253Y-73287818D01*
X100664255Y-73287820D01*
X100865998Y-73468582D01*
X101091910Y-73618044D01*
X101198211Y-73667876D01*
X101337177Y-73733021D01*
X101596562Y-73811058D01*
X101596569Y-73811060D01*
X101864561Y-73850500D01*
X101864564Y-73850500D01*
X102065369Y-73850500D01*
X102067631Y-73850500D01*
X102270156Y-73835677D01*
X102534553Y-73776780D01*
X102787558Y-73680014D01*
X103023777Y-73547441D01*
X103238177Y-73381888D01*
X103426186Y-73186881D01*
X103583799Y-72966579D01*
X103707656Y-72725675D01*
X103795118Y-72469305D01*
X103844319Y-72202933D01*
X103854212Y-71932235D01*
X103824586Y-71662982D01*
X103756072Y-71400912D01*
X103650130Y-71151610D01*
X103509018Y-70920390D01*
X103509017Y-70920388D01*
X103335746Y-70712181D01*
X103317279Y-70695634D01*
X103134002Y-70531418D01*
X102908090Y-70381956D01*
X102908086Y-70381954D01*
X102662822Y-70266978D01*
X102403437Y-70188941D01*
X102403431Y-70188940D01*
X102135439Y-70149500D01*
X101932369Y-70149500D01*
X101930120Y-70149664D01*
X101930109Y-70149665D01*
X101729843Y-70164322D01*
X101465449Y-70223219D01*
X101212441Y-70319986D01*
X100976223Y-70452559D01*
X100761825Y-70618109D01*
X100573813Y-70813120D01*
X100416201Y-71033420D01*
X100292342Y-71274329D01*
X100204881Y-71530695D01*
X100155680Y-71797066D01*
X100145787Y-72067764D01*
X98000500Y-72067764D01*
X98000500Y-72002871D01*
X98000632Y-71997144D01*
X98008487Y-71827238D01*
X98009969Y-71797066D01*
X98018166Y-71630200D01*
X98019200Y-71619217D01*
X98044670Y-71436633D01*
X98049970Y-71400912D01*
X98071947Y-71252748D01*
X98073892Y-71242586D01*
X98116689Y-71060626D01*
X98161406Y-70882107D01*
X98164093Y-70872918D01*
X98223572Y-70695457D01*
X98224270Y-70693442D01*
X98285699Y-70521759D01*
X98288996Y-70513497D01*
X98364713Y-70342015D01*
X98366051Y-70339089D01*
X98375086Y-70319986D01*
X98443727Y-70174855D01*
X98447452Y-70167612D01*
X98538864Y-70003497D01*
X98540745Y-70000243D01*
X98634036Y-69844598D01*
X98638034Y-69838363D01*
X98744270Y-69683278D01*
X98746899Y-69679590D01*
X98854909Y-69533954D01*
X98859011Y-69528728D01*
X98979239Y-69383944D01*
X98982577Y-69380097D01*
X99104340Y-69245752D01*
X99108437Y-69241450D01*
X99241450Y-69108437D01*
X99245752Y-69104340D01*
X99380097Y-68982577D01*
X99383944Y-68979239D01*
X99528728Y-68859011D01*
X99533954Y-68854909D01*
X99679590Y-68746899D01*
X99683278Y-68744270D01*
X99838363Y-68638034D01*
X99844598Y-68634036D01*
X100000243Y-68540745D01*
X100003497Y-68538864D01*
X100167612Y-68447452D01*
X100174855Y-68443727D01*
X100339098Y-68366046D01*
X100342018Y-68364712D01*
X100406007Y-68336458D01*
X100513497Y-68288996D01*
X100521759Y-68285699D01*
X100693442Y-68224270D01*
X100695457Y-68223572D01*
X100872922Y-68164091D01*
X100882118Y-68161403D01*
X101060626Y-68116689D01*
X101242600Y-68073889D01*
X101252734Y-68071949D01*
X101436625Y-68044671D01*
X101619214Y-68019201D01*
X101630196Y-68018167D01*
X101826958Y-68008500D01*
X101988714Y-68001021D01*
X101997146Y-68000632D01*
X102002872Y-68000500D01*
X149871334Y-68000500D01*
X149938373Y-68020185D01*
G37*
%TD.AperFunction*%
%TA.AperFunction,Conductor*%
G36*
X113014854Y-78916545D02*
G01*
X113031572Y-78935838D01*
X113161505Y-79121401D01*
X113328599Y-79288495D01*
X113514160Y-79418426D01*
X113557783Y-79473002D01*
X113564976Y-79542501D01*
X113533454Y-79604855D01*
X113514158Y-79621575D01*
X113416044Y-79690276D01*
X113328595Y-79751508D01*
X113161505Y-79918598D01*
X113025965Y-80112170D01*
X112926097Y-80326336D01*
X112864936Y-80554592D01*
X112844340Y-80789999D01*
X112864936Y-81025407D01*
X112873401Y-81056997D01*
X112926097Y-81253663D01*
X113025965Y-81467830D01*
X113161505Y-81661401D01*
X113328599Y-81828495D01*
X113522170Y-81964035D01*
X113736337Y-82063903D01*
X113953407Y-82122066D01*
X113964592Y-82125063D01*
X114199999Y-82145659D01*
X114199999Y-82145658D01*
X114200000Y-82145659D01*
X114435408Y-82125063D01*
X114663663Y-82063903D01*
X114877830Y-81964035D01*
X115071401Y-81828495D01*
X115238495Y-81661401D01*
X115368426Y-81475839D01*
X115423002Y-81432217D01*
X115492501Y-81425024D01*
X115554855Y-81456546D01*
X115571571Y-81475837D01*
X115701505Y-81661401D01*
X115868599Y-81828495D01*
X116062170Y-81964035D01*
X116276337Y-82063903D01*
X116504592Y-82125063D01*
X116740000Y-82145659D01*
X116975408Y-82125063D01*
X117203663Y-82063903D01*
X117417830Y-81964035D01*
X117611401Y-81828495D01*
X117778495Y-81661401D01*
X117908426Y-81475839D01*
X117963002Y-81432216D01*
X118032500Y-81425022D01*
X118094855Y-81456545D01*
X118111571Y-81475837D01*
X118241505Y-81661401D01*
X118408599Y-81828495D01*
X118602170Y-81964035D01*
X118816337Y-82063903D01*
X119044592Y-82125063D01*
X119280000Y-82145659D01*
X119515408Y-82125063D01*
X119743663Y-82063903D01*
X119957830Y-81964035D01*
X120151401Y-81828495D01*
X120318495Y-81661401D01*
X120448427Y-81475838D01*
X120503001Y-81432216D01*
X120572499Y-81425022D01*
X120634854Y-81456545D01*
X120651572Y-81475838D01*
X120781505Y-81661401D01*
X120948599Y-81828495D01*
X121142170Y-81964035D01*
X121356337Y-82063903D01*
X121573407Y-82122066D01*
X121584592Y-82125063D01*
X121819999Y-82145659D01*
X121819999Y-82145658D01*
X121820000Y-82145659D01*
X122055408Y-82125063D01*
X122283663Y-82063903D01*
X122497830Y-81964035D01*
X122691401Y-81828495D01*
X122858495Y-81661401D01*
X122988426Y-81475839D01*
X123043002Y-81432217D01*
X123112501Y-81425024D01*
X123174855Y-81456546D01*
X123191571Y-81475837D01*
X123321505Y-81661401D01*
X123488599Y-81828495D01*
X123682170Y-81964035D01*
X123896337Y-82063903D01*
X124113407Y-82122066D01*
X124124592Y-82125063D01*
X124359999Y-82145659D01*
X124359999Y-82145658D01*
X124360000Y-82145659D01*
X124595408Y-82125063D01*
X124823663Y-82063903D01*
X125037830Y-81964035D01*
X125115980Y-81909312D01*
X125182183Y-81886986D01*
X125249951Y-81903995D01*
X125274783Y-81923207D01*
X148251281Y-104899705D01*
X148284766Y-104961028D01*
X148279782Y-105030720D01*
X148237910Y-105086653D01*
X148172446Y-105111070D01*
X148137820Y-105108676D01*
X148094649Y-105099500D01*
X148094646Y-105099500D01*
X147905354Y-105099500D01*
X147905352Y-105099500D01*
X147720197Y-105138855D01*
X147547269Y-105215848D01*
X147394129Y-105327110D01*
X147267466Y-105467783D01*
X147172820Y-105631715D01*
X147114326Y-105811742D01*
X147094540Y-106000000D01*
X147098821Y-106040731D01*
X147099500Y-106053692D01*
X147099500Y-111946306D01*
X147098821Y-111959266D01*
X147094540Y-112000000D01*
X147098820Y-112040733D01*
X147099499Y-112053692D01*
X147099500Y-114575638D01*
X147079815Y-114642677D01*
X147063181Y-114663319D01*
X145396622Y-116329878D01*
X145382209Y-116344289D01*
X145377508Y-116348751D01*
X145327108Y-116394132D01*
X145318869Y-116405472D01*
X145306235Y-116420264D01*
X130033320Y-131693181D01*
X129971997Y-131726666D01*
X129945639Y-131729500D01*
X101024500Y-131729500D01*
X100957461Y-131709815D01*
X100911706Y-131657011D01*
X100900500Y-131605500D01*
X100900500Y-82189105D01*
X100920185Y-82122066D01*
X100972989Y-82076311D01*
X101042147Y-82066367D01*
X101056581Y-82069327D01*
X101264592Y-82125063D01*
X101382296Y-82135361D01*
X101499999Y-82145659D01*
X101499999Y-82145658D01*
X101500000Y-82145659D01*
X101735408Y-82125063D01*
X101963663Y-82063903D01*
X102177830Y-81964035D01*
X102371401Y-81828495D01*
X102538495Y-81661401D01*
X102668426Y-81475839D01*
X102723002Y-81432216D01*
X102792500Y-81425022D01*
X102854855Y-81456545D01*
X102871571Y-81475837D01*
X103001505Y-81661401D01*
X103168599Y-81828495D01*
X103362170Y-81964035D01*
X103576337Y-82063903D01*
X103804592Y-82125063D01*
X104040000Y-82145659D01*
X104275408Y-82125063D01*
X104503663Y-82063903D01*
X104717830Y-81964035D01*
X104911401Y-81828495D01*
X105078495Y-81661401D01*
X105208426Y-81475839D01*
X105263002Y-81432217D01*
X105332501Y-81425024D01*
X105394855Y-81456546D01*
X105411571Y-81475837D01*
X105541505Y-81661401D01*
X105708599Y-81828495D01*
X105902170Y-81964035D01*
X106116337Y-82063903D01*
X106344592Y-82125063D01*
X106580000Y-82145659D01*
X106815408Y-82125063D01*
X107043663Y-82063903D01*
X107257830Y-81964035D01*
X107451401Y-81828495D01*
X107618495Y-81661401D01*
X107748426Y-81475839D01*
X107803002Y-81432216D01*
X107872500Y-81425022D01*
X107934855Y-81456545D01*
X107951571Y-81475837D01*
X108081505Y-81661401D01*
X108248599Y-81828495D01*
X108442170Y-81964035D01*
X108656337Y-82063903D01*
X108884592Y-82125063D01*
X109120000Y-82145659D01*
X109355408Y-82125063D01*
X109583663Y-82063903D01*
X109797830Y-81964035D01*
X109991401Y-81828495D01*
X110158495Y-81661401D01*
X110294035Y-81467830D01*
X110393903Y-81253663D01*
X110455063Y-81025408D01*
X110475659Y-80790000D01*
X110455063Y-80554592D01*
X110393903Y-80326337D01*
X110294035Y-80112171D01*
X110158495Y-79918599D01*
X109991401Y-79751505D01*
X109805839Y-79621573D01*
X109762216Y-79566998D01*
X109755022Y-79497500D01*
X109786545Y-79435145D01*
X109805837Y-79418428D01*
X109991401Y-79288495D01*
X110158495Y-79121401D01*
X110288426Y-78935839D01*
X110343002Y-78892216D01*
X110412500Y-78885022D01*
X110474855Y-78916545D01*
X110491571Y-78935837D01*
X110621505Y-79121401D01*
X110788599Y-79288495D01*
X110982170Y-79424035D01*
X111196337Y-79523903D01*
X111424592Y-79585063D01*
X111660000Y-79605659D01*
X111895408Y-79585063D01*
X112123663Y-79523903D01*
X112337830Y-79424035D01*
X112531401Y-79288495D01*
X112698495Y-79121401D01*
X112828427Y-78935838D01*
X112883001Y-78892216D01*
X112952499Y-78885022D01*
X113014854Y-78916545D01*
G37*
%TD.AperFunction*%
%TA.AperFunction,Conductor*%
G36*
X158392678Y-117920185D02*
G01*
X158413320Y-117936819D01*
X158488181Y-118011680D01*
X158521666Y-118073003D01*
X158524500Y-118099361D01*
X158524500Y-118896858D01*
X158524500Y-118896877D01*
X158524501Y-118900008D01*
X158524820Y-118903140D01*
X158524821Y-118903141D01*
X158535000Y-119002796D01*
X158590186Y-119169334D01*
X158682288Y-119318657D01*
X158806342Y-119442711D01*
X158806344Y-119442712D01*
X158955666Y-119534814D01*
X159033803Y-119560706D01*
X159122202Y-119589999D01*
X159221858Y-119600180D01*
X159221859Y-119600180D01*
X159224991Y-119600500D01*
X160775008Y-119600499D01*
X160877797Y-119589999D01*
X161044334Y-119534814D01*
X161110403Y-119494062D01*
X161177796Y-119475622D01*
X161244460Y-119496545D01*
X161289229Y-119550187D01*
X161299500Y-119599601D01*
X161299500Y-122215242D01*
X161279815Y-122282281D01*
X161227011Y-122328036D01*
X161157853Y-122337980D01*
X161094297Y-122308955D01*
X161087819Y-122302923D01*
X160996401Y-122211505D01*
X160802829Y-122075965D01*
X160588663Y-121976097D01*
X160360407Y-121914936D01*
X160186667Y-121899736D01*
X160186659Y-121899735D01*
X160183966Y-121899500D01*
X159816034Y-121899500D01*
X159813341Y-121899735D01*
X159813332Y-121899736D01*
X159639592Y-121914936D01*
X159411336Y-121976097D01*
X159197170Y-122075965D01*
X159003598Y-122211505D01*
X158836508Y-122378595D01*
X158836505Y-122378598D01*
X158836505Y-122378599D01*
X158719842Y-122545212D01*
X158700964Y-122572172D01*
X158601097Y-122786337D01*
X158539936Y-123014592D01*
X158519340Y-123249999D01*
X158539936Y-123485407D01*
X158593081Y-123683747D01*
X158601097Y-123713663D01*
X158700965Y-123927829D01*
X158836505Y-124121401D01*
X159003599Y-124288495D01*
X159160596Y-124398425D01*
X159204221Y-124453002D01*
X159211415Y-124522500D01*
X159179892Y-124584855D01*
X159160596Y-124601575D01*
X159003598Y-124711505D01*
X158836508Y-124878595D01*
X158836505Y-124878598D01*
X158836505Y-124878599D01*
X158711590Y-125056997D01*
X158700964Y-125072172D01*
X158601097Y-125286337D01*
X158539936Y-125514592D01*
X158519340Y-125749999D01*
X158539936Y-125985406D01*
X158570857Y-126100803D01*
X158569194Y-126170653D01*
X158538763Y-126220578D01*
X149522290Y-135237051D01*
X149516838Y-135242183D01*
X149471816Y-135282070D01*
X149437649Y-135331568D01*
X149433213Y-135337597D01*
X149396121Y-135384942D01*
X149391961Y-135394186D01*
X149380941Y-135413725D01*
X149375182Y-135422069D01*
X149353853Y-135478305D01*
X149350989Y-135485219D01*
X149326303Y-135540070D01*
X149324475Y-135550047D01*
X149318454Y-135571648D01*
X149314859Y-135581128D01*
X149307609Y-135640827D01*
X149306483Y-135648226D01*
X149295641Y-135707390D01*
X149299274Y-135767433D01*
X149299500Y-135774920D01*
X149299500Y-140658480D01*
X149279815Y-140725519D01*
X149263181Y-140746161D01*
X148691982Y-141317359D01*
X148630659Y-141350844D01*
X148560967Y-141345860D01*
X148505034Y-141303988D01*
X148491919Y-141282083D01*
X148413996Y-141114978D01*
X148394035Y-141072171D01*
X148258495Y-140878599D01*
X148091401Y-140711505D01*
X147905839Y-140581573D01*
X147862216Y-140526998D01*
X147855022Y-140457500D01*
X147886545Y-140395145D01*
X147905837Y-140378428D01*
X148091401Y-140248495D01*
X148258495Y-140081401D01*
X148394035Y-139887830D01*
X148493903Y-139673663D01*
X148555063Y-139445408D01*
X148575659Y-139210000D01*
X148555063Y-138974592D01*
X148493903Y-138746337D01*
X148394035Y-138532171D01*
X148258495Y-138338599D01*
X148091401Y-138171505D01*
X147897830Y-138035965D01*
X147683663Y-137936097D01*
X147622502Y-137919709D01*
X147455407Y-137874936D01*
X147220000Y-137854340D01*
X146984592Y-137874936D01*
X146756336Y-137936097D01*
X146542170Y-138035965D01*
X146348598Y-138171505D01*
X146181505Y-138338598D01*
X146051575Y-138524159D01*
X145996998Y-138567784D01*
X145927500Y-138574978D01*
X145865145Y-138543455D01*
X145848425Y-138524159D01*
X145825544Y-138491481D01*
X145718495Y-138338599D01*
X145551401Y-138171505D01*
X145357830Y-138035965D01*
X145143663Y-137936097D01*
X145082501Y-137919709D01*
X144915407Y-137874936D01*
X144679999Y-137854340D01*
X144444592Y-137874936D01*
X144216336Y-137936097D01*
X144002170Y-138035965D01*
X143808598Y-138171505D01*
X143641505Y-138338598D01*
X143511575Y-138524159D01*
X143456998Y-138567784D01*
X143387500Y-138574978D01*
X143325145Y-138543455D01*
X143308425Y-138524159D01*
X143285544Y-138491481D01*
X143178495Y-138338599D01*
X143011401Y-138171505D01*
X142817830Y-138035965D01*
X142603663Y-137936097D01*
X142542502Y-137919709D01*
X142375407Y-137874936D01*
X142140000Y-137854340D01*
X141904592Y-137874936D01*
X141676336Y-137936097D01*
X141462170Y-138035965D01*
X141268598Y-138171505D01*
X141101505Y-138338598D01*
X140971575Y-138524159D01*
X140916998Y-138567784D01*
X140847500Y-138574978D01*
X140785145Y-138543455D01*
X140768425Y-138524159D01*
X140745544Y-138491481D01*
X140638495Y-138338599D01*
X140471401Y-138171505D01*
X140277830Y-138035965D01*
X140063663Y-137936097D01*
X140002501Y-137919709D01*
X139835407Y-137874936D01*
X139599999Y-137854340D01*
X139364592Y-137874936D01*
X139136336Y-137936097D01*
X138922170Y-138035965D01*
X138728598Y-138171505D01*
X138561505Y-138338598D01*
X138431575Y-138524159D01*
X138376998Y-138567784D01*
X138307500Y-138574978D01*
X138245145Y-138543455D01*
X138228425Y-138524159D01*
X138205544Y-138491481D01*
X138098495Y-138338599D01*
X137931401Y-138171505D01*
X137737830Y-138035965D01*
X137523663Y-137936097D01*
X137462502Y-137919709D01*
X137295407Y-137874936D01*
X137060000Y-137854340D01*
X136824592Y-137874936D01*
X136596336Y-137936097D01*
X136382170Y-138035965D01*
X136188598Y-138171505D01*
X136021505Y-138338598D01*
X135891575Y-138524159D01*
X135836998Y-138567784D01*
X135767500Y-138574978D01*
X135705145Y-138543455D01*
X135688425Y-138524159D01*
X135665544Y-138491481D01*
X135558495Y-138338599D01*
X135391401Y-138171505D01*
X135197830Y-138035965D01*
X134983663Y-137936097D01*
X134922501Y-137919709D01*
X134755407Y-137874936D01*
X134519999Y-137854340D01*
X134284592Y-137874936D01*
X134056336Y-137936097D01*
X133842170Y-138035965D01*
X133648598Y-138171505D01*
X133481505Y-138338598D01*
X133351575Y-138524159D01*
X133296998Y-138567784D01*
X133227500Y-138574978D01*
X133165145Y-138543455D01*
X133148425Y-138524159D01*
X133125544Y-138491481D01*
X133018495Y-138338599D01*
X132851401Y-138171505D01*
X132657830Y-138035965D01*
X132443663Y-137936097D01*
X132382502Y-137919709D01*
X132215407Y-137874936D01*
X131979999Y-137854340D01*
X131744592Y-137874936D01*
X131516336Y-137936097D01*
X131302170Y-138035965D01*
X131108598Y-138171505D01*
X130941505Y-138338598D01*
X130811575Y-138524159D01*
X130756998Y-138567784D01*
X130687500Y-138574978D01*
X130625145Y-138543455D01*
X130608425Y-138524159D01*
X130585544Y-138491481D01*
X130478495Y-138338599D01*
X130311401Y-138171505D01*
X130117830Y-138035965D01*
X129903663Y-137936097D01*
X129842501Y-137919709D01*
X129675407Y-137874936D01*
X129440000Y-137854340D01*
X129204592Y-137874936D01*
X128976336Y-137936097D01*
X128762170Y-138035965D01*
X128568598Y-138171505D01*
X128401505Y-138338598D01*
X128265965Y-138532170D01*
X128166097Y-138746336D01*
X128104936Y-138974592D01*
X128084340Y-139210000D01*
X128104936Y-139445407D01*
X128128158Y-139532072D01*
X128166097Y-139673663D01*
X128265965Y-139887830D01*
X128401505Y-140081401D01*
X128568599Y-140248495D01*
X128754160Y-140378426D01*
X128797783Y-140433002D01*
X128804976Y-140502501D01*
X128773454Y-140564855D01*
X128754159Y-140581575D01*
X128568595Y-140711508D01*
X128401505Y-140878598D01*
X128271575Y-141064159D01*
X128216998Y-141107784D01*
X128147500Y-141114978D01*
X128085145Y-141083455D01*
X128068425Y-141064159D01*
X127938494Y-140878598D01*
X127771404Y-140711508D01*
X127771401Y-140711505D01*
X127577830Y-140575965D01*
X127363663Y-140476097D01*
X127294257Y-140457500D01*
X127135407Y-140414936D01*
X126899999Y-140394340D01*
X126664592Y-140414936D01*
X126436336Y-140476097D01*
X126222170Y-140575965D01*
X126028598Y-140711505D01*
X125861505Y-140878598D01*
X125725965Y-141072170D01*
X125626097Y-141286336D01*
X125564936Y-141514592D01*
X125544340Y-141749999D01*
X125564936Y-141985407D01*
X125609709Y-142152501D01*
X125626097Y-142213663D01*
X125641455Y-142246598D01*
X125725965Y-142427831D01*
X125774312Y-142496877D01*
X125796639Y-142563083D01*
X125779629Y-142630850D01*
X125728681Y-142678663D01*
X125672737Y-142692000D01*
X123047263Y-142692000D01*
X122980224Y-142672315D01*
X122934469Y-142619511D01*
X122924525Y-142550353D01*
X122945688Y-142496877D01*
X122987867Y-142436639D01*
X122994035Y-142427830D01*
X123093903Y-142213663D01*
X123155063Y-141985408D01*
X123175659Y-141750000D01*
X123155063Y-141514592D01*
X123093903Y-141286337D01*
X122994035Y-141072171D01*
X122858495Y-140878599D01*
X122691401Y-140711505D01*
X122505839Y-140581573D01*
X122462216Y-140526998D01*
X122455022Y-140457500D01*
X122486545Y-140395145D01*
X122505837Y-140378428D01*
X122691401Y-140248495D01*
X122858495Y-140081401D01*
X122994035Y-139887830D01*
X123093903Y-139673663D01*
X123155063Y-139445408D01*
X123175659Y-139210000D01*
X123155063Y-138974592D01*
X123093903Y-138746337D01*
X122994035Y-138532171D01*
X122858495Y-138338599D01*
X122691401Y-138171505D01*
X122497830Y-138035965D01*
X122283663Y-137936097D01*
X122222502Y-137919709D01*
X122055407Y-137874936D01*
X121819999Y-137854340D01*
X121584592Y-137874936D01*
X121356336Y-137936097D01*
X121142170Y-138035965D01*
X120948598Y-138171505D01*
X120781505Y-138338598D01*
X120651575Y-138524159D01*
X120596998Y-138567784D01*
X120527500Y-138574978D01*
X120465145Y-138543455D01*
X120448425Y-138524159D01*
X120425544Y-138491481D01*
X120318495Y-138338599D01*
X120151401Y-138171505D01*
X119957830Y-138035965D01*
X119743663Y-137936097D01*
X119682502Y-137919709D01*
X119515407Y-137874936D01*
X119279999Y-137854340D01*
X119044592Y-137874936D01*
X118816336Y-137936097D01*
X118602170Y-138035965D01*
X118408598Y-138171505D01*
X118241505Y-138338598D01*
X118111575Y-138524159D01*
X118056998Y-138567784D01*
X117987500Y-138574978D01*
X117925145Y-138543455D01*
X117908425Y-138524159D01*
X117885544Y-138491481D01*
X117778495Y-138338599D01*
X117611401Y-138171505D01*
X117417830Y-138035965D01*
X117203663Y-137936097D01*
X117142501Y-137919709D01*
X116975407Y-137874936D01*
X116740000Y-137854340D01*
X116504592Y-137874936D01*
X116276336Y-137936097D01*
X116062170Y-138035965D01*
X115868598Y-138171505D01*
X115701505Y-138338598D01*
X115571575Y-138524159D01*
X115516998Y-138567784D01*
X115447500Y-138574978D01*
X115385145Y-138543455D01*
X115368425Y-138524159D01*
X115345544Y-138491481D01*
X115238495Y-138338599D01*
X115071401Y-138171505D01*
X114877830Y-138035965D01*
X114663663Y-137936097D01*
X114602502Y-137919709D01*
X114435407Y-137874936D01*
X114200000Y-137854340D01*
X113964592Y-137874936D01*
X113736336Y-137936097D01*
X113522170Y-138035965D01*
X113328598Y-138171505D01*
X113161505Y-138338598D01*
X113031575Y-138524159D01*
X112976998Y-138567784D01*
X112907500Y-138574978D01*
X112845145Y-138543455D01*
X112828425Y-138524159D01*
X112805544Y-138491481D01*
X112698495Y-138338599D01*
X112531401Y-138171505D01*
X112337830Y-138035965D01*
X112123663Y-137936097D01*
X112062502Y-137919709D01*
X111895407Y-137874936D01*
X111659999Y-137854340D01*
X111424592Y-137874936D01*
X111196336Y-137936097D01*
X110982170Y-138035965D01*
X110788598Y-138171505D01*
X110621505Y-138338598D01*
X110485965Y-138532170D01*
X110386097Y-138746336D01*
X110324936Y-138974592D01*
X110304340Y-139210000D01*
X110324936Y-139445407D01*
X110348158Y-139532072D01*
X110386097Y-139673663D01*
X110485965Y-139887830D01*
X110621505Y-140081401D01*
X110788599Y-140248495D01*
X110974160Y-140378426D01*
X111017783Y-140433002D01*
X111024976Y-140502501D01*
X110993454Y-140564855D01*
X110974159Y-140581575D01*
X110788595Y-140711508D01*
X110621505Y-140878598D01*
X110491575Y-141064159D01*
X110436998Y-141107784D01*
X110367500Y-141114978D01*
X110305145Y-141083455D01*
X110288425Y-141064159D01*
X110158494Y-140878598D01*
X109991404Y-140711508D01*
X109991401Y-140711505D01*
X109797830Y-140575965D01*
X109583663Y-140476097D01*
X109514257Y-140457500D01*
X109355407Y-140414936D01*
X109120000Y-140394340D01*
X108884592Y-140414936D01*
X108656336Y-140476097D01*
X108442170Y-140575965D01*
X108248598Y-140711505D01*
X108081508Y-140878595D01*
X107951574Y-141064160D01*
X107896997Y-141107785D01*
X107827498Y-141114977D01*
X107765144Y-141083455D01*
X107748429Y-141064164D01*
X107618495Y-140878599D01*
X107451401Y-140711505D01*
X107265839Y-140581573D01*
X107222216Y-140526998D01*
X107215022Y-140457500D01*
X107246545Y-140395145D01*
X107265837Y-140378428D01*
X107451401Y-140248495D01*
X107618495Y-140081401D01*
X107754035Y-139887830D01*
X107853903Y-139673663D01*
X107915063Y-139445408D01*
X107935659Y-139210000D01*
X107915063Y-138974592D01*
X107853903Y-138746337D01*
X107754035Y-138532171D01*
X107618495Y-138338599D01*
X107451401Y-138171505D01*
X107257830Y-138035965D01*
X107043663Y-137936097D01*
X106982501Y-137919709D01*
X106815407Y-137874936D01*
X106580001Y-137854340D01*
X106562046Y-137855911D01*
X106493547Y-137842141D01*
X106463562Y-137820063D01*
X102385680Y-133742181D01*
X102352195Y-133680858D01*
X102357179Y-133611166D01*
X102399051Y-133555233D01*
X102464515Y-133530816D01*
X102473361Y-133530500D01*
X116582808Y-133530500D01*
X130289374Y-133530500D01*
X130308771Y-133532026D01*
X130322612Y-133534219D01*
X130390336Y-133530670D01*
X130396826Y-133530500D01*
X130413952Y-133530500D01*
X130417192Y-133530500D01*
X130420413Y-133530161D01*
X130420421Y-133530161D01*
X130437447Y-133528371D01*
X130443906Y-133527862D01*
X130511646Y-133524313D01*
X130525193Y-133520682D01*
X130544309Y-133517139D01*
X130558256Y-133515674D01*
X130622786Y-133494706D01*
X130628951Y-133492880D01*
X130694488Y-133475320D01*
X130706974Y-133468956D01*
X130724953Y-133461509D01*
X130738284Y-133457179D01*
X130797051Y-133423248D01*
X130802677Y-133420193D01*
X130863149Y-133389383D01*
X130874042Y-133380560D01*
X130890074Y-133369542D01*
X130902216Y-133362533D01*
X130952638Y-133317131D01*
X130957540Y-133312945D01*
X130973380Y-133300119D01*
X130987779Y-133285718D01*
X130992471Y-133281265D01*
X131042888Y-133235871D01*
X131051129Y-133224526D01*
X131063760Y-133209737D01*
X146336679Y-117936819D01*
X146398003Y-117903334D01*
X146424361Y-117900500D01*
X158325639Y-117900500D01*
X158392678Y-117920185D01*
G37*
%TD.AperFunction*%
%TD*%
M02*
