%TF.GenerationSoftware,KiCad,Pcbnew,7.0.2*%
%TF.CreationDate,2024-08-11T10:44:14+09:00*%
%TF.ProjectId,sensor_v3,73656e73-6f72-45f7-9633-2e6b69636164,rev?*%
%TF.SameCoordinates,Original*%
%TF.FileFunction,Copper,L2,Bot*%
%TF.FilePolarity,Positive*%
%FSLAX46Y46*%
G04 Gerber Fmt 4.6, Leading zero omitted, Abs format (unit mm)*
G04 Created by KiCad (PCBNEW 7.0.2) date 2024-08-11 10:44:14*
%MOMM*%
%LPD*%
G01*
G04 APERTURE LIST*
G04 Aperture macros list*
%AMRoundRect*
0 Rectangle with rounded corners*
0 $1 Rounding radius*
0 $2 $3 $4 $5 $6 $7 $8 $9 X,Y pos of 4 corners*
0 Add a 4 corners polygon primitive as box body*
4,1,4,$2,$3,$4,$5,$6,$7,$8,$9,$2,$3,0*
0 Add four circle primitives for the rounded corners*
1,1,$1+$1,$2,$3*
1,1,$1+$1,$4,$5*
1,1,$1+$1,$6,$7*
1,1,$1+$1,$8,$9*
0 Add four rect primitives between the rounded corners*
20,1,$1+$1,$2,$3,$4,$5,0*
20,1,$1+$1,$4,$5,$6,$7,0*
20,1,$1+$1,$6,$7,$8,$9,0*
20,1,$1+$1,$8,$9,$2,$3,0*%
G04 Aperture macros list end*
%TA.AperFunction,ComponentPad*%
%ADD10RoundRect,0.250000X0.725000X-0.600000X0.725000X0.600000X-0.725000X0.600000X-0.725000X-0.600000X0*%
%TD*%
%TA.AperFunction,ComponentPad*%
%ADD11O,1.950000X1.700000*%
%TD*%
%TA.AperFunction,ComponentPad*%
%ADD12RoundRect,0.250000X-0.600000X-0.725000X0.600000X-0.725000X0.600000X0.725000X-0.600000X0.725000X0*%
%TD*%
%TA.AperFunction,ComponentPad*%
%ADD13O,1.700000X1.950000*%
%TD*%
%TA.AperFunction,ComponentPad*%
%ADD14R,1.600000X1.500000*%
%TD*%
%TA.AperFunction,ComponentPad*%
%ADD15C,1.600000*%
%TD*%
%TA.AperFunction,ComponentPad*%
%ADD16C,3.000000*%
%TD*%
%TA.AperFunction,ComponentPad*%
%ADD17R,1.600000X1.600000*%
%TD*%
%TA.AperFunction,ComponentPad*%
%ADD18C,4.000000*%
%TD*%
%TA.AperFunction,ComponentPad*%
%ADD19C,1.700000*%
%TD*%
%TA.AperFunction,Conductor*%
%ADD20C,1.000000*%
%TD*%
G04 APERTURE END LIST*
D10*
%TO.P,J5,1,Pin_1*%
%TO.N,A0*%
X206352000Y-115510000D03*
D11*
%TO.P,J5,2,Pin_2*%
%TO.N,+5V*%
X206352000Y-113010000D03*
%TO.P,J5,3,Pin_3*%
%TO.N,A1*%
X206352000Y-110510000D03*
%TO.P,J5,4,Pin_4*%
%TO.N,GND*%
X206352000Y-108010000D03*
%TD*%
D12*
%TO.P,J9,1,Pin_1*%
%TO.N,GND*%
X131592000Y-120327330D03*
D13*
%TO.P,J9,2,Pin_2*%
%TO.N,B15*%
X134092000Y-120327330D03*
%TD*%
D12*
%TO.P,J3,1,Pin_1*%
%TO.N,GND*%
X177078000Y-120142000D03*
D13*
%TO.P,J3,2,Pin_2*%
%TO.N,A6*%
X179578000Y-120142000D03*
%TD*%
D14*
%TO.P,J11,1,VBUS*%
%TO.N,+5V*%
X186922000Y-45890000D03*
D15*
%TO.P,J11,2,D-*%
%TO.N,A10*%
X184422000Y-45890000D03*
%TO.P,J11,3,D+*%
%TO.N,A9*%
X182422000Y-45890000D03*
%TO.P,J11,4,GND*%
%TO.N,GND*%
X179922000Y-45890000D03*
D16*
%TO.P,J11,5,Shield*%
X189992000Y-43180000D03*
X176852000Y-43180000D03*
%TD*%
D10*
%TO.P,J14,1,Pin_1*%
%TO.N,+5V*%
X213868000Y-52712000D03*
D11*
%TO.P,J14,2,Pin_2*%
%TO.N,GND*%
X213868000Y-50212000D03*
%TO.P,J14,3,Pin_3*%
%TO.N,C11*%
X213868000Y-47712000D03*
%TO.P,J14,4,Pin_4*%
%TO.N,C10*%
X213868000Y-45212000D03*
%TD*%
D12*
%TO.P,J2,1,Pin_1*%
%TO.N,GND*%
X159024000Y-120290000D03*
D13*
%TO.P,J2,2,Pin_2*%
%TO.N,A8*%
X161524000Y-120290000D03*
%TD*%
D10*
%TO.P,J8,1,Pin_1*%
%TO.N,C6*%
X206332000Y-66760000D03*
D11*
%TO.P,J8,2,Pin_2*%
%TO.N,+5V*%
X206332000Y-64260000D03*
%TO.P,J8,3,Pin_3*%
%TO.N,C7*%
X206332000Y-61760000D03*
%TO.P,J8,4,Pin_4*%
%TO.N,GND*%
X206332000Y-59260000D03*
%TD*%
D12*
%TO.P,J4,1,Pin_1*%
%TO.N,GND*%
X194838000Y-120290000D03*
D13*
%TO.P,J4,2,Pin_2*%
%TO.N,B8*%
X197338000Y-120290000D03*
%TD*%
D17*
%TO.P,J12,1,VBUS*%
%TO.N,+5V*%
X200268000Y-47786000D03*
D15*
%TO.P,J12,2,D-*%
%TO.N,C10*%
X202768000Y-47786000D03*
%TO.P,J12,3,D+*%
%TO.N,C11*%
X202768000Y-45786000D03*
%TO.P,J12,4,GND*%
%TO.N,GND*%
X200268000Y-45786000D03*
D18*
%TO.P,J12,5,Shield*%
X195518000Y-42926000D03*
X207518000Y-42926000D03*
%TD*%
D12*
%TO.P,J13,1,Pin_1*%
%TO.N,+5V*%
X179952000Y-53848000D03*
D13*
%TO.P,J13,2,Pin_2*%
%TO.N,GND*%
X182452000Y-53848000D03*
%TO.P,J13,3,Pin_3*%
%TO.N,A9*%
X184952000Y-53848000D03*
%TO.P,J13,4,Pin_4*%
%TO.N,A10*%
X187452000Y-53848000D03*
%TD*%
D12*
%TO.P,J15,1,Pin_1*%
%TO.N,GND*%
X149880000Y-120290000D03*
D13*
%TO.P,J15,2,Pin_2*%
%TO.N,A11*%
X152380000Y-120290000D03*
%TD*%
D12*
%TO.P,J1,1,Pin_1*%
%TO.N,GND*%
X140736000Y-120290000D03*
D13*
%TO.P,J1,2,Pin_2*%
%TO.N,B14*%
X143236000Y-120290000D03*
%TD*%
D12*
%TO.P,J16,1,Pin_1*%
%TO.N,GND*%
X167914000Y-120290000D03*
D13*
%TO.P,J16,2,Pin_2*%
%TO.N,A7*%
X170414000Y-120290000D03*
%TD*%
D10*
%TO.P,J6,1,Pin_1*%
%TO.N,B3*%
X206352000Y-99510000D03*
D11*
%TO.P,J6,2,Pin_2*%
%TO.N,+5V*%
X206352000Y-97010000D03*
%TO.P,J6,3,Pin_3*%
%TO.N,A5*%
X206352000Y-94510000D03*
%TO.P,J6,4,Pin_4*%
%TO.N,GND*%
X206352000Y-92010000D03*
%TD*%
D12*
%TO.P,J17,1,Pin_1*%
%TO.N,GND*%
X185948000Y-120290000D03*
D13*
%TO.P,J17,2,Pin_2*%
%TO.N,B9*%
X188448000Y-120290000D03*
%TD*%
D10*
%TO.P,J7,1,Pin_1*%
%TO.N,B6*%
X206352000Y-83760000D03*
D11*
%TO.P,J7,2,Pin_2*%
%TO.N,+5V*%
X206352000Y-81260000D03*
%TO.P,J7,3,Pin_3*%
%TO.N,B7*%
X206352000Y-78760000D03*
%TO.P,J7,4,Pin_4*%
%TO.N,GND*%
X206352000Y-76260000D03*
%TD*%
D19*
%TO.P,U1,1,RESET*%
%TO.N,unconnected-(U1-RESET-Pad1)*%
X139954000Y-105156000D03*
%TO.P,U1,2,BOOT0*%
%TO.N,unconnected-(U1-BOOT0-Pad2)*%
X132334000Y-107696000D03*
%TO.P,U1,3,IOREF*%
%TO.N,unconnected-(U1-IOREF-Pad3)*%
X137414000Y-105156000D03*
%TO.P,U1,4,AVDD*%
%TO.N,unconnected-(U1-AVDD-Pad4)*%
X132334000Y-46736000D03*
%TO.P,U1,5,VDD*%
%TO.N,unconnected-(U1-VDD-Pad5)*%
X129794000Y-107696000D03*
%TO.P,U1,6,VBAT*%
%TO.N,unconnected-(U1-VBAT-Pad6)*%
X165354000Y-107696000D03*
%TO.P,U1,7,VIN*%
%TO.N,unconnected-(U1-VIN-Pad7)*%
X152654000Y-105156000D03*
%TO.P,U1,8,U5V*%
%TO.N,+5V*%
X132334000Y-44196000D03*
%TO.P,U1,9,E5V*%
X129794000Y-105156000D03*
%TO.P,U1,10,+5V*%
X145034000Y-105156000D03*
%TO.P,U1,11,+3V3*%
%TO.N,unconnected-(U1-+3V3-Pad11)*%
X142494000Y-105156000D03*
%TO.P,U1,12,PA0(TIM2_CH1/TIM5_CH1/UART4_TX)*%
%TO.N,A0*%
X157734000Y-105156000D03*
%TO.P,U1,13,PA1(TIM2_CH2/TIM5CH2/UART4_RX)*%
%TO.N,A1*%
X160274000Y-105156000D03*
%TO.P,U1,14,PA2(TIM2_CH3/TIM5_CH3/TIM9_CH1/USART2_TX)*%
%TO.N,A2*%
X167894000Y-46736000D03*
%TO.P,U1,15,PA3(TIM2_CH4/TIM5_CH4/TIM9_CH2/USART2_RX)*%
%TO.N,A3*%
X170434000Y-46736000D03*
%TO.P,U1,16,PA4*%
%TO.N,unconnected-(U1-PA4-Pad16)*%
X162814000Y-105156000D03*
%TO.P,U1,17,PA5(TIM2_CH1)*%
%TO.N,A5*%
X137414000Y-46736000D03*
%TO.P,U1,18,PA6(TIM3_CH1/TIM13_CH1)*%
%TO.N,A6*%
X139954000Y-46736000D03*
%TO.P,U1,19,PA7(TIM3_CH2/TIM14_CH1)*%
%TO.N,A7*%
X142494000Y-46736000D03*
%TO.P,U1,20,PA8(TIM1_CH1/12C3_SCL)*%
%TO.N,A8*%
X152654000Y-46736000D03*
%TO.P,U1,21,PA9(TIM1_CH2/USART1_TX)*%
%TO.N,A9*%
X150114000Y-46736000D03*
%TO.P,U1,22,PA10(TIM1_CH3/USART1_RX)*%
%TO.N,A10*%
X165354000Y-46736000D03*
%TO.P,U1,23,PA11(TIM1_CH4/CAN1_RX)*%
%TO.N,A11*%
X139954000Y-44196000D03*
%TO.P,U1,24,PA12(CAN1_TX)*%
%TO.N,unconnected-(U1-PA12(CAN1_TX)-Pad24)*%
X137414000Y-44196000D03*
%TO.P,U1,25,PA13(JTCK-SWDIO)*%
%TO.N,unconnected-(U1-PA13(JTCK-SWDIO)-Pad25)*%
X139954000Y-107696000D03*
%TO.P,U1,26,PA14(JTCK-SWCLK)*%
%TO.N,unconnected-(U1-PA14(JTCK-SWCLK)-Pad26)*%
X142494000Y-107696000D03*
%TO.P,U1,27,PA15(TIM2_CH1)*%
%TO.N,unconnected-(U1-PA15(TIM2_CH1)-Pad27)*%
X145034000Y-107696000D03*
%TO.P,U1,28,PD2(UART5_RX)*%
%TO.N,unconnected-(U1-PD2(UART5_RX)-Pad28)*%
X127254000Y-105156000D03*
%TO.P,U1,29,PH0*%
%TO.N,unconnected-(U1-PH0-Pad29)*%
X160274000Y-107696000D03*
%TO.P,U1,30,PH1*%
%TO.N,unconnected-(U1-PH1-Pad30)*%
X162814000Y-107696000D03*
%TO.P,U1,31,(TIM3_CH3)PB0*%
%TO.N,B0*%
X165354000Y-105156000D03*
%TO.P,U1,32,(TIM3_CH4)PB1*%
%TO.N,B1*%
X152654000Y-44196000D03*
%TO.P,U1,33,(TIM2_CH4)PB2*%
%TO.N,B2*%
X150114000Y-44196000D03*
%TO.P,U1,34,(TIM3_CH1/12C2_SDA)PB3*%
%TO.N,B3*%
X162814000Y-46736000D03*
%TO.P,U1,35,(TIM3_CH1/12C3_SDA)PB4*%
%TO.N,unconnected-(U1-(TIM3_CH1{slash}12C3_SDA)PB4-Pad35)*%
X157734000Y-46736000D03*
%TO.P,U1,36,(TIM3_CH2/CAN2_RX)PB5*%
%TO.N,unconnected-(U1-(TIM3_CH2{slash}CAN2_RX)PB5-Pad36)*%
X160274000Y-46736000D03*
%TO.P,U1,37,(TIM4_CH1/12C1_SCL/USART1_TX/CAN2_TX)PB6*%
%TO.N,B6*%
X145034000Y-46736000D03*
%TO.P,U1,38,(TIM4_CH2/12C1_SDA/USART1_RX)PB7*%
%TO.N,B7*%
X150114000Y-107696000D03*
%TO.P,U1,39,(TIM2_CH1/TIM4_CH3/TIM10_CH1/12C1_SCL/CAN1_RX)PB8*%
%TO.N,B8*%
X127254000Y-46736000D03*
%TO.P,U1,40,(TIM2_CH2/TIM4_CH4/TIM11_CH1/12C1_SDA/CAN1_TX)PB9*%
%TO.N,B9*%
X129794000Y-46736000D03*
%TO.P,U1,41,(TIM_2CH3/12C2_SCL/USART3_RX)PB10*%
%TO.N,unconnected-(U1-(TIM_2CH3{slash}12C2_SCL{slash}USART3_RX)PB10-Pad41)*%
X155194000Y-46736000D03*
%TO.P,U1,42,(CAN2_RX)PB12*%
%TO.N,unconnected-(U1-(CAN2_RX)PB12-Pad42)*%
X142494000Y-44196000D03*
%TO.P,U1,43,(CAN2_TX)PB13*%
%TO.N,unconnected-(U1-(CAN2_TX)PB13-Pad43)*%
X160274000Y-44196000D03*
%TO.P,U1,44,(TIM12_CH1)PB14*%
%TO.N,B14*%
X157734000Y-44196000D03*
%TO.P,U1,45,(TIM12_CH2)PB15*%
%TO.N,B15*%
X155194000Y-44196000D03*
%TO.P,U1,46,PC0(PB9)*%
%TO.N,Net-(U1-PC0(PB9))*%
X170434000Y-105156000D03*
%TO.P,U1,47,PC1(PB9)*%
%TO.N,Net-(U1-PC1(PB9))*%
X167894000Y-105156000D03*
%TO.P,U1,48,PC2*%
%TO.N,Net-(U1-PC2)*%
X167894000Y-107696000D03*
%TO.P,U1,49,PC3*%
%TO.N,Net-(U1-PC3)*%
X170434000Y-107696000D03*
%TO.P,U1,50,PC4*%
%TO.N,unconnected-(U1-PC4-Pad50)*%
X165354000Y-44196000D03*
%TO.P,U1,51,(USART3_RX)PC5*%
%TO.N,unconnected-(U1-(USART3_RX)PC5-Pad51)*%
X129794000Y-44196000D03*
%TO.P,U1,52,(TIM3_CH1/TIM8_CH1/USART6_TX)PC6*%
%TO.N,C6*%
X127254000Y-44196000D03*
%TO.P,U1,53,(TIM3_CH2/TIM8_CH2/USART6_RX)PC7*%
%TO.N,C7*%
X147574000Y-46736000D03*
%TO.P,U1,54,(TIM3_CH3/TIM8_CH3)PC8*%
%TO.N,C8*%
X124714000Y-44196000D03*
%TO.P,U1,55,(TIM3_CH4/TIM8_CH4/12C3_SDA)PC9*%
%TO.N,C9*%
X124714000Y-46736000D03*
%TO.P,U1,56,(USART3_TX/UART4_TX)PC10*%
%TO.N,C10*%
X124714000Y-107696000D03*
%TO.P,U1,57,(USART3_RX/UART4_RX)PC11*%
%TO.N,C11*%
X124714000Y-105156000D03*
%TO.P,U1,58,(12C2_SDA/UART5_TX)PC12*%
%TO.N,unconnected-(U1-(12C2_SDA{slash}UART5_TX)PC12-Pad58)*%
X127254000Y-107696000D03*
%TO.P,U1,59,PC13*%
%TO.N,unconnected-(U1-PC13-Pad59)*%
X152654000Y-107696000D03*
%TO.P,U1,60,PC14*%
%TO.N,unconnected-(U1-PC14-Pad60)*%
X155194000Y-107696000D03*
%TO.P,U1,61,PC15*%
%TO.N,unconnected-(U1-PC15-Pad61)*%
X157734000Y-107696000D03*
%TO.P,U1,62,GND*%
%TO.N,GND*%
X147574000Y-107696000D03*
X132334000Y-105156000D03*
X147574000Y-105156000D03*
X150114000Y-105156000D03*
X134874000Y-46736000D03*
X147574000Y-44196000D03*
X162814000Y-44196000D03*
%TO.P,U1,63*%
%TO.N,N/C*%
X137414000Y-107696000D03*
%TO.P,U1,64*%
X134874000Y-105156000D03*
%TO.P,U1,65*%
X134874000Y-107696000D03*
%TO.P,U1,66*%
X155194000Y-105156000D03*
%TO.P,U1,67*%
X134874000Y-44196000D03*
%TO.P,U1,68*%
X145034000Y-44196000D03*
%TO.P,U1,69*%
X167894000Y-44196000D03*
%TO.P,U1,70*%
X170434000Y-44196000D03*
%TD*%
D20*
%TO.N,GND*%
X179922000Y-49874000D02*
X182452000Y-52404000D01*
X216662000Y-44090260D02*
X216662000Y-47418000D01*
X209518000Y-40926000D02*
X213497740Y-40926000D01*
X182452000Y-52404000D02*
X182452000Y-53848000D01*
X213497740Y-40926000D02*
X216662000Y-44090260D01*
X216662000Y-47418000D02*
X213868000Y-50212000D01*
X179922000Y-45890000D02*
X179922000Y-49874000D01*
X207518000Y-42926000D02*
X209518000Y-40926000D01*
%TO.N,C6*%
X206332000Y-66760000D02*
X206290000Y-66802000D01*
%TO.N,C10*%
X211294000Y-47786000D02*
X202768000Y-47786000D01*
X213868000Y-45212000D02*
X211294000Y-47786000D01*
%TO.N,C11*%
X213120686Y-43709600D02*
X214651600Y-43709600D01*
X215495400Y-44553400D02*
X215495400Y-46084600D01*
X214651600Y-43709600D02*
X215495400Y-44553400D01*
X215495400Y-46084600D02*
X213868000Y-47712000D01*
X211044286Y-45786000D02*
X213120686Y-43709600D01*
X202768000Y-45786000D02*
X211044286Y-45786000D01*
%TO.N,+5V*%
X206352000Y-81260000D02*
X207979400Y-79632600D01*
X181579400Y-55475400D02*
X179952000Y-53848000D01*
X206990000Y-81260000D02*
X206352000Y-81260000D01*
X188954400Y-47922400D02*
X188954400Y-54631600D01*
X188954400Y-54631600D02*
X188110600Y-55475400D01*
X200268000Y-47786000D02*
X200268000Y-49586000D01*
X206738000Y-97010000D02*
X206352000Y-97010000D01*
X207979400Y-98251400D02*
X206738000Y-97010000D01*
X206332000Y-64260000D02*
X213868000Y-56724000D01*
X188110600Y-55475400D02*
X181579400Y-55475400D01*
X200268000Y-49586000D02*
X203394000Y-52712000D01*
X206352000Y-97010000D02*
X207979400Y-95382600D01*
X207979400Y-65806214D02*
X206433186Y-64260000D01*
X203394000Y-52712000D02*
X213868000Y-52712000D01*
X186922000Y-45890000D02*
X188954400Y-47922400D01*
X213868000Y-56724000D02*
X213868000Y-52712000D01*
X207979400Y-82249400D02*
X206990000Y-81260000D01*
X207979400Y-79632600D02*
X207979400Y-65806214D01*
X206352000Y-113010000D02*
X207979400Y-111382600D01*
X206433186Y-64260000D02*
X206332000Y-64260000D01*
X207979400Y-111382600D02*
X207979400Y-98251400D01*
X207979400Y-95382600D02*
X207979400Y-82249400D01*
%TO.N,A9*%
X184952000Y-52110000D02*
X184952000Y-53848000D01*
X182422000Y-45890000D02*
X182422000Y-49580000D01*
X182422000Y-49580000D02*
X184952000Y-52110000D01*
%TO.N,A10*%
X187452000Y-51816000D02*
X187452000Y-53848000D01*
X184422000Y-45890000D02*
X184422000Y-48786000D01*
X184422000Y-48786000D02*
X187452000Y-51816000D01*
%TD*%
M02*
