M48
; DRILL file {KiCad 7.0.2} date Sun Aug 11 10:44:16 2024
; FORMAT={-:-/ absolute / inch / decimal}
; #@! TF.CreationDate,2024-08-11T10:44:16+09:00
; #@! TF.GenerationSoftware,Kicad,Pcbnew,7.0.2
; #@! TF.FileFunction,Plated,1,2,PTH
FMAT,2
INCH
; #@! TA.AperFunction,Plated,PTH,ComponentDrill
T1C0.0374
; #@! TA.AperFunction,Plated,PTH,ComponentDrill
T2C0.0394
; #@! TA.AperFunction,Plated,PTH,ComponentDrill
T3C0.0906
%
G90
G05
T1
X5.1808Y-4.7373
X5.2792Y-4.7373
X5.5408Y-4.7358
X5.6392Y-4.7358
X5.9008Y-4.7358
X5.9992Y-4.7358
X6.2608Y-4.7358
X6.3592Y-4.7358
X6.6108Y-4.7358
X6.7092Y-4.7358
X6.9716Y-4.73
X7.07Y-4.73
X7.0835Y-1.8067
X7.0847Y-2.12
X7.182Y-1.8067
X7.1831Y-2.12
X7.2607Y-1.8067
X7.2816Y-2.12
X7.3208Y-4.7358
X7.3591Y-1.8067
X7.38Y-2.12
X7.4192Y-4.7358
X7.6708Y-4.7358
X7.7692Y-4.7358
X7.8846Y-1.8026
X7.8846Y-1.8813
X7.983Y-1.8026
X7.983Y-1.8813
X8.1233Y-2.3331
X8.1233Y-2.4315
X8.1233Y-2.5299
X8.1233Y-2.6283
X8.1241Y-3.0024
X8.1241Y-3.1008
X8.1241Y-3.1992
X8.1241Y-3.2976
X8.1241Y-3.6224
X8.1241Y-3.7209
X8.1241Y-3.8193
X8.1241Y-3.9177
X8.1241Y-4.2524
X8.1241Y-4.3508
X8.1241Y-4.4492
X8.1241Y-4.5476
X8.42Y-1.78
X8.42Y-1.8784
X8.42Y-1.9769
X8.42Y-2.0753
T2
X4.91Y-1.74
X4.91Y-1.84
X4.91Y-4.14
X4.91Y-4.24
X5.01Y-1.74
X5.01Y-1.84
X5.01Y-4.14
X5.01Y-4.24
X5.11Y-1.74
X5.11Y-1.84
X5.11Y-4.14
X5.11Y-4.24
X5.21Y-1.74
X5.21Y-1.84
X5.21Y-4.14
X5.21Y-4.24
X5.31Y-1.74
X5.31Y-1.84
X5.31Y-4.14
X5.31Y-4.24
X5.41Y-1.74
X5.41Y-1.84
X5.41Y-4.14
X5.41Y-4.24
X5.51Y-1.74
X5.51Y-1.84
X5.51Y-4.14
X5.51Y-4.24
X5.61Y-1.74
X5.61Y-1.84
X5.61Y-4.14
X5.61Y-4.24
X5.71Y-1.74
X5.71Y-1.84
X5.71Y-4.14
X5.71Y-4.24
X5.81Y-1.74
X5.81Y-1.84
X5.81Y-4.14
X5.81Y-4.24
X5.91Y-1.74
X5.91Y-1.84
X5.91Y-4.14
X5.91Y-4.24
X6.01Y-1.74
X6.01Y-1.84
X6.01Y-4.14
X6.01Y-4.24
X6.11Y-1.74
X6.11Y-1.84
X6.11Y-4.14
X6.11Y-4.24
X6.21Y-1.74
X6.21Y-1.84
X6.21Y-4.14
X6.21Y-4.24
X6.31Y-1.74
X6.31Y-1.84
X6.31Y-4.14
X6.31Y-4.24
X6.41Y-1.74
X6.41Y-1.84
X6.41Y-4.14
X6.41Y-4.24
X6.51Y-1.74
X6.51Y-1.84
X6.51Y-4.14
X6.51Y-4.24
X6.61Y-1.74
X6.61Y-1.84
X6.61Y-4.14
X6.61Y-4.24
X6.71Y-1.74
X6.71Y-1.84
X6.71Y-4.14
X6.71Y-4.24
T3
X6.9627Y-1.7
X7.48Y-1.7
X7.6976Y-1.69
X8.17Y-1.69
T0
M30
