M48
; DRILL file {KiCad 7.0.2} date Sun Aug 11 10:44:16 2024
; FORMAT={-:-/ absolute / inch / decimal}
; #@! TF.CreationDate,2024-08-11T10:44:16+09:00
; #@! TF.GenerationSoftware,Kicad,Pcbnew,7.0.2
; #@! TF.FileFunction,NonPlated,1,2,NPTH
FMAT,2
INCH
; #@! TA.AperFunction,NonPlated,NPTH,ComponentDrill
T1C0.0787
%
G90
G05
T1
G00X5.2143Y-4.9932
M15
G01X5.2457Y-4.9932
M16
G05
G00X5.5743Y-4.9917
M15
G01X5.6057Y-4.9917
M16
G05
G00X5.9343Y-4.9917
M15
G01X5.9657Y-4.9917
M16
G05
G00X6.2943Y-4.9917
M15
G01X6.3257Y-4.9917
M16
G05
G00X6.6443Y-4.9917
M15
G01X6.6757Y-4.9917
M16
G05
G00X7.005Y-4.9859
M15
G01X7.0365Y-4.9859
M16
G05
G00X7.3543Y-4.9917
M15
G01X7.3857Y-4.9917
M16
G05
G00X7.7043Y-4.9917
M15
G01X7.7357Y-4.9917
M16
G05
G00X8.3792Y-2.4965
M15
G01X8.3792Y-2.465
M16
G05
G00X8.38Y-3.1657
M15
G01X8.38Y-3.1343
M16
G05
G00X8.38Y-3.7858
M15
G01X8.38Y-3.7543
M16
G05
G00X8.38Y-4.4157
M15
G01X8.38Y-4.3843
M16
G05
T0
M30
