%TF.GenerationSoftware,KiCad,Pcbnew,7.0.2*%
%TF.CreationDate,2024-08-11T10:44:14+09:00*%
%TF.ProjectId,sensor_v3,73656e73-6f72-45f7-9633-2e6b69636164,rev?*%
%TF.SameCoordinates,Original*%
%TF.FileFunction,Soldermask,Top*%
%TF.FilePolarity,Negative*%
%FSLAX46Y46*%
G04 Gerber Fmt 4.6, Leading zero omitted, Abs format (unit mm)*
G04 Created by KiCad (PCBNEW 7.0.2) date 2024-08-11 10:44:14*
%MOMM*%
%LPD*%
G01*
G04 APERTURE LIST*
G04 Aperture macros list*
%AMRoundRect*
0 Rectangle with rounded corners*
0 $1 Rounding radius*
0 $2 $3 $4 $5 $6 $7 $8 $9 X,Y pos of 4 corners*
0 Add a 4 corners polygon primitive as box body*
4,1,4,$2,$3,$4,$5,$6,$7,$8,$9,$2,$3,0*
0 Add four circle primitives for the rounded corners*
1,1,$1+$1,$2,$3*
1,1,$1+$1,$4,$5*
1,1,$1+$1,$6,$7*
1,1,$1+$1,$8,$9*
0 Add four rect primitives between the rounded corners*
20,1,$1+$1,$2,$3,$4,$5,0*
20,1,$1+$1,$4,$5,$6,$7,0*
20,1,$1+$1,$6,$7,$8,$9,0*
20,1,$1+$1,$8,$9,$2,$3,0*%
G04 Aperture macros list end*
%ADD10O,2.000000X2.800000*%
%ADD11RoundRect,0.250000X0.725000X-0.600000X0.725000X0.600000X-0.725000X0.600000X-0.725000X-0.600000X0*%
%ADD12O,1.950000X1.700000*%
%ADD13O,2.800000X2.000000*%
%ADD14RoundRect,0.250000X-0.600000X-0.725000X0.600000X-0.725000X0.600000X0.725000X-0.600000X0.725000X0*%
%ADD15O,1.700000X1.950000*%
%ADD16RoundRect,0.200000X0.275000X-0.200000X0.275000X0.200000X-0.275000X0.200000X-0.275000X-0.200000X0*%
%ADD17RoundRect,0.218750X0.256250X-0.218750X0.256250X0.218750X-0.256250X0.218750X-0.256250X-0.218750X0*%
%ADD18R,1.600000X1.500000*%
%ADD19C,1.600000*%
%ADD20C,3.000000*%
%ADD21R,1.600000X1.600000*%
%ADD22C,4.000000*%
%ADD23C,1.700000*%
G04 APERTURE END LIST*
D10*
%TO.C,J5*%
X212852000Y-111760000D03*
D11*
X206352000Y-115510000D03*
D12*
X206352000Y-113010000D03*
X206352000Y-110510000D03*
X206352000Y-108010000D03*
%TD*%
D13*
%TO.C,J9*%
X132842000Y-126827330D03*
D14*
X131592000Y-120327330D03*
D15*
X134092000Y-120327330D03*
%TD*%
D13*
%TO.C,J3*%
X178328000Y-126642000D03*
D14*
X177078000Y-120142000D03*
D15*
X179578000Y-120142000D03*
%TD*%
D16*
%TO.C,R1*%
X122492000Y-114134500D03*
X122492000Y-112484500D03*
%TD*%
D17*
%TO.C,LED1*%
X126492000Y-114097000D03*
X126492000Y-112522000D03*
%TD*%
D18*
%TO.C,J11*%
X186922000Y-45890000D03*
D19*
X184422000Y-45890000D03*
X182422000Y-45890000D03*
X179922000Y-45890000D03*
D20*
X189992000Y-43180000D03*
X176852000Y-43180000D03*
%TD*%
D11*
%TO.C,J14*%
X213868000Y-52712000D03*
D12*
X213868000Y-50212000D03*
X213868000Y-47712000D03*
X213868000Y-45212000D03*
%TD*%
D13*
%TO.C,J2*%
X160274000Y-126790000D03*
D14*
X159024000Y-120290000D03*
D15*
X161524000Y-120290000D03*
%TD*%
D10*
%TO.C,J8*%
X212832000Y-63010000D03*
D11*
X206332000Y-66760000D03*
D12*
X206332000Y-64260000D03*
X206332000Y-61760000D03*
X206332000Y-59260000D03*
%TD*%
D13*
%TO.C,J4*%
X196088000Y-126790000D03*
D14*
X194838000Y-120290000D03*
D15*
X197338000Y-120290000D03*
%TD*%
D21*
%TO.C,J12*%
X200268000Y-47786000D03*
D19*
X202768000Y-47786000D03*
X202768000Y-45786000D03*
X200268000Y-45786000D03*
D22*
X195518000Y-42926000D03*
X207518000Y-42926000D03*
%TD*%
D14*
%TO.C,J13*%
X179952000Y-53848000D03*
D15*
X182452000Y-53848000D03*
X184952000Y-53848000D03*
X187452000Y-53848000D03*
%TD*%
D13*
%TO.C,J15*%
X151130000Y-126790000D03*
D14*
X149880000Y-120290000D03*
D15*
X152380000Y-120290000D03*
%TD*%
D13*
%TO.C,J1*%
X141986000Y-126790000D03*
D14*
X140736000Y-120290000D03*
D15*
X143236000Y-120290000D03*
%TD*%
D13*
%TO.C,J16*%
X169164000Y-126790000D03*
D14*
X167914000Y-120290000D03*
D15*
X170414000Y-120290000D03*
%TD*%
D10*
%TO.C,J6*%
X212852000Y-95760000D03*
D11*
X206352000Y-99510000D03*
D12*
X206352000Y-97010000D03*
X206352000Y-94510000D03*
X206352000Y-92010000D03*
%TD*%
D13*
%TO.C,J17*%
X187198000Y-126790000D03*
D14*
X185948000Y-120290000D03*
D15*
X188448000Y-120290000D03*
%TD*%
D10*
%TO.C,J7*%
X212852000Y-80010000D03*
D11*
X206352000Y-83760000D03*
D12*
X206352000Y-81260000D03*
X206352000Y-78760000D03*
X206352000Y-76260000D03*
%TD*%
D23*
%TO.C,U1*%
X139954000Y-105156000D03*
X132334000Y-107696000D03*
X137414000Y-105156000D03*
X132334000Y-46736000D03*
X129794000Y-107696000D03*
X165354000Y-107696000D03*
X152654000Y-105156000D03*
X132334000Y-44196000D03*
X129794000Y-105156000D03*
X145034000Y-105156000D03*
X142494000Y-105156000D03*
X157734000Y-105156000D03*
X160274000Y-105156000D03*
X167894000Y-46736000D03*
X170434000Y-46736000D03*
X162814000Y-105156000D03*
X137414000Y-46736000D03*
X139954000Y-46736000D03*
X142494000Y-46736000D03*
X152654000Y-46736000D03*
X150114000Y-46736000D03*
X165354000Y-46736000D03*
X139954000Y-44196000D03*
X137414000Y-44196000D03*
X139954000Y-107696000D03*
X142494000Y-107696000D03*
X145034000Y-107696000D03*
X127254000Y-105156000D03*
X160274000Y-107696000D03*
X162814000Y-107696000D03*
X165354000Y-105156000D03*
X152654000Y-44196000D03*
X150114000Y-44196000D03*
X162814000Y-46736000D03*
X157734000Y-46736000D03*
X160274000Y-46736000D03*
X145034000Y-46736000D03*
X150114000Y-107696000D03*
X127254000Y-46736000D03*
X129794000Y-46736000D03*
X155194000Y-46736000D03*
X142494000Y-44196000D03*
X160274000Y-44196000D03*
X157734000Y-44196000D03*
X155194000Y-44196000D03*
X170434000Y-105156000D03*
X167894000Y-105156000D03*
X167894000Y-107696000D03*
X170434000Y-107696000D03*
X165354000Y-44196000D03*
X129794000Y-44196000D03*
X127254000Y-44196000D03*
X147574000Y-46736000D03*
X124714000Y-44196000D03*
X124714000Y-46736000D03*
X124714000Y-107696000D03*
X124714000Y-105156000D03*
X127254000Y-107696000D03*
X152654000Y-107696000D03*
X155194000Y-107696000D03*
X157734000Y-107696000D03*
X147574000Y-107696000D03*
X132334000Y-105156000D03*
X147574000Y-105156000D03*
X150114000Y-105156000D03*
X134874000Y-46736000D03*
X147574000Y-44196000D03*
X162814000Y-44196000D03*
X137414000Y-107696000D03*
X134874000Y-105156000D03*
X134874000Y-107696000D03*
X155194000Y-105156000D03*
X134874000Y-44196000D03*
X145034000Y-44196000D03*
X167894000Y-44196000D03*
X170434000Y-44196000D03*
%TD*%
M02*
