%TF.GenerationSoftware,KiCad,Pcbnew,7.0.2*%
%TF.CreationDate,2024-05-02T17:55:26+09:00*%
%TF.ProjectId,DD_v6,44445f76-362e-46b6-9963-61645f706362,rev?*%
%TF.SameCoordinates,Original*%
%TF.FileFunction,Soldermask,Bot*%
%TF.FilePolarity,Negative*%
%FSLAX46Y46*%
G04 Gerber Fmt 4.6, Leading zero omitted, Abs format (unit mm)*
G04 Created by KiCad (PCBNEW 7.0.2) date 2024-05-02 17:55:26*
%MOMM*%
%LPD*%
G01*
G04 APERTURE LIST*
G04 Aperture macros list*
%AMRoundRect*
0 Rectangle with rounded corners*
0 $1 Rounding radius*
0 $2 $3 $4 $5 $6 $7 $8 $9 X,Y pos of 4 corners*
0 Add a 4 corners polygon primitive as box body*
4,1,4,$2,$3,$4,$5,$6,$7,$8,$9,$2,$3,0*
0 Add four circle primitives for the rounded corners*
1,1,$1+$1,$2,$3*
1,1,$1+$1,$4,$5*
1,1,$1+$1,$6,$7*
1,1,$1+$1,$8,$9*
0 Add four rect primitives between the rounded corners*
20,1,$1+$1,$2,$3,$4,$5,0*
20,1,$1+$1,$4,$5,$6,$7,0*
20,1,$1+$1,$6,$7,$8,$9,0*
20,1,$1+$1,$8,$9,$2,$3,0*%
G04 Aperture macros list end*
%ADD10C,3.200000*%
%ADD11C,1.400000*%
%ADD12R,3.500000X3.500000*%
%ADD13C,3.500000*%
%ADD14R,1.600000X1.600000*%
%ADD15O,1.600000X1.600000*%
%ADD16C,1.600000*%
%ADD17C,4.000000*%
%ADD18R,1.600000X1.500000*%
%ADD19C,3.000000*%
%ADD20RoundRect,0.250000X-0.725000X0.600000X-0.725000X-0.600000X0.725000X-0.600000X0.725000X0.600000X0*%
%ADD21O,1.950000X1.700000*%
%ADD22R,0.900000X2.000000*%
%ADD23RoundRect,1.025000X1.025000X1.025000X-1.025000X1.025000X-1.025000X-1.025000X1.025000X-1.025000X0*%
%ADD24C,4.100000*%
%ADD25C,1.700000*%
G04 APERTURE END LIST*
D10*
%TO.C,REF\u002A\u002A*%
X192000000Y-162000000D03*
%TD*%
%TO.C,REF\u002A\u002A*%
X102000000Y-162000000D03*
%TD*%
%TO.C,REF\u002A\u002A*%
X102000000Y-72000000D03*
%TD*%
%TO.C,REF\u002A\u002A*%
X192000000Y-72000000D03*
%TD*%
D11*
%TO.C,J5*%
X172500000Y-71150000D03*
X183500000Y-71150000D03*
D12*
X175500000Y-76150000D03*
D13*
X180500000Y-76150000D03*
%TD*%
D11*
%TO.C,J1*%
X193850000Y-128500000D03*
X193850000Y-139500000D03*
D12*
X188850000Y-131500000D03*
D13*
X188850000Y-136500000D03*
%TD*%
D11*
%TO.C,J2*%
X193850000Y-113500000D03*
X193850000Y-124500000D03*
D12*
X188850000Y-116500000D03*
D13*
X188850000Y-121500000D03*
%TD*%
D14*
%TO.C,U2*%
X169983834Y-114795863D03*
D15*
X169983834Y-117335863D03*
X177603834Y-117335863D03*
X177603834Y-114795863D03*
%TD*%
D14*
%TO.C,U1*%
X169958671Y-121468879D03*
D15*
X169958671Y-124008879D03*
X177578671Y-124008879D03*
X177578671Y-121468879D03*
%TD*%
D14*
%TO.C,U5*%
X176725000Y-92800000D03*
D15*
X179265000Y-92800000D03*
X179265000Y-85180000D03*
X176725000Y-85180000D03*
%TD*%
D14*
%TO.C,J10*%
X117250000Y-149212500D03*
D16*
X114750000Y-149212500D03*
X114750000Y-151212500D03*
X117250000Y-151212500D03*
D17*
X122000000Y-154072500D03*
X110000000Y-154072500D03*
%TD*%
D14*
%TO.C,U3*%
X169936236Y-108178012D03*
D15*
X169936236Y-110718012D03*
X177556236Y-110718012D03*
X177556236Y-108178012D03*
%TD*%
D11*
%TO.C,J4*%
X193850000Y-80500000D03*
X193850000Y-91500000D03*
D12*
X188850000Y-83500000D03*
D13*
X188850000Y-88500000D03*
%TD*%
D18*
%TO.C,J9*%
X132500000Y-150640000D03*
D16*
X135000000Y-150640000D03*
X137000000Y-150640000D03*
X139500000Y-150640000D03*
D19*
X129430000Y-153350000D03*
X142570000Y-153350000D03*
%TD*%
D14*
%TO.C,U4*%
X169958671Y-101468879D03*
D15*
X169958671Y-104008879D03*
X177578671Y-104008879D03*
X177578671Y-101468879D03*
%TD*%
D20*
%TO.C,J12*%
X160000000Y-102000000D03*
D21*
X160000000Y-104500000D03*
X160000000Y-107000000D03*
X160000000Y-109500000D03*
%TD*%
D22*
%TO.C,XT60OUT1*%
X165750000Y-154850000D03*
X152250000Y-154850000D03*
D23*
X162600000Y-148850000D03*
D24*
X155400000Y-148850000D03*
%TD*%
D14*
%TO.C,U6*%
X168403099Y-92000000D03*
D15*
X170943099Y-92000000D03*
X170943099Y-84380000D03*
X168403099Y-84380000D03*
%TD*%
D20*
%TO.C,J13*%
X160000000Y-118250000D03*
D21*
X160000000Y-120750000D03*
X160000000Y-123250000D03*
X160000000Y-125750000D03*
%TD*%
D11*
%TO.C,J3*%
X193850000Y-97500000D03*
X193850000Y-108500000D03*
D12*
X188850000Y-100500000D03*
D13*
X188850000Y-105500000D03*
%TD*%
D25*
%TO.C,U10*%
X116740000Y-139210000D03*
X109120000Y-141750000D03*
X114200000Y-139210000D03*
X109120000Y-80790000D03*
X106580000Y-141750000D03*
X142140000Y-141750000D03*
X129440000Y-139210000D03*
X109120000Y-78250000D03*
X106580000Y-139210000D03*
X121820000Y-139210000D03*
X119280000Y-139210000D03*
X134520000Y-139210000D03*
X137060000Y-139210000D03*
X144680000Y-80790000D03*
X147220000Y-80790000D03*
X139600000Y-139210000D03*
X114200000Y-80790000D03*
X116740000Y-80790000D03*
X119280000Y-80790000D03*
X129440000Y-80790000D03*
X126900000Y-80790000D03*
X142140000Y-80790000D03*
X116740000Y-78250000D03*
X114200000Y-78250000D03*
X116740000Y-141750000D03*
X119280000Y-141750000D03*
X121820000Y-141750000D03*
X104040000Y-139210000D03*
X137060000Y-141750000D03*
X139600000Y-141750000D03*
X142140000Y-139210000D03*
X129440000Y-78250000D03*
X126900000Y-78250000D03*
X139600000Y-80790000D03*
X134520000Y-80790000D03*
X137060000Y-80790000D03*
X121820000Y-80790000D03*
X126900000Y-141750000D03*
X104040000Y-80790000D03*
X106580000Y-80790000D03*
X131980000Y-80790000D03*
X119280000Y-78250000D03*
X137060000Y-78250000D03*
X134520000Y-78250000D03*
X131980000Y-78250000D03*
X147220000Y-139210000D03*
X144680000Y-139210000D03*
X144680000Y-141750000D03*
X147220000Y-141750000D03*
X142140000Y-78250000D03*
X106580000Y-78250000D03*
X104040000Y-78250000D03*
X124360000Y-80790000D03*
X101500000Y-78250000D03*
X101500000Y-80790000D03*
X101500000Y-141750000D03*
X101500000Y-139210000D03*
X104040000Y-141750000D03*
X129440000Y-141750000D03*
X131980000Y-141750000D03*
X134520000Y-141750000D03*
X124360000Y-141750000D03*
X109120000Y-139210000D03*
X124360000Y-139210000D03*
X126900000Y-139210000D03*
X111660000Y-80790000D03*
X124360000Y-78250000D03*
X139600000Y-78250000D03*
X114200000Y-141750000D03*
X111660000Y-139210000D03*
X111660000Y-141750000D03*
X131980000Y-139210000D03*
X111660000Y-78250000D03*
X121820000Y-78250000D03*
X144680000Y-78250000D03*
X147220000Y-78250000D03*
%TD*%
D11*
%TO.C,J6*%
X156500000Y-71150000D03*
X167500000Y-71150000D03*
D12*
X159500000Y-76150000D03*
D13*
X164500000Y-76150000D03*
%TD*%
D22*
%TO.C,XT60IN1*%
X183750000Y-154850000D03*
X170250000Y-154850000D03*
D23*
X180600000Y-148850000D03*
D24*
X173400000Y-148850000D03*
%TD*%
M02*
