%TF.GenerationSoftware,KiCad,Pcbnew,7.0.2*%
%TF.CreationDate,2024-06-22T09:05:20+09:00*%
%TF.ProjectId,____,4b734b28-2e6b-4696-9361-645f70636258,rev?*%
%TF.SameCoordinates,PX4e33880PY7bfa480*%
%TF.FileFunction,Copper,L2,Bot*%
%TF.FilePolarity,Positive*%
%FSLAX46Y46*%
G04 Gerber Fmt 4.6, Leading zero omitted, Abs format (unit mm)*
G04 Created by KiCad (PCBNEW 7.0.2) date 2024-06-22 09:05:20*
%MOMM*%
%LPD*%
G01*
G04 APERTURE LIST*
%TA.AperFunction,ComponentPad*%
%ADD10C,1.600000*%
%TD*%
%TA.AperFunction,ComponentPad*%
%ADD11O,1.600000X1.600000*%
%TD*%
%TA.AperFunction,ComponentPad*%
%ADD12C,1.524000*%
%TD*%
%TA.AperFunction,ComponentPad*%
%ADD13R,1.600000X1.600000*%
%TD*%
%TA.AperFunction,ComponentPad*%
%ADD14R,1.700000X1.700000*%
%TD*%
%TA.AperFunction,ComponentPad*%
%ADD15O,1.700000X1.700000*%
%TD*%
%TA.AperFunction,ComponentPad*%
%ADD16R,1.800000X1.800000*%
%TD*%
%TA.AperFunction,ComponentPad*%
%ADD17C,1.800000*%
%TD*%
%TA.AperFunction,ComponentPad*%
%ADD18R,2.000000X1.905000*%
%TD*%
%TA.AperFunction,ComponentPad*%
%ADD19O,2.000000X1.905000*%
%TD*%
%TA.AperFunction,ComponentPad*%
%ADD20C,2.000000*%
%TD*%
%TA.AperFunction,ViaPad*%
%ADD21C,0.800000*%
%TD*%
%TA.AperFunction,Conductor*%
%ADD22C,2.000000*%
%TD*%
%TA.AperFunction,Conductor*%
%ADD23C,1.000000*%
%TD*%
G04 APERTURE END LIST*
D10*
%TO.P,R2,1*%
%TO.N,Net-(D2-A)*%
X72981387Y29000000D03*
D11*
%TO.P,R2,2*%
%TO.N,SLEEP*%
X72981387Y36620000D03*
%TD*%
D12*
%TO.P,MD2,1,GND*%
%TO.N,GND*%
X11000000Y35240000D03*
%TO.P,MD2,2,OUT1*%
%TO.N,M2OUT1*%
X11000000Y32700000D03*
%TO.P,MD2,3,CD1*%
%TO.N,Net-(MD2-CD1)*%
X11000000Y30160000D03*
%TO.P,MD2,4,VR*%
%TO.N,+5V*%
X11000000Y27620000D03*
%TO.P,MD2,5,IN1*%
%TO.N,M2IN1*%
X11000000Y25080000D03*
%TO.P,MD2,6,IN2*%
%TO.N,M2IN2*%
X11000000Y22540000D03*
%TO.P,MD2,7,VCC1*%
%TO.N,+5V*%
X11000000Y20000000D03*
%TO.P,MD2,8,VCC2*%
%TO.N,+BATT*%
X11000000Y17460000D03*
%TO.P,MD2,9,CD2*%
%TO.N,Net-(MD2-CD2)*%
X11000000Y14920000D03*
%TO.P,MD2,10,OUT2*%
%TO.N,M2OUT2*%
X11000000Y12380000D03*
%TD*%
D13*
%TO.P,A1,1,TX1*%
%TO.N,unconnected-(A1-TX1-Pad1)*%
X40050000Y57610000D03*
D11*
%TO.P,A1,2,RX1*%
%TO.N,unconnected-(A1-RX1-Pad2)*%
X37510000Y57610000D03*
%TO.P,A1,3,~{RESET}*%
%TO.N,unconnected-(A1-~{RESET}-Pad3)*%
X34970000Y57610000D03*
%TO.P,A1,4,GND*%
%TO.N,GND*%
X32430000Y57610000D03*
%TO.P,A1,5,D2*%
%TO.N,unconnected-(A1-D2-Pad5)*%
X29890000Y57610000D03*
%TO.P,A1,6,D3*%
%TO.N,unconnected-(A1-D3-Pad6)*%
X27350000Y57610000D03*
%TO.P,A1,7,D4*%
%TO.N,unconnected-(A1-D4-Pad7)*%
X24810000Y57610000D03*
%TO.P,A1,8,D5*%
%TO.N,SERVO1*%
X22270000Y57610000D03*
%TO.P,A1,9,D6*%
%TO.N,SERVO2*%
X19730000Y57610000D03*
%TO.P,A1,10,D7*%
%TO.N,BUSY*%
X17190000Y57610000D03*
%TO.P,A1,11,D8*%
%TO.N,RESET*%
X14650000Y57610000D03*
%TO.P,A1,12,D9*%
%TO.N,TX920*%
X12110000Y57610000D03*
%TO.P,A1,13,D10*%
%TO.N,RX920*%
X9570000Y57610000D03*
%TO.P,A1,14,MOSI*%
%TO.N,unconnected-(A1-MOSI-Pad14)*%
X7030000Y57610000D03*
%TO.P,A1,15,MISO*%
%TO.N,unconnected-(A1-MISO-Pad15)*%
X4490000Y57610000D03*
%TO.P,A1,16,SCK*%
%TO.N,unconnected-(A1-SCK-Pad16)*%
X4490000Y42370000D03*
%TO.P,A1,17,3V3*%
%TO.N,+3.3V*%
X7030000Y42370000D03*
%TO.P,A1,18,AREF*%
%TO.N,unconnected-(A1-AREF-Pad18)*%
X9570000Y42370000D03*
%TO.P,A1,19,A0*%
%TO.N,unconnected-(A1-A0-Pad19)*%
X12110000Y42370000D03*
%TO.P,A1,20,A1*%
%TO.N,unconnected-(A1-A1-Pad20)*%
X14650000Y42370000D03*
%TO.P,A1,21,A2*%
%TO.N,unconnected-(A1-A2-Pad21)*%
X17190000Y42370000D03*
%TO.P,A1,22,A3*%
%TO.N,unconnected-(A1-A3-Pad22)*%
X19730000Y42370000D03*
%TO.P,A1,23,SDA/A4*%
%TO.N,M2IN1*%
X22270000Y42370000D03*
%TO.P,A1,24,SCL/A5*%
%TO.N,M2IN2*%
X24810000Y42370000D03*
%TO.P,A1,25,A6*%
%TO.N,M1IN2*%
X27350000Y42370000D03*
%TO.P,A1,26,A7*%
%TO.N,M1IN1*%
X29890000Y42370000D03*
%TO.P,A1,27,+5V*%
%TO.N,unconnected-(A1-+5V-Pad27)*%
X32430000Y42370000D03*
%TO.P,A1,28,~{RESET}*%
%TO.N,unconnected-(A1-~{RESET}-Pad28)*%
X34970000Y42370000D03*
%TO.P,A1,29,GND*%
%TO.N,GND*%
X37510000Y42370000D03*
%TO.P,A1,30,VIN*%
%TO.N,+BATT*%
X40050000Y42370000D03*
%TD*%
D10*
%TO.P,C7,1*%
%TO.N,Net-(MD1-CD1)*%
X36500000Y30000000D03*
%TO.P,C7,2*%
%TO.N,GND*%
X39000000Y30000000D03*
%TD*%
%TO.P,R3,1*%
%TO.N,Net-(D3-A)*%
X65981387Y31800000D03*
D11*
%TO.P,R3,2*%
%TO.N,XMIT*%
X65981387Y39420000D03*
%TD*%
D10*
%TO.P,C3,1*%
%TO.N,+BATT*%
X71664332Y12912610D03*
%TO.P,C3,2*%
%TO.N,GND*%
X71664332Y10412610D03*
%TD*%
%TO.P,C8,1*%
%TO.N,Net-(MD1-CD2)*%
X28500000Y15000000D03*
%TO.P,C8,2*%
%TO.N,GND*%
X26000000Y15000000D03*
%TD*%
%TO.P,C4,1*%
%TO.N,+BATT*%
X45475000Y16500000D03*
%TO.P,C4,2*%
%TO.N,GND*%
X47975000Y16500000D03*
%TD*%
%TO.P,C6,1*%
%TO.N,+5V*%
X63913960Y18101040D03*
%TO.P,C6,2*%
%TO.N,GND*%
X63913960Y15601040D03*
%TD*%
D14*
%TO.P,J3,1,Pin_1*%
%TO.N,SERVO1*%
X60475000Y7000000D03*
D15*
%TO.P,J3,2,Pin_2*%
%TO.N,+BATT*%
X63015000Y7000000D03*
%TO.P,J3,3,Pin_3*%
%TO.N,GND*%
X65555000Y7000000D03*
%TD*%
D10*
%TO.P,C10,1*%
%TO.N,Net-(MD2-CD2)*%
X16500000Y14000000D03*
%TO.P,C10,2*%
%TO.N,GND*%
X19000000Y14000000D03*
%TD*%
%TO.P,C1,1*%
%TO.N,+3.3V*%
X7000000Y39000000D03*
%TO.P,C1,2*%
%TO.N,GND*%
X7000000Y36500000D03*
%TD*%
D14*
%TO.P,J4,1,Pin_1*%
%TO.N,SERVO2*%
X45395000Y7000000D03*
D15*
%TO.P,J4,2,Pin_2*%
%TO.N,+BATT*%
X47935000Y7000000D03*
%TO.P,J4,3,Pin_3*%
%TO.N,GND*%
X50475000Y7000000D03*
%TD*%
D10*
%TO.P,C2,1*%
%TO.N,+3.3V*%
X52588652Y33782080D03*
%TO.P,C2,2*%
%TO.N,GND*%
X52588652Y31282080D03*
%TD*%
%TO.P,R1,1*%
%TO.N,Net-(D1-A)*%
X59981387Y29000000D03*
D11*
%TO.P,R1,2*%
%TO.N,STATUS*%
X59981387Y36620000D03*
%TD*%
D16*
%TO.P,D2,1,K*%
%TO.N,GND*%
X88202161Y30803543D03*
D17*
%TO.P,D2,2,A*%
%TO.N,Net-(D2-A)*%
X85662161Y30803543D03*
%TD*%
D13*
%TO.P,D4,1,K*%
%TO.N,+BATT*%
X59913960Y10291040D03*
D11*
%TO.P,D4,2,A*%
%TO.N,+5V*%
X59913960Y17911040D03*
%TD*%
D10*
%TO.P,C9,1*%
%TO.N,Net-(MD2-CD1)*%
X15000000Y32500000D03*
%TO.P,C9,2*%
%TO.N,GND*%
X15000000Y35000000D03*
%TD*%
D18*
%TO.P,U2,1,VI*%
%TO.N,+BATT*%
X54913960Y12021040D03*
D19*
%TO.P,U2,2,GND*%
%TO.N,GND*%
X54913960Y14561040D03*
%TO.P,U2,3,VO*%
%TO.N,+5V*%
X54913960Y17101040D03*
%TD*%
D16*
%TO.P,D3,1,K*%
%TO.N,GND*%
X88097255Y24542250D03*
D17*
%TO.P,D3,2,A*%
%TO.N,Net-(D3-A)*%
X85557255Y24542250D03*
%TD*%
D20*
%TO.P,U1,1,IO1/RTS/BUSY*%
%TO.N,BUSY*%
X54281387Y59045000D03*
%TO.P,U1,2,IO2*%
%TO.N,unconnected-(U1-IO2-Pad2)*%
X79681387Y59045000D03*
%TO.P,U1,3,IO3*%
%TO.N,XMIT*%
X54281387Y56505000D03*
%TO.P,U1,4,IO4*%
%TO.N,SLEEP*%
X79681387Y56505000D03*
%TO.P,U1,5,IO5*%
%TO.N,unconnected-(U1-IO5-Pad5)*%
X54281387Y53965000D03*
%TO.P,U1,6,IO6/RxD*%
%TO.N,RX920*%
X79681387Y53965000D03*
%TO.P,U1,7,IO7/TxD*%
%TO.N,TX920*%
X54281387Y51425000D03*
%TO.P,U1,8,IO8*%
%TO.N,unconnected-(U1-IO8-Pad8)*%
X79681387Y51425000D03*
%TO.P,U1,9,IO9*%
%TO.N,unconnected-(U1-IO9-Pad9)*%
X54281387Y48885000D03*
%TO.P,U1,10,IO10*%
%TO.N,unconnected-(U1-IO10-Pad10)*%
X79681387Y48885000D03*
%TO.P,U1,11,NC*%
%TO.N,unconnected-(U1-NC-Pad11)*%
X54281387Y46345000D03*
%TO.P,U1,12,NC*%
%TO.N,unconnected-(U1-NC-Pad12)*%
X79681387Y46345000D03*
%TO.P,U1,13,NC*%
%TO.N,unconnected-(U1-NC-Pad13)*%
X54281387Y43805000D03*
%TO.P,U1,14,NC*%
%TO.N,unconnected-(U1-NC-Pad14)*%
X79681387Y43805000D03*
%TO.P,U1,15,STATUS*%
%TO.N,STATUS*%
X54281387Y41265000D03*
%TO.P,U1,16,REG*%
%TO.N,REG*%
X79681387Y41265000D03*
%TO.P,U1,17,VCC*%
%TO.N,+3.3V*%
X54281387Y38725000D03*
%TO.P,U1,18,GND*%
%TO.N,GND*%
X79681387Y38725000D03*
%TO.P,U1,19,RESET*%
%TO.N,RESET*%
X54281387Y36185000D03*
%TO.P,U1,20,TEST*%
%TO.N,unconnected-(U1-TEST-Pad20)*%
X79681387Y36185000D03*
%TD*%
D10*
%TO.P,C5,1*%
%TO.N,+5V*%
X49000000Y20000000D03*
%TO.P,C5,2*%
%TO.N,GND*%
X49000000Y22500000D03*
%TD*%
D16*
%TO.P,D1,1,K*%
%TO.N,GND*%
X88000000Y18000000D03*
D17*
%TO.P,D1,2,A*%
%TO.N,Net-(D1-A)*%
X85460000Y18000000D03*
%TD*%
D12*
%TO.P,MD1,1,GND*%
%TO.N,GND*%
X32944037Y35152145D03*
%TO.P,MD1,2,OUT1*%
%TO.N,M1OUT1*%
X32944037Y32612145D03*
%TO.P,MD1,3,CD1*%
%TO.N,Net-(MD1-CD1)*%
X32944037Y30072145D03*
%TO.P,MD1,4,VR*%
%TO.N,+5V*%
X32944037Y27532145D03*
%TO.P,MD1,5,IN1*%
%TO.N,M1IN1*%
X32944037Y24992145D03*
%TO.P,MD1,6,IN2*%
%TO.N,M1IN2*%
X32944037Y22452145D03*
%TO.P,MD1,7,VCC1*%
%TO.N,+5V*%
X32944037Y19912145D03*
%TO.P,MD1,8,VCC2*%
%TO.N,+BATT*%
X32944037Y17372145D03*
%TO.P,MD1,9,CD2*%
%TO.N,Net-(MD1-CD2)*%
X32944037Y14832145D03*
%TO.P,MD1,10,OUT2*%
%TO.N,M1OUT2*%
X32944037Y12292145D03*
%TD*%
D21*
%TO.N,+BATT*%
X42000000Y17000000D03*
X37000000Y38000000D03*
X36300500Y16000000D03*
%TO.N,GND*%
X39000000Y34000000D03*
X51000000Y24000000D03*
%TO.N,SERVO1*%
X23625396Y54687912D03*
X55475000Y7000000D03*
%TO.N,SERVO2*%
X38000000Y7000000D03*
X18540823Y54687912D03*
%TD*%
D22*
%TO.N,RX920*%
X81826387Y53965000D02*
X79681387Y53965000D01*
X84000000Y56138613D02*
X81826387Y53965000D01*
X76174021Y67825979D02*
X84000000Y60000000D01*
X84000000Y60000000D02*
X84000000Y56138613D01*
X10825979Y67825979D02*
X76174021Y67825979D01*
X9570000Y66570000D02*
X10825979Y67825979D01*
X9570000Y57610000D02*
X9570000Y66570000D01*
%TO.N,+BATT*%
X39000000Y38000000D02*
X37000000Y38000000D01*
X39872145Y17372145D02*
X40744290Y16500000D01*
X49475000Y10000000D02*
X62000000Y10000000D01*
X76000000Y13000000D02*
X81000000Y8000000D01*
X67812919Y13000000D02*
X76000000Y13000000D01*
X45475000Y16500000D02*
X42500000Y16500000D01*
X40050000Y39050000D02*
X39000000Y38000000D01*
X36300500Y16000000D02*
X37672645Y17372145D01*
X63015000Y7000000D02*
X63015000Y8202081D01*
X11000000Y17460000D02*
X32856182Y17460000D01*
X42500000Y16500000D02*
X42000000Y17000000D01*
X37672645Y17372145D02*
X39872145Y17372145D01*
X50015000Y10000000D02*
X52892920Y10000000D01*
X45475000Y14540000D02*
X50015000Y10000000D01*
X52892920Y10000000D02*
X54913960Y12021040D01*
X63015000Y8985000D02*
X63015000Y7000000D01*
X32856182Y17460000D02*
X32944037Y17372145D01*
X49475000Y12500000D02*
X49475000Y10000000D01*
X40050000Y42370000D02*
X40050000Y39050000D01*
X32944037Y17372145D02*
X39872145Y17372145D01*
X40744290Y16500000D02*
X42500000Y16500000D01*
X63015000Y8202081D02*
X67812919Y13000000D01*
X47935000Y14040000D02*
X47935000Y7000000D01*
X62000000Y10000000D02*
X63015000Y8985000D01*
X45475000Y16500000D02*
X45475000Y14540000D01*
%TO.N,+3.3V*%
X7030000Y48030000D02*
X7030000Y42370000D01*
X8577233Y49577233D02*
X7030000Y48030000D01*
X56981387Y37439213D02*
X56981387Y34981387D01*
X7030000Y42370000D02*
X7030000Y39030000D01*
X56981387Y34981387D02*
X55810000Y33810000D01*
X48700000Y35300000D02*
X48700000Y45300000D01*
X7030000Y39030000D02*
X7000000Y39000000D01*
X55810000Y33810000D02*
X50190000Y33810000D01*
X50190000Y33810000D02*
X48700000Y35300000D01*
X48700000Y45300000D02*
X44422767Y49577233D01*
X54281387Y38725000D02*
X55695600Y38725000D01*
X44422767Y49577233D02*
X8577233Y49577233D01*
X55695600Y38725000D02*
X56981387Y37439213D01*
%TO.N,Net-(D1-A)*%
X82460000Y21000000D02*
X85460000Y18000000D01*
X67000000Y21000000D02*
X82460000Y21000000D01*
X59981387Y28018613D02*
X67000000Y21000000D01*
X59981387Y29000000D02*
X59981387Y28018613D01*
%TO.N,Net-(D2-A)*%
X76000000Y29000000D02*
X77803543Y30803543D01*
X77803543Y30803543D02*
X85662161Y30803543D01*
X72981387Y29000000D02*
X76000000Y29000000D01*
%TO.N,Net-(D3-A)*%
X66981387Y25000000D02*
X67000000Y25000000D01*
X67000000Y25000000D02*
X67457750Y24542250D01*
X67457750Y24542250D02*
X85557255Y24542250D01*
X65981387Y26000000D02*
X66981387Y25000000D01*
X65981387Y31800000D02*
X65981387Y26000000D01*
%TO.N,M1OUT1*%
X32944037Y32612145D02*
X30612145Y32612145D01*
X30612145Y32612145D02*
X29000000Y31000000D01*
%TO.N,BUSY*%
X51326387Y62000000D02*
X18000000Y62000000D01*
X54281387Y59045000D02*
X51326387Y62000000D01*
X18000000Y62000000D02*
X17190000Y61190000D01*
X17190000Y61190000D02*
X17190000Y57610000D01*
%TO.N,XMIT*%
X62286387Y56505000D02*
X65981387Y52810000D01*
X65981387Y52810000D02*
X65981387Y39420000D01*
X54281387Y56505000D02*
X62286387Y56505000D01*
%TO.N,SLEEP*%
X72981387Y52810000D02*
X76676387Y56505000D01*
X76676387Y56505000D02*
X79681387Y56505000D01*
X72981387Y52810000D02*
X72981387Y36620000D01*
%TO.N,TX920*%
X62481387Y39163671D02*
X62481387Y44639213D01*
X68681387Y36620000D02*
X65025058Y36620000D01*
X69481387Y60518613D02*
X69481387Y37420000D01*
X65100000Y64900000D02*
X69481387Y60518613D01*
X12900000Y64900000D02*
X65100000Y64900000D01*
X55695600Y51425000D02*
X54281387Y51425000D01*
X12110000Y57610000D02*
X12110000Y64110000D01*
X62481387Y44639213D02*
X55695600Y51425000D01*
X65025058Y36620000D02*
X62481387Y39163671D01*
X12110000Y64110000D02*
X12900000Y64900000D01*
X69481387Y37420000D02*
X68681387Y36620000D01*
%TO.N,STATUS*%
X59981387Y38810000D02*
X59981387Y36620000D01*
X54281387Y41265000D02*
X57526387Y41265000D01*
X57526387Y41265000D02*
X59981387Y38810000D01*
D23*
%TO.N,GND*%
X53062700Y14561040D02*
X54913960Y14561040D01*
X51123740Y16500000D02*
X53062700Y14561040D01*
X47975000Y16500000D02*
X51123740Y16500000D01*
D22*
%TO.N,RESET*%
X15000000Y52000000D02*
X51000000Y52000000D01*
X14650000Y57610000D02*
X14650000Y52350000D01*
X14650000Y52350000D02*
X15000000Y52000000D01*
X51000000Y52000000D02*
X51000000Y38052174D01*
X52867174Y36185000D02*
X54281387Y36185000D01*
X51000000Y38052174D02*
X52867174Y36185000D01*
%TO.N,M1IN1*%
X29890000Y43501370D02*
X31088630Y44700000D01*
X31088630Y44700000D02*
X42047308Y44700000D01*
X29890000Y42370000D02*
X29890000Y43501370D01*
X42047308Y44700000D02*
X43000000Y43747308D01*
X43000000Y29252692D02*
X38747308Y25000000D01*
X38747308Y25000000D02*
X32951892Y25000000D01*
X43000000Y43747308D02*
X43000000Y29252692D01*
X32951892Y25000000D02*
X32944037Y24992145D01*
%TO.N,M1IN2*%
X32944037Y22452145D02*
X44452145Y22452145D01*
X42722767Y47277233D02*
X29627233Y47277233D01*
X27350000Y45000000D02*
X27350000Y42370000D01*
X46000000Y24000000D02*
X46000000Y44000000D01*
X29627233Y47277233D02*
X27350000Y45000000D01*
X44452145Y22452145D02*
X46000000Y24000000D01*
X46000000Y44000000D02*
X42722767Y47277233D01*
%TO.N,+5V*%
X57182252Y17000000D02*
X55015000Y17000000D01*
X9922370Y27620000D02*
X8700000Y26397630D01*
X54913960Y17101040D02*
X53898960Y17101040D01*
X32944037Y27532145D02*
X31866407Y27532145D01*
X60103960Y18101040D02*
X59913960Y17911040D01*
X10000000Y20000000D02*
X11000000Y20000000D01*
X30644037Y21355963D02*
X32000000Y20000000D01*
X58093292Y17911040D02*
X57182252Y17000000D01*
X8700000Y26397630D02*
X8700000Y21300000D01*
X30644037Y26309775D02*
X30644037Y21355963D01*
X55015000Y17000000D02*
X54913960Y17101040D01*
X53898960Y17101040D02*
X51087855Y19912145D01*
X31866407Y27532145D02*
X30644037Y26309775D01*
X11000000Y27620000D02*
X9922370Y27620000D01*
X51087855Y19912145D02*
X32944037Y19912145D01*
X11000000Y20000000D02*
X32000000Y20000000D01*
X32856182Y20000000D02*
X32944037Y19912145D01*
X59913960Y17911040D02*
X58093292Y17911040D01*
X32000000Y20000000D02*
X32856182Y20000000D01*
X63913960Y18101040D02*
X60103960Y18101040D01*
X8700000Y21300000D02*
X10000000Y20000000D01*
%TO.N,M1OUT2*%
X28000000Y7000000D02*
X28000000Y7348108D01*
X32944037Y12292145D02*
X28000000Y7348108D01*
%TO.N,M2OUT1*%
X8700000Y32700000D02*
X8000000Y32000000D01*
X11000000Y32700000D02*
X8700000Y32700000D01*
%TO.N,M2IN1*%
X11000000Y25080000D02*
X12077630Y25080000D01*
X22270000Y35272370D02*
X22270000Y42370000D01*
X12077630Y25080000D02*
X22270000Y35272370D01*
%TO.N,M2IN2*%
X14540000Y22540000D02*
X24810000Y32810000D01*
X24810000Y32810000D02*
X24810000Y42370000D01*
X11000000Y22540000D02*
X14540000Y22540000D01*
%TO.N,M2OUT2*%
X9380000Y12380000D02*
X8000000Y11000000D01*
X11000000Y12380000D02*
X9380000Y12380000D01*
%TO.N,SERVO1*%
X23625396Y55374604D02*
X23625396Y54687912D01*
X23625396Y54687912D02*
X24312088Y54687912D01*
X22270000Y57610000D02*
X22270000Y56730000D01*
X24312088Y54687912D02*
X24000000Y55000000D01*
X60475000Y7000000D02*
X55475000Y7000000D01*
X22270000Y56730000D02*
X23625396Y55374604D01*
%TO.N,SERVO2*%
X19730000Y57610000D02*
X19730000Y55730000D01*
X19730000Y55730000D02*
X18687912Y54687912D01*
X18540823Y54540823D02*
X19000000Y55000000D01*
X45395000Y7000000D02*
X38000000Y7000000D01*
X18540823Y54687912D02*
X18540823Y54540823D01*
X18687912Y54687912D02*
X18540823Y54687912D01*
%TO.N,Net-(MD1-CD1)*%
X32944037Y30072145D02*
X36427855Y30072145D01*
X36427855Y30072145D02*
X36500000Y30000000D01*
X36500000Y30000000D02*
X35500000Y30000000D01*
%TO.N,Net-(MD1-CD2)*%
X32944037Y14832145D02*
X28667855Y14832145D01*
X28667855Y14832145D02*
X28500000Y15000000D01*
%TO.N,Net-(MD2-CD1)*%
X11000000Y30160000D02*
X12660000Y30160000D01*
X12660000Y30160000D02*
X15000000Y32500000D01*
%TO.N,Net-(MD2-CD2)*%
X13580000Y14920000D02*
X14500000Y14000000D01*
X11000000Y14920000D02*
X13580000Y14920000D01*
X16500000Y14000000D02*
X14500000Y14000000D01*
%TD*%
%TA.AperFunction,Conductor*%
%TO.N,M1OUT2*%
G36*
X30943039Y10980315D02*
G01*
X30988794Y10927511D01*
X31000000Y10876000D01*
X31000000Y5124000D01*
X30980315Y5056961D01*
X30927511Y5011206D01*
X30876000Y5000000D01*
X25124000Y5000000D01*
X25056961Y5019685D01*
X25011206Y5072489D01*
X25000000Y5124000D01*
X25000000Y10876000D01*
X25019685Y10943039D01*
X25072489Y10988794D01*
X25124000Y11000000D01*
X30876000Y11000000D01*
X30943039Y10980315D01*
G37*
%TD.AperFunction*%
%TD*%
%TA.AperFunction,Conductor*%
%TO.N,+BATT*%
G36*
X44102203Y17022607D02*
G01*
X46781107Y15906397D01*
X46835417Y15862444D01*
X46842707Y15849729D01*
X46974953Y15660860D01*
X47135859Y15499954D01*
X47322264Y15369433D01*
X47322265Y15369433D01*
X47322266Y15369432D01*
X47528504Y15273261D01*
X47748308Y15214365D01*
X47899435Y15201144D01*
X47974999Y15194532D01*
X47974999Y15194533D01*
X47975000Y15194532D01*
X48201692Y15214365D01*
X48307141Y15242620D01*
X48376989Y15240957D01*
X48386911Y15237313D01*
X55837654Y12132836D01*
X55891964Y12088883D01*
X55913890Y12022543D01*
X55913960Y12018376D01*
X55913960Y9225040D01*
X55894275Y9158001D01*
X55841471Y9112246D01*
X55789960Y9101040D01*
X44170633Y9101040D01*
X44103594Y9120725D01*
X44057839Y9173529D01*
X44046647Y9223166D01*
X44003337Y12088883D01*
X43930532Y16906270D01*
X43949201Y16973598D01*
X44001308Y17020146D01*
X44070308Y17031134D01*
X44102203Y17022607D01*
G37*
%TD.AperFunction*%
%TD*%
%TA.AperFunction,Conductor*%
%TO.N,+BATT*%
G36*
X82943039Y9436592D02*
G01*
X82988794Y9383788D01*
X83000000Y9332277D01*
X83000000Y4124000D01*
X82980315Y4056961D01*
X82927511Y4011206D01*
X82876000Y4000000D01*
X75124000Y4000000D01*
X75056961Y4019685D01*
X75011206Y4072489D01*
X75000000Y4124000D01*
X75000000Y9332277D01*
X75019685Y9399316D01*
X75072489Y9445071D01*
X75124000Y9456277D01*
X82876000Y9456277D01*
X82943039Y9436592D01*
G37*
%TD.AperFunction*%
%TD*%
%TA.AperFunction,Conductor*%
%TO.N,GND*%
G36*
X9920894Y69479815D02*
G01*
X9966649Y69427011D01*
X9976593Y69357853D01*
X9947568Y69294297D01*
X9927123Y69275461D01*
X9891732Y69249541D01*
X9881831Y69242994D01*
X9844773Y69220964D01*
X9784500Y69171257D01*
X9778877Y69166886D01*
X9715864Y69120734D01*
X9685367Y69090238D01*
X9676584Y69082259D01*
X9643326Y69054831D01*
X9591353Y68996514D01*
X9586463Y68991335D01*
X8454196Y67859068D01*
X8441694Y67848138D01*
X8435284Y67843252D01*
X8356041Y67760912D01*
X8323161Y67728032D01*
X8323149Y67728020D01*
X8321478Y67726348D01*
X8319930Y67724543D01*
X8319921Y67724533D01*
X8313187Y67716680D01*
X8308406Y67711418D01*
X8254223Y67655117D01*
X8229413Y67619846D01*
X8222131Y67610480D01*
X8194066Y67577746D01*
X8152863Y67511369D01*
X8148935Y67505429D01*
X8104000Y67441545D01*
X8084866Y67402901D01*
X8079097Y67392531D01*
X8056365Y67355910D01*
X8025781Y67284030D01*
X8022805Y67277560D01*
X7988140Y67207548D01*
X7975132Y67166442D01*
X7971012Y67155306D01*
X7954134Y67115640D01*
X7934877Y67039919D01*
X7932924Y67033071D01*
X7909358Y66958603D01*
X7902778Y66916006D01*
X7900408Y66904380D01*
X7889779Y66862580D01*
X7882308Y66784826D01*
X7881424Y66777760D01*
X7869500Y66700556D01*
X7869500Y66657442D01*
X7868932Y66645585D01*
X7864808Y66602666D01*
X7869295Y66524693D01*
X7869500Y66517571D01*
X7869500Y59069919D01*
X7849815Y59002880D01*
X7797011Y58957125D01*
X7727853Y58947181D01*
X7686483Y58960864D01*
X7634808Y58988829D01*
X7399615Y59069571D01*
X7154335Y59110500D01*
X6905665Y59110500D01*
X6660384Y59069571D01*
X6425194Y58988830D01*
X6425190Y58988829D01*
X6425190Y58988828D01*
X6382032Y58965472D01*
X6206485Y58870471D01*
X6010255Y58717739D01*
X5851228Y58544990D01*
X5791341Y58508999D01*
X5721503Y58511100D01*
X5668770Y58544989D01*
X5509744Y58717738D01*
X5477652Y58742716D01*
X5313514Y58870471D01*
X5313510Y58870474D01*
X5313509Y58870474D01*
X5094810Y58988828D01*
X5094806Y58988830D01*
X5094805Y58988830D01*
X4859615Y59069571D01*
X4614335Y59110500D01*
X4365665Y59110500D01*
X4120384Y59069571D01*
X3885194Y58988830D01*
X3885190Y58988829D01*
X3885190Y58988828D01*
X3842032Y58965472D01*
X3666485Y58870471D01*
X3470259Y58717741D01*
X3470256Y58717739D01*
X3470256Y58717738D01*
X3304054Y58537194D01*
X3301837Y58534786D01*
X3165825Y58326605D01*
X3080035Y58131022D01*
X3065937Y58098881D01*
X3045617Y58018638D01*
X3004891Y57857817D01*
X2984356Y57610000D01*
X3004891Y57362184D01*
X3004891Y57362181D01*
X3004892Y57362179D01*
X3065937Y57121119D01*
X3097674Y57048766D01*
X3165825Y56893396D01*
X3165827Y56893393D01*
X3301836Y56685215D01*
X3470256Y56502262D01*
X3515680Y56466907D01*
X3666485Y56349530D01*
X3666487Y56349529D01*
X3666491Y56349526D01*
X3885190Y56231172D01*
X4120386Y56150429D01*
X4365665Y56109500D01*
X4614335Y56109500D01*
X4859614Y56150429D01*
X5094810Y56231172D01*
X5313509Y56349526D01*
X5509744Y56502262D01*
X5668771Y56675012D01*
X5728657Y56711001D01*
X5798495Y56708901D01*
X5851228Y56675012D01*
X6010256Y56502262D01*
X6055680Y56466907D01*
X6206485Y56349530D01*
X6206487Y56349529D01*
X6206491Y56349526D01*
X6425190Y56231172D01*
X6660386Y56150429D01*
X6905665Y56109500D01*
X7154335Y56109500D01*
X7399614Y56150429D01*
X7634810Y56231172D01*
X7853509Y56349526D01*
X8049744Y56502262D01*
X8074494Y56529149D01*
X8134378Y56565140D01*
X8204216Y56563041D01*
X8261389Y56524061D01*
X8341148Y56427347D01*
X8536082Y56253623D01*
X8755247Y56111694D01*
X8993509Y56004882D01*
X9245283Y55935694D01*
X9245287Y55935693D01*
X9504675Y55905748D01*
X9765593Y55915749D01*
X10021927Y55965462D01*
X10267668Y56053721D01*
X10497057Y56178459D01*
X10517178Y56193796D01*
X10704715Y56336749D01*
X10750355Y56384173D01*
X10811024Y56418828D01*
X10880799Y56415180D01*
X10922201Y56390762D01*
X10968469Y56349528D01*
X11076082Y56253623D01*
X11295247Y56111694D01*
X11533509Y56004882D01*
X11785283Y55935694D01*
X11785287Y55935693D01*
X12044675Y55905748D01*
X12305593Y55915749D01*
X12561927Y55965462D01*
X12783586Y56045073D01*
X12853333Y56049207D01*
X12914244Y56014977D01*
X12946979Y55953250D01*
X12949500Y55928371D01*
X12949500Y52472513D01*
X12948387Y52455935D01*
X12947310Y52447956D01*
X12949078Y52355743D01*
X12949500Y52333711D01*
X12949500Y52284823D01*
X12949681Y52282460D01*
X12949682Y52282445D01*
X12950475Y52272119D01*
X12950816Y52265005D01*
X12952312Y52186895D01*
X12959708Y52144419D01*
X12961182Y52132647D01*
X12964484Y52089654D01*
X12982279Y52013609D01*
X12983703Y52006629D01*
X12997107Y51929654D01*
X13010899Y51888810D01*
X13014154Y51877396D01*
X13023979Y51835414D01*
X13053181Y51762957D01*
X13055653Y51756277D01*
X13080644Y51682268D01*
X13100509Y51644009D01*
X13105470Y51633221D01*
X13121586Y51593234D01*
X13161505Y51526086D01*
X13164967Y51519862D01*
X13196634Y51458875D01*
X13210057Y51390307D01*
X13184279Y51325367D01*
X13127484Y51284672D01*
X13086585Y51277733D01*
X8699745Y51277733D01*
X8683168Y51278846D01*
X8680289Y51279235D01*
X8675186Y51279923D01*
X8562908Y51277771D01*
X8560944Y51277733D01*
X8512056Y51277733D01*
X8509696Y51277552D01*
X8509673Y51277551D01*
X8499348Y51276758D01*
X8492236Y51276417D01*
X8414128Y51274921D01*
X8371651Y51267525D01*
X8359879Y51266051D01*
X8322126Y51263152D01*
X8316889Y51262749D01*
X8289943Y51256444D01*
X8240842Y51244954D01*
X8233864Y51243532D01*
X8156892Y51230128D01*
X8116046Y51216335D01*
X8104633Y51213080D01*
X8062645Y51203254D01*
X7990184Y51174050D01*
X7983522Y51171585D01*
X7911069Y51147119D01*
X7909501Y51146589D01*
X7871236Y51126722D01*
X7860454Y51121764D01*
X7820463Y51105646D01*
X7753312Y51065725D01*
X7747088Y51062262D01*
X7677764Y51026268D01*
X7642982Y51000794D01*
X7633087Y50994251D01*
X7596029Y50972219D01*
X7535758Y50922514D01*
X7530136Y50918143D01*
X7467114Y50871985D01*
X7436621Y50841492D01*
X7427838Y50833513D01*
X7394580Y50806085D01*
X7342607Y50747768D01*
X7337717Y50742589D01*
X5914196Y49319068D01*
X5901694Y49308138D01*
X5895284Y49303252D01*
X5816041Y49220912D01*
X5783161Y49188032D01*
X5783149Y49188020D01*
X5781478Y49186348D01*
X5779930Y49184543D01*
X5779921Y49184533D01*
X5773187Y49176680D01*
X5768406Y49171418D01*
X5714223Y49115117D01*
X5689413Y49079846D01*
X5682131Y49070480D01*
X5654066Y49037746D01*
X5612863Y48971369D01*
X5608935Y48965429D01*
X5564000Y48901545D01*
X5544866Y48862901D01*
X5539097Y48852531D01*
X5516365Y48815910D01*
X5485781Y48744030D01*
X5482805Y48737560D01*
X5448140Y48667548D01*
X5435132Y48626442D01*
X5431012Y48615306D01*
X5414134Y48575640D01*
X5394877Y48499919D01*
X5392924Y48493071D01*
X5369358Y48418603D01*
X5362778Y48376006D01*
X5360408Y48364380D01*
X5349779Y48322580D01*
X5342308Y48244826D01*
X5341424Y48237760D01*
X5329500Y48160556D01*
X5329500Y48117442D01*
X5328932Y48105585D01*
X5324808Y48062666D01*
X5329295Y47984693D01*
X5329500Y47977571D01*
X5329500Y43829919D01*
X5309815Y43762880D01*
X5257011Y43717125D01*
X5187853Y43707181D01*
X5146483Y43720864D01*
X5094808Y43748829D01*
X4859615Y43829571D01*
X4614335Y43870500D01*
X4365665Y43870500D01*
X4120384Y43829571D01*
X3885194Y43748830D01*
X3885190Y43748829D01*
X3885190Y43748828D01*
X3833517Y43720864D01*
X3666485Y43630471D01*
X3470259Y43477741D01*
X3470256Y43477739D01*
X3470256Y43477738D01*
X3311230Y43304990D01*
X3301837Y43294786D01*
X3165825Y43086605D01*
X3075780Y42881322D01*
X3065937Y42858881D01*
X3040545Y42758609D01*
X3004891Y42617817D01*
X2984356Y42370001D01*
X3004891Y42122184D01*
X3004891Y42122181D01*
X3004892Y42122179D01*
X3065937Y41881119D01*
X3110960Y41778477D01*
X3165825Y41653396D01*
X3165827Y41653393D01*
X3301836Y41445215D01*
X3470256Y41262262D01*
X3535667Y41211350D01*
X3666485Y41109530D01*
X3666487Y41109529D01*
X3666491Y41109526D01*
X3885190Y40991172D01*
X4120386Y40910429D01*
X4365665Y40869500D01*
X4614335Y40869500D01*
X4859614Y40910429D01*
X5094810Y40991172D01*
X5146482Y41019136D01*
X5214811Y41033731D01*
X5280183Y41009068D01*
X5321844Y40952978D01*
X5329500Y40910081D01*
X5329500Y39346324D01*
X5325675Y39315764D01*
X5319780Y39292582D01*
X5294929Y39033918D01*
X5294809Y39032664D01*
X5309805Y38771991D01*
X5357618Y38548456D01*
X5364420Y38516655D01*
X5376722Y38484362D01*
X5439618Y38319251D01*
X5457371Y38272649D01*
X5586479Y38045693D01*
X5748720Y37841104D01*
X5940289Y37663678D01*
X6156697Y37517575D01*
X6392870Y37406219D01*
X6643276Y37332219D01*
X6902042Y37297311D01*
X6902043Y37297312D01*
X6902044Y37297311D01*
X7006466Y37299312D01*
X7163104Y37302313D01*
X7420343Y37347107D01*
X7667729Y37430643D01*
X7899465Y37550964D01*
X8110119Y37705249D01*
X8145802Y37740933D01*
X8158317Y37751873D01*
X8164716Y37756750D01*
X8243959Y37839090D01*
X8278522Y37873652D01*
X8286845Y37883361D01*
X8291583Y37888576D01*
X8345778Y37944886D01*
X8370585Y37980156D01*
X8377862Y37989516D01*
X8405931Y38022251D01*
X8447147Y38088651D01*
X8451049Y38094551D01*
X8495999Y38158456D01*
X8515133Y38197104D01*
X8520897Y38207464D01*
X8543637Y38244096D01*
X8574230Y38315999D01*
X8577195Y38322445D01*
X8578320Y38324717D01*
X8611859Y38392453D01*
X8624868Y38433560D01*
X8628988Y38444695D01*
X8631824Y38451361D01*
X8645866Y38484362D01*
X8665122Y38560085D01*
X8667073Y38566925D01*
X8670100Y38576489D01*
X8690641Y38641395D01*
X8697225Y38684031D01*
X8699586Y38695606D01*
X8710220Y38737417D01*
X8717691Y38815184D01*
X8718575Y38822245D01*
X8730500Y38899448D01*
X8730500Y38942559D01*
X8731068Y38954417D01*
X8735191Y38997335D01*
X8730705Y39075308D01*
X8730500Y39082430D01*
X8730500Y40910081D01*
X8750185Y40977120D01*
X8802989Y41022875D01*
X8872147Y41032819D01*
X8913517Y41019136D01*
X8965190Y40991172D01*
X9200386Y40910429D01*
X9445665Y40869500D01*
X9694335Y40869500D01*
X9939614Y40910429D01*
X10174810Y40991172D01*
X10393509Y41109526D01*
X10589744Y41262262D01*
X10748771Y41435012D01*
X10808657Y41471001D01*
X10878495Y41468901D01*
X10931228Y41435012D01*
X11090256Y41262262D01*
X11155667Y41211350D01*
X11286485Y41109530D01*
X11286487Y41109529D01*
X11286491Y41109526D01*
X11505190Y40991172D01*
X11740386Y40910429D01*
X11985665Y40869500D01*
X12234335Y40869500D01*
X12479614Y40910429D01*
X12714810Y40991172D01*
X12933509Y41109526D01*
X13129744Y41262262D01*
X13288771Y41435012D01*
X13348657Y41471001D01*
X13418495Y41468901D01*
X13471228Y41435012D01*
X13630256Y41262262D01*
X13695667Y41211350D01*
X13826485Y41109530D01*
X13826487Y41109529D01*
X13826491Y41109526D01*
X14045190Y40991172D01*
X14280386Y40910429D01*
X14525665Y40869500D01*
X14774335Y40869500D01*
X15019614Y40910429D01*
X15254810Y40991172D01*
X15473509Y41109526D01*
X15669744Y41262262D01*
X15828771Y41435012D01*
X15888657Y41471001D01*
X15958495Y41468901D01*
X16011228Y41435012D01*
X16170256Y41262262D01*
X16235667Y41211350D01*
X16366485Y41109530D01*
X16366487Y41109529D01*
X16366491Y41109526D01*
X16585190Y40991172D01*
X16820386Y40910429D01*
X17065665Y40869500D01*
X17314335Y40869500D01*
X17559614Y40910429D01*
X17794810Y40991172D01*
X18013509Y41109526D01*
X18209744Y41262262D01*
X18368771Y41435012D01*
X18428657Y41471001D01*
X18498495Y41468901D01*
X18551228Y41435012D01*
X18710256Y41262262D01*
X18775667Y41211350D01*
X18906485Y41109530D01*
X18906487Y41109529D01*
X18906491Y41109526D01*
X19125190Y40991172D01*
X19360386Y40910429D01*
X19605665Y40869500D01*
X19854335Y40869500D01*
X20099614Y40910429D01*
X20334810Y40991172D01*
X20386482Y41019136D01*
X20454811Y41033731D01*
X20520183Y41009068D01*
X20561844Y40952978D01*
X20569500Y40910081D01*
X20569500Y36028103D01*
X20549815Y35961064D01*
X20533181Y35940422D01*
X16911600Y32318842D01*
X16850277Y32285357D01*
X16780585Y32290341D01*
X16724652Y32332213D01*
X16700235Y32397677D01*
X16700486Y32418368D01*
X16705191Y32467332D01*
X16690194Y32728010D01*
X16635580Y32983345D01*
X16542629Y33227351D01*
X16413521Y33454307D01*
X16397661Y33474307D01*
X16251282Y33658895D01*
X16225310Y33682949D01*
X16073701Y33823365D01*
X16059710Y33836323D01*
X15843302Y33982427D01*
X15607131Y34093781D01*
X15356725Y34167781D01*
X15097956Y34202690D01*
X14836898Y34197688D01*
X14579657Y34152894D01*
X14332269Y34069357D01*
X14100533Y33949036D01*
X13889880Y33794752D01*
X12905912Y32810784D01*
X12844589Y32777299D01*
X12774897Y32782283D01*
X12718964Y32824155D01*
X12694547Y32889619D01*
X12694324Y32893679D01*
X12694251Y32895593D01*
X12644538Y33151927D01*
X12556279Y33397668D01*
X12431541Y33627057D01*
X12431539Y33627061D01*
X12273250Y33834716D01*
X12085112Y34015780D01*
X11871546Y34165998D01*
X11637546Y34281860D01*
X11388608Y34360641D01*
X11231246Y34384947D01*
X11130555Y34400500D01*
X11130553Y34400500D01*
X10286875Y34400500D01*
X10219836Y34420185D01*
X10182855Y34462863D01*
X10181561Y34461990D01*
X10174373Y34472652D01*
X10174081Y34472989D01*
X10173979Y34473237D01*
X10139749Y34524011D01*
X10078073Y34615498D01*
X10032318Y34668302D01*
X9989718Y34713309D01*
X9989717Y34713310D01*
X9989715Y34713312D01*
X9854126Y34815980D01*
X9701358Y34881733D01*
X9701340Y34881740D01*
X9697905Y34883218D01*
X9694309Y34884274D01*
X9694306Y34884275D01*
X9630866Y34902903D01*
X9629543Y34903268D01*
X9600947Y34910980D01*
X9435818Y34931031D01*
X9435806Y34931032D01*
X9432098Y34931482D01*
X3680098Y34931482D01*
X3676804Y34931128D01*
X3676788Y34931127D01*
X3533437Y34915714D01*
X3533434Y34915714D01*
X3530127Y34915358D01*
X3526892Y34914655D01*
X3526878Y34914652D01*
X3478616Y34904152D01*
X3471182Y34902471D01*
X3471176Y34902470D01*
X3467284Y34901589D01*
X3463536Y34900215D01*
X3463531Y34900213D01*
X3307607Y34843030D01*
X3169688Y34750051D01*
X3166582Y34747957D01*
X3163757Y34745510D01*
X3163749Y34745503D01*
X3114804Y34703092D01*
X3114779Y34703070D01*
X3113778Y34702202D01*
X3112811Y34701287D01*
X3112808Y34701284D01*
X3068768Y34659600D01*
X2966100Y34524011D01*
X2900347Y34371243D01*
X2900338Y34371220D01*
X2898862Y34367789D01*
X2897807Y34364199D01*
X2897805Y34364191D01*
X2879177Y34300750D01*
X2878812Y34299427D01*
X2871100Y34270832D01*
X2851049Y34105703D01*
X2851048Y34105690D01*
X2850598Y34101982D01*
X2850598Y28349982D01*
X2850952Y28346688D01*
X2850953Y28346673D01*
X2858608Y28275478D01*
X2866722Y28200011D01*
X2867426Y28196774D01*
X2867428Y28196763D01*
X2877457Y28150665D01*
X2877928Y28148500D01*
X2880491Y28137168D01*
X2881866Y28133417D01*
X2881867Y28133416D01*
X2936635Y27984076D01*
X2939051Y27977490D01*
X3034123Y27836466D01*
X3079878Y27783662D01*
X3091723Y27771148D01*
X3122480Y27738653D01*
X3258069Y27635985D01*
X3410837Y27570232D01*
X3410845Y27570229D01*
X3414291Y27568746D01*
X3474849Y27550964D01*
X3481330Y27549061D01*
X3482653Y27548696D01*
X3511248Y27540985D01*
X3511258Y27540984D01*
X3511261Y27540983D01*
X3680098Y27520482D01*
X7171944Y27520482D01*
X7238983Y27500797D01*
X7284738Y27447993D01*
X7294682Y27378835D01*
X7273368Y27325144D01*
X7234000Y27269175D01*
X7214866Y27230531D01*
X7209097Y27220161D01*
X7186365Y27183540D01*
X7155781Y27111660D01*
X7152805Y27105190D01*
X7118140Y27035178D01*
X7105132Y26994072D01*
X7101012Y26982936D01*
X7084134Y26943270D01*
X7064877Y26867549D01*
X7062924Y26860701D01*
X7039358Y26786233D01*
X7032778Y26743636D01*
X7030408Y26732010D01*
X7019779Y26690210D01*
X7012308Y26612456D01*
X7011424Y26605390D01*
X6999500Y26528186D01*
X6999500Y26485072D01*
X6998932Y26473215D01*
X6994808Y26430296D01*
X6999295Y26352323D01*
X6999500Y26345201D01*
X6999500Y21422513D01*
X6998387Y21405935D01*
X6997310Y21397956D01*
X6998591Y21331157D01*
X6999500Y21283711D01*
X6999500Y21234823D01*
X6999681Y21232460D01*
X6999682Y21232445D01*
X7000475Y21222119D01*
X7000816Y21215005D01*
X7002312Y21136895D01*
X7009708Y21094419D01*
X7011182Y21082647D01*
X7014484Y21039654D01*
X7032279Y20963609D01*
X7033703Y20956629D01*
X7047107Y20879654D01*
X7060899Y20838810D01*
X7064154Y20827396D01*
X7073979Y20785414D01*
X7103181Y20712957D01*
X7105653Y20706277D01*
X7130644Y20632268D01*
X7150509Y20594009D01*
X7155470Y20583221D01*
X7171586Y20543234D01*
X7211505Y20476086D01*
X7214967Y20469862D01*
X7235146Y20430999D01*
X7250964Y20400535D01*
X7276440Y20365751D01*
X7282980Y20355859D01*
X7305017Y20318793D01*
X7354721Y20258522D01*
X7359094Y20252898D01*
X7405248Y20189881D01*
X7435731Y20159399D01*
X7443716Y20150611D01*
X7471148Y20117348D01*
X7529465Y20065376D01*
X7534646Y20060484D01*
X8710934Y18884196D01*
X8721869Y18871687D01*
X8726750Y18865284D01*
X8809089Y18786041D01*
X8843652Y18751478D01*
X8845459Y18749929D01*
X8845463Y18749925D01*
X8853329Y18743180D01*
X8858599Y18738392D01*
X8880925Y18716906D01*
X8914886Y18684222D01*
X8950162Y18659410D01*
X8959514Y18652138D01*
X8992251Y18624069D01*
X9058635Y18582863D01*
X9064551Y18578950D01*
X9128456Y18534001D01*
X9160562Y18518105D01*
X9167094Y18514870D01*
X9177456Y18509106D01*
X9214097Y18486362D01*
X9214099Y18486361D01*
X9285978Y18455778D01*
X9292452Y18452801D01*
X9362453Y18418141D01*
X9375058Y18414152D01*
X9403553Y18405134D01*
X9414668Y18401023D01*
X9418966Y18399195D01*
X9472953Y18354845D01*
X9494393Y18288346D01*
X9483587Y18234362D01*
X9394880Y18036485D01*
X9325693Y17784717D01*
X9295747Y17525325D01*
X9304910Y17286288D01*
X9305749Y17264407D01*
X9354198Y17014589D01*
X9355463Y17008070D01*
X9443719Y16762336D01*
X9443720Y16762333D01*
X9443721Y16762332D01*
X9449623Y16751478D01*
X9568460Y16532940D01*
X9726746Y16325288D01*
X9726749Y16325285D01*
X9726750Y16325284D01*
X9774174Y16279643D01*
X9808827Y16218973D01*
X9805179Y16149199D01*
X9780761Y16107799D01*
X9643622Y15953918D01*
X9501693Y15734753D01*
X9394881Y15496491D01*
X9325693Y15244717D01*
X9295747Y14985325D01*
X9302892Y14798932D01*
X9305749Y14724407D01*
X9352173Y14485030D01*
X9355463Y14468070D01*
X9435072Y14246413D01*
X9439207Y14176666D01*
X9404977Y14115755D01*
X9343250Y14083020D01*
X9319168Y14080584D01*
X9319575Y14080591D01*
X9319043Y14080571D01*
X9318346Y14080500D01*
X9314823Y14080500D01*
X9312464Y14080319D01*
X9312440Y14080318D01*
X9302115Y14079525D01*
X9295003Y14079184D01*
X9216895Y14077688D01*
X9174418Y14070292D01*
X9162646Y14068818D01*
X9124893Y14065919D01*
X9119656Y14065516D01*
X9092710Y14059211D01*
X9043609Y14047721D01*
X9036631Y14046299D01*
X8959659Y14032895D01*
X8918813Y14019102D01*
X8907400Y14015847D01*
X8865412Y14006021D01*
X8792951Y13976817D01*
X8786289Y13974352D01*
X8713836Y13949886D01*
X8712268Y13949356D01*
X8674003Y13929489D01*
X8663221Y13924531D01*
X8623231Y13908414D01*
X8556077Y13868491D01*
X8549856Y13865030D01*
X8480531Y13829034D01*
X8445751Y13803562D01*
X8435856Y13797019D01*
X8398792Y13774983D01*
X8348897Y13733835D01*
X8284653Y13706368D01*
X8270004Y13705500D01*
X7124000Y13705500D01*
X7120706Y13705146D01*
X7120690Y13705145D01*
X6977339Y13689732D01*
X6977336Y13689732D01*
X6974029Y13689376D01*
X6970794Y13688673D01*
X6970780Y13688670D01*
X6922518Y13678170D01*
X6915084Y13676489D01*
X6915078Y13676488D01*
X6911186Y13675607D01*
X6907438Y13674233D01*
X6907433Y13674231D01*
X6751509Y13617048D01*
X6625418Y13532043D01*
X6610484Y13521975D01*
X6607659Y13519528D01*
X6607651Y13519521D01*
X6558706Y13477110D01*
X6558681Y13477088D01*
X6557680Y13476220D01*
X6556713Y13475305D01*
X6556710Y13475302D01*
X6512670Y13433618D01*
X6410002Y13298029D01*
X6344249Y13145261D01*
X6344240Y13145238D01*
X6342764Y13141807D01*
X6341709Y13138217D01*
X6341707Y13138209D01*
X6323079Y13074768D01*
X6322714Y13073445D01*
X6315002Y13044850D01*
X6294951Y12879721D01*
X6294950Y12879708D01*
X6294500Y12876000D01*
X6294500Y7124000D01*
X6294854Y7120706D01*
X6294855Y7120691D01*
X6300808Y7065325D01*
X6310624Y6974029D01*
X6311328Y6970792D01*
X6311330Y6970781D01*
X6320952Y6926555D01*
X6321830Y6922518D01*
X6324393Y6911186D01*
X6325768Y6907435D01*
X6325769Y6907434D01*
X6343827Y6858193D01*
X6382953Y6751508D01*
X6478025Y6610484D01*
X6523780Y6557680D01*
X6566380Y6512673D01*
X6566382Y6512671D01*
X6701971Y6410003D01*
X6854739Y6344250D01*
X6854747Y6344247D01*
X6858193Y6342764D01*
X6916068Y6325770D01*
X6925232Y6323079D01*
X6926555Y6322714D01*
X6955150Y6315003D01*
X6955160Y6315002D01*
X6955163Y6315001D01*
X7124000Y6294500D01*
X7127749Y6294500D01*
X12872676Y6294500D01*
X12876000Y6294500D01*
X13025971Y6310624D01*
X13077482Y6321830D01*
X13088814Y6324393D01*
X13248492Y6382953D01*
X13389516Y6478025D01*
X13442320Y6523780D01*
X13487327Y6566380D01*
X13589997Y6701971D01*
X13657236Y6858193D01*
X13676921Y6925232D01*
X13677286Y6926555D01*
X13684997Y6955151D01*
X13684998Y6955160D01*
X13684999Y6955163D01*
X13705500Y7124000D01*
X13705500Y12298510D01*
X13725185Y12365548D01*
X13777989Y12411303D01*
X13847147Y12421247D01*
X13866899Y12416734D01*
X13903578Y12405127D01*
X13914674Y12401021D01*
X13954362Y12384134D01*
X14030096Y12364875D01*
X14036908Y12362932D01*
X14111395Y12339359D01*
X14154000Y12332779D01*
X14165628Y12330408D01*
X14207417Y12319780D01*
X14285190Y12312309D01*
X14292207Y12311431D01*
X14369445Y12299500D01*
X14412568Y12299500D01*
X14424424Y12298933D01*
X14467331Y12294810D01*
X14467332Y12294811D01*
X14467334Y12294810D01*
X14545290Y12299295D01*
X14552412Y12299500D01*
X16562798Y12299500D01*
X16565177Y12299500D01*
X16760344Y12314484D01*
X17014586Y12373979D01*
X17214090Y12454386D01*
X17256762Y12471584D01*
X17256764Y12471586D01*
X17256766Y12471586D01*
X17481208Y12605018D01*
X17682652Y12771148D01*
X17856375Y12966080D01*
X17998306Y13185247D01*
X18058045Y13318506D01*
X18105118Y13423510D01*
X18174306Y13675284D01*
X18174307Y13675287D01*
X18204252Y13934675D01*
X18194251Y14195593D01*
X18144538Y14451927D01*
X18056279Y14697668D01*
X17943461Y14905137D01*
X17931539Y14927061D01*
X17773250Y15134716D01*
X17585112Y15315780D01*
X17371546Y15465998D01*
X17253643Y15524376D01*
X17202300Y15571763D01*
X17184726Y15639387D01*
X17206502Y15705776D01*
X17260714Y15749854D01*
X17308665Y15759500D01*
X26785302Y15759500D01*
X26852341Y15739815D01*
X26898096Y15687011D01*
X26908040Y15617853D01*
X26904218Y15600362D01*
X26890939Y15555425D01*
X26832219Y15356726D01*
X26797310Y15097956D01*
X26802312Y14836899D01*
X26847106Y14579658D01*
X26930643Y14332270D01*
X27050964Y14100534D01*
X27205249Y13889881D01*
X27378789Y13716341D01*
X27389724Y13703832D01*
X27394605Y13697429D01*
X27476944Y13618186D01*
X27511507Y13583623D01*
X27513314Y13582074D01*
X27513318Y13582070D01*
X27521184Y13575325D01*
X27526454Y13570537D01*
X27569602Y13529012D01*
X27582741Y13516367D01*
X27618017Y13491555D01*
X27627369Y13484283D01*
X27660106Y13456214D01*
X27726490Y13415008D01*
X27732406Y13411095D01*
X27796311Y13366146D01*
X27813692Y13357541D01*
X27834950Y13347014D01*
X27845311Y13341251D01*
X27881952Y13318507D01*
X27921899Y13301511D01*
X27953836Y13287922D01*
X27960311Y13284945D01*
X28030308Y13250286D01*
X28071418Y13237277D01*
X28082548Y13233159D01*
X28122218Y13216279D01*
X28197951Y13197020D01*
X28204745Y13195082D01*
X28279250Y13171504D01*
X28321856Y13164923D01*
X28333476Y13162555D01*
X28375273Y13151925D01*
X28453036Y13144455D01*
X28460077Y13143574D01*
X28537300Y13131645D01*
X28580414Y13131645D01*
X28592272Y13131077D01*
X28635187Y13126954D01*
X28635188Y13126955D01*
X28635190Y13126954D01*
X28713163Y13131440D01*
X28720285Y13131645D01*
X31079305Y13131645D01*
X31146344Y13111960D01*
X31192099Y13059156D01*
X31202043Y12989998D01*
X31173018Y12926442D01*
X31166986Y12919964D01*
X29988841Y11741819D01*
X29927518Y11708334D01*
X29901160Y11705500D01*
X25124000Y11705500D01*
X25120706Y11705146D01*
X25120690Y11705145D01*
X24977339Y11689732D01*
X24977336Y11689732D01*
X24974029Y11689376D01*
X24970794Y11688673D01*
X24970780Y11688670D01*
X24922518Y11678170D01*
X24915084Y11676489D01*
X24915078Y11676488D01*
X24911186Y11675607D01*
X24907438Y11674233D01*
X24907433Y11674231D01*
X24751509Y11617048D01*
X24699312Y11581859D01*
X24610484Y11521975D01*
X24607659Y11519528D01*
X24607651Y11519521D01*
X24558706Y11477110D01*
X24558681Y11477088D01*
X24557680Y11476220D01*
X24556713Y11475305D01*
X24556710Y11475302D01*
X24512670Y11433618D01*
X24410002Y11298029D01*
X24344249Y11145261D01*
X24344240Y11145238D01*
X24342764Y11141807D01*
X24341709Y11138217D01*
X24341707Y11138209D01*
X24323079Y11074768D01*
X24322714Y11073445D01*
X24315002Y11044850D01*
X24294951Y10879721D01*
X24294950Y10879708D01*
X24294500Y10876000D01*
X24294500Y5124000D01*
X24294854Y5120706D01*
X24294855Y5120691D01*
X24310268Y4977340D01*
X24310624Y4974029D01*
X24311328Y4970792D01*
X24311330Y4970781D01*
X24320952Y4926555D01*
X24321830Y4922518D01*
X24324393Y4911186D01*
X24325768Y4907435D01*
X24325769Y4907434D01*
X24347421Y4848393D01*
X24382953Y4751508D01*
X24478025Y4610484D01*
X24523780Y4557680D01*
X24566380Y4512673D01*
X24566382Y4512671D01*
X24701971Y4410003D01*
X24854739Y4344250D01*
X24854747Y4344247D01*
X24858193Y4342764D01*
X24916068Y4325770D01*
X24925232Y4323079D01*
X24926555Y4322714D01*
X24955150Y4315003D01*
X24955160Y4315002D01*
X24955163Y4315001D01*
X25124000Y4294500D01*
X25127749Y4294500D01*
X30872676Y4294500D01*
X30876000Y4294500D01*
X31025971Y4310624D01*
X31077482Y4321830D01*
X31088814Y4324393D01*
X31248492Y4382953D01*
X31389516Y4478025D01*
X31442320Y4523780D01*
X31487327Y4566380D01*
X31589997Y4701971D01*
X31657236Y4858193D01*
X31676921Y4925232D01*
X31677286Y4926555D01*
X31684997Y4955151D01*
X31684998Y4955160D01*
X31684999Y4955163D01*
X31705500Y5124000D01*
X31705500Y8597376D01*
X31725185Y8664415D01*
X31741819Y8685057D01*
X32956329Y9899567D01*
X34192559Y11135797D01*
X34319968Y11284396D01*
X34328431Y11298029D01*
X34402360Y11417130D01*
X34457675Y11506242D01*
X34529151Y11674231D01*
X34559903Y11746506D01*
X34624256Y11999560D01*
X34624257Y11999562D01*
X34649228Y12259477D01*
X34634231Y12520155D01*
X34579617Y12775490D01*
X34486666Y13019495D01*
X34357557Y13246452D01*
X34195317Y13451041D01*
X34172635Y13472048D01*
X34136827Y13532043D01*
X34139139Y13601874D01*
X34164320Y13645519D01*
X34300412Y13798225D01*
X34442343Y14017392D01*
X34510996Y14170535D01*
X34549155Y14255655D01*
X34602296Y14449035D01*
X34618344Y14507432D01*
X34648289Y14766820D01*
X34639036Y15008204D01*
X34656138Y15075945D01*
X34707151Y15123689D01*
X34775877Y15136275D01*
X34840498Y15109706D01*
X34870725Y15074265D01*
X34886979Y15045693D01*
X35049220Y14841104D01*
X35240789Y14663678D01*
X35457197Y14517575D01*
X35693370Y14406219D01*
X35943776Y14332219D01*
X36202542Y14297311D01*
X36202543Y14297312D01*
X36202544Y14297311D01*
X36306966Y14299312D01*
X36463604Y14302313D01*
X36720843Y14347107D01*
X36968229Y14430643D01*
X37199965Y14550964D01*
X37410619Y14705249D01*
X38340696Y15635326D01*
X38402019Y15668811D01*
X38428377Y15671645D01*
X39116413Y15671645D01*
X39183452Y15651960D01*
X39204094Y15635326D01*
X39455224Y15384196D01*
X39466159Y15371687D01*
X39471040Y15365284D01*
X39553379Y15286041D01*
X39587942Y15251478D01*
X39589749Y15249929D01*
X39589753Y15249925D01*
X39597619Y15243180D01*
X39602889Y15238392D01*
X39650637Y15192440D01*
X39659176Y15184222D01*
X39694452Y15159410D01*
X39703804Y15152138D01*
X39736541Y15124069D01*
X39802925Y15082863D01*
X39808841Y15078950D01*
X39872746Y15034001D01*
X39885395Y15027738D01*
X39911385Y15014869D01*
X39921746Y15009106D01*
X39958387Y14986362D01*
X39998131Y14969452D01*
X40030273Y14955776D01*
X40036748Y14952799D01*
X40106743Y14918141D01*
X40147846Y14905134D01*
X40158964Y14901022D01*
X40198652Y14884134D01*
X40274377Y14864877D01*
X40281198Y14862932D01*
X40355685Y14839359D01*
X40398290Y14832779D01*
X40409918Y14830408D01*
X40451707Y14819780D01*
X40529467Y14812310D01*
X40536532Y14811426D01*
X40613735Y14799500D01*
X40656848Y14799500D01*
X40668706Y14798932D01*
X40711621Y14794809D01*
X40711622Y14794810D01*
X40711624Y14794809D01*
X40789597Y14799295D01*
X40796719Y14799500D01*
X42369445Y14799500D01*
X42412559Y14799500D01*
X42424417Y14798932D01*
X42467332Y14794809D01*
X42467333Y14794810D01*
X42467335Y14794809D01*
X42545308Y14799295D01*
X42552430Y14799500D01*
X43134652Y14799500D01*
X43201691Y14779815D01*
X43247446Y14727011D01*
X43258637Y14677376D01*
X43279681Y13284945D01*
X43341179Y9215702D01*
X43341179Y9215689D01*
X43341228Y9212505D01*
X43358425Y9067988D01*
X43369617Y9018351D01*
X43371026Y9012226D01*
X43372361Y9008585D01*
X43372364Y9008576D01*
X43424214Y8867195D01*
X43428816Y8797477D01*
X43394994Y8736338D01*
X43333488Y8703191D01*
X43307796Y8700500D01*
X37934823Y8700500D01*
X37932456Y8700319D01*
X37932448Y8700318D01*
X37739656Y8685516D01*
X37485412Y8626021D01*
X37243237Y8528417D01*
X37018791Y8394983D01*
X36817346Y8228852D01*
X36643622Y8033918D01*
X36501693Y7814753D01*
X36394881Y7576491D01*
X36325693Y7324717D01*
X36295747Y7065325D01*
X36301656Y6911186D01*
X36305749Y6804407D01*
X36343907Y6607652D01*
X36355463Y6548070D01*
X36443719Y6302336D01*
X36568460Y6072940D01*
X36726749Y5865285D01*
X36914887Y5684221D01*
X37042403Y5594529D01*
X37128456Y5534001D01*
X37362452Y5418142D01*
X37362453Y5418141D01*
X37611391Y5339360D01*
X37611392Y5339360D01*
X37611395Y5339359D01*
X37869445Y5299500D01*
X37869447Y5299500D01*
X45457798Y5299500D01*
X45460177Y5299500D01*
X45655344Y5314484D01*
X45909586Y5373979D01*
X46074661Y5440511D01*
X46121014Y5449500D01*
X46298797Y5449500D01*
X46301616Y5449500D01*
X46372196Y5455914D01*
X46534606Y5506522D01*
X46680185Y5594528D01*
X46727456Y5641799D01*
X46788779Y5675285D01*
X46858471Y5670301D01*
X46897637Y5646693D01*
X46901082Y5643623D01*
X47120247Y5501694D01*
X47358509Y5394882D01*
X47610283Y5325694D01*
X47610287Y5325693D01*
X47869675Y5295748D01*
X48130593Y5305749D01*
X48386927Y5355462D01*
X48632668Y5443721D01*
X48862057Y5568459D01*
X48896257Y5594528D01*
X48960666Y5643625D01*
X49069716Y5726750D01*
X49250778Y5914886D01*
X49400999Y6128456D01*
X49516859Y6362453D01*
X49595641Y6611395D01*
X49635500Y6869445D01*
X49635500Y8175500D01*
X49655185Y8242539D01*
X49707989Y8288294D01*
X49759500Y8299500D01*
X49884445Y8299500D01*
X49927559Y8299500D01*
X49939417Y8298932D01*
X49982332Y8294809D01*
X49982333Y8294810D01*
X49982335Y8294809D01*
X50060308Y8299295D01*
X50067430Y8299500D01*
X52770408Y8299500D01*
X52786984Y8298388D01*
X52794962Y8297311D01*
X52794965Y8297312D01*
X52794966Y8297311D01*
X52886359Y8299063D01*
X52909209Y8299500D01*
X52958097Y8299500D01*
X54078704Y8299500D01*
X54145743Y8279815D01*
X54191498Y8227011D01*
X54201442Y8157853D01*
X54172417Y8094297D01*
X54171276Y8092999D01*
X54118622Y8033918D01*
X53976693Y7814753D01*
X53869881Y7576491D01*
X53800693Y7324717D01*
X53770747Y7065325D01*
X53776656Y6911186D01*
X53780749Y6804407D01*
X53818907Y6607652D01*
X53830463Y6548070D01*
X53918719Y6302336D01*
X54043460Y6072940D01*
X54201749Y5865285D01*
X54389887Y5684221D01*
X54517403Y5594529D01*
X54603456Y5534001D01*
X54837452Y5418141D01*
X54837453Y5418141D01*
X55086391Y5339360D01*
X55086392Y5339360D01*
X55086395Y5339359D01*
X55344445Y5299500D01*
X55344447Y5299500D01*
X60537798Y5299500D01*
X60540177Y5299500D01*
X60735344Y5314484D01*
X60989586Y5373979D01*
X61154661Y5440511D01*
X61201014Y5449500D01*
X61378797Y5449500D01*
X61381616Y5449500D01*
X61452196Y5455914D01*
X61614606Y5506522D01*
X61760185Y5594528D01*
X61807456Y5641800D01*
X61868779Y5675285D01*
X61938471Y5670301D01*
X61977637Y5646693D01*
X61981082Y5643623D01*
X62200247Y5501694D01*
X62438509Y5394882D01*
X62690283Y5325694D01*
X62690287Y5325693D01*
X62949675Y5295748D01*
X63210593Y5305749D01*
X63466927Y5355462D01*
X63712668Y5443721D01*
X63942057Y5568459D01*
X63976257Y5594528D01*
X64040666Y5643625D01*
X64149716Y5726750D01*
X64330778Y5914886D01*
X64480999Y6128456D01*
X64596859Y6362453D01*
X64675641Y6611395D01*
X64715500Y6869445D01*
X64715500Y7446351D01*
X64735185Y7513389D01*
X64751814Y7534026D01*
X68480969Y11263181D01*
X68542293Y11296666D01*
X68568651Y11299500D01*
X75244268Y11299500D01*
X75311307Y11279815D01*
X75331949Y11263181D01*
X76221672Y10373458D01*
X76255157Y10312135D01*
X76250173Y10242443D01*
X76208301Y10186510D01*
X76142837Y10162093D01*
X76133991Y10161777D01*
X75124000Y10161777D01*
X75120706Y10161423D01*
X75120690Y10161422D01*
X74977339Y10146009D01*
X74977336Y10146009D01*
X74974029Y10145653D01*
X74970794Y10144950D01*
X74970780Y10144947D01*
X74922518Y10134447D01*
X74915084Y10132766D01*
X74915078Y10132765D01*
X74911186Y10131884D01*
X74907438Y10130510D01*
X74907433Y10130508D01*
X74751509Y10073325D01*
X74613590Y9980346D01*
X74610484Y9978252D01*
X74607659Y9975805D01*
X74607651Y9975798D01*
X74558706Y9933387D01*
X74558681Y9933365D01*
X74557680Y9932497D01*
X74556713Y9931582D01*
X74556710Y9931579D01*
X74512670Y9889895D01*
X74410002Y9754306D01*
X74344249Y9601538D01*
X74344240Y9601515D01*
X74342764Y9598084D01*
X74341709Y9594494D01*
X74341707Y9594486D01*
X74323079Y9531045D01*
X74322714Y9529722D01*
X74315002Y9501127D01*
X74294951Y9335998D01*
X74294950Y9335985D01*
X74294500Y9332277D01*
X74294500Y4124000D01*
X74294854Y4120706D01*
X74294855Y4120691D01*
X74300546Y4067765D01*
X74310624Y3974029D01*
X74311328Y3970792D01*
X74311330Y3970781D01*
X74319716Y3932236D01*
X74321830Y3922518D01*
X74324393Y3911186D01*
X74325768Y3907435D01*
X74325769Y3907434D01*
X74343827Y3858193D01*
X74382953Y3751508D01*
X74478025Y3610484D01*
X74523780Y3557680D01*
X74566380Y3512673D01*
X74566382Y3512671D01*
X74701971Y3410003D01*
X74854739Y3344250D01*
X74854747Y3344247D01*
X74858193Y3342764D01*
X74916068Y3325770D01*
X74925232Y3323079D01*
X74926555Y3322714D01*
X74955150Y3315003D01*
X74955160Y3315002D01*
X74955163Y3315001D01*
X75124000Y3294500D01*
X75127749Y3294500D01*
X82872676Y3294500D01*
X82876000Y3294500D01*
X83025971Y3310624D01*
X83077482Y3321830D01*
X83088814Y3324393D01*
X83248492Y3382953D01*
X83389516Y3478025D01*
X83442320Y3523780D01*
X83487327Y3566380D01*
X83589997Y3701971D01*
X83657236Y3858193D01*
X83676921Y3925232D01*
X83677286Y3926555D01*
X83678818Y3932236D01*
X84145787Y3932236D01*
X84175413Y3662984D01*
X84203197Y3556711D01*
X84243928Y3400912D01*
X84297720Y3274330D01*
X84349871Y3151608D01*
X84490982Y2920389D01*
X84580253Y2813119D01*
X84664255Y2712180D01*
X84865998Y2531418D01*
X85091910Y2381956D01*
X85198211Y2332124D01*
X85337177Y2266979D01*
X85596562Y2188942D01*
X85596569Y2188940D01*
X85864561Y2149500D01*
X85864564Y2149500D01*
X86065369Y2149500D01*
X86067631Y2149500D01*
X86270156Y2164323D01*
X86534553Y2223220D01*
X86787558Y2319986D01*
X87023777Y2452559D01*
X87238177Y2618112D01*
X87426186Y2813119D01*
X87583799Y3033421D01*
X87707656Y3274325D01*
X87795118Y3530695D01*
X87844319Y3797067D01*
X87854212Y4067765D01*
X87824586Y4337018D01*
X87756072Y4599088D01*
X87650130Y4848390D01*
X87509018Y5079610D01*
X87509017Y5079612D01*
X87335746Y5287819D01*
X87260250Y5355464D01*
X87134002Y5468582D01*
X86908090Y5618044D01*
X86908086Y5618046D01*
X86662822Y5733022D01*
X86403437Y5811059D01*
X86403431Y5811060D01*
X86135439Y5850500D01*
X85932369Y5850500D01*
X85930120Y5850336D01*
X85930109Y5850335D01*
X85729843Y5835678D01*
X85465449Y5776781D01*
X85212441Y5680014D01*
X84976223Y5547441D01*
X84761825Y5381891D01*
X84573813Y5186880D01*
X84416201Y4966580D01*
X84292342Y4725671D01*
X84204881Y4469305D01*
X84155680Y4202934D01*
X84145787Y3932236D01*
X83678818Y3932236D01*
X83684997Y3955151D01*
X83684998Y3955160D01*
X83684999Y3955163D01*
X83705500Y4124000D01*
X83705500Y9332277D01*
X83689376Y9482248D01*
X83678170Y9533759D01*
X83675607Y9545091D01*
X83617047Y9704769D01*
X83521975Y9845793D01*
X83476220Y9898597D01*
X83433620Y9943604D01*
X83433619Y9943605D01*
X83433617Y9943607D01*
X83298028Y10046275D01*
X83145260Y10112028D01*
X83145242Y10112035D01*
X83141807Y10113513D01*
X83138211Y10114569D01*
X83138208Y10114570D01*
X83074768Y10133198D01*
X83073445Y10133563D01*
X83044849Y10141275D01*
X82879720Y10161326D01*
X82879708Y10161327D01*
X82876000Y10161777D01*
X82872251Y10161777D01*
X81294456Y10161777D01*
X81227417Y10181462D01*
X81206775Y10198096D01*
X77289065Y14115805D01*
X77278129Y14128315D01*
X77273249Y14134717D01*
X77190910Y14213960D01*
X77176018Y14228852D01*
X77156348Y14248522D01*
X77146662Y14256827D01*
X77141423Y14261586D01*
X77085114Y14315778D01*
X77049844Y14340587D01*
X77040480Y14347868D01*
X77007749Y14375931D01*
X76941363Y14417139D01*
X76935434Y14421060D01*
X76931878Y14423561D01*
X76871544Y14465999D01*
X76871542Y14466000D01*
X76871538Y14466003D01*
X76832913Y14485128D01*
X76822543Y14490896D01*
X76785906Y14513636D01*
X76785903Y14513638D01*
X76714022Y14544222D01*
X76707549Y14547199D01*
X76637546Y14581860D01*
X76596442Y14594868D01*
X76585308Y14598987D01*
X76584064Y14599516D01*
X76545638Y14615866D01*
X76469917Y14635123D01*
X76463072Y14637075D01*
X76388604Y14660642D01*
X76345994Y14667224D01*
X76334376Y14669593D01*
X76292582Y14680220D01*
X76292581Y14680221D01*
X76292574Y14680222D01*
X76214825Y14687692D01*
X76207758Y14688576D01*
X76130556Y14700500D01*
X76130555Y14700500D01*
X76087441Y14700500D01*
X76075583Y14701068D01*
X76032664Y14705192D01*
X75954692Y14700705D01*
X75947570Y14700500D01*
X67935431Y14700500D01*
X67918854Y14701613D01*
X67915975Y14702002D01*
X67910872Y14702690D01*
X67798594Y14700538D01*
X67796630Y14700500D01*
X67747742Y14700500D01*
X67745382Y14700319D01*
X67745359Y14700318D01*
X67735034Y14699525D01*
X67727922Y14699184D01*
X67649813Y14697688D01*
X67607336Y14690292D01*
X67595564Y14688818D01*
X67552574Y14685516D01*
X67476489Y14667713D01*
X67469513Y14666291D01*
X67392574Y14652892D01*
X67351732Y14639101D01*
X67340318Y14635846D01*
X67298331Y14626021D01*
X67225871Y14596818D01*
X67219192Y14594347D01*
X67145189Y14569358D01*
X67106920Y14549489D01*
X67096141Y14544532D01*
X67056155Y14528415D01*
X67056153Y14528414D01*
X67037921Y14517575D01*
X66989000Y14488492D01*
X66982776Y14485030D01*
X66913450Y14449035D01*
X66878668Y14423561D01*
X66868773Y14417018D01*
X66831715Y14394986D01*
X66771444Y14345281D01*
X66765822Y14340910D01*
X66702800Y14294752D01*
X66672307Y14264259D01*
X66663524Y14256280D01*
X66630266Y14228852D01*
X66578293Y14170535D01*
X66573403Y14165356D01*
X63494139Y11086092D01*
X63432816Y11052607D01*
X63363124Y11057591D01*
X63318780Y11086090D01*
X63289056Y11115814D01*
X63278129Y11128315D01*
X63273249Y11134717D01*
X63190911Y11213959D01*
X63190910Y11213959D01*
X63156348Y11248522D01*
X63146662Y11256827D01*
X63141423Y11261586D01*
X63085114Y11315778D01*
X63049844Y11340587D01*
X63040480Y11347868D01*
X63007749Y11375931D01*
X62941363Y11417139D01*
X62935434Y11421060D01*
X62917577Y11433620D01*
X62871544Y11465999D01*
X62871542Y11466000D01*
X62871538Y11466003D01*
X62832913Y11485128D01*
X62822543Y11490896D01*
X62785906Y11513636D01*
X62785903Y11513638D01*
X62714022Y11544222D01*
X62707549Y11547199D01*
X62637546Y11581860D01*
X62596442Y11594868D01*
X62585308Y11598987D01*
X62584064Y11599516D01*
X62545638Y11615866D01*
X62469917Y11635123D01*
X62463072Y11637075D01*
X62388604Y11660642D01*
X62345994Y11667224D01*
X62334376Y11669593D01*
X62292582Y11680220D01*
X62292581Y11680221D01*
X62292574Y11680222D01*
X62214825Y11687692D01*
X62207758Y11688576D01*
X62130556Y11700500D01*
X62130555Y11700500D01*
X62087441Y11700500D01*
X62075583Y11701068D01*
X62032664Y11705192D01*
X61954692Y11700705D01*
X61947570Y11700500D01*
X61094406Y11700500D01*
X61030256Y11718383D01*
X61027275Y11720185D01*
X61003566Y11734518D01*
X60841156Y11785126D01*
X60841153Y11785127D01*
X60773384Y11791285D01*
X60773380Y11791286D01*
X60770576Y11791540D01*
X59057344Y11791540D01*
X59054540Y11791286D01*
X59054535Y11791285D01*
X58986766Y11785127D01*
X58947814Y11772989D01*
X58824354Y11734518D01*
X58824352Y11734518D01*
X58824352Y11734517D01*
X58797664Y11718383D01*
X58733514Y11700500D01*
X56743367Y11700500D01*
X56676328Y11720185D01*
X56630573Y11772989D01*
X56619367Y11824496D01*
X56619360Y12030227D01*
X56619285Y12034749D01*
X56619216Y12036252D01*
X56617273Y12077180D01*
X56616891Y12079081D01*
X56614460Y12103515D01*
X56614460Y13027337D01*
X56614460Y13030156D01*
X56608046Y13100736D01*
X56557438Y13263146D01*
X56469432Y13408725D01*
X56469431Y13408727D01*
X56349146Y13529012D01*
X56228617Y13601874D01*
X56203566Y13617018D01*
X56041156Y13667626D01*
X56041153Y13667627D01*
X55973384Y13673785D01*
X55973380Y13673786D01*
X55970576Y13674040D01*
X55967757Y13674040D01*
X55338639Y13674040D01*
X55303497Y13679124D01*
X55270685Y13688821D01*
X55011915Y13723730D01*
X54750859Y13718728D01*
X54504792Y13675878D01*
X54483519Y13674040D01*
X53997866Y13674040D01*
X53950174Y13683578D01*
X48658257Y15888544D01*
X48657024Y15889035D01*
X48630132Y15899562D01*
X48628907Y15900019D01*
X48621518Y15902727D01*
X48621461Y15902747D01*
X48620210Y15903206D01*
X48607456Y15907274D01*
X48562080Y15921746D01*
X48397490Y15945717D01*
X48397486Y15945718D01*
X48393781Y15946257D01*
X48390052Y15946346D01*
X48390038Y15946347D01*
X48323933Y15947920D01*
X48322567Y15947930D01*
X48292945Y15947979D01*
X48128249Y15924607D01*
X48128245Y15924607D01*
X48124544Y15924081D01*
X48120941Y15923116D01*
X48120918Y15923111D01*
X48089181Y15914608D01*
X48067901Y15910856D01*
X47985806Y15903673D01*
X47964190Y15903673D01*
X47882094Y15910856D01*
X47860808Y15914609D01*
X47781197Y15935941D01*
X47760887Y15943333D01*
X47738183Y15953920D01*
X47686187Y15978166D01*
X47667477Y15988969D01*
X47599962Y16036243D01*
X47583404Y16050137D01*
X47525134Y16108407D01*
X47511240Y16124965D01*
X47452100Y16209427D01*
X47420621Y16254384D01*
X47415699Y16261413D01*
X47413870Y16264099D01*
X47395632Y16291656D01*
X47388342Y16300484D01*
X47379277Y16313429D01*
X47378722Y16313582D01*
X47354920Y16332740D01*
X47281860Y16408149D01*
X47281858Y16408151D01*
X47279242Y16410851D01*
X47224932Y16454804D01*
X47223857Y16455645D01*
X47223591Y16455842D01*
X47182631Y16512447D01*
X47175500Y16553892D01*
X47175500Y16562800D01*
X47175500Y16565177D01*
X47173180Y16595386D01*
X47172913Y16600025D01*
X47169251Y16695593D01*
X47164374Y16720732D01*
X47162475Y16734815D01*
X47160516Y16760344D01*
X47138724Y16853466D01*
X47137738Y16858077D01*
X47119538Y16951927D01*
X47110886Y16976013D01*
X47106852Y16989665D01*
X47101021Y17014586D01*
X47065282Y17103259D01*
X47063608Y17107651D01*
X47031279Y17197668D01*
X47019046Y17220163D01*
X47012982Y17233025D01*
X47003414Y17256766D01*
X46954541Y17338972D01*
X46952230Y17343035D01*
X46906541Y17427057D01*
X46891022Y17447416D01*
X46883060Y17459211D01*
X46880017Y17464328D01*
X46869982Y17481208D01*
X46857833Y17495939D01*
X46809158Y17554963D01*
X46806207Y17558684D01*
X46748250Y17634716D01*
X46729807Y17652465D01*
X46720125Y17662919D01*
X46703852Y17682652D01*
X46632471Y17746267D01*
X46629015Y17749469D01*
X46560114Y17815778D01*
X46539179Y17830503D01*
X46528023Y17839351D01*
X46508917Y17856378D01*
X46428670Y17908345D01*
X46424733Y17911003D01*
X46346548Y17965997D01*
X46346544Y17965999D01*
X46325292Y17976522D01*
X46273950Y18023908D01*
X46256376Y18091531D01*
X46278152Y18157921D01*
X46332364Y18201998D01*
X46380315Y18211645D01*
X50332123Y18211645D01*
X50399162Y18191960D01*
X50419804Y18175326D01*
X52609894Y15985236D01*
X52620829Y15972727D01*
X52625710Y15966324D01*
X52708049Y15887081D01*
X52742612Y15852518D01*
X52744419Y15850969D01*
X52744423Y15850965D01*
X52752289Y15844220D01*
X52757559Y15839432D01*
X52765155Y15832122D01*
X52813846Y15785262D01*
X52849122Y15760450D01*
X52858474Y15753178D01*
X52891211Y15725109D01*
X52957595Y15683903D01*
X52963511Y15679990D01*
X53027416Y15635041D01*
X53044797Y15626436D01*
X53066055Y15615909D01*
X53076416Y15610146D01*
X53113057Y15587402D01*
X53138829Y15576437D01*
X53184941Y15556817D01*
X53191416Y15553840D01*
X53261413Y15519181D01*
X53302523Y15506172D01*
X53313653Y15502054D01*
X53353323Y15485174D01*
X53429056Y15465915D01*
X53435850Y15463977D01*
X53510355Y15440399D01*
X53552961Y15433818D01*
X53564581Y15431450D01*
X53606378Y15420820D01*
X53684141Y15413350D01*
X53691182Y15412469D01*
X53768405Y15400540D01*
X53811519Y15400540D01*
X53823377Y15399972D01*
X53866292Y15395849D01*
X53866293Y15395850D01*
X53866295Y15395849D01*
X53944268Y15400335D01*
X53951390Y15400540D01*
X54405520Y15400540D01*
X54454068Y15390641D01*
X54469216Y15384196D01*
X54469362Y15384134D01*
X54545069Y15364882D01*
X54551915Y15362931D01*
X54626395Y15339359D01*
X54669009Y15332777D01*
X54680633Y15330406D01*
X54699482Y15325613D01*
X54722418Y15319780D01*
X54800181Y15312310D01*
X54807222Y15311429D01*
X54884445Y15299500D01*
X54927559Y15299500D01*
X54939417Y15298932D01*
X54982332Y15294809D01*
X54982333Y15294810D01*
X54982335Y15294809D01*
X55060308Y15299295D01*
X55067430Y15299500D01*
X57059740Y15299500D01*
X57076316Y15298388D01*
X57084294Y15297311D01*
X57084297Y15297312D01*
X57084298Y15297311D01*
X57175691Y15299063D01*
X57198541Y15299500D01*
X57247429Y15299500D01*
X57249791Y15299682D01*
X57249804Y15299682D01*
X57260134Y15300476D01*
X57267248Y15300818D01*
X57345356Y15302313D01*
X57387850Y15309713D01*
X57399606Y15311184D01*
X57442596Y15314484D01*
X57518668Y15332287D01*
X57525625Y15333705D01*
X57602595Y15347107D01*
X57643459Y15360907D01*
X57654840Y15364152D01*
X57696838Y15373979D01*
X57769332Y15403198D01*
X57775921Y15405636D01*
X57849981Y15430643D01*
X57888263Y15450521D01*
X57899013Y15455464D01*
X57939018Y15471586D01*
X58006217Y15511538D01*
X58012357Y15514952D01*
X58081717Y15550964D01*
X58116508Y15576446D01*
X58126393Y15582982D01*
X58163460Y15605018D01*
X58223739Y15654731D01*
X58229352Y15659094D01*
X58242620Y15668811D01*
X58263234Y15683909D01*
X58292366Y15705245D01*
X58292367Y15705247D01*
X58292371Y15705249D01*
X58322868Y15735748D01*
X58331648Y15743723D01*
X58364904Y15771148D01*
X58416894Y15829487D01*
X58421749Y15834629D01*
X58761342Y16174221D01*
X58822666Y16207706D01*
X58849024Y16210540D01*
X59791448Y16210540D01*
X59808024Y16209428D01*
X59816002Y16208351D01*
X59816005Y16208352D01*
X59816006Y16208351D01*
X59907399Y16210103D01*
X59930249Y16210540D01*
X59979137Y16210540D01*
X59981499Y16210722D01*
X59981512Y16210722D01*
X59991842Y16211516D01*
X59998956Y16211858D01*
X60077064Y16213353D01*
X60119558Y16220753D01*
X60131314Y16222224D01*
X60174304Y16225524D01*
X60250376Y16243327D01*
X60257333Y16244745D01*
X60334303Y16258147D01*
X60375167Y16271947D01*
X60386548Y16275192D01*
X60428546Y16285019D01*
X60501040Y16314238D01*
X60507629Y16316676D01*
X60581689Y16341683D01*
X60619971Y16361561D01*
X60630721Y16366504D01*
X60670726Y16382626D01*
X60671569Y16383128D01*
X60672829Y16383474D01*
X60679560Y16386186D01*
X60679873Y16385410D01*
X60734934Y16400540D01*
X63976758Y16400540D01*
X63979137Y16400540D01*
X64174304Y16415524D01*
X64428546Y16475019D01*
X64624244Y16553892D01*
X64670722Y16572624D01*
X64670724Y16572626D01*
X64670726Y16572626D01*
X64895168Y16706058D01*
X65096612Y16872188D01*
X65270335Y17067120D01*
X65412266Y17286287D01*
X65484497Y17447411D01*
X65519078Y17524550D01*
X65580436Y17747831D01*
X65588267Y17776327D01*
X65618212Y18035715D01*
X65618182Y18036485D01*
X65616443Y18081859D01*
X65608211Y18296633D01*
X65558498Y18552967D01*
X65470239Y18798708D01*
X65345501Y19028097D01*
X65345499Y19028101D01*
X65187210Y19235756D01*
X64999072Y19416820D01*
X64785506Y19567038D01*
X64551506Y19682900D01*
X64302568Y19761681D01*
X64120145Y19789858D01*
X64044515Y19801540D01*
X64044513Y19801540D01*
X60226473Y19801540D01*
X60209896Y19802653D01*
X60207017Y19803042D01*
X60201914Y19803730D01*
X60089635Y19801578D01*
X60087671Y19801540D01*
X60038783Y19801540D01*
X60036423Y19801359D01*
X60036400Y19801358D01*
X60026075Y19800565D01*
X60018963Y19800224D01*
X59940855Y19798728D01*
X59898378Y19791332D01*
X59886606Y19789858D01*
X59848853Y19786959D01*
X59843616Y19786556D01*
X59816670Y19780251D01*
X59767569Y19768761D01*
X59760591Y19767339D01*
X59683619Y19753935D01*
X59642773Y19740142D01*
X59631360Y19736887D01*
X59589372Y19727061D01*
X59516911Y19697857D01*
X59510249Y19695392D01*
X59439297Y19671433D01*
X59436225Y19670395D01*
X59397961Y19650529D01*
X59387183Y19645572D01*
X59367304Y19637560D01*
X59347194Y19629454D01*
X59346346Y19628951D01*
X59345089Y19628605D01*
X59338369Y19625896D01*
X59338056Y19626673D01*
X59282986Y19611540D01*
X58215804Y19611540D01*
X58199227Y19612653D01*
X58196348Y19613042D01*
X58191245Y19613730D01*
X58078967Y19611578D01*
X58077003Y19611540D01*
X58028115Y19611540D01*
X58025755Y19611359D01*
X58025732Y19611358D01*
X58015407Y19610565D01*
X58008295Y19610224D01*
X57930186Y19608728D01*
X57887709Y19601332D01*
X57875937Y19599858D01*
X57832947Y19596556D01*
X57756862Y19578753D01*
X57749886Y19577331D01*
X57672947Y19563932D01*
X57632105Y19550141D01*
X57620691Y19546886D01*
X57578704Y19537061D01*
X57506244Y19507858D01*
X57499565Y19505387D01*
X57425562Y19480398D01*
X57387293Y19460529D01*
X57376514Y19455572D01*
X57336528Y19439455D01*
X57269373Y19399532D01*
X57263149Y19396070D01*
X57193823Y19360075D01*
X57159041Y19334601D01*
X57149146Y19328058D01*
X57112088Y19306026D01*
X57051817Y19256321D01*
X57046195Y19251950D01*
X56983173Y19205792D01*
X56952680Y19175299D01*
X56943897Y19167320D01*
X56910639Y19139892D01*
X56858666Y19081575D01*
X56853776Y19076396D01*
X56514201Y18736819D01*
X56452878Y18703334D01*
X56426520Y18700500D01*
X55523440Y18700500D01*
X55474890Y18710400D01*
X55459599Y18716906D01*
X55383883Y18736161D01*
X55377031Y18738115D01*
X55302564Y18761682D01*
X55259954Y18768264D01*
X55248336Y18770633D01*
X55206542Y18781260D01*
X55206541Y18781261D01*
X55206534Y18781262D01*
X55128785Y18788732D01*
X55121718Y18789616D01*
X55044516Y18801540D01*
X55044515Y18801540D01*
X55001401Y18801540D01*
X54989543Y18802108D01*
X54946624Y18806232D01*
X54868652Y18801745D01*
X54861530Y18801540D01*
X54654693Y18801540D01*
X54587654Y18821225D01*
X54567012Y18837859D01*
X52376920Y21027950D01*
X52365984Y21040460D01*
X52361104Y21046862D01*
X52278765Y21126105D01*
X52267974Y21136896D01*
X52244203Y21160667D01*
X52234517Y21168972D01*
X52229278Y21173731D01*
X52172969Y21227923D01*
X52137699Y21252732D01*
X52128335Y21260013D01*
X52095604Y21288076D01*
X52029218Y21329284D01*
X52023289Y21333205D01*
X51959393Y21378148D01*
X51920768Y21397273D01*
X51910398Y21403041D01*
X51873761Y21425781D01*
X51873758Y21425783D01*
X51801877Y21456367D01*
X51795404Y21459344D01*
X51725401Y21494005D01*
X51684297Y21507013D01*
X51673163Y21511132D01*
X51671919Y21511661D01*
X51633493Y21528011D01*
X51557772Y21547268D01*
X51550927Y21549220D01*
X51476459Y21572787D01*
X51433849Y21579369D01*
X51422231Y21581738D01*
X51380437Y21592365D01*
X51380436Y21592366D01*
X51380429Y21592367D01*
X51302680Y21599837D01*
X51295613Y21600721D01*
X51218411Y21612645D01*
X51218410Y21612645D01*
X51175296Y21612645D01*
X51163438Y21613213D01*
X51120519Y21617337D01*
X51042547Y21612850D01*
X51035425Y21612645D01*
X46316877Y21612645D01*
X46249838Y21632330D01*
X46204083Y21685134D01*
X46194139Y21754292D01*
X46223164Y21817848D01*
X46229196Y21824326D01*
X46666478Y22261608D01*
X47115812Y22710943D01*
X47128325Y22721879D01*
X47134717Y22726751D01*
X47213933Y22809063D01*
X47213933Y22809064D01*
X47248523Y22843652D01*
X47256825Y22853338D01*
X47261604Y22858597D01*
X47315776Y22914884D01*
X47315775Y22914884D01*
X47315778Y22914886D01*
X47340588Y22950162D01*
X47347865Y22959520D01*
X47375931Y22992252D01*
X47417138Y23058639D01*
X47421051Y23064555D01*
X47465999Y23128456D01*
X47485136Y23167107D01*
X47490895Y23177460D01*
X47513638Y23214097D01*
X47544230Y23286000D01*
X47547190Y23292437D01*
X47581859Y23362453D01*
X47594867Y23403561D01*
X47598979Y23414676D01*
X47615867Y23454363D01*
X47635123Y23530088D01*
X47637067Y23536907D01*
X47660641Y23611395D01*
X47667225Y23654028D01*
X47669588Y23665615D01*
X47680220Y23707418D01*
X47687690Y23785191D01*
X47688576Y23792257D01*
X47700500Y23869444D01*
X47700500Y23912560D01*
X47701068Y23924418D01*
X47705191Y23967336D01*
X47700705Y24045309D01*
X47700500Y24052431D01*
X47700500Y28116569D01*
X58278697Y28116569D01*
X58280847Y28004395D01*
X58280887Y28002324D01*
X58280887Y27953436D01*
X58281068Y27951073D01*
X58281069Y27951058D01*
X58281862Y27940732D01*
X58282203Y27933618D01*
X58283699Y27855508D01*
X58291095Y27813032D01*
X58292569Y27801260D01*
X58295871Y27758267D01*
X58313666Y27682222D01*
X58315090Y27675242D01*
X58328494Y27598267D01*
X58342286Y27557423D01*
X58345541Y27546009D01*
X58355366Y27504027D01*
X58384568Y27431570D01*
X58387036Y27424900D01*
X58402592Y27378835D01*
X58412031Y27350881D01*
X58431896Y27312622D01*
X58436854Y27301839D01*
X58438246Y27298387D01*
X58452973Y27261847D01*
X58492892Y27194699D01*
X58496354Y27188475D01*
X58516533Y27149612D01*
X58532351Y27119148D01*
X58557827Y27084364D01*
X58564367Y27074472D01*
X58586404Y27037406D01*
X58636108Y26977135D01*
X58640481Y26971511D01*
X58686635Y26908494D01*
X58717118Y26878012D01*
X58725103Y26869224D01*
X58752535Y26835961D01*
X58810852Y26783989D01*
X58816033Y26779097D01*
X65710934Y19884196D01*
X65721869Y19871687D01*
X65726750Y19865284D01*
X65809089Y19786041D01*
X65843652Y19751478D01*
X65845459Y19749929D01*
X65845463Y19749925D01*
X65853329Y19743180D01*
X65858599Y19738392D01*
X65860163Y19736887D01*
X65914886Y19684222D01*
X65950162Y19659410D01*
X65959514Y19652138D01*
X65992251Y19624069D01*
X66058635Y19582863D01*
X66064551Y19578950D01*
X66128456Y19534001D01*
X66145837Y19525396D01*
X66167095Y19514869D01*
X66177456Y19509106D01*
X66214097Y19486362D01*
X66254044Y19469366D01*
X66285981Y19455777D01*
X66292456Y19452800D01*
X66362453Y19418141D01*
X66403563Y19405132D01*
X66414693Y19401014D01*
X66454363Y19384134D01*
X66530096Y19364875D01*
X66536890Y19362937D01*
X66611395Y19339359D01*
X66654001Y19332778D01*
X66665621Y19330410D01*
X66707418Y19319780D01*
X66785181Y19312310D01*
X66792222Y19311429D01*
X66869445Y19299500D01*
X66912559Y19299500D01*
X66924417Y19298932D01*
X66967332Y19294809D01*
X66967333Y19294810D01*
X66967335Y19294809D01*
X67045308Y19299295D01*
X67052430Y19299500D01*
X81704268Y19299500D01*
X81771307Y19279815D01*
X81791948Y19263182D01*
X84303652Y16751478D01*
X84305453Y16749934D01*
X84305455Y16749932D01*
X84452253Y16624067D01*
X84674095Y16486363D01*
X84914361Y16384134D01*
X85081282Y16341685D01*
X85167418Y16319780D01*
X85427332Y16294809D01*
X85688010Y16309806D01*
X85943345Y16364420D01*
X86187351Y16457371D01*
X86414307Y16586479D01*
X86618897Y16748720D01*
X86796322Y16940289D01*
X86942425Y17156696D01*
X87053781Y17392870D01*
X87127781Y17643276D01*
X87162689Y17902041D01*
X87162543Y17909635D01*
X87157687Y18163102D01*
X87155558Y18175326D01*
X87112893Y18420343D01*
X87029357Y18667729D01*
X86992812Y18738115D01*
X86909035Y18899467D01*
X86754751Y19110120D01*
X83749065Y22115805D01*
X83738129Y22128315D01*
X83733249Y22134717D01*
X83650910Y22213960D01*
X83616348Y22248522D01*
X83606662Y22256827D01*
X83601423Y22261586D01*
X83545114Y22315778D01*
X83509844Y22340587D01*
X83500480Y22347868D01*
X83467749Y22375931D01*
X83401363Y22417139D01*
X83395434Y22421060D01*
X83331538Y22466003D01*
X83292913Y22485128D01*
X83282543Y22490896D01*
X83245906Y22513636D01*
X83245903Y22513638D01*
X83174022Y22544222D01*
X83167549Y22547199D01*
X83097546Y22581860D01*
X83056442Y22594868D01*
X83045312Y22598986D01*
X83034356Y22603647D01*
X82980373Y22648004D01*
X82958941Y22714506D01*
X82976865Y22782037D01*
X83028454Y22829158D01*
X83082899Y22841750D01*
X85620053Y22841750D01*
X85622432Y22841750D01*
X85817599Y22856734D01*
X86071841Y22916229D01*
X86260460Y22992249D01*
X86314017Y23013834D01*
X86314019Y23013836D01*
X86314021Y23013836D01*
X86538463Y23147268D01*
X86739907Y23313398D01*
X86913630Y23508330D01*
X87055561Y23727497D01*
X87119195Y23869445D01*
X87162373Y23965760D01*
X87231561Y24217534D01*
X87231562Y24217537D01*
X87261507Y24476925D01*
X87251506Y24737843D01*
X87201793Y24994177D01*
X87113534Y25239918D01*
X86988796Y25469307D01*
X86988794Y25469311D01*
X86830505Y25676966D01*
X86642367Y25858030D01*
X86428801Y26008248D01*
X86194801Y26124110D01*
X85945863Y26202891D01*
X85791029Y26226807D01*
X85687810Y26242750D01*
X85687808Y26242750D01*
X68210971Y26242750D01*
X68143932Y26262435D01*
X68124991Y26277400D01*
X68085114Y26315778D01*
X68085110Y26315781D01*
X68085109Y26315782D01*
X68049850Y26340583D01*
X68040481Y26347867D01*
X68029425Y26357346D01*
X68022454Y26363803D01*
X67718206Y26668051D01*
X67684721Y26729374D01*
X67681887Y26755732D01*
X67681887Y29065325D01*
X71277134Y29065325D01*
X71285140Y28856477D01*
X71287136Y28804407D01*
X71329400Y28586480D01*
X71336850Y28548070D01*
X71425106Y28302336D01*
X71425107Y28302333D01*
X71425108Y28302332D01*
X71426957Y28298932D01*
X71549847Y28072940D01*
X71708136Y27865285D01*
X71896274Y27684221D01*
X72109840Y27534003D01*
X72109843Y27534001D01*
X72294399Y27442621D01*
X72343840Y27418141D01*
X72592778Y27339360D01*
X72592779Y27339360D01*
X72592782Y27339359D01*
X72850832Y27299500D01*
X75877488Y27299500D01*
X75894064Y27298388D01*
X75902042Y27297311D01*
X75902045Y27297312D01*
X75902046Y27297311D01*
X75993439Y27299063D01*
X76016289Y27299500D01*
X76065177Y27299500D01*
X76067539Y27299682D01*
X76067552Y27299682D01*
X76077882Y27300476D01*
X76084996Y27300818D01*
X76163104Y27302313D01*
X76205598Y27309713D01*
X76217354Y27311184D01*
X76260344Y27314484D01*
X76336416Y27332287D01*
X76343373Y27333705D01*
X76420343Y27347107D01*
X76461207Y27360907D01*
X76472588Y27364152D01*
X76514586Y27373979D01*
X76587080Y27403198D01*
X76593669Y27405636D01*
X76667729Y27430643D01*
X76706011Y27450521D01*
X76716761Y27455464D01*
X76756766Y27471586D01*
X76823965Y27511538D01*
X76830105Y27514952D01*
X76899465Y27550964D01*
X76934256Y27576446D01*
X76944141Y27582982D01*
X76981208Y27605018D01*
X77041487Y27654731D01*
X77047100Y27659094D01*
X77110114Y27705245D01*
X77110115Y27705247D01*
X77110119Y27705249D01*
X77140616Y27735748D01*
X77149396Y27743723D01*
X77182652Y27771148D01*
X77234642Y27829487D01*
X77239498Y27834630D01*
X78471593Y29066724D01*
X78532917Y29100209D01*
X78559275Y29103043D01*
X85724959Y29103043D01*
X85727338Y29103043D01*
X85922505Y29118027D01*
X86176747Y29177522D01*
X86382243Y29260344D01*
X86418923Y29275127D01*
X86418925Y29275129D01*
X86418927Y29275129D01*
X86643369Y29408561D01*
X86844813Y29574691D01*
X87018536Y29769623D01*
X87160467Y29988790D01*
X87249576Y30187564D01*
X87267279Y30227053D01*
X87313427Y30394983D01*
X87336468Y30478830D01*
X87366413Y30738218D01*
X87356412Y30999136D01*
X87306699Y31255470D01*
X87218440Y31501211D01*
X87093702Y31730600D01*
X87093700Y31730604D01*
X86935411Y31938259D01*
X86747273Y32119323D01*
X86533707Y32269541D01*
X86299707Y32385403D01*
X86050769Y32464184D01*
X85868346Y32492361D01*
X85792716Y32504043D01*
X85792714Y32504043D01*
X77926055Y32504043D01*
X77909478Y32505156D01*
X77906599Y32505545D01*
X77901496Y32506233D01*
X77789218Y32504081D01*
X77787254Y32504043D01*
X77738366Y32504043D01*
X77736006Y32503862D01*
X77735983Y32503861D01*
X77725658Y32503068D01*
X77718546Y32502727D01*
X77640438Y32501231D01*
X77597961Y32493835D01*
X77586189Y32492361D01*
X77548436Y32489462D01*
X77543199Y32489059D01*
X77516253Y32482754D01*
X77467152Y32471264D01*
X77460174Y32469842D01*
X77383202Y32456438D01*
X77342356Y32442645D01*
X77330943Y32439390D01*
X77288955Y32429564D01*
X77216494Y32400360D01*
X77209832Y32397895D01*
X77137379Y32373429D01*
X77135811Y32372899D01*
X77097546Y32353032D01*
X77086764Y32348074D01*
X77046773Y32331956D01*
X76979622Y32292035D01*
X76973402Y32288575D01*
X76967206Y32285357D01*
X76904074Y32252578D01*
X76869292Y32227104D01*
X76859397Y32220561D01*
X76822339Y32198529D01*
X76791143Y32172802D01*
X76762717Y32149359D01*
X76762068Y32148824D01*
X76756446Y32144453D01*
X76693424Y32098295D01*
X76662931Y32067802D01*
X76654148Y32059823D01*
X76620890Y32032395D01*
X76568917Y31974078D01*
X76564027Y31968899D01*
X75331949Y30736819D01*
X75270626Y30703334D01*
X75244268Y30700500D01*
X72916210Y30700500D01*
X72913843Y30700319D01*
X72913835Y30700318D01*
X72721043Y30685516D01*
X72466799Y30626021D01*
X72224624Y30528417D01*
X72000178Y30394983D01*
X71798733Y30228852D01*
X71625009Y30033918D01*
X71483080Y29814753D01*
X71376268Y29576491D01*
X71307080Y29324717D01*
X71277134Y29065325D01*
X67681887Y29065325D01*
X67681887Y31862799D01*
X67681887Y31862800D01*
X67681887Y31865177D01*
X67666903Y32060344D01*
X67607408Y32314586D01*
X67577442Y32388938D01*
X67509803Y32556763D01*
X67376369Y32781209D01*
X67210238Y32982654D01*
X67015304Y33156378D01*
X66796139Y33298307D01*
X66557877Y33405119D01*
X66306103Y33474307D01*
X66046711Y33504253D01*
X65795083Y33494608D01*
X65785794Y33494251D01*
X65529460Y33444538D01*
X65529458Y33444538D01*
X65529456Y33444537D01*
X65283722Y33356281D01*
X65054326Y33231540D01*
X64846671Y33073251D01*
X64665607Y32885113D01*
X64515389Y32671547D01*
X64399527Y32437547D01*
X64320746Y32188609D01*
X64300854Y32059823D01*
X64283485Y31947370D01*
X64280887Y31930553D01*
X64280887Y26423346D01*
X64261202Y26356307D01*
X64208398Y26310552D01*
X64139240Y26300608D01*
X64075684Y26329633D01*
X64069206Y26335665D01*
X61718205Y28686665D01*
X61684720Y28747988D01*
X61681886Y28774346D01*
X61681886Y28856477D01*
X61681887Y29065177D01*
X61666903Y29260344D01*
X61607408Y29514586D01*
X61573340Y29599115D01*
X61509803Y29756763D01*
X61376369Y29981209D01*
X61210238Y30182654D01*
X61015304Y30356378D01*
X60796139Y30498307D01*
X60557877Y30605119D01*
X60306103Y30674307D01*
X60046711Y30704253D01*
X59795083Y30694608D01*
X59785794Y30694251D01*
X59529460Y30644538D01*
X59529458Y30644538D01*
X59529456Y30644537D01*
X59283722Y30556281D01*
X59054326Y30431540D01*
X58846671Y30273251D01*
X58665607Y30085113D01*
X58515389Y29871547D01*
X58399527Y29637547D01*
X58320746Y29388609D01*
X58294173Y29216572D01*
X58286048Y29163964D01*
X58280887Y29130553D01*
X58280887Y28141126D01*
X58279774Y28124548D01*
X58278697Y28116569D01*
X47700500Y28116569D01*
X47700500Y33595268D01*
X47720185Y33662307D01*
X47772989Y33708062D01*
X47842147Y33718006D01*
X47905703Y33688981D01*
X47912181Y33682949D01*
X48900934Y32694196D01*
X48911869Y32681687D01*
X48916750Y32675284D01*
X48999089Y32596041D01*
X49033652Y32561478D01*
X49035459Y32559929D01*
X49035463Y32559925D01*
X49043329Y32553180D01*
X49048599Y32548392D01*
X49092406Y32506233D01*
X49104886Y32494222D01*
X49140162Y32469410D01*
X49149514Y32462138D01*
X49182251Y32434069D01*
X49248635Y32392863D01*
X49254551Y32388950D01*
X49318456Y32344001D01*
X49335837Y32335396D01*
X49357095Y32324869D01*
X49367456Y32319106D01*
X49404097Y32296362D01*
X49438826Y32281586D01*
X49475983Y32265776D01*
X49482458Y32262799D01*
X49552453Y32228141D01*
X49593556Y32215134D01*
X49604674Y32211022D01*
X49644362Y32194134D01*
X49720087Y32174877D01*
X49726908Y32172932D01*
X49801395Y32149359D01*
X49844000Y32142779D01*
X49855628Y32140408D01*
X49897417Y32129780D01*
X49975176Y32122310D01*
X49982241Y32121425D01*
X49993338Y32119711D01*
X50059445Y32109500D01*
X50102559Y32109500D01*
X50114417Y32108932D01*
X50157332Y32104809D01*
X50157333Y32104810D01*
X50157335Y32104809D01*
X50235308Y32109295D01*
X50242430Y32109500D01*
X55687488Y32109500D01*
X55704064Y32108388D01*
X55712042Y32107311D01*
X55712045Y32107312D01*
X55712046Y32107311D01*
X55803439Y32109063D01*
X55826289Y32109500D01*
X55875177Y32109500D01*
X55877539Y32109682D01*
X55877552Y32109682D01*
X55887882Y32110476D01*
X55894996Y32110818D01*
X55973104Y32112313D01*
X56015598Y32119713D01*
X56027354Y32121184D01*
X56070344Y32124484D01*
X56146416Y32142287D01*
X56153373Y32143705D01*
X56230343Y32157107D01*
X56271207Y32170907D01*
X56282588Y32174152D01*
X56324586Y32183979D01*
X56397080Y32213198D01*
X56403669Y32215636D01*
X56477729Y32240643D01*
X56516011Y32260521D01*
X56526761Y32265464D01*
X56566766Y32281586D01*
X56633965Y32321538D01*
X56640105Y32324952D01*
X56709465Y32360964D01*
X56744256Y32386446D01*
X56754141Y32392982D01*
X56791208Y32415018D01*
X56851487Y32464731D01*
X56857100Y32469094D01*
X56857547Y32469421D01*
X56891409Y32494222D01*
X56920114Y32515245D01*
X56920115Y32515247D01*
X56920119Y32515249D01*
X56950616Y32545748D01*
X56959396Y32553723D01*
X56992652Y32581148D01*
X57044642Y32639487D01*
X57049498Y32644630D01*
X58097196Y33692328D01*
X58109698Y33703256D01*
X58116103Y33708137D01*
X58195346Y33790477D01*
X58229909Y33825039D01*
X58238232Y33834748D01*
X58242970Y33839963D01*
X58297165Y33896273D01*
X58319427Y33927923D01*
X58321970Y33931538D01*
X58329259Y33940913D01*
X58357316Y33973636D01*
X58357318Y33973638D01*
X58398528Y34040030D01*
X58402445Y34045952D01*
X58413157Y34061180D01*
X58447386Y34109843D01*
X58466526Y34148502D01*
X58472275Y34158838D01*
X58495024Y34195484D01*
X58525608Y34267368D01*
X58528581Y34273830D01*
X58563245Y34343837D01*
X58569686Y34364191D01*
X58576256Y34384953D01*
X58580366Y34396063D01*
X58597253Y34435749D01*
X58616509Y34511472D01*
X58618460Y34518312D01*
X58642028Y34592782D01*
X58648612Y34635418D01*
X58650973Y34646993D01*
X58661607Y34688804D01*
X58669078Y34766571D01*
X58669962Y34773632D01*
X58676503Y34815979D01*
X58681887Y34850832D01*
X58681887Y34893946D01*
X58682455Y34905804D01*
X58683410Y34915748D01*
X58686578Y34948718D01*
X58686344Y34952778D01*
X58682092Y35026695D01*
X58681887Y35033817D01*
X58681887Y35223704D01*
X58701572Y35290743D01*
X58754376Y35336498D01*
X58823534Y35346442D01*
X58887090Y35317417D01*
X58888388Y35316276D01*
X58947469Y35263623D01*
X59166634Y35121694D01*
X59404896Y35014882D01*
X59645666Y34948718D01*
X59656674Y34945693D01*
X59916062Y34915748D01*
X60176980Y34925749D01*
X60433314Y34975462D01*
X60679055Y35063721D01*
X60908444Y35188459D01*
X61116103Y35346750D01*
X61297165Y35534886D01*
X61447386Y35748456D01*
X61563246Y35982453D01*
X61642028Y36231395D01*
X61681887Y36489445D01*
X61681887Y37258939D01*
X61701572Y37325978D01*
X61754376Y37371733D01*
X61823534Y37381677D01*
X61887090Y37352652D01*
X61893568Y37346620D01*
X63735992Y35504196D01*
X63746927Y35491687D01*
X63751808Y35485284D01*
X63834147Y35406041D01*
X63868710Y35371478D01*
X63870517Y35369929D01*
X63870521Y35369925D01*
X63878387Y35363180D01*
X63883657Y35358392D01*
X63926233Y35317417D01*
X63939944Y35304222D01*
X63975220Y35279410D01*
X63984572Y35272138D01*
X64017309Y35244069D01*
X64083693Y35202863D01*
X64089609Y35198950D01*
X64153514Y35154001D01*
X64170895Y35145396D01*
X64192153Y35134869D01*
X64202514Y35129106D01*
X64239155Y35106362D01*
X64273884Y35091586D01*
X64311041Y35075776D01*
X64317516Y35072799D01*
X64387511Y35038141D01*
X64428614Y35025134D01*
X64439743Y35021017D01*
X64479420Y35004134D01*
X64479421Y35004134D01*
X64479423Y35004133D01*
X64555122Y34984883D01*
X64561973Y34982931D01*
X64636453Y34959359D01*
X64679067Y34952777D01*
X64690691Y34950406D01*
X64697329Y34948718D01*
X64732476Y34939780D01*
X64810239Y34932310D01*
X64817280Y34931429D01*
X64894503Y34919500D01*
X64937617Y34919500D01*
X64949475Y34918932D01*
X64992390Y34914809D01*
X64992391Y34914810D01*
X64992393Y34914809D01*
X65070366Y34919295D01*
X65077488Y34919500D01*
X68558875Y34919500D01*
X68575451Y34918388D01*
X68583429Y34917311D01*
X68583432Y34917312D01*
X68583433Y34917311D01*
X68674826Y34919063D01*
X68697676Y34919500D01*
X68746564Y34919500D01*
X68748926Y34919682D01*
X68748939Y34919682D01*
X68759269Y34920476D01*
X68766383Y34920818D01*
X68844491Y34922313D01*
X68886985Y34929713D01*
X68898741Y34931184D01*
X68941731Y34934484D01*
X69017803Y34952287D01*
X69024760Y34953705D01*
X69101730Y34967107D01*
X69142594Y34980907D01*
X69153975Y34984152D01*
X69195973Y34993979D01*
X69268467Y35023198D01*
X69275056Y35025636D01*
X69349116Y35050643D01*
X69387398Y35070521D01*
X69398148Y35075464D01*
X69438153Y35091586D01*
X69505352Y35131538D01*
X69511492Y35134952D01*
X69580852Y35170964D01*
X69615643Y35196446D01*
X69625528Y35202982D01*
X69662595Y35225018D01*
X69722874Y35274731D01*
X69728487Y35279094D01*
X69728934Y35279421D01*
X69762796Y35304222D01*
X69791501Y35325245D01*
X69791502Y35325247D01*
X69791506Y35325249D01*
X69822003Y35355748D01*
X69830783Y35363723D01*
X69864039Y35391148D01*
X69916029Y35449487D01*
X69920885Y35454630D01*
X70597196Y36130941D01*
X70609698Y36141869D01*
X70616103Y36146750D01*
X70695346Y36229090D01*
X70729909Y36263652D01*
X70738232Y36273361D01*
X70742970Y36278576D01*
X70797165Y36334886D01*
X70806512Y36348176D01*
X70821970Y36370151D01*
X70829259Y36379526D01*
X70857318Y36412251D01*
X70898530Y36478646D01*
X70902436Y36484552D01*
X70947386Y36548456D01*
X70966516Y36587095D01*
X70972285Y36597464D01*
X70995024Y36634096D01*
X70995025Y36634097D01*
X71025609Y36705983D01*
X71028581Y36712444D01*
X71040114Y36735736D01*
X71045763Y36747146D01*
X71093151Y36798489D01*
X71160775Y36816062D01*
X71227164Y36794285D01*
X71271241Y36740073D01*
X71280887Y36692123D01*
X71280887Y36554823D01*
X71281068Y36552456D01*
X71281069Y36552449D01*
X71288515Y36455473D01*
X71295871Y36359656D01*
X71309948Y36299500D01*
X71355366Y36105413D01*
X71452970Y35863238D01*
X71586404Y35638792D01*
X71752535Y35437347D01*
X71947469Y35263623D01*
X72166634Y35121694D01*
X72404896Y35014882D01*
X72645666Y34948718D01*
X72656674Y34945693D01*
X72916062Y34915748D01*
X73176980Y34925749D01*
X73433314Y34975462D01*
X73679055Y35063721D01*
X73908444Y35188459D01*
X74116103Y35346750D01*
X74297165Y35534886D01*
X74447386Y35748456D01*
X74563246Y35982453D01*
X74627346Y36185000D01*
X77976118Y36185000D01*
X77995164Y35930846D01*
X78051879Y35682363D01*
X78144995Y35445109D01*
X78249776Y35263623D01*
X78272428Y35224388D01*
X78431337Y35025123D01*
X78618170Y34851768D01*
X78828753Y34708195D01*
X79058383Y34597611D01*
X79301929Y34522487D01*
X79553952Y34484500D01*
X79808822Y34484500D01*
X80060845Y34522487D01*
X80304391Y34597611D01*
X80534021Y34708195D01*
X80744604Y34851768D01*
X80931437Y35025123D01*
X81090346Y35224388D01*
X81217780Y35445112D01*
X81310895Y35682363D01*
X81367609Y35930843D01*
X81386655Y36185000D01*
X81367609Y36439157D01*
X81310895Y36687637D01*
X81217780Y36924888D01*
X81090346Y37145612D01*
X80931437Y37344877D01*
X80744604Y37518232D01*
X80534021Y37661805D01*
X80304391Y37772389D01*
X80060845Y37847513D01*
X79808822Y37885500D01*
X79553952Y37885500D01*
X79301929Y37847513D01*
X79058383Y37772389D01*
X78828753Y37661805D01*
X78744137Y37604115D01*
X78618168Y37518231D01*
X78431337Y37344877D01*
X78272425Y37145608D01*
X78144995Y36924892D01*
X78051879Y36687638D01*
X77995164Y36439155D01*
X77976118Y36185000D01*
X74627346Y36185000D01*
X74642028Y36231395D01*
X74681887Y36489445D01*
X74681887Y52054270D01*
X74701572Y52121308D01*
X74718201Y52141945D01*
X77344437Y54768182D01*
X77405761Y54801666D01*
X77432119Y54804500D01*
X78002214Y54804500D01*
X78069253Y54784815D01*
X78115008Y54732011D01*
X78124952Y54662853D01*
X78117639Y54635190D01*
X78114247Y54626549D01*
X78111973Y54621136D01*
X78076269Y54541490D01*
X78067275Y54508766D01*
X78063140Y54496333D01*
X78051880Y54467638D01*
X78051878Y54467634D01*
X78032405Y54382325D01*
X78031083Y54377064D01*
X78007079Y54289711D01*
X78003569Y54259319D01*
X78001281Y54245961D01*
X77995164Y54219156D01*
X77988377Y54128588D01*
X77987906Y54123636D01*
X77977135Y54030325D01*
X77978178Y54003093D01*
X77977923Y53989086D01*
X77976118Y53964997D01*
X77983154Y53871113D01*
X77983410Y53866598D01*
X77987136Y53769403D01*
X77991688Y53745931D01*
X77993609Y53731595D01*
X77995164Y53710845D01*
X78016856Y53615808D01*
X78017694Y53611838D01*
X78036849Y53513073D01*
X78042152Y53498308D01*
X78043804Y53493707D01*
X78047990Y53479397D01*
X78051878Y53462363D01*
X78088698Y53368549D01*
X78089971Y53365161D01*
X78125108Y53267331D01*
X78133345Y53252184D01*
X78139836Y53238254D01*
X78144994Y53225112D01*
X78169508Y53182652D01*
X78197064Y53134923D01*
X78198611Y53132161D01*
X78249843Y53037946D01*
X78258268Y53026894D01*
X78267036Y53013727D01*
X78272429Y53004386D01*
X78339438Y52920359D01*
X78341101Y52918227D01*
X78361853Y52891003D01*
X78408136Y52830285D01*
X78415741Y52822966D01*
X78426702Y52810935D01*
X78431338Y52805121D01*
X78452056Y52785898D01*
X78487811Y52725870D01*
X78485436Y52656041D01*
X78452056Y52604102D01*
X78431340Y52584881D01*
X78375284Y52514589D01*
X78280428Y52395643D01*
X78272425Y52385608D01*
X78144995Y52164892D01*
X78051879Y51927638D01*
X77995164Y51679155D01*
X77976118Y51425000D01*
X77995164Y51170846D01*
X78051879Y50922363D01*
X78144995Y50685109D01*
X78197849Y50593563D01*
X78272428Y50464388D01*
X78431337Y50265123D01*
X78431338Y50265122D01*
X78452057Y50245897D01*
X78487810Y50185868D01*
X78485434Y50116039D01*
X78452057Y50064103D01*
X78431338Y50044879D01*
X78272425Y49845608D01*
X78144995Y49624892D01*
X78051879Y49387638D01*
X77995164Y49139155D01*
X77976118Y48885000D01*
X77995164Y48630846D01*
X78051879Y48382363D01*
X78144995Y48145109D01*
X78237611Y47984693D01*
X78272428Y47924388D01*
X78431337Y47725123D01*
X78431338Y47725122D01*
X78452057Y47705897D01*
X78487810Y47645868D01*
X78485434Y47576039D01*
X78452057Y47524103D01*
X78431338Y47504879D01*
X78272425Y47305608D01*
X78144995Y47084892D01*
X78051879Y46847638D01*
X77995164Y46599155D01*
X77976118Y46345001D01*
X77995164Y46090846D01*
X78051879Y45842363D01*
X78144995Y45605109D01*
X78265734Y45395982D01*
X78272428Y45384388D01*
X78431337Y45185123D01*
X78452055Y45165899D01*
X78487810Y45105871D01*
X78485435Y45036042D01*
X78452059Y44984106D01*
X78431339Y44964880D01*
X78272425Y44765608D01*
X78144995Y44544892D01*
X78051879Y44307638D01*
X77995164Y44059155D01*
X77976118Y43805000D01*
X77995164Y43550846D01*
X78051879Y43302363D01*
X78144995Y43065109D01*
X78272425Y42844393D01*
X78272428Y42844388D01*
X78431336Y42645124D01*
X78431338Y42645122D01*
X78452057Y42625897D01*
X78487810Y42565868D01*
X78485434Y42496039D01*
X78452057Y42444103D01*
X78431338Y42424879D01*
X78272425Y42225608D01*
X78144995Y42004892D01*
X78051879Y41767638D01*
X77995164Y41519155D01*
X77976118Y41265000D01*
X77995164Y41010846D01*
X78051879Y40762363D01*
X78144995Y40525109D01*
X78197849Y40433563D01*
X78272428Y40304388D01*
X78431337Y40105123D01*
X78618170Y39931768D01*
X78828753Y39788195D01*
X79058383Y39677611D01*
X79301929Y39602487D01*
X79553952Y39564500D01*
X79808822Y39564500D01*
X80060845Y39602487D01*
X80304391Y39677611D01*
X80534021Y39788195D01*
X80744604Y39931768D01*
X80931437Y40105123D01*
X81090346Y40304388D01*
X81217780Y40525112D01*
X81310895Y40762363D01*
X81367609Y41010843D01*
X81386655Y41265000D01*
X81367609Y41519157D01*
X81310895Y41767637D01*
X81217780Y42004888D01*
X81090346Y42225612D01*
X80931437Y42424877D01*
X80910716Y42444103D01*
X80874963Y42504128D01*
X80877336Y42573957D01*
X80910715Y42625897D01*
X80931437Y42645123D01*
X81090346Y42844388D01*
X81217780Y43065112D01*
X81310895Y43302363D01*
X81367609Y43550843D01*
X81386655Y43805000D01*
X81367609Y44059157D01*
X81310895Y44307637D01*
X81217780Y44544888D01*
X81090346Y44765612D01*
X80931437Y44964877D01*
X80931433Y44964881D01*
X80910717Y44984103D01*
X80874962Y45044131D01*
X80877337Y45113960D01*
X80910716Y45165898D01*
X80931437Y45185123D01*
X81090346Y45384388D01*
X81217780Y45605112D01*
X81310895Y45842363D01*
X81367609Y46090843D01*
X81386655Y46345000D01*
X81367609Y46599157D01*
X81310895Y46847637D01*
X81217780Y47084888D01*
X81090346Y47305612D01*
X80931437Y47504877D01*
X80910716Y47524103D01*
X80874963Y47584128D01*
X80877336Y47653957D01*
X80910715Y47705897D01*
X80931437Y47725123D01*
X81090346Y47924388D01*
X81217780Y48145112D01*
X81310895Y48382363D01*
X81367609Y48630843D01*
X81386655Y48885000D01*
X81367609Y49139157D01*
X81310895Y49387637D01*
X81217780Y49624888D01*
X81090346Y49845612D01*
X80931437Y50044877D01*
X80910716Y50064103D01*
X80874963Y50124128D01*
X80877336Y50193957D01*
X80910717Y50245898D01*
X80931437Y50265123D01*
X81090346Y50464388D01*
X81217780Y50685112D01*
X81310895Y50922363D01*
X81367609Y51170843D01*
X81386655Y51425000D01*
X81367609Y51679157D01*
X81310895Y51927637D01*
X81310894Y51927640D01*
X81245132Y52095198D01*
X81238963Y52164794D01*
X81271401Y52226678D01*
X81332146Y52261201D01*
X81360560Y52264500D01*
X81703875Y52264500D01*
X81720451Y52263388D01*
X81728429Y52262311D01*
X81728432Y52262312D01*
X81728433Y52262311D01*
X81819826Y52264063D01*
X81842676Y52264500D01*
X81891564Y52264500D01*
X81893926Y52264682D01*
X81893939Y52264682D01*
X81904269Y52265476D01*
X81911383Y52265818D01*
X81989491Y52267313D01*
X82031985Y52274713D01*
X82043741Y52276184D01*
X82086731Y52279484D01*
X82162803Y52297287D01*
X82169760Y52298705D01*
X82246730Y52312107D01*
X82287594Y52325907D01*
X82298975Y52329152D01*
X82340973Y52338979D01*
X82413467Y52368198D01*
X82420056Y52370636D01*
X82494116Y52395643D01*
X82532398Y52415521D01*
X82543148Y52420464D01*
X82583153Y52436586D01*
X82650352Y52476538D01*
X82656492Y52479952D01*
X82725852Y52515964D01*
X82760643Y52541446D01*
X82770528Y52547982D01*
X82807595Y52570018D01*
X82867874Y52619731D01*
X82873487Y52624094D01*
X82936501Y52670245D01*
X82936502Y52670247D01*
X82936506Y52670249D01*
X82967003Y52700748D01*
X82975783Y52708723D01*
X83009039Y52736148D01*
X83061029Y52794487D01*
X83065885Y52799630D01*
X85115809Y54849554D01*
X85128311Y54860482D01*
X85134716Y54865363D01*
X85213959Y54947703D01*
X85248522Y54982265D01*
X85256845Y54991974D01*
X85261583Y54997189D01*
X85315778Y55053499D01*
X85325125Y55066789D01*
X85340583Y55088764D01*
X85347872Y55098139D01*
X85375931Y55130864D01*
X85417143Y55197259D01*
X85421049Y55203165D01*
X85465999Y55267069D01*
X85485129Y55305708D01*
X85490898Y55316077D01*
X85513638Y55352710D01*
X85544223Y55424598D01*
X85547188Y55431046D01*
X85581859Y55501066D01*
X85594867Y55542174D01*
X85598986Y55553305D01*
X85599166Y55553727D01*
X85615866Y55592975D01*
X85635131Y55668735D01*
X85637058Y55675493D01*
X85660641Y55750008D01*
X85667223Y55792624D01*
X85669590Y55804235D01*
X85680220Y55846031D01*
X85687690Y55923804D01*
X85688576Y55930870D01*
X85689322Y55935694D01*
X85699620Y56002363D01*
X85700500Y56008057D01*
X85700500Y56051173D01*
X85701068Y56063031D01*
X85702840Y56081476D01*
X85705191Y56105945D01*
X85704986Y56109500D01*
X85700705Y56183922D01*
X85700500Y56191044D01*
X85700500Y59877487D01*
X85701613Y59894066D01*
X85702689Y59902041D01*
X85700500Y60016289D01*
X85700500Y60065177D01*
X85699524Y60077883D01*
X85699182Y60085013D01*
X85697687Y60163100D01*
X85697687Y60163104D01*
X85690286Y60205602D01*
X85688816Y60217353D01*
X85685516Y60260344D01*
X85667715Y60336411D01*
X85666293Y60343385D01*
X85652893Y60420343D01*
X85652786Y60420660D01*
X85639098Y60461197D01*
X85635846Y60472599D01*
X85626021Y60514586D01*
X85596813Y60587054D01*
X85594348Y60593718D01*
X85592211Y60600048D01*
X85569357Y60667729D01*
X85560859Y60684095D01*
X85549490Y60705993D01*
X85544529Y60716781D01*
X85528413Y60756769D01*
X85488490Y60823921D01*
X85485026Y60830149D01*
X85449036Y60899465D01*
X85423564Y60934244D01*
X85417016Y60944146D01*
X85394984Y60981207D01*
X85345287Y61041466D01*
X85340927Y61047073D01*
X85294752Y61110119D01*
X85264262Y61140609D01*
X85256278Y61149396D01*
X85228851Y61182654D01*
X85170543Y61234617D01*
X85165362Y61239509D01*
X80472634Y65932236D01*
X84145787Y65932236D01*
X84175413Y65662984D01*
X84243928Y65400913D01*
X84349871Y65151608D01*
X84490982Y64920389D01*
X84580253Y64813119D01*
X84664255Y64712180D01*
X84865998Y64531418D01*
X85091910Y64381956D01*
X85198211Y64332124D01*
X85337177Y64266979D01*
X85596562Y64188942D01*
X85596569Y64188940D01*
X85864561Y64149500D01*
X85864564Y64149500D01*
X86065369Y64149500D01*
X86067631Y64149500D01*
X86270156Y64164323D01*
X86534553Y64223220D01*
X86787558Y64319986D01*
X87023777Y64452559D01*
X87238177Y64618112D01*
X87426186Y64813119D01*
X87583799Y65033421D01*
X87707656Y65274325D01*
X87795118Y65530695D01*
X87844319Y65797067D01*
X87854212Y66067765D01*
X87824586Y66337018D01*
X87756072Y66599088D01*
X87650130Y66848390D01*
X87577999Y66966580D01*
X87509017Y67079612D01*
X87335746Y67287819D01*
X87230759Y67381888D01*
X87134002Y67468582D01*
X86908090Y67618044D01*
X86829013Y67655114D01*
X86662822Y67733022D01*
X86403437Y67811059D01*
X86403431Y67811060D01*
X86135439Y67850500D01*
X85932369Y67850500D01*
X85930120Y67850336D01*
X85930109Y67850335D01*
X85729843Y67835678D01*
X85465449Y67776781D01*
X85212441Y67680014D01*
X84976223Y67547441D01*
X84761825Y67381891D01*
X84573813Y67186880D01*
X84416201Y66966580D01*
X84292342Y66725671D01*
X84204881Y66469305D01*
X84155680Y66202934D01*
X84145787Y65932236D01*
X80472634Y65932236D01*
X77463086Y68941784D01*
X77452150Y68954294D01*
X77447270Y68960696D01*
X77364931Y69039939D01*
X77350039Y69054831D01*
X77330369Y69074501D01*
X77320683Y69082806D01*
X77315444Y69087565D01*
X77259135Y69141757D01*
X77223865Y69166566D01*
X77214501Y69173847D01*
X77181770Y69201910D01*
X77115384Y69243118D01*
X77109455Y69247039D01*
X77071016Y69274076D01*
X77027507Y69328746D01*
X77020462Y69398259D01*
X77052116Y69460547D01*
X77112421Y69495833D01*
X77142355Y69499500D01*
X89375500Y69499500D01*
X89442539Y69479815D01*
X89488294Y69427011D01*
X89499500Y69375500D01*
X89499500Y624500D01*
X89479815Y557461D01*
X89427011Y511706D01*
X89375500Y500500D01*
X624500Y500500D01*
X557461Y520185D01*
X511706Y572989D01*
X500500Y624500D01*
X500500Y3932236D01*
X2145787Y3932236D01*
X2175413Y3662984D01*
X2203197Y3556711D01*
X2243928Y3400912D01*
X2297720Y3274330D01*
X2349871Y3151608D01*
X2490982Y2920389D01*
X2580253Y2813119D01*
X2664255Y2712180D01*
X2865998Y2531418D01*
X3091910Y2381956D01*
X3198211Y2332124D01*
X3337177Y2266979D01*
X3596562Y2188942D01*
X3596569Y2188940D01*
X3864561Y2149500D01*
X3864564Y2149500D01*
X4065369Y2149500D01*
X4067631Y2149500D01*
X4270156Y2164323D01*
X4534553Y2223220D01*
X4787558Y2319986D01*
X5023777Y2452559D01*
X5238177Y2618112D01*
X5426186Y2813119D01*
X5583799Y3033421D01*
X5707656Y3274325D01*
X5795118Y3530695D01*
X5844319Y3797067D01*
X5854212Y4067765D01*
X5824586Y4337018D01*
X5756072Y4599088D01*
X5650130Y4848390D01*
X5509018Y5079610D01*
X5509017Y5079612D01*
X5335746Y5287819D01*
X5260250Y5355464D01*
X5134002Y5468582D01*
X4908090Y5618044D01*
X4908086Y5618046D01*
X4662822Y5733022D01*
X4403437Y5811059D01*
X4403431Y5811060D01*
X4135439Y5850500D01*
X3932369Y5850500D01*
X3930120Y5850336D01*
X3930109Y5850335D01*
X3729843Y5835678D01*
X3465449Y5776781D01*
X3212441Y5680014D01*
X2976223Y5547441D01*
X2761825Y5381891D01*
X2573813Y5186880D01*
X2416201Y4966580D01*
X2292342Y4725671D01*
X2204881Y4469305D01*
X2155680Y4202934D01*
X2145787Y3932236D01*
X500500Y3932236D01*
X500500Y65932236D01*
X2145787Y65932236D01*
X2175413Y65662984D01*
X2243928Y65400913D01*
X2349871Y65151608D01*
X2490982Y64920389D01*
X2580253Y64813119D01*
X2664255Y64712180D01*
X2865998Y64531418D01*
X3091910Y64381956D01*
X3198211Y64332124D01*
X3337177Y64266979D01*
X3596562Y64188942D01*
X3596569Y64188940D01*
X3864561Y64149500D01*
X3864564Y64149500D01*
X4065369Y64149500D01*
X4067631Y64149500D01*
X4270156Y64164323D01*
X4534553Y64223220D01*
X4787558Y64319986D01*
X5023777Y64452559D01*
X5238177Y64618112D01*
X5426186Y64813119D01*
X5583799Y65033421D01*
X5707656Y65274325D01*
X5795118Y65530695D01*
X5844319Y65797067D01*
X5854212Y66067765D01*
X5824586Y66337018D01*
X5756072Y66599088D01*
X5650130Y66848390D01*
X5577999Y66966580D01*
X5509017Y67079612D01*
X5335746Y67287819D01*
X5230759Y67381888D01*
X5134002Y67468582D01*
X4908090Y67618044D01*
X4829013Y67655114D01*
X4662822Y67733022D01*
X4403437Y67811059D01*
X4403431Y67811060D01*
X4135439Y67850500D01*
X3932369Y67850500D01*
X3930120Y67850336D01*
X3930109Y67850335D01*
X3729843Y67835678D01*
X3465449Y67776781D01*
X3212441Y67680014D01*
X2976223Y67547441D01*
X2761825Y67381891D01*
X2573813Y67186880D01*
X2416201Y66966580D01*
X2292342Y66725671D01*
X2204881Y66469305D01*
X2155680Y66202934D01*
X2145787Y65932236D01*
X500500Y65932236D01*
X500500Y69375500D01*
X520185Y69442539D01*
X572989Y69488294D01*
X624500Y69499500D01*
X9853855Y69499500D01*
X9920894Y69479815D01*
G37*
%TD.AperFunction*%
%TA.AperFunction,Conductor*%
G36*
X38363330Y42979815D02*
G01*
X38409085Y42927011D01*
X38419029Y42857853D01*
X38414512Y42838087D01*
X38389359Y42758609D01*
X38367612Y42617816D01*
X38351742Y42515065D01*
X38349500Y42500553D01*
X38349500Y39824500D01*
X38329815Y39757461D01*
X38277011Y39711706D01*
X38225500Y39700500D01*
X36934823Y39700500D01*
X36932456Y39700319D01*
X36932448Y39700318D01*
X36739656Y39685516D01*
X36485412Y39626021D01*
X36243237Y39528417D01*
X36018791Y39394983D01*
X35817346Y39228852D01*
X35643622Y39033918D01*
X35501693Y38814753D01*
X35394881Y38576491D01*
X35325693Y38324717D01*
X35295747Y38065325D01*
X35302724Y37883315D01*
X35305749Y37804407D01*
X35354901Y37550964D01*
X35355463Y37548070D01*
X35443719Y37302336D01*
X35443720Y37302333D01*
X35443721Y37302332D01*
X35446451Y37297311D01*
X35568460Y37072940D01*
X35726749Y36865285D01*
X35914887Y36684221D01*
X36107904Y36548457D01*
X36128456Y36534001D01*
X36291549Y36453248D01*
X36362453Y36418141D01*
X36611391Y36339360D01*
X36611392Y36339360D01*
X36611395Y36339359D01*
X36869445Y36299500D01*
X38877488Y36299500D01*
X38894064Y36298388D01*
X38902042Y36297311D01*
X38902045Y36297312D01*
X38902046Y36297311D01*
X38993439Y36299063D01*
X39016289Y36299500D01*
X39065177Y36299500D01*
X39067539Y36299682D01*
X39067552Y36299682D01*
X39077882Y36300476D01*
X39084996Y36300818D01*
X39163104Y36302313D01*
X39205598Y36309713D01*
X39217354Y36311184D01*
X39260344Y36314484D01*
X39336416Y36332287D01*
X39343373Y36333705D01*
X39420343Y36347107D01*
X39461207Y36360907D01*
X39472588Y36364152D01*
X39514586Y36373979D01*
X39587080Y36403198D01*
X39593669Y36405636D01*
X39667729Y36430643D01*
X39706011Y36450521D01*
X39716761Y36455464D01*
X39756766Y36471586D01*
X39823965Y36511538D01*
X39830105Y36514952D01*
X39899465Y36550964D01*
X39934256Y36576446D01*
X39944141Y36582982D01*
X39981208Y36605018D01*
X40041487Y36654731D01*
X40047100Y36659094D01*
X40110114Y36705245D01*
X40110115Y36705247D01*
X40110119Y36705249D01*
X40140616Y36735748D01*
X40149396Y36743723D01*
X40182652Y36771148D01*
X40234642Y36829487D01*
X40239498Y36834630D01*
X41087820Y37682952D01*
X41149141Y37716435D01*
X41218833Y37711451D01*
X41274766Y37669579D01*
X41299183Y37604115D01*
X41299499Y37595269D01*
X41299499Y30008425D01*
X41279814Y29941386D01*
X41263180Y29920744D01*
X40460465Y29118028D01*
X38857414Y27514976D01*
X38079257Y26736819D01*
X38017934Y26703334D01*
X37991576Y26700500D01*
X34626248Y26700500D01*
X34559209Y26720185D01*
X34513454Y26772989D01*
X34503510Y26842147D01*
X34513098Y26875225D01*
X34549155Y26955656D01*
X34618344Y27207432D01*
X34648289Y27466820D01*
X34638288Y27727738D01*
X34588575Y27984072D01*
X34508964Y28205732D01*
X34504830Y28275478D01*
X34539060Y28336389D01*
X34600787Y28369124D01*
X34625666Y28371645D01*
X34990223Y28371645D01*
X35027634Y28365867D01*
X35111395Y28339359D01*
X35369445Y28299500D01*
X36412558Y28299500D01*
X36424416Y28298932D01*
X36467331Y28294809D01*
X36545302Y28299296D01*
X36552424Y28299500D01*
X36562799Y28299500D01*
X36565177Y28299500D01*
X36613953Y28303245D01*
X36728010Y28309807D01*
X36735873Y28311490D01*
X36752311Y28313868D01*
X36760344Y28314484D01*
X36871637Y28340528D01*
X36931379Y28353306D01*
X36983337Y28364419D01*
X36983338Y28364420D01*
X36983345Y28364421D01*
X36990865Y28367287D01*
X37006748Y28372146D01*
X37014586Y28373979D01*
X37120593Y28416704D01*
X37227350Y28457371D01*
X37234343Y28461350D01*
X37249297Y28468577D01*
X37256766Y28471586D01*
X37355022Y28530001D01*
X37454307Y28586480D01*
X37460612Y28591481D01*
X37474278Y28600899D01*
X37481208Y28605018D01*
X37569390Y28677742D01*
X37658896Y28748720D01*
X37664360Y28754621D01*
X37676450Y28766034D01*
X37682652Y28771148D01*
X37758696Y28856477D01*
X37836321Y28940289D01*
X37840817Y28946951D01*
X37851020Y28960073D01*
X37856375Y28966080D01*
X37918507Y29062025D01*
X37982424Y29156697D01*
X37985852Y29163969D01*
X37993931Y29178492D01*
X37998306Y29185247D01*
X38045055Y29289531D01*
X38093781Y29392871D01*
X38096060Y29400587D01*
X38101828Y29416174D01*
X38105118Y29423511D01*
X38135397Y29533698D01*
X38167780Y29643276D01*
X38168854Y29651246D01*
X38172177Y29667539D01*
X38174307Y29675287D01*
X38187408Y29788774D01*
X38202689Y29902042D01*
X38202534Y29910095D01*
X38203329Y29926686D01*
X38204252Y29934675D01*
X38202177Y29988790D01*
X38199876Y30048826D01*
X38199181Y30085114D01*
X38197687Y30163104D01*
X38196305Y30171037D01*
X38194559Y30187553D01*
X38194251Y30195593D01*
X38172491Y30307789D01*
X38152892Y30420343D01*
X38150319Y30427963D01*
X38146072Y30444014D01*
X38144538Y30451927D01*
X38105907Y30559487D01*
X38069357Y30667730D01*
X38065649Y30674872D01*
X38059000Y30690091D01*
X38056279Y30697668D01*
X38001677Y30798078D01*
X37949035Y30899466D01*
X37944281Y30905956D01*
X37935389Y30919981D01*
X37931541Y30927057D01*
X37862251Y31017957D01*
X37794750Y31110120D01*
X37789065Y31115805D01*
X37778128Y31128316D01*
X37773248Y31134718D01*
X37715726Y31190078D01*
X37703101Y31204243D01*
X37701105Y31206862D01*
X37618765Y31286105D01*
X37618764Y31286106D01*
X37584203Y31320667D01*
X37574517Y31328972D01*
X37569278Y31333731D01*
X37512969Y31387923D01*
X37477699Y31412732D01*
X37468335Y31420013D01*
X37435604Y31448076D01*
X37369218Y31489284D01*
X37363289Y31493205D01*
X37299393Y31538148D01*
X37260768Y31557273D01*
X37250398Y31563041D01*
X37213761Y31585781D01*
X37213758Y31585783D01*
X37141877Y31616367D01*
X37135404Y31619344D01*
X37065401Y31654005D01*
X37024297Y31667013D01*
X37013163Y31671132D01*
X37011919Y31671661D01*
X36973493Y31688011D01*
X36897772Y31707268D01*
X36890927Y31709220D01*
X36816459Y31732787D01*
X36773849Y31739369D01*
X36762231Y31741738D01*
X36720437Y31752365D01*
X36720436Y31752366D01*
X36720429Y31752367D01*
X36642680Y31759837D01*
X36635613Y31760721D01*
X36558411Y31772645D01*
X36558410Y31772645D01*
X36515296Y31772645D01*
X36503438Y31773213D01*
X36460519Y31777337D01*
X36382547Y31772850D01*
X36375425Y31772645D01*
X34622727Y31772645D01*
X34555688Y31792330D01*
X34509933Y31845134D01*
X34499989Y31914292D01*
X34509577Y31947370D01*
X34521550Y31974078D01*
X34549155Y32035656D01*
X34618344Y32287432D01*
X34648289Y32546820D01*
X34638288Y32807738D01*
X34588575Y33064072D01*
X34500316Y33309813D01*
X34375578Y33539202D01*
X34375576Y33539206D01*
X34217287Y33746861D01*
X34029149Y33927925D01*
X33815583Y34078143D01*
X33581583Y34194005D01*
X33332645Y34272786D01*
X33150222Y34300963D01*
X33074592Y34312645D01*
X33074590Y34312645D01*
X30734657Y34312645D01*
X30718079Y34313758D01*
X30715965Y34314044D01*
X30710098Y34314835D01*
X30597820Y34312683D01*
X30595856Y34312645D01*
X30546968Y34312645D01*
X30544608Y34312464D01*
X30544585Y34312463D01*
X30534260Y34311670D01*
X30527148Y34311329D01*
X30449039Y34309833D01*
X30406562Y34302437D01*
X30394790Y34300963D01*
X30351800Y34297661D01*
X30275715Y34279858D01*
X30268739Y34278436D01*
X30191800Y34265037D01*
X30150958Y34251246D01*
X30139544Y34247991D01*
X30097554Y34238165D01*
X30025097Y34208964D01*
X30018420Y34206493D01*
X29944417Y34181504D01*
X29906147Y34161633D01*
X29895361Y34156674D01*
X29855378Y34140560D01*
X29788243Y34100648D01*
X29782020Y34097186D01*
X29712676Y34061180D01*
X29677895Y34035707D01*
X29667999Y34029163D01*
X29630941Y34007131D01*
X29570675Y33957430D01*
X29565053Y33953059D01*
X29502027Y33906897D01*
X29471533Y33876404D01*
X29462750Y33868425D01*
X29429492Y33840997D01*
X29377519Y33782680D01*
X29372629Y33777501D01*
X28336949Y32741819D01*
X28275626Y32708334D01*
X28249268Y32705500D01*
X26636395Y32705500D01*
X26569356Y32725185D01*
X26523601Y32777989D01*
X26512600Y32822376D01*
X26510705Y32855306D01*
X26510500Y32862430D01*
X26510500Y40691310D01*
X26530185Y40758349D01*
X26582989Y40804104D01*
X26652147Y40814048D01*
X26685224Y40804461D01*
X26773511Y40764882D01*
X27025287Y40695693D01*
X27284675Y40665748D01*
X27545593Y40675749D01*
X27801927Y40725462D01*
X28047668Y40813721D01*
X28277057Y40938459D01*
X28296105Y40952978D01*
X28484715Y41096749D01*
X28530355Y41144173D01*
X28591024Y41178828D01*
X28660799Y41175180D01*
X28702201Y41150762D01*
X28748471Y41109526D01*
X28856082Y41013623D01*
X29075247Y40871694D01*
X29313509Y40764882D01*
X29565283Y40695694D01*
X29565287Y40695693D01*
X29824675Y40665748D01*
X30085593Y40675749D01*
X30341927Y40725462D01*
X30587668Y40813721D01*
X30817057Y40938459D01*
X31024716Y41096750D01*
X31205778Y41284886D01*
X31205780Y41284889D01*
X31208292Y41287499D01*
X31268962Y41322153D01*
X31338737Y41318505D01*
X31388865Y41285498D01*
X31410256Y41262262D01*
X31475667Y41211350D01*
X31606485Y41109530D01*
X31606487Y41109529D01*
X31606491Y41109526D01*
X31825190Y40991172D01*
X32060386Y40910429D01*
X32305665Y40869500D01*
X32554335Y40869500D01*
X32799614Y40910429D01*
X33034810Y40991172D01*
X33253509Y41109526D01*
X33449744Y41262262D01*
X33608771Y41435012D01*
X33668657Y41471001D01*
X33738495Y41468901D01*
X33791228Y41435012D01*
X33950256Y41262262D01*
X34015667Y41211350D01*
X34146485Y41109530D01*
X34146487Y41109529D01*
X34146491Y41109526D01*
X34365190Y40991172D01*
X34600386Y40910429D01*
X34845665Y40869500D01*
X35094335Y40869500D01*
X35339614Y40910429D01*
X35574810Y40991172D01*
X35793509Y41109526D01*
X35989744Y41262262D01*
X36158164Y41445215D01*
X36294173Y41653393D01*
X36394063Y41881119D01*
X36455108Y42122179D01*
X36475643Y42370000D01*
X36469503Y42444103D01*
X36455109Y42617816D01*
X36449256Y42640930D01*
X36397562Y42845064D01*
X36400187Y42914880D01*
X36440143Y42972197D01*
X36504744Y42998814D01*
X36517768Y42999500D01*
X38296291Y42999500D01*
X38363330Y42979815D01*
G37*
%TD.AperFunction*%
%TA.AperFunction,Conductor*%
G36*
X50637694Y60279815D02*
G01*
X50658336Y60263181D01*
X53006497Y57915020D01*
X53015762Y57904653D01*
X53031337Y57885123D01*
X53052053Y57865901D01*
X53052055Y57865900D01*
X53087810Y57805871D01*
X53085435Y57736042D01*
X53052059Y57684106D01*
X53031336Y57664878D01*
X52983014Y57604285D01*
X52978643Y57599101D01*
X52925009Y57538918D01*
X52902939Y57504839D01*
X52895810Y57494935D01*
X52872429Y57465615D01*
X52832016Y57395617D01*
X52828711Y57390217D01*
X52783082Y57319756D01*
X52767834Y57285743D01*
X52762074Y57274474D01*
X52744996Y57244892D01*
X52744994Y57244888D01*
X52728424Y57202669D01*
X52714250Y57166555D01*
X52711973Y57161136D01*
X52676269Y57081490D01*
X52667275Y57048766D01*
X52663140Y57036333D01*
X52651878Y57007634D01*
X52632405Y56922325D01*
X52631083Y56917064D01*
X52607079Y56829711D01*
X52603569Y56799319D01*
X52601281Y56785961D01*
X52595164Y56759156D01*
X52588377Y56668588D01*
X52587906Y56663636D01*
X52577135Y56570325D01*
X52578178Y56543093D01*
X52577923Y56529086D01*
X52576118Y56504997D01*
X52583154Y56411113D01*
X52583410Y56406598D01*
X52587136Y56309403D01*
X52591688Y56285931D01*
X52593609Y56271595D01*
X52595164Y56250845D01*
X52608185Y56193796D01*
X52614410Y56166522D01*
X52616856Y56155808D01*
X52617694Y56151838D01*
X52636849Y56053073D01*
X52643804Y56033707D01*
X52647990Y56019397D01*
X52651878Y56002363D01*
X52688698Y55908549D01*
X52689971Y55905161D01*
X52725108Y55807331D01*
X52733345Y55792184D01*
X52739836Y55778254D01*
X52744994Y55765112D01*
X52797064Y55674923D01*
X52798611Y55672161D01*
X52849843Y55577946D01*
X52858268Y55566894D01*
X52867036Y55553727D01*
X52872429Y55544386D01*
X52939438Y55460359D01*
X52941107Y55458219D01*
X53008136Y55370285D01*
X53015741Y55362966D01*
X53026702Y55350935D01*
X53031338Y55345121D01*
X53052056Y55325898D01*
X53087811Y55265870D01*
X53085436Y55196041D01*
X53052056Y55144102D01*
X53031340Y55124881D01*
X53031336Y55124877D01*
X53031337Y55124877D01*
X52916273Y54980591D01*
X52872425Y54925608D01*
X52744995Y54704892D01*
X52651879Y54467638D01*
X52595164Y54219155D01*
X52576118Y53965000D01*
X52595164Y53710846D01*
X52651879Y53462363D01*
X52744995Y53225109D01*
X52862456Y53021660D01*
X52872428Y53004388D01*
X53031337Y52805123D01*
X53052055Y52785899D01*
X53087810Y52725871D01*
X53085435Y52656042D01*
X53052059Y52604106D01*
X53031336Y52584878D01*
X52983014Y52524285D01*
X52978643Y52519101D01*
X52925009Y52458918D01*
X52902939Y52424839D01*
X52895809Y52414933D01*
X52866987Y52378790D01*
X52809799Y52338649D01*
X52739987Y52335797D01*
X52679717Y52371142D01*
X52648306Y52432496D01*
X52644538Y52451927D01*
X52635888Y52476009D01*
X52631852Y52489665D01*
X52626021Y52514586D01*
X52590282Y52603259D01*
X52588608Y52607651D01*
X52556279Y52697668D01*
X52544046Y52720163D01*
X52537982Y52733025D01*
X52528414Y52756766D01*
X52479541Y52838972D01*
X52477230Y52843035D01*
X52431541Y52927057D01*
X52416022Y52947416D01*
X52408060Y52959211D01*
X52402108Y52969222D01*
X52394982Y52981208D01*
X52375866Y53004388D01*
X52334158Y53054963D01*
X52331207Y53058684D01*
X52273250Y53134716D01*
X52257489Y53149884D01*
X52254804Y53152468D01*
X52245125Y53162919D01*
X52228852Y53182652D01*
X52181212Y53225109D01*
X52157471Y53246267D01*
X52154015Y53249469D01*
X52085114Y53315778D01*
X52064179Y53330503D01*
X52053023Y53339351D01*
X52033917Y53356378D01*
X51953670Y53408345D01*
X51949733Y53411003D01*
X51871546Y53465998D01*
X51848611Y53477354D01*
X51836239Y53484392D01*
X51814753Y53498306D01*
X51814750Y53498308D01*
X51727506Y53537419D01*
X51723209Y53539445D01*
X51637549Y53581859D01*
X51613148Y53589581D01*
X51599841Y53594650D01*
X51576485Y53605120D01*
X51484312Y53630449D01*
X51479757Y53631795D01*
X51388605Y53660641D01*
X51363311Y53664549D01*
X51349392Y53667526D01*
X51324713Y53674307D01*
X51229757Y53685270D01*
X51225052Y53685905D01*
X51130556Y53700500D01*
X51130555Y53700500D01*
X51104961Y53700500D01*
X51090740Y53701318D01*
X51065324Y53704253D01*
X50972801Y53700706D01*
X50969811Y53700591D01*
X50965063Y53700500D01*
X26413706Y53700500D01*
X26346667Y53720185D01*
X26300912Y53772989D01*
X26289706Y53824500D01*
X26289706Y55872677D01*
X26289706Y55876000D01*
X26273582Y56025971D01*
X26262376Y56077482D01*
X26259813Y56088814D01*
X26201253Y56248492D01*
X26185678Y56271595D01*
X26126162Y56359878D01*
X26105009Y56426469D01*
X26123216Y56493924D01*
X26175002Y56540828D01*
X26243925Y56552289D01*
X26308103Y56524667D01*
X26320208Y56513177D01*
X26327735Y56505000D01*
X26330258Y56502260D01*
X26526485Y56349530D01*
X26526487Y56349529D01*
X26526491Y56349526D01*
X26745190Y56231172D01*
X26980386Y56150429D01*
X27225665Y56109500D01*
X27474335Y56109500D01*
X27719614Y56150429D01*
X27954810Y56231172D01*
X28173509Y56349526D01*
X28369744Y56502262D01*
X28528771Y56675012D01*
X28588657Y56711001D01*
X28658495Y56708901D01*
X28711228Y56675012D01*
X28870256Y56502262D01*
X28915680Y56466907D01*
X29066485Y56349530D01*
X29066487Y56349529D01*
X29066491Y56349526D01*
X29285190Y56231172D01*
X29520386Y56150429D01*
X29765665Y56109500D01*
X30014335Y56109500D01*
X30259614Y56150429D01*
X30494810Y56231172D01*
X30713509Y56349526D01*
X30909744Y56502262D01*
X31078164Y56685215D01*
X31214173Y56893393D01*
X31314063Y57121119D01*
X31375108Y57362179D01*
X31395643Y57610000D01*
X31395643Y57610001D01*
X33464356Y57610001D01*
X33484891Y57362184D01*
X33484891Y57362181D01*
X33484892Y57362179D01*
X33545937Y57121119D01*
X33577674Y57048766D01*
X33645825Y56893396D01*
X33645827Y56893393D01*
X33781836Y56685215D01*
X33950256Y56502262D01*
X33995680Y56466907D01*
X34146485Y56349530D01*
X34146487Y56349529D01*
X34146491Y56349526D01*
X34365190Y56231172D01*
X34600386Y56150429D01*
X34845665Y56109500D01*
X35094335Y56109500D01*
X35339614Y56150429D01*
X35574810Y56231172D01*
X35793509Y56349526D01*
X35989744Y56502262D01*
X36148771Y56675012D01*
X36208657Y56711001D01*
X36278495Y56708901D01*
X36331228Y56675012D01*
X36490256Y56502262D01*
X36535680Y56466907D01*
X36686485Y56349530D01*
X36686487Y56349529D01*
X36686491Y56349526D01*
X36905190Y56231172D01*
X37140386Y56150429D01*
X37385665Y56109500D01*
X37634335Y56109500D01*
X37879614Y56150429D01*
X38114810Y56231172D01*
X38333509Y56349526D01*
X38479310Y56463008D01*
X38544302Y56488650D01*
X38612842Y56475084D01*
X38661588Y56429304D01*
X38694528Y56374814D01*
X38814813Y56254529D01*
X38845246Y56236132D01*
X38960394Y56166522D01*
X39122804Y56115914D01*
X39193384Y56109500D01*
X39196203Y56109500D01*
X40903797Y56109500D01*
X40906616Y56109500D01*
X40977196Y56115914D01*
X41139606Y56166522D01*
X41285185Y56254528D01*
X41405472Y56374815D01*
X41493478Y56520394D01*
X41544086Y56682804D01*
X41550500Y56753384D01*
X41550500Y58466616D01*
X41544086Y58537196D01*
X41493478Y58699606D01*
X41405472Y58845185D01*
X41405471Y58845187D01*
X41285186Y58965472D01*
X41197179Y59018674D01*
X41139606Y59053478D01*
X40977196Y59104086D01*
X40977193Y59104087D01*
X40909424Y59110245D01*
X40909420Y59110246D01*
X40906616Y59110500D01*
X39193384Y59110500D01*
X39190580Y59110246D01*
X39190575Y59110245D01*
X39122806Y59104087D01*
X39041598Y59078783D01*
X38960394Y59053478D01*
X38960392Y59053478D01*
X38960392Y59053477D01*
X38814813Y58965472D01*
X38694527Y58845186D01*
X38661587Y58790696D01*
X38610059Y58743509D01*
X38541200Y58731671D01*
X38479309Y58756993D01*
X38333509Y58870474D01*
X38114810Y58988828D01*
X38114806Y58988830D01*
X38114805Y58988830D01*
X37879615Y59069571D01*
X37634335Y59110500D01*
X37385665Y59110500D01*
X37140384Y59069571D01*
X36905194Y58988830D01*
X36905190Y58988829D01*
X36905190Y58988828D01*
X36862032Y58965472D01*
X36686485Y58870471D01*
X36490259Y58717741D01*
X36490256Y58717739D01*
X36490256Y58717738D01*
X36470190Y58695940D01*
X36331230Y58544990D01*
X36271343Y58508999D01*
X36201504Y58511100D01*
X36148770Y58544990D01*
X36084861Y58614413D01*
X35989744Y58717738D01*
X35957652Y58742716D01*
X35793514Y58870471D01*
X35793510Y58870474D01*
X35793509Y58870474D01*
X35574810Y58988828D01*
X35574806Y58988830D01*
X35574805Y58988830D01*
X35339615Y59069571D01*
X35094335Y59110500D01*
X34845665Y59110500D01*
X34600384Y59069571D01*
X34365194Y58988830D01*
X34365190Y58988829D01*
X34365190Y58988828D01*
X34322032Y58965472D01*
X34146485Y58870471D01*
X33950259Y58717741D01*
X33950256Y58717739D01*
X33950256Y58717738D01*
X33784054Y58537194D01*
X33781837Y58534786D01*
X33645825Y58326605D01*
X33560035Y58131022D01*
X33545937Y58098881D01*
X33525617Y58018638D01*
X33484891Y57857817D01*
X33464356Y57610001D01*
X31395643Y57610001D01*
X31375108Y57857821D01*
X31314063Y58098881D01*
X31214173Y58326607D01*
X31078164Y58534785D01*
X30909744Y58717738D01*
X30877652Y58742716D01*
X30713514Y58870471D01*
X30713510Y58870474D01*
X30713509Y58870474D01*
X30494810Y58988828D01*
X30494806Y58988830D01*
X30494805Y58988830D01*
X30259615Y59069571D01*
X30014335Y59110500D01*
X29765665Y59110500D01*
X29520384Y59069571D01*
X29285194Y58988830D01*
X29285190Y58988829D01*
X29285190Y58988828D01*
X29242032Y58965472D01*
X29066485Y58870471D01*
X28870259Y58717741D01*
X28870256Y58717739D01*
X28870256Y58717738D01*
X28850190Y58695940D01*
X28711230Y58544990D01*
X28651343Y58508999D01*
X28581504Y58511100D01*
X28528770Y58544990D01*
X28464861Y58614413D01*
X28369744Y58717738D01*
X28337652Y58742716D01*
X28173514Y58870471D01*
X28173510Y58870474D01*
X28173509Y58870474D01*
X27954810Y58988828D01*
X27954806Y58988830D01*
X27954805Y58988830D01*
X27719615Y59069571D01*
X27474335Y59110500D01*
X27225665Y59110500D01*
X26980384Y59069571D01*
X26745194Y58988830D01*
X26745190Y58988829D01*
X26745190Y58988828D01*
X26702032Y58965472D01*
X26526485Y58870471D01*
X26330259Y58717741D01*
X26330256Y58717739D01*
X26330256Y58717738D01*
X26310190Y58695940D01*
X26171230Y58544990D01*
X26111343Y58508999D01*
X26041504Y58511100D01*
X25988770Y58544990D01*
X25924861Y58614413D01*
X25829744Y58717738D01*
X25797652Y58742716D01*
X25633514Y58870471D01*
X25633510Y58870474D01*
X25633509Y58870474D01*
X25414810Y58988828D01*
X25414806Y58988830D01*
X25414805Y58988830D01*
X25179615Y59069571D01*
X24934335Y59110500D01*
X24685665Y59110500D01*
X24440384Y59069571D01*
X24205194Y58988830D01*
X24205190Y58988829D01*
X24205190Y58988828D01*
X24162032Y58965472D01*
X23986485Y58870471D01*
X23790255Y58717739D01*
X23765504Y58690851D01*
X23705617Y58654860D01*
X23635779Y58656961D01*
X23578610Y58695940D01*
X23498851Y58792654D01*
X23303917Y58966378D01*
X23084752Y59108307D01*
X22846490Y59215119D01*
X22594716Y59284307D01*
X22335324Y59314253D01*
X22083696Y59304608D01*
X22074407Y59304251D01*
X21818073Y59254538D01*
X21818071Y59254538D01*
X21818069Y59254537D01*
X21572335Y59166281D01*
X21342939Y59041540D01*
X21135283Y58883250D01*
X21089642Y58835826D01*
X21028971Y58801173D01*
X20959197Y58804822D01*
X20917797Y58829240D01*
X20899905Y58845185D01*
X20857193Y58883250D01*
X20763917Y58966378D01*
X20544752Y59108307D01*
X20306490Y59215119D01*
X20054716Y59284307D01*
X19795324Y59314253D01*
X19543696Y59304608D01*
X19534407Y59304251D01*
X19431570Y59284307D01*
X19278072Y59254538D01*
X19056413Y59174928D01*
X18986666Y59170794D01*
X18925756Y59205025D01*
X18893021Y59266752D01*
X18890500Y59291630D01*
X18890500Y60175500D01*
X18910185Y60242539D01*
X18962989Y60288294D01*
X19014500Y60299500D01*
X50570655Y60299500D01*
X50637694Y60279815D01*
G37*
%TD.AperFunction*%
%TD*%
%TA.AperFunction,Conductor*%
%TO.N,SERVO2*%
G36*
X20527245Y55980315D02*
G01*
X20573000Y55927511D01*
X20584206Y55876000D01*
X20584206Y53686638D01*
X20564521Y53619599D01*
X20511717Y53573844D01*
X20460206Y53562638D01*
X17124000Y53562638D01*
X17056961Y53582323D01*
X17011206Y53635127D01*
X17000000Y53686638D01*
X17000000Y55876000D01*
X17019685Y55943039D01*
X17072489Y55988794D01*
X17124000Y56000000D01*
X20460206Y56000000D01*
X20527245Y55980315D01*
G37*
%TD.AperFunction*%
%TD*%
%TA.AperFunction,Conductor*%
%TO.N,SERVO1*%
G36*
X25527245Y55980315D02*
G01*
X25573000Y55927511D01*
X25584206Y55876000D01*
X25584206Y53686638D01*
X25564521Y53619599D01*
X25511717Y53573844D01*
X25460206Y53562638D01*
X22124000Y53562638D01*
X22056961Y53582323D01*
X22011206Y53635127D01*
X22000000Y53686638D01*
X22000000Y55876000D01*
X22019685Y55943039D01*
X22072489Y55988794D01*
X22124000Y56000000D01*
X25460206Y56000000D01*
X25527245Y55980315D01*
G37*
%TD.AperFunction*%
%TD*%
%TA.AperFunction,Conductor*%
%TO.N,M2OUT2*%
G36*
X9769046Y12980315D02*
G01*
X9814801Y12927511D01*
X9824745Y12858353D01*
X9814388Y12823594D01*
X9809579Y12813282D01*
X9752424Y12599979D01*
X9733178Y12380000D01*
X9752424Y12160022D01*
X9809579Y11946719D01*
X9902898Y11746594D01*
X9948258Y11681813D01*
X10615096Y12348651D01*
X10615051Y12348102D01*
X10646266Y12224838D01*
X10715813Y12118388D01*
X10816157Y12040287D01*
X10936422Y11999000D01*
X10972553Y11999000D01*
X10301812Y11328260D01*
X10366593Y11282899D01*
X10566718Y11189580D01*
X10780021Y11132425D01*
X10999999Y11113179D01*
X11219978Y11132425D01*
X11433281Y11189580D01*
X11633408Y11282900D01*
X11698187Y11328260D01*
X11027448Y11999000D01*
X11031569Y11999000D01*
X11125421Y12014661D01*
X11237251Y12075180D01*
X11323371Y12168731D01*
X11374448Y12285177D01*
X11380105Y12353449D01*
X12051740Y11681814D01*
X12097100Y11746592D01*
X12190420Y11946719D01*
X12247575Y12160022D01*
X12266821Y12380000D01*
X12247575Y12599979D01*
X12190420Y12813282D01*
X12185612Y12823594D01*
X12175119Y12892671D01*
X12203638Y12956455D01*
X12262114Y12994696D01*
X12297993Y13000000D01*
X12876000Y13000000D01*
X12943039Y12980315D01*
X12988794Y12927511D01*
X13000000Y12876000D01*
X13000000Y7124000D01*
X12980315Y7056961D01*
X12927511Y7011206D01*
X12876000Y7000000D01*
X7124000Y7000000D01*
X7056961Y7019685D01*
X7011206Y7072489D01*
X7000000Y7124000D01*
X7000000Y12876000D01*
X7019685Y12943039D01*
X7072489Y12988794D01*
X7124000Y13000000D01*
X9702007Y13000000D01*
X9769046Y12980315D01*
G37*
%TD.AperFunction*%
%TD*%
%TA.AperFunction,Conductor*%
%TO.N,M1OUT1*%
G36*
X30943039Y31980315D02*
G01*
X30988794Y31927511D01*
X31000000Y31876000D01*
X31000000Y28825555D01*
X30980315Y28758516D01*
X30943826Y28721749D01*
X30941619Y28720308D01*
X30874854Y28658846D01*
X30871020Y28655460D01*
X30849281Y28637047D01*
X30847466Y28635234D01*
X30847468Y28635234D01*
X30829145Y28616912D01*
X30825452Y28613370D01*
X30758669Y28551891D01*
X30744239Y28533352D01*
X30734071Y28521839D01*
X29654343Y27442111D01*
X29642830Y27431943D01*
X29624291Y27417513D01*
X29562812Y27350730D01*
X29559270Y27347037D01*
X29539135Y27326901D01*
X29537474Y27324941D01*
X29537474Y27324940D01*
X29520726Y27305166D01*
X29517336Y27301328D01*
X29455872Y27234560D01*
X29443032Y27214907D01*
X29433850Y27202592D01*
X29418673Y27184673D01*
X29372211Y27106701D01*
X29369499Y27102358D01*
X29319863Y27026383D01*
X29310433Y27004884D01*
X29303405Y26991230D01*
X29291380Y26971049D01*
X29258383Y26886487D01*
X29256423Y26881755D01*
X29219973Y26798655D01*
X29214206Y26775885D01*
X29209521Y26761260D01*
X29200988Y26739390D01*
X29182361Y26650564D01*
X29181207Y26645575D01*
X29158928Y26557595D01*
X29156989Y26534197D01*
X29154775Y26518998D01*
X29149956Y26496013D01*
X29146205Y26405335D01*
X29145888Y26400224D01*
X29143747Y26374385D01*
X29143746Y26374369D01*
X29143537Y26371842D01*
X29143537Y26369290D01*
X29143537Y26369289D01*
X29143537Y26343373D01*
X29143431Y26338248D01*
X29139679Y26247556D01*
X29142585Y26224249D01*
X29143537Y26208911D01*
X29143537Y26124000D01*
X29123852Y26056961D01*
X29071048Y26011206D01*
X29019537Y26000000D01*
X25124000Y26000000D01*
X25056961Y26019685D01*
X25011206Y26072489D01*
X25000000Y26124000D01*
X25000000Y30826611D01*
X25019685Y30893650D01*
X25036319Y30914292D01*
X25799701Y31677675D01*
X25811203Y31687833D01*
X25829744Y31702262D01*
X25891235Y31769061D01*
X25894714Y31772687D01*
X25914902Y31792874D01*
X25933315Y31814617D01*
X25936701Y31818449D01*
X25998160Y31885211D01*
X25998164Y31885215D01*
X26011006Y31904874D01*
X26020188Y31917187D01*
X26035366Y31935106D01*
X26037968Y31939473D01*
X26089192Y31986986D01*
X26144491Y32000000D01*
X30876000Y32000000D01*
X30943039Y31980315D01*
G37*
%TD.AperFunction*%
%TD*%
%TA.AperFunction,Conductor*%
%TO.N,M2OUT1*%
G36*
X9499137Y34206297D02*
G01*
X9544892Y34153493D01*
X9556098Y34101982D01*
X9556098Y30595950D01*
X9549380Y30555688D01*
X9540428Y30529613D01*
X9499499Y30284335D01*
X9499500Y30284335D01*
X9499500Y30035665D01*
X9540429Y29790386D01*
X9549379Y29764314D01*
X9556098Y29724053D01*
X9556098Y29172486D01*
X9536413Y29105447D01*
X9483609Y29059692D01*
X9477163Y29056965D01*
X9470880Y29054514D01*
X9456260Y29049831D01*
X9433490Y29044064D01*
X9350390Y29007614D01*
X9345658Y29005654D01*
X9261096Y28972657D01*
X9240915Y28960632D01*
X9227261Y28953604D01*
X9205762Y28944174D01*
X9129787Y28894538D01*
X9125444Y28891826D01*
X9047472Y28845364D01*
X9029553Y28830187D01*
X9017238Y28821005D01*
X8997585Y28808165D01*
X8930817Y28746701D01*
X8926983Y28743315D01*
X8905244Y28724902D01*
X8903429Y28723089D01*
X8903431Y28723089D01*
X8885108Y28704767D01*
X8881415Y28701225D01*
X8814632Y28639746D01*
X8800202Y28621207D01*
X8790034Y28609694D01*
X8442642Y28262301D01*
X8381319Y28228816D01*
X8354961Y28225982D01*
X3680098Y28225982D01*
X3613059Y28245667D01*
X3567304Y28298471D01*
X3556098Y28349982D01*
X3556098Y34101982D01*
X3575783Y34169021D01*
X3628587Y34214776D01*
X3680098Y34225982D01*
X9432098Y34225982D01*
X9499137Y34206297D01*
G37*
%TD.AperFunction*%
%TD*%
M02*
