M48
; DRILL file {KiCad 7.0.2} date Tue Jul  9 15:01:05 2024
; FORMAT={-:-/ absolute / inch / decimal}
; #@! TF.CreationDate,2024-07-09T15:01:05+09:00
; #@! TF.GenerationSoftware,Kicad,Pcbnew,7.0.2
; #@! TF.FileFunction,Plated,1,2,PTH
FMAT,2
INCH
; #@! TA.AperFunction,Plated,PTH,ViaDrill
T1C0.0157
; #@! TA.AperFunction,Plated,PTH,ComponentDrill
T2C0.0300
; #@! TA.AperFunction,Plated,PTH,ComponentDrill
T3C0.0315
; #@! TA.AperFunction,Plated,PTH,ComponentDrill
T4C0.0354
; #@! TA.AperFunction,Plated,PTH,ComponentDrill
T5C0.0394
; #@! TA.AperFunction,Plated,PTH,ComponentDrill
T6C0.0433
%
G90
G05
T1
X0.73Y2.1531
X0.9301Y2.1531
X1.4292Y0.6299
X1.4567Y1.4961
X1.4961Y0.2756
X1.5354Y1.3386
X1.6535Y0.6693
X2.0079Y0.9449
X2.1841Y0.2756
T2
X0.4331Y1.3874
X0.4331Y1.2874
X0.4331Y1.1874
X0.4331Y1.0874
X0.4331Y0.9874
X0.4331Y0.8874
X0.4331Y0.7874
X0.4331Y0.6874
X0.4331Y0.5874
X0.4331Y0.4874
X1.297Y1.3839
X1.297Y1.2839
X1.297Y1.1839
X1.297Y1.0839
X1.297Y0.9839
X1.297Y0.8839
X1.297Y0.7839
X1.297Y0.6839
X1.297Y0.5839
X1.297Y0.4839
T3
X0.2756Y1.5354
X0.2756Y1.437
X0.5906Y1.378
X0.5906Y1.2795
X0.6496Y0.5512
X0.748Y0.5512
X1.0236Y0.5906
X1.122Y0.5906
X1.437Y1.1811
X1.5354Y1.1811
X1.7904Y0.6496
X1.8888Y0.6496
X1.9291Y0.8858
X1.9291Y0.7874
X2.0704Y1.33
X2.0704Y1.2316
X2.3588Y0.7052
X2.3588Y0.4052
X2.3615Y1.4417
X2.3615Y1.1417
X2.5163Y0.7126
X2.5163Y0.6142
X2.5977Y1.552
X2.5977Y1.252
X2.8214Y0.5084
X2.8214Y0.4099
X2.8733Y1.4417
X2.8733Y1.1417
T4
X2.1371Y2.3246
X2.1371Y2.2246
X2.1371Y2.1246
X2.1371Y2.0246
X2.1371Y1.9246
X2.1371Y1.8246
X2.1371Y1.7246
X2.1371Y1.6246
X2.1371Y1.5246
X2.1371Y1.4246
X3.1371Y2.3246
X3.1371Y2.2246
X3.1371Y2.1246
X3.1371Y2.0246
X3.1371Y1.9246
X3.1371Y1.8246
X3.1371Y1.7246
X3.1371Y1.6246
X3.1371Y1.5246
X3.1371Y1.4246
X3.3646Y0.7087
X3.3684Y0.9662
X3.3725Y1.2127
X3.4646Y0.7087
X3.4684Y0.9662
X3.4725Y1.2127
T5
X0.1768Y2.2681
X0.1768Y1.6681
X0.2768Y2.2681
X0.2768Y1.6681
X0.3768Y2.2681
X0.3768Y1.6681
X0.4768Y2.2681
X0.4768Y1.6681
X0.5768Y2.2681
X0.5768Y1.6681
X0.6768Y2.2681
X0.6768Y1.6681
X0.7768Y2.2681
X0.7768Y1.6681
X0.8768Y2.2681
X0.8768Y1.6681
X0.9768Y2.2681
X0.9768Y1.6681
X1.0768Y2.2681
X1.0768Y1.6681
X1.1768Y2.2681
X1.1768Y1.6681
X1.2768Y2.2681
X1.2768Y1.6681
X1.3768Y2.2681
X1.3768Y1.6681
X1.4768Y2.2681
X1.4768Y1.6681
X1.5768Y2.2681
X1.5768Y1.6681
X1.7872Y0.2756
X1.8872Y0.2756
X1.9872Y0.2756
X2.3809Y0.2756
X2.4809Y0.2756
X2.5809Y0.2756
T6
X2.162Y0.6733
X2.162Y0.5733
X2.162Y0.4733
T0
M30
