%TF.GenerationSoftware,KiCad,Pcbnew,7.0.2*%
%TF.CreationDate,2024-07-09T15:01:01+09:00*%
%TF.ProjectId,____,4b734b28-2e6b-4696-9361-645f70636258,rev?*%
%TF.SameCoordinates,PX4e33880PY7bfa480*%
%TF.FileFunction,Soldermask,Top*%
%TF.FilePolarity,Negative*%
%FSLAX46Y46*%
G04 Gerber Fmt 4.6, Leading zero omitted, Abs format (unit mm)*
G04 Created by KiCad (PCBNEW 7.0.2) date 2024-07-09 15:01:01*
%MOMM*%
%LPD*%
G01*
G04 APERTURE LIST*
%ADD10C,1.600000*%
%ADD11O,1.600000X1.600000*%
%ADD12C,1.524000*%
%ADD13R,1.600000X1.600000*%
%ADD14C,3.200000*%
%ADD15R,1.700000X1.700000*%
%ADD16O,1.700000X1.700000*%
%ADD17R,1.800000X1.800000*%
%ADD18C,1.800000*%
%ADD19R,2.000000X1.905000*%
%ADD20O,2.000000X1.905000*%
%ADD21C,2.000000*%
G04 APERTURE END LIST*
D10*
%TO.C,R2*%
X72981387Y29000000D03*
D11*
X72981387Y36620000D03*
%TD*%
D12*
%TO.C,MD2*%
X11000000Y35240000D03*
X11000000Y32700000D03*
X11000000Y30160000D03*
X11000000Y27620000D03*
X11000000Y25080000D03*
X11000000Y22540000D03*
X11000000Y20000000D03*
X11000000Y17460000D03*
X11000000Y14920000D03*
X11000000Y12380000D03*
%TD*%
D13*
%TO.C,A1*%
X40050000Y57610000D03*
D11*
X37510000Y57610000D03*
X34970000Y57610000D03*
X32430000Y57610000D03*
X29890000Y57610000D03*
X27350000Y57610000D03*
X24810000Y57610000D03*
X22270000Y57610000D03*
X19730000Y57610000D03*
X17190000Y57610000D03*
X14650000Y57610000D03*
X12110000Y57610000D03*
X9570000Y57610000D03*
X7030000Y57610000D03*
X4490000Y57610000D03*
X4490000Y42370000D03*
X7030000Y42370000D03*
X9570000Y42370000D03*
X12110000Y42370000D03*
X14650000Y42370000D03*
X17190000Y42370000D03*
X19730000Y42370000D03*
X22270000Y42370000D03*
X24810000Y42370000D03*
X27350000Y42370000D03*
X29890000Y42370000D03*
X32430000Y42370000D03*
X34970000Y42370000D03*
X37510000Y42370000D03*
X40050000Y42370000D03*
%TD*%
D10*
%TO.C,C7*%
X36500000Y30000000D03*
X39000000Y30000000D03*
%TD*%
%TO.C,R3*%
X65981387Y31800000D03*
D11*
X65981387Y39420000D03*
%TD*%
D10*
%TO.C,C3*%
X71664332Y12912610D03*
X71664332Y10412610D03*
%TD*%
%TO.C,C8*%
X28500000Y15000000D03*
X26000000Y15000000D03*
%TD*%
D14*
%TO.C,H2*%
X4000000Y4000000D03*
%TD*%
D10*
%TO.C,C4*%
X45475000Y16500000D03*
X47975000Y16500000D03*
%TD*%
%TO.C,C6*%
X63913960Y18101040D03*
X63913960Y15601040D03*
%TD*%
D15*
%TO.C,J3*%
X60475000Y7000000D03*
D16*
X63015000Y7000000D03*
X65555000Y7000000D03*
%TD*%
D10*
%TO.C,C10*%
X16500000Y14000000D03*
X19000000Y14000000D03*
%TD*%
D14*
%TO.C,H1*%
X4000000Y66000000D03*
%TD*%
D10*
%TO.C,C1*%
X7000000Y39000000D03*
X7000000Y36500000D03*
%TD*%
D14*
%TO.C,H3*%
X86000000Y4000000D03*
%TD*%
D15*
%TO.C,J4*%
X45395000Y7000000D03*
D16*
X47935000Y7000000D03*
X50475000Y7000000D03*
%TD*%
D10*
%TO.C,C2*%
X52588652Y33782080D03*
X52588652Y31282080D03*
%TD*%
%TO.C,R1*%
X59981387Y29000000D03*
D11*
X59981387Y36620000D03*
%TD*%
D17*
%TO.C,D2*%
X88202161Y30803543D03*
D18*
X85662161Y30803543D03*
%TD*%
D13*
%TO.C,D4*%
X59913960Y10291040D03*
D11*
X59913960Y17911040D03*
%TD*%
D10*
%TO.C,C9*%
X15000000Y32500000D03*
X15000000Y35000000D03*
%TD*%
D19*
%TO.C,U2*%
X54913960Y12021040D03*
D20*
X54913960Y14561040D03*
X54913960Y17101040D03*
%TD*%
D17*
%TO.C,D3*%
X88097255Y24542250D03*
D18*
X85557255Y24542250D03*
%TD*%
D14*
%TO.C,H4*%
X86000000Y66000000D03*
%TD*%
D21*
%TO.C,U1*%
X54281387Y59045000D03*
X79681387Y59045000D03*
X54281387Y56505000D03*
X79681387Y56505000D03*
X54281387Y53965000D03*
X79681387Y53965000D03*
X54281387Y51425000D03*
X79681387Y51425000D03*
X54281387Y48885000D03*
X79681387Y48885000D03*
X54281387Y46345000D03*
X79681387Y46345000D03*
X54281387Y43805000D03*
X79681387Y43805000D03*
X54281387Y41265000D03*
X79681387Y41265000D03*
X54281387Y38725000D03*
X79681387Y38725000D03*
X54281387Y36185000D03*
X79681387Y36185000D03*
%TD*%
D10*
%TO.C,C5*%
X49000000Y20000000D03*
X49000000Y22500000D03*
%TD*%
D17*
%TO.C,D1*%
X88000000Y18000000D03*
D18*
X85460000Y18000000D03*
%TD*%
D12*
%TO.C,MD1*%
X32944037Y35152145D03*
X32944037Y32612145D03*
X32944037Y30072145D03*
X32944037Y27532145D03*
X32944037Y24992145D03*
X32944037Y22452145D03*
X32944037Y19912145D03*
X32944037Y17372145D03*
X32944037Y14832145D03*
X32944037Y12292145D03*
%TD*%
M02*
